%TF.GenerationSoftware,KiCad,Pcbnew,8.0.9-8.0.9-0~ubuntu24.04.1*%
%TF.CreationDate,2025-02-26T00:10:32+00:00*%
%TF.ProjectId,nav-module,6e61762d-6d6f-4647-956c-652e6b696361,1.0.0*%
%TF.SameCoordinates,Original*%
%TF.FileFunction,Soldermask,Top*%
%TF.FilePolarity,Negative*%
%FSLAX46Y46*%
G04 Gerber Fmt 4.6, Leading zero omitted, Abs format (unit mm)*
G04 Created by KiCad (PCBNEW 8.0.9-8.0.9-0~ubuntu24.04.1) date 2025-02-26 00:10:32*
%MOMM*%
%LPD*%
G01*
G04 APERTURE LIST*
G04 Aperture macros list*
%AMRoundRect*
0 Rectangle with rounded corners*
0 $1 Rounding radius*
0 $2 $3 $4 $5 $6 $7 $8 $9 X,Y pos of 4 corners*
0 Add a 4 corners polygon primitive as box body*
4,1,4,$2,$3,$4,$5,$6,$7,$8,$9,$2,$3,0*
0 Add four circle primitives for the rounded corners*
1,1,$1+$1,$2,$3*
1,1,$1+$1,$4,$5*
1,1,$1+$1,$6,$7*
1,1,$1+$1,$8,$9*
0 Add four rect primitives between the rounded corners*
20,1,$1+$1,$2,$3,$4,$5,0*
20,1,$1+$1,$4,$5,$6,$7,0*
20,1,$1+$1,$6,$7,$8,$9,0*
20,1,$1+$1,$8,$9,$2,$3,0*%
%AMFreePoly0*
4,1,6,1.000000,0.000000,0.500000,-0.750000,-0.500000,-0.750000,-0.500000,0.750000,0.500000,0.750000,1.000000,0.000000,1.000000,0.000000,$1*%
%AMFreePoly1*
4,1,6,0.500000,-0.750000,-0.650000,-0.750000,-0.150000,0.000000,-0.650000,0.750000,0.500000,0.750000,0.500000,-0.750000,0.500000,-0.750000,$1*%
G04 Aperture macros list end*
%ADD10C,0.500000*%
%ADD11RoundRect,0.250000X0.650000X0.250000X-0.650000X0.250000X-0.650000X-0.250000X0.650000X-0.250000X0*%
%ADD12R,0.350000X0.500000*%
%ADD13RoundRect,0.250001X0.999999X-0.499999X0.999999X0.499999X-0.999999X0.499999X-0.999999X-0.499999X0*%
%ADD14FreePoly0,0.000000*%
%ADD15FreePoly1,0.000000*%
%ADD16C,1.000000*%
%ADD17RoundRect,0.159000X0.159000X0.189000X-0.159000X0.189000X-0.159000X-0.189000X0.159000X-0.189000X0*%
%ADD18RoundRect,0.159000X-0.189000X0.159000X-0.189000X-0.159000X0.189000X-0.159000X0.189000X0.159000X0*%
%ADD19C,1.600000*%
%ADD20RoundRect,0.147500X0.147500X0.172500X-0.147500X0.172500X-0.147500X-0.172500X0.147500X-0.172500X0*%
%ADD21RoundRect,0.150000X0.587500X0.150000X-0.587500X0.150000X-0.587500X-0.150000X0.587500X-0.150000X0*%
%ADD22RoundRect,0.159000X0.189000X-0.159000X0.189000X0.159000X-0.189000X0.159000X-0.189000X-0.159000X0*%
%ADD23RoundRect,0.159000X-0.159000X-0.189000X0.159000X-0.189000X0.159000X0.189000X-0.159000X0.189000X0*%
%ADD24RoundRect,0.239000X0.239000X0.274000X-0.239000X0.274000X-0.239000X-0.274000X0.239000X-0.274000X0*%
%ADD25RoundRect,0.239000X0.274000X-0.239000X0.274000X0.239000X-0.274000X0.239000X-0.274000X-0.239000X0*%
%ADD26RoundRect,0.244000X-0.394000X0.244000X-0.394000X-0.244000X0.394000X-0.244000X0.394000X0.244000X0*%
%ADD27RoundRect,0.220000X0.220000X0.255000X-0.220000X0.255000X-0.220000X-0.255000X0.220000X-0.255000X0*%
%ADD28RoundRect,0.244000X-0.269000X0.244000X-0.269000X-0.244000X0.269000X-0.244000X0.269000X0.244000X0*%
%ADD29R,0.663000X0.225000*%
%ADD30R,0.563000X0.225000*%
%ADD31R,0.225000X0.563000*%
%ADD32RoundRect,0.150000X-0.512500X-0.150000X0.512500X-0.150000X0.512500X0.150000X-0.512500X0.150000X0*%
%ADD33RoundRect,0.150000X-0.587500X-0.150000X0.587500X-0.150000X0.587500X0.150000X-0.587500X0.150000X0*%
%ADD34RoundRect,0.200100X-0.949900X-0.949900X0.949900X-0.949900X0.949900X0.949900X-0.949900X0.949900X0*%
%ADD35C,2.500000*%
%ADD36RoundRect,0.239000X-0.274000X0.239000X-0.274000X-0.239000X0.274000X-0.239000X0.274000X0.239000X0*%
%ADD37RoundRect,0.244000X0.244000X0.269000X-0.244000X0.269000X-0.244000X-0.269000X0.244000X-0.269000X0*%
%ADD38RoundRect,0.250000X0.450000X0.350000X-0.450000X0.350000X-0.450000X-0.350000X0.450000X-0.350000X0*%
%ADD39RoundRect,0.075000X-0.075000X0.662500X-0.075000X-0.662500X0.075000X-0.662500X0.075000X0.662500X0*%
%ADD40RoundRect,0.075000X-0.662500X0.075000X-0.662500X-0.075000X0.662500X-0.075000X0.662500X0.075000X0*%
%ADD41RoundRect,0.075000X-0.075000X0.725000X-0.075000X-0.725000X0.075000X-0.725000X0.075000X0.725000X0*%
%ADD42RoundRect,0.075000X-0.725000X0.075000X-0.725000X-0.075000X0.725000X-0.075000X0.725000X0.075000X0*%
%ADD43RoundRect,0.239000X-0.239000X-0.274000X0.239000X-0.274000X0.239000X0.274000X-0.239000X0.274000X0*%
%ADD44C,0.650000*%
%ADD45RoundRect,0.150000X0.150000X0.425000X-0.150000X0.425000X-0.150000X-0.425000X0.150000X-0.425000X0*%
%ADD46RoundRect,0.075000X0.075000X0.500000X-0.075000X0.500000X-0.075000X-0.500000X0.075000X-0.500000X0*%
%ADD47O,1.000000X2.100000*%
%ADD48O,1.000000X1.800000*%
%ADD49RoundRect,0.244000X-0.244000X-0.269000X0.244000X-0.269000X0.244000X0.269000X-0.244000X0.269000X0*%
%ADD50R,3.600000X2.600000*%
%ADD51C,2.850000*%
%ADD52RoundRect,0.249999X0.525001X0.525001X-0.525001X0.525001X-0.525001X-0.525001X0.525001X-0.525001X0*%
%ADD53C,1.550000*%
%ADD54RoundRect,0.220000X-0.220000X-0.255000X0.220000X-0.255000X0.220000X0.255000X-0.220000X0.255000X0*%
%ADD55C,1.300000*%
%ADD56C,2.286000*%
%ADD57RoundRect,0.075000X-0.075000X0.350000X-0.075000X-0.350000X0.075000X-0.350000X0.075000X0.350000X0*%
%ADD58R,2.400000X1.600000*%
%ADD59RoundRect,0.250000X0.250000X-0.650000X0.250000X0.650000X-0.250000X0.650000X-0.250000X-0.650000X0*%
%ADD60RoundRect,0.159000X0.246073X0.021213X0.021213X0.246073X-0.246073X-0.021213X-0.021213X-0.246073X0*%
%ADD61R,0.800000X1.500000*%
%ADD62R,1.500000X0.800000*%
%ADD63R,1.100000X1.100000*%
%ADD64R,1.400000X1.200000*%
%ADD65RoundRect,0.244000X0.269000X-0.244000X0.269000X0.244000X-0.269000X0.244000X-0.269000X-0.244000X0*%
%ADD66O,0.630000X2.250000*%
%ADD67RoundRect,0.250001X-0.499999X-0.999999X0.499999X-0.999999X0.499999X0.999999X-0.499999X0.999999X0*%
%ADD68RoundRect,0.062500X-0.062500X0.350000X-0.062500X-0.350000X0.062500X-0.350000X0.062500X0.350000X0*%
%ADD69RoundRect,0.062500X-0.350000X0.062500X-0.350000X-0.062500X0.350000X-0.062500X0.350000X0.062500X0*%
%ADD70R,1.700000X1.700000*%
%ADD71R,0.675000X0.254000*%
%ADD72R,0.254000X0.675000*%
%ADD73RoundRect,0.125000X0.345000X0.125000X-0.345000X0.125000X-0.345000X-0.125000X0.345000X-0.125000X0*%
%ADD74RoundRect,0.150000X-0.150000X0.512500X-0.150000X-0.512500X0.150000X-0.512500X0.150000X0.512500X0*%
G04 APERTURE END LIST*
D10*
X114500000Y-128625000D02*
X95300000Y-128625000D01*
X95300000Y-133425000D02*
X95300000Y-128625000D01*
X103700000Y-133425000D02*
X103700000Y-128625000D01*
D11*
%TO.C,X1200*%
X109930000Y-89685000D03*
X109930000Y-87185002D03*
%TD*%
D12*
%TO.C,U1300*%
X122995001Y-91985001D03*
X122345000Y-91985001D03*
X121695000Y-91985001D03*
X121044999Y-91985001D03*
X121044999Y-90385001D03*
X121695000Y-90385001D03*
X122345000Y-90385001D03*
X122995001Y-90385001D03*
%TD*%
D13*
%TO.C,L301*%
X107120720Y-134271542D03*
X107120720Y-130571542D03*
%TD*%
D14*
%TO.C,JP300*%
X103725000Y-136675000D03*
D15*
X105175000Y-136675000D03*
%TD*%
D16*
%TO.C,TP302*%
X132750000Y-105325000D03*
%TD*%
D17*
%TO.C,C1302*%
X121519999Y-89085001D03*
X120520001Y-89085001D03*
%TD*%
D18*
%TO.C,C1101*%
X63770000Y-83185002D03*
X63770000Y-84185000D03*
%TD*%
D19*
%TO.C,LED300*%
X106863600Y-55785000D03*
X109403600Y-55785000D03*
X106863600Y-58325000D03*
X109403600Y-58325000D03*
%TD*%
D17*
%TO.C,C1301*%
X123419999Y-89085001D03*
X122420001Y-89085001D03*
%TD*%
D20*
%TO.C,L1100*%
X71295000Y-62155001D03*
X70325000Y-62155001D03*
%TD*%
D18*
%TO.C,R903*%
X126850000Y-131625000D03*
X126850000Y-132625000D03*
%TD*%
D17*
%TO.C,R308*%
X127200000Y-138375000D03*
X126200000Y-138375000D03*
%TD*%
D21*
%TO.C,U802*%
X122387500Y-62765001D03*
X122387500Y-60865001D03*
X120512500Y-61815001D03*
%TD*%
D18*
%TO.C,R418*%
X70330000Y-82975002D03*
X70330000Y-83975000D03*
%TD*%
D22*
%TO.C,C501*%
X119100000Y-138075000D03*
X119100000Y-137075000D03*
%TD*%
D23*
%TO.C,R716*%
X123000000Y-128525000D03*
X124000000Y-128525000D03*
%TD*%
D18*
%TO.C,R306*%
X114070720Y-132821542D03*
X114070720Y-133821542D03*
%TD*%
D24*
%TO.C,D1103*%
X79019999Y-67975001D03*
X77440001Y-67975001D03*
%TD*%
D25*
%TO.C,D301*%
X124850000Y-138365000D03*
X124850000Y-136785000D03*
%TD*%
D26*
%TO.C,D1100*%
X69470000Y-86635001D03*
X69470000Y-89935001D03*
%TD*%
D27*
%TO.C,FB400*%
X106740000Y-105225000D03*
X105160000Y-105225000D03*
%TD*%
D22*
%TO.C,C601*%
X114550000Y-138075000D03*
X114550000Y-137075000D03*
%TD*%
D17*
%TO.C,R301*%
X97650000Y-138871508D03*
X96650000Y-138871508D03*
%TD*%
%TO.C,C408*%
X105200000Y-106475000D03*
X104200000Y-106475000D03*
%TD*%
D22*
%TO.C,R600*%
X119100000Y-135925000D03*
X119100000Y-134925000D03*
%TD*%
D23*
%TO.C,C400*%
X115575000Y-107650000D03*
X116575000Y-107650000D03*
%TD*%
D28*
%TO.C,C1100*%
X64930000Y-83095001D03*
X64930000Y-84655001D03*
%TD*%
D17*
%TO.C,C313*%
X114250000Y-106025000D03*
X113250000Y-106025000D03*
%TD*%
D23*
%TO.C,R801*%
X124350000Y-62675000D03*
X125350000Y-62675000D03*
%TD*%
D17*
%TO.C,C600*%
X117300000Y-134025000D03*
X116300000Y-134025000D03*
%TD*%
%TO.C,C407*%
X107675000Y-107375000D03*
X106675000Y-107375000D03*
%TD*%
D23*
%TO.C,C314*%
X115200000Y-106025000D03*
X116200000Y-106025000D03*
%TD*%
D29*
%TO.C,U801*%
X132131500Y-137600000D03*
D30*
X132081500Y-138000000D03*
D31*
X132250000Y-138568500D03*
X132650000Y-138568500D03*
X133050000Y-138568500D03*
D30*
X133218500Y-138000000D03*
X133218500Y-137600000D03*
D31*
X133050000Y-137031500D03*
X132650000Y-137031500D03*
X132250000Y-137031500D03*
%TD*%
D16*
%TO.C,TP701*%
X133250000Y-113725000D03*
%TD*%
D28*
%TO.C,C1300*%
X124420000Y-90505001D03*
X124420000Y-92065001D03*
%TD*%
%TO.C,C304*%
X94646542Y-136211059D03*
X94646542Y-137771059D03*
%TD*%
D18*
%TO.C,C305*%
X96090000Y-134071508D03*
X96090000Y-135071508D03*
%TD*%
D17*
%TO.C,R404*%
X119950000Y-107645000D03*
X118950000Y-107645000D03*
%TD*%
%TO.C,C1204*%
X102097500Y-91234999D03*
X101097502Y-91234999D03*
%TD*%
D32*
%TO.C,U301*%
X110412500Y-133168050D03*
X110412500Y-134118050D03*
X110412500Y-135068050D03*
X112687500Y-135068050D03*
X112687500Y-134118050D03*
X112687500Y-133168050D03*
%TD*%
D17*
%TO.C,C500*%
X121900000Y-134025000D03*
X120900000Y-134025000D03*
%TD*%
D18*
%TO.C,R902*%
X127750000Y-131625000D03*
X127750000Y-132625000D03*
%TD*%
D25*
%TO.C,D400*%
X129240000Y-108665000D03*
X129240000Y-107085000D03*
%TD*%
D33*
%TO.C,U200*%
X131832500Y-141212501D03*
X131832500Y-143112501D03*
X133707500Y-142162501D03*
%TD*%
D18*
%TO.C,R700*%
X121325000Y-115925000D03*
X121325000Y-116925000D03*
%TD*%
D23*
%TO.C,R405*%
X100228400Y-58685001D03*
X101228400Y-58685001D03*
%TD*%
D22*
%TO.C,R409*%
X114450000Y-61725000D03*
X114450000Y-60725000D03*
%TD*%
%TO.C,R400*%
X113550000Y-61725000D03*
X113550000Y-60725000D03*
%TD*%
D34*
%TO.C,J1100*%
X71370000Y-55835001D03*
D35*
X68830000Y-53295001D03*
X68830000Y-58375001D03*
X73910000Y-53295001D03*
X73910000Y-58375001D03*
%TD*%
D22*
%TO.C,R411*%
X126950000Y-108375000D03*
X126950000Y-107375000D03*
%TD*%
D18*
%TO.C,R1200*%
X105110000Y-84435003D03*
X105110000Y-85435001D03*
%TD*%
D17*
%TO.C,R1105*%
X50469999Y-69385001D03*
X49470001Y-69385001D03*
%TD*%
D18*
%TO.C,C410*%
X123100000Y-113600000D03*
X123100000Y-114600000D03*
%TD*%
D36*
%TO.C,D701*%
X125175000Y-110660000D03*
X125175000Y-112240000D03*
%TD*%
D17*
%TO.C,R1103*%
X78130000Y-72175001D03*
X77130002Y-72175001D03*
%TD*%
D18*
%TO.C,R701*%
X124000000Y-115925000D03*
X124000000Y-116925000D03*
%TD*%
%TO.C,C405*%
X121275000Y-110350000D03*
X121275000Y-111350000D03*
%TD*%
D37*
%TO.C,C301*%
X102180000Y-136171508D03*
X100620000Y-136171508D03*
%TD*%
D22*
%TO.C,C300*%
X100400000Y-138281508D03*
X100400000Y-137281508D03*
%TD*%
D25*
%TO.C,D402*%
X132240000Y-108665000D03*
X132240000Y-107085000D03*
%TD*%
D38*
%TO.C,Y700*%
X130150000Y-113525000D03*
X127950000Y-113525000D03*
X127950000Y-115125000D03*
X130150000Y-115125000D03*
%TD*%
D39*
%TO.C,U700*%
X130400000Y-117762500D03*
X129900000Y-117762500D03*
X129400000Y-117762500D03*
X128900000Y-117762500D03*
X128400000Y-117762500D03*
X127900000Y-117762500D03*
X127400000Y-117762500D03*
X126900000Y-117762500D03*
X126400000Y-117762500D03*
X125900000Y-117762500D03*
X125400000Y-117762500D03*
X124900000Y-117762500D03*
D40*
X123487500Y-119175000D03*
X123487500Y-119675000D03*
X123487500Y-120175000D03*
X123487500Y-120675000D03*
X123487500Y-121175000D03*
X123487500Y-121675000D03*
X123487500Y-122175000D03*
X123487500Y-122675000D03*
X123487500Y-123175000D03*
X123487500Y-123675000D03*
X123487500Y-124175000D03*
X123487500Y-124675000D03*
D39*
X124900000Y-126087500D03*
X125400000Y-126087500D03*
X125900000Y-126087500D03*
X126400000Y-126087500D03*
X126900000Y-126087500D03*
X127400000Y-126087500D03*
X127900000Y-126087500D03*
X128400000Y-126087500D03*
X128900000Y-126087500D03*
X129400000Y-126087500D03*
X129900000Y-126087500D03*
X130400000Y-126087500D03*
D40*
X131812500Y-124675000D03*
X131812500Y-124175000D03*
X131812500Y-123675000D03*
X131812500Y-123175000D03*
X131812500Y-122675000D03*
X131812500Y-122175000D03*
X131812500Y-121675000D03*
X131812500Y-121175000D03*
X131812500Y-120675000D03*
X131812500Y-120175000D03*
X131812500Y-119675000D03*
X131812500Y-119175000D03*
%TD*%
D16*
%TO.C,TP700*%
X133250000Y-111725000D03*
%TD*%
D18*
%TO.C,C1202*%
X108410002Y-88785002D03*
X108410002Y-89785000D03*
%TD*%
D23*
%TO.C,R707*%
X122850000Y-109375000D03*
X123850000Y-109375000D03*
%TD*%
D41*
%TO.C,U400*%
X118075000Y-109175000D03*
X117575000Y-109175000D03*
X117075000Y-109175000D03*
X116575000Y-109175000D03*
X116075000Y-109175000D03*
X115575000Y-109175000D03*
X115075000Y-109175000D03*
X114575000Y-109175000D03*
X114075000Y-109175000D03*
X113575000Y-109175000D03*
X113075000Y-109175000D03*
X112575000Y-109175000D03*
X112075000Y-109175000D03*
X111575000Y-109175000D03*
X111075000Y-109175000D03*
X110575000Y-109175000D03*
X110075000Y-109175000D03*
X109575000Y-109175000D03*
X109075000Y-109175000D03*
X108575000Y-109175000D03*
X108075000Y-109175000D03*
X107575000Y-109175000D03*
X107075000Y-109175000D03*
X106575000Y-109175000D03*
X106075000Y-109175000D03*
D42*
X104400000Y-110850000D03*
X104400000Y-111350000D03*
X104400000Y-111850000D03*
X104400000Y-112350000D03*
X104400000Y-112850000D03*
X104400000Y-113350000D03*
X104400000Y-113850000D03*
X104400000Y-114350000D03*
X104400000Y-114850000D03*
X104400000Y-115350000D03*
X104400000Y-115850000D03*
X104400000Y-116350000D03*
X104400000Y-116850000D03*
X104400000Y-117350000D03*
X104400000Y-117850000D03*
X104400000Y-118350000D03*
X104400000Y-118850000D03*
X104400000Y-119350000D03*
X104400000Y-119850000D03*
X104400000Y-120350000D03*
X104400000Y-120850000D03*
X104400000Y-121350000D03*
X104400000Y-121850000D03*
X104400000Y-122350000D03*
X104400000Y-122850000D03*
D41*
X106075000Y-124525000D03*
X106575000Y-124525000D03*
X107075000Y-124525000D03*
X107575000Y-124525000D03*
X108075000Y-124525000D03*
X108575000Y-124525000D03*
X109075000Y-124525000D03*
X109575000Y-124525000D03*
X110075000Y-124525000D03*
X110575000Y-124525000D03*
X111075000Y-124525000D03*
X111575000Y-124525000D03*
X112075000Y-124525000D03*
X112575000Y-124525000D03*
X113075000Y-124525000D03*
X113575000Y-124525000D03*
X114075000Y-124525000D03*
X114575000Y-124525000D03*
X115075000Y-124525000D03*
X115575000Y-124525000D03*
X116075000Y-124525000D03*
X116575000Y-124525000D03*
X117075000Y-124525000D03*
X117575000Y-124525000D03*
X118075000Y-124525000D03*
D42*
X119750000Y-122850000D03*
X119750000Y-122350000D03*
X119750000Y-121850000D03*
X119750000Y-121350000D03*
X119750000Y-120850000D03*
X119750000Y-120350000D03*
X119750000Y-119850000D03*
X119750000Y-119350000D03*
X119750000Y-118850000D03*
X119750000Y-118350000D03*
X119750000Y-117850000D03*
X119750000Y-117350000D03*
X119750000Y-116850000D03*
X119750000Y-116350000D03*
X119750000Y-115850000D03*
X119750000Y-115350000D03*
X119750000Y-114850000D03*
X119750000Y-114350000D03*
X119750000Y-113850000D03*
X119750000Y-113350000D03*
X119750000Y-112850000D03*
X119750000Y-112350000D03*
X119750000Y-111850000D03*
X119750000Y-111350000D03*
X119750000Y-110850000D03*
%TD*%
D17*
%TO.C,C409*%
X105200000Y-107375000D03*
X104200000Y-107375000D03*
%TD*%
%TO.C,C708*%
X128600000Y-116235000D03*
X127600000Y-116235000D03*
%TD*%
D18*
%TO.C,R705*%
X132900000Y-115125000D03*
X132900000Y-116125000D03*
%TD*%
D17*
%TO.C,R1100*%
X66870000Y-86335001D03*
X65870002Y-86335001D03*
%TD*%
D18*
%TO.C,R307*%
X114070720Y-134721542D03*
X114070720Y-135721542D03*
%TD*%
D43*
%TO.C,D1101*%
X50480001Y-70685001D03*
X52059999Y-70685001D03*
%TD*%
D23*
%TO.C,R711*%
X132550000Y-128175000D03*
X133550000Y-128175000D03*
%TD*%
%TO.C,R710*%
X132550000Y-127275000D03*
X133550000Y-127275000D03*
%TD*%
%TO.C,R715*%
X123000000Y-127650000D03*
X124000000Y-127650000D03*
%TD*%
D17*
%TO.C,R1106*%
X50479999Y-74085001D03*
X49480001Y-74085001D03*
%TD*%
D18*
%TO.C,C801*%
X116250000Y-60725000D03*
X116250000Y-61725000D03*
%TD*%
D16*
%TO.C,TP300*%
X128750000Y-105325000D03*
%TD*%
D22*
%TO.C,C402*%
X102875000Y-111350000D03*
X102875000Y-110350000D03*
%TD*%
D18*
%TO.C,C1104*%
X68570000Y-60985002D03*
X68570000Y-61985000D03*
%TD*%
D14*
%TO.C,JP301*%
X112970720Y-130225000D03*
D15*
X114420720Y-130225000D03*
%TD*%
D44*
%TO.C,J800*%
X124940000Y-57640000D03*
X119160000Y-57640000D03*
D45*
X125250000Y-58715000D03*
X124450000Y-58715000D03*
D46*
X123300000Y-58715000D03*
X122300000Y-58715000D03*
X121800000Y-58715000D03*
X120800000Y-58715000D03*
D45*
X119650000Y-58715000D03*
X118850000Y-58715000D03*
X118850000Y-58715000D03*
X119650000Y-58715000D03*
D46*
X120300000Y-58715000D03*
X121300000Y-58715000D03*
X122800000Y-58715000D03*
X123800000Y-58715000D03*
D45*
X124450000Y-58715000D03*
X125250000Y-58715000D03*
D47*
X126370000Y-58140000D03*
D48*
X126370000Y-53960000D03*
D47*
X117730000Y-58140000D03*
D48*
X117730000Y-53960000D03*
%TD*%
D23*
%TO.C,C311*%
X109270720Y-136281542D03*
X110270720Y-136281542D03*
%TD*%
%TO.C,C1105*%
X77130002Y-71275001D03*
X78130000Y-71275001D03*
%TD*%
D16*
%TO.C,TP301*%
X130750000Y-105325000D03*
%TD*%
D23*
%TO.C,C707*%
X129500000Y-116225000D03*
X130500000Y-116225000D03*
%TD*%
D18*
%TO.C,R901*%
X123900000Y-132725000D03*
X123900000Y-133725000D03*
%TD*%
D17*
%TO.C,R709*%
X133550000Y-129075000D03*
X132550000Y-129075000D03*
%TD*%
D18*
%TO.C,R805*%
X117150000Y-60725000D03*
X117150000Y-61725000D03*
%TD*%
%TO.C,R800*%
X118050000Y-60725000D03*
X118050000Y-61725000D03*
%TD*%
D49*
%TO.C,C310*%
X111420720Y-136481542D03*
X112980720Y-136481542D03*
%TD*%
D18*
%TO.C,R402*%
X122200000Y-113600000D03*
X122200000Y-114600000D03*
%TD*%
D22*
%TO.C,R702*%
X133300000Y-122175000D03*
X133300000Y-121175000D03*
%TD*%
%TO.C,C1201*%
X106010000Y-85434999D03*
X106010000Y-84435001D03*
%TD*%
D49*
%TO.C,C309*%
X111410271Y-137725000D03*
X112970271Y-137725000D03*
%TD*%
D22*
%TO.C,C900*%
X130450000Y-134575000D03*
X130450000Y-133575000D03*
%TD*%
D18*
%TO.C,C404*%
X118975000Y-124600000D03*
X118975000Y-125600000D03*
%TD*%
%TO.C,R802*%
X132550000Y-133525000D03*
X132550000Y-134525000D03*
%TD*%
D23*
%TO.C,C701*%
X131350000Y-117625000D03*
X132350000Y-117625000D03*
%TD*%
D50*
%TO.C,BAT1100*%
X61470000Y-87785001D03*
X61470000Y-117085001D03*
%TD*%
D17*
%TO.C,R300*%
X99550000Y-138871508D03*
X98550000Y-138871508D03*
%TD*%
D23*
%TO.C,R1201*%
X101097501Y-90335002D03*
X102097499Y-90335002D03*
%TD*%
D51*
%TO.C,J200*%
X133820000Y-148515000D03*
X44920000Y-148515000D03*
D52*
X128740000Y-145975000D03*
D53*
X126200000Y-145975000D03*
X123660000Y-145975000D03*
X121120000Y-145975000D03*
X118580000Y-145975000D03*
X116040000Y-145975000D03*
X113500000Y-145975000D03*
X110960000Y-145975000D03*
X108420000Y-145975000D03*
X105880000Y-145975000D03*
X103340000Y-145975000D03*
X100800000Y-145975000D03*
X98260000Y-145975000D03*
X95720000Y-145975000D03*
X93180000Y-145975000D03*
X90640000Y-145975000D03*
X88100000Y-145975000D03*
X85560000Y-145975000D03*
X83020000Y-145975000D03*
X80480000Y-145975000D03*
X77940000Y-145975000D03*
X75400000Y-145975000D03*
X72860000Y-145975000D03*
X70320000Y-145975000D03*
X67780000Y-145975000D03*
X65240000Y-145975000D03*
X62700000Y-145975000D03*
X60160000Y-145975000D03*
X57620000Y-145975000D03*
X55080000Y-145975000D03*
X52540000Y-145975000D03*
X50000000Y-145975000D03*
X128740000Y-143435000D03*
X126200000Y-143435000D03*
X123660000Y-143435000D03*
X121120000Y-143435000D03*
X118580000Y-143435000D03*
X116040000Y-143435000D03*
X113500000Y-143435000D03*
X110960000Y-143435000D03*
X108420000Y-143435000D03*
X105880000Y-143435000D03*
X103340000Y-143435000D03*
X100800000Y-143435000D03*
X98260000Y-143435000D03*
X95720000Y-143435000D03*
X93180000Y-143435000D03*
X90640000Y-143435000D03*
X88100000Y-143435000D03*
X85560000Y-143435000D03*
X83020000Y-143435000D03*
X80480000Y-143435000D03*
X77940000Y-143435000D03*
X75400000Y-143435000D03*
X72860000Y-143435000D03*
X70320000Y-143435000D03*
X67780000Y-143435000D03*
X65240000Y-143435000D03*
X62700000Y-143435000D03*
X60160000Y-143435000D03*
X57620000Y-143435000D03*
X55080000Y-143435000D03*
X52540000Y-143435000D03*
X50000000Y-143435000D03*
X128740000Y-140895000D03*
X126200000Y-140895000D03*
X123660000Y-140895000D03*
X121120000Y-140895000D03*
X118580000Y-140895000D03*
X116040000Y-140895000D03*
X113500000Y-140895000D03*
X110960000Y-140895000D03*
X108420000Y-140895000D03*
X105880000Y-140895000D03*
X103340000Y-140895000D03*
X100800000Y-140895000D03*
X98260000Y-140895000D03*
X95720000Y-140895000D03*
X93180000Y-140895000D03*
X90640000Y-140895000D03*
X88100000Y-140895000D03*
X85560000Y-140895000D03*
X83020000Y-140895000D03*
X80480000Y-140895000D03*
X77940000Y-140895000D03*
X75400000Y-140895000D03*
X72860000Y-140895000D03*
X70320000Y-140895000D03*
X67780000Y-140895000D03*
X65240000Y-140895000D03*
X62700000Y-140895000D03*
X60160000Y-140895000D03*
X57620000Y-140895000D03*
X55080000Y-140895000D03*
X52540000Y-140895000D03*
X50000000Y-140895000D03*
%TD*%
D17*
%TO.C,R1101*%
X78130000Y-73075001D03*
X77130002Y-73075001D03*
%TD*%
D23*
%TO.C,C700*%
X122000000Y-125875000D03*
X123000000Y-125875000D03*
%TD*%
D22*
%TO.C,R500*%
X123650000Y-138075000D03*
X123650000Y-137075000D03*
%TD*%
D17*
%TO.C,C406*%
X107675000Y-106475000D03*
X106675000Y-106475000D03*
%TD*%
%TO.C,C411*%
X109925000Y-107025000D03*
X108925000Y-107025000D03*
%TD*%
D18*
%TO.C,C704*%
X133290000Y-118922500D03*
X133290000Y-119922500D03*
%TD*%
D17*
%TO.C,C1205*%
X102109999Y-88535002D03*
X101110001Y-88535002D03*
%TD*%
D22*
%TO.C,C902*%
X131350000Y-134575000D03*
X131350000Y-133575000D03*
%TD*%
D23*
%TO.C,C312*%
X132650000Y-135775000D03*
X133650000Y-135775000D03*
%TD*%
D22*
%TO.C,C702*%
X122010000Y-124927500D03*
X122010000Y-123927500D03*
%TD*%
D18*
%TO.C,R706*%
X131950000Y-115125000D03*
X131950000Y-116125000D03*
%TD*%
D22*
%TO.C,R803*%
X133450000Y-134525000D03*
X133450000Y-133525000D03*
%TD*%
D49*
%TO.C,C1102*%
X66090000Y-88385001D03*
X67650000Y-88385001D03*
%TD*%
D28*
%TO.C,C307*%
X110108674Y-130191542D03*
X110108674Y-131751542D03*
%TD*%
D17*
%TO.C,C306*%
X113480720Y-131971542D03*
X112480720Y-131971542D03*
%TD*%
D22*
%TO.C,R401*%
X121300000Y-114600000D03*
X121300000Y-113600000D03*
%TD*%
D54*
%TO.C,F300*%
X103610000Y-138775000D03*
X105190000Y-138775000D03*
%TD*%
D23*
%TO.C,R714*%
X123000000Y-126775000D03*
X124000000Y-126775000D03*
%TD*%
D18*
%TO.C,R900*%
X124800000Y-132725000D03*
X124800000Y-133725000D03*
%TD*%
D23*
%TO.C,C414*%
X117075000Y-126050000D03*
X118075000Y-126050000D03*
%TD*%
D55*
%TO.C,SW400*%
X103080000Y-54575000D03*
X101450000Y-54575000D03*
X99710000Y-54575000D03*
X98080000Y-54575000D03*
D56*
X104080000Y-56825000D03*
X97080000Y-56825000D03*
%TD*%
D17*
%TO.C,R427*%
X111869999Y-101085001D03*
X110870001Y-101085001D03*
%TD*%
D57*
%TO.C,U600*%
X117775000Y-135175000D03*
X117125000Y-135175000D03*
X116475000Y-135175000D03*
X115825000Y-135175000D03*
X115825000Y-138075000D03*
X116475000Y-138075000D03*
X117125000Y-138075000D03*
X117775000Y-138075000D03*
D58*
X116800000Y-136625000D03*
%TD*%
D59*
%TO.C,X300*%
X113475000Y-104550000D03*
X115975000Y-104550000D03*
%TD*%
D17*
%TO.C,R406*%
X101228400Y-56885001D03*
X100228400Y-56885001D03*
%TD*%
D22*
%TO.C,R412*%
X126050000Y-108375000D03*
X126050000Y-107375000D03*
%TD*%
%TO.C,C706*%
X122200000Y-116925000D03*
X122200000Y-115925000D03*
%TD*%
D23*
%TO.C,C800*%
X124350000Y-60525000D03*
X125350000Y-60525000D03*
%TD*%
D37*
%TO.C,C302*%
X102180000Y-134909462D03*
X100620000Y-134909462D03*
%TD*%
D23*
%TO.C,R1202*%
X101110001Y-89435002D03*
X102109999Y-89435002D03*
%TD*%
D18*
%TO.C,R1102*%
X65840000Y-63005002D03*
X65840000Y-64005000D03*
%TD*%
D23*
%TO.C,C401*%
X112825000Y-107475000D03*
X113825000Y-107475000D03*
%TD*%
%TO.C,C705*%
X125700000Y-116235000D03*
X126700000Y-116235000D03*
%TD*%
D60*
%TO.C,R712*%
X128553553Y-129028553D03*
X127846447Y-128321447D03*
%TD*%
D23*
%TO.C,R426*%
X108670000Y-101085001D03*
X109670000Y-101085001D03*
%TD*%
D38*
%TO.C,X400*%
X111475000Y-104250000D03*
X109275000Y-104250000D03*
X109275000Y-105850000D03*
X111475000Y-105850000D03*
%TD*%
D61*
%TO.C,U1100*%
X72430000Y-65925003D03*
X71330000Y-65925002D03*
X70230000Y-65925003D03*
X69130000Y-65925002D03*
X68030000Y-65925002D03*
X66930000Y-65925002D03*
X65830000Y-65925002D03*
X64730000Y-65925002D03*
X63630000Y-65925002D03*
X62530000Y-65925002D03*
X61430000Y-65925002D03*
X60330000Y-65925003D03*
X59230000Y-65925002D03*
X58130000Y-65925003D03*
D62*
X55330000Y-66825002D03*
X55330000Y-67925002D03*
X55330000Y-69025002D03*
X55330000Y-70125002D03*
X55330000Y-71225003D03*
X55330000Y-72325002D03*
X55330001Y-73425002D03*
X55330000Y-74525002D03*
X55330000Y-75625001D03*
X55330000Y-76725002D03*
X55330000Y-77825002D03*
X55330000Y-78925002D03*
X55330000Y-80025002D03*
D61*
X58130000Y-80925001D03*
X59230000Y-80925002D03*
X60330000Y-80925001D03*
X61430000Y-80925002D03*
X62530000Y-80925002D03*
X63630000Y-80925002D03*
X64730000Y-80925002D03*
X65830000Y-80925002D03*
X66930000Y-80925002D03*
X68030000Y-80925002D03*
X69130000Y-80925002D03*
X70230000Y-80925001D03*
X71330000Y-80925002D03*
X72430000Y-80925001D03*
D62*
X75230000Y-80025002D03*
X75230000Y-78925002D03*
X75230000Y-77825002D03*
X75230000Y-76725002D03*
X75230000Y-75625001D03*
X75230000Y-74525002D03*
X75229999Y-73425002D03*
X75230000Y-72325002D03*
X75230000Y-71225003D03*
X75230000Y-70125002D03*
X75230000Y-69025002D03*
X75230000Y-67925002D03*
X75230000Y-66825002D03*
D63*
X72630000Y-68175002D03*
X70530000Y-68175002D03*
X68430000Y-68175002D03*
X66330001Y-68175002D03*
X64229999Y-68175002D03*
X62130000Y-68175002D03*
X60030000Y-68175002D03*
X57930000Y-68175002D03*
X72630000Y-70275002D03*
X70530000Y-70275002D03*
X68430000Y-70275002D03*
X62130000Y-70275002D03*
X60030000Y-70275002D03*
X57930000Y-70275002D03*
X66330000Y-70275003D03*
X64230000Y-70275003D03*
X70530000Y-72375001D03*
X60030000Y-72375001D03*
X72630000Y-72375002D03*
X68429999Y-72375002D03*
X66330000Y-72375002D03*
X64230000Y-72375002D03*
X62130001Y-72375002D03*
X57930000Y-72375002D03*
X72630000Y-74475002D03*
X68429999Y-74475002D03*
X66330000Y-74475002D03*
X64230000Y-74475002D03*
X62130001Y-74475002D03*
X57930000Y-74475002D03*
X70530000Y-74475003D03*
X60030000Y-74475003D03*
X66330000Y-76575001D03*
X64230000Y-76575001D03*
X72630000Y-76575002D03*
X70530000Y-76575002D03*
X68430000Y-76575002D03*
X62130000Y-76575002D03*
X60030000Y-76575002D03*
X57930000Y-76575002D03*
X72630000Y-78675002D03*
X70530000Y-78675002D03*
X68430000Y-78675002D03*
X66330001Y-78675002D03*
X64229999Y-78675002D03*
X62130000Y-78675002D03*
X60030000Y-78675002D03*
X57930000Y-78675002D03*
%TD*%
D18*
%TO.C,R708*%
X121900000Y-120675000D03*
X121900000Y-121675000D03*
%TD*%
D17*
%TO.C,C403*%
X104325000Y-123750000D03*
X103325000Y-123750000D03*
%TD*%
D22*
%TO.C,R410*%
X127850000Y-108375000D03*
X127850000Y-107375000D03*
%TD*%
D23*
%TO.C,C1103*%
X65870001Y-87235001D03*
X66869999Y-87235001D03*
%TD*%
D64*
%TO.C,Y900*%
X131600000Y-130475000D03*
X129400000Y-130475000D03*
X129400000Y-132175000D03*
X131600000Y-132175000D03*
%TD*%
D57*
%TO.C,U500*%
X122375000Y-135175000D03*
X121725000Y-135175000D03*
X121075000Y-135175000D03*
X120425000Y-135175000D03*
X120425000Y-138075000D03*
X121075000Y-138075000D03*
X121725000Y-138075000D03*
X122375000Y-138075000D03*
D58*
X121400000Y-136625000D03*
%TD*%
D23*
%TO.C,R713*%
X124750000Y-109375000D03*
X125750000Y-109375000D03*
%TD*%
D65*
%TO.C,C1200*%
X107110000Y-85215002D03*
X107110000Y-83655002D03*
%TD*%
D23*
%TO.C,C412*%
X110825000Y-107025000D03*
X111825000Y-107025000D03*
%TD*%
%TO.C,C415*%
X118960000Y-105865000D03*
X119960000Y-105865000D03*
%TD*%
D66*
%TO.C,U100*%
X101705000Y-113320000D03*
X100435000Y-113320000D03*
X99155000Y-113320000D03*
X97885000Y-113320000D03*
X97885000Y-120380000D03*
X99155000Y-120380000D03*
X100435000Y-120380000D03*
X101705000Y-120380000D03*
%TD*%
D25*
%TO.C,D700*%
X123425000Y-112240000D03*
X123425000Y-110660000D03*
%TD*%
D18*
%TO.C,C413*%
X102875000Y-121850000D03*
X102875000Y-122850000D03*
%TD*%
D67*
%TO.C,L300*%
X98100000Y-131921508D03*
X101800000Y-131921508D03*
%TD*%
D22*
%TO.C,C100*%
X102850000Y-120925000D03*
X102850000Y-119925000D03*
%TD*%
D18*
%TO.C,R416*%
X71230000Y-82975002D03*
X71230000Y-83975000D03*
%TD*%
D68*
%TO.C,U302*%
X128550000Y-133850000D03*
X128050000Y-133850000D03*
X127550000Y-133850000D03*
X127050000Y-133850000D03*
D69*
X126337500Y-134562500D03*
X126337500Y-135062500D03*
X126337500Y-135562500D03*
X126337500Y-136062500D03*
D68*
X127050000Y-136775000D03*
X127550000Y-136775000D03*
X128050000Y-136775000D03*
X128550000Y-136775000D03*
D69*
X129262500Y-136062500D03*
X129262500Y-135562500D03*
X129262500Y-135062500D03*
X129262500Y-134562500D03*
D70*
X127800000Y-135312500D03*
%TD*%
D23*
%TO.C,C703*%
X131350000Y-126275000D03*
X132350000Y-126275000D03*
%TD*%
D25*
%TO.C,D401*%
X130750000Y-108665000D03*
X130750000Y-107085000D03*
%TD*%
D22*
%TO.C,R408*%
X115350000Y-61725000D03*
X115350000Y-60725000D03*
%TD*%
D17*
%TO.C,R403*%
X119960000Y-106765000D03*
X118960000Y-106765000D03*
%TD*%
D22*
%TO.C,R703*%
X123100000Y-116925000D03*
X123100000Y-115925000D03*
%TD*%
D28*
%TO.C,C308*%
X111370720Y-130191542D03*
X111370720Y-131751542D03*
%TD*%
D43*
%TO.C,D1102*%
X50480001Y-72685001D03*
X52059999Y-72685001D03*
%TD*%
D17*
%TO.C,R1107*%
X79029999Y-69275001D03*
X78030001Y-69275001D03*
%TD*%
D71*
%TO.C,U1200*%
X107022500Y-87035001D03*
D72*
X106110001Y-86897501D03*
X105610000Y-86897501D03*
X105110000Y-86897501D03*
X104609999Y-86897501D03*
D71*
X103697500Y-87035001D03*
X103697500Y-87535001D03*
X103697499Y-88035001D03*
X103697500Y-88535001D03*
X103697500Y-89035001D03*
X103697500Y-89535001D03*
X103697500Y-90035001D03*
X103697499Y-90535001D03*
X103697500Y-91035001D03*
X103697500Y-91535001D03*
D72*
X104609999Y-91672501D03*
X105110000Y-91672501D03*
X105610000Y-91672501D03*
X106110001Y-91672501D03*
D71*
X107022500Y-91535001D03*
X107022500Y-91035001D03*
X107022501Y-90535001D03*
X107022500Y-90035001D03*
X107022500Y-89535001D03*
X107022500Y-89035001D03*
X107022500Y-88535001D03*
X107022501Y-88035001D03*
X107022500Y-87535001D03*
%TD*%
D22*
%TO.C,R407*%
X112650000Y-61725000D03*
X112650000Y-60725000D03*
%TD*%
%TO.C,C1203*%
X108410002Y-87835000D03*
X108410002Y-86835002D03*
%TD*%
D73*
%TO.C,Q700*%
X129600000Y-127725000D03*
X129600000Y-129025000D03*
X131400000Y-128375000D03*
%TD*%
D18*
%TO.C,C904*%
X130450000Y-135525000D03*
X130450000Y-136525000D03*
%TD*%
D17*
%TO.C,C416*%
X101228400Y-57785001D03*
X100228400Y-57785001D03*
%TD*%
D23*
%TO.C,R804*%
X134450000Y-138925000D03*
X135450000Y-138925000D03*
%TD*%
D74*
%TO.C,U300*%
X99203492Y-135213288D03*
X98253492Y-135213288D03*
X97303492Y-135213288D03*
X97303492Y-137488288D03*
X98253492Y-137488288D03*
X99203492Y-137488288D03*
%TD*%
D17*
%TO.C,R1104*%
X78229999Y-74575001D03*
X77230001Y-74575001D03*
%TD*%
D28*
%TO.C,C303*%
X95890000Y-136221508D03*
X95890000Y-137781508D03*
%TD*%
D19*
%TO.C,LED301*%
X111913600Y-55785000D03*
X114453600Y-55785000D03*
X111913600Y-58325000D03*
X114453600Y-58325000D03*
%TD*%
D23*
%TO.C,R704*%
X121050000Y-127650000D03*
X122050000Y-127650000D03*
%TD*%
M02*
