%TF.GenerationSoftware,KiCad,Pcbnew,8.0.9-8.0.9-0~ubuntu24.04.1*%
%TF.CreationDate,2025-02-22T21:10:34+00:00*%
%TF.ProjectId,nav-module,6e61762d-6d6f-4647-956c-652e6b696361,1.0.0*%
%TF.SameCoordinates,Original*%
%TF.FileFunction,Copper,L1,Top*%
%TF.FilePolarity,Positive*%
%FSLAX46Y46*%
G04 Gerber Fmt 4.6, Leading zero omitted, Abs format (unit mm)*
G04 Created by KiCad (PCBNEW 8.0.9-8.0.9-0~ubuntu24.04.1) date 2025-02-22 21:10:34*
%MOMM*%
%LPD*%
G01*
G04 APERTURE LIST*
G04 Aperture macros list*
%AMRoundRect*
0 Rectangle with rounded corners*
0 $1 Rounding radius*
0 $2 $3 $4 $5 $6 $7 $8 $9 X,Y pos of 4 corners*
0 Add a 4 corners polygon primitive as box body*
4,1,4,$2,$3,$4,$5,$6,$7,$8,$9,$2,$3,0*
0 Add four circle primitives for the rounded corners*
1,1,$1+$1,$2,$3*
1,1,$1+$1,$4,$5*
1,1,$1+$1,$6,$7*
1,1,$1+$1,$8,$9*
0 Add four rect primitives between the rounded corners*
20,1,$1+$1,$2,$3,$4,$5,0*
20,1,$1+$1,$4,$5,$6,$7,0*
20,1,$1+$1,$6,$7,$8,$9,0*
20,1,$1+$1,$8,$9,$2,$3,0*%
%AMFreePoly0*
4,1,6,1.000000,0.000000,0.500000,-0.750000,-0.500000,-0.750000,-0.500000,0.750000,0.500000,0.750000,1.000000,0.000000,1.000000,0.000000,$1*%
%AMFreePoly1*
4,1,6,0.500000,-0.750000,-0.650000,-0.750000,-0.150000,0.000000,-0.650000,0.750000,0.500000,0.750000,0.500000,-0.750000,0.500000,-0.750000,$1*%
G04 Aperture macros list end*
%TA.AperFunction,EtchedComponent*%
%ADD10C,0.000000*%
%TD*%
%TA.AperFunction,SMDPad,CuDef*%
%ADD11RoundRect,0.250000X0.650000X0.250000X-0.650000X0.250000X-0.650000X-0.250000X0.650000X-0.250000X0*%
%TD*%
%TA.AperFunction,SMDPad,CuDef*%
%ADD12RoundRect,0.250001X0.999999X-0.499999X0.999999X0.499999X-0.999999X0.499999X-0.999999X-0.499999X0*%
%TD*%
%TA.AperFunction,SMDPad,CuDef*%
%ADD13FreePoly0,0.000000*%
%TD*%
%TA.AperFunction,SMDPad,CuDef*%
%ADD14FreePoly1,0.000000*%
%TD*%
%TA.AperFunction,SMDPad,CuDef*%
%ADD15C,1.000000*%
%TD*%
%TA.AperFunction,SMDPad,CuDef*%
%ADD16RoundRect,0.140000X-0.170000X0.140000X-0.170000X-0.140000X0.170000X-0.140000X0.170000X0.140000X0*%
%TD*%
%TA.AperFunction,ComponentPad*%
%ADD17C,1.600000*%
%TD*%
%TA.AperFunction,SMDPad,CuDef*%
%ADD18RoundRect,0.147500X0.147500X0.172500X-0.147500X0.172500X-0.147500X-0.172500X0.147500X-0.172500X0*%
%TD*%
%TA.AperFunction,SMDPad,CuDef*%
%ADD19RoundRect,0.140000X0.140000X0.170000X-0.140000X0.170000X-0.140000X-0.170000X0.140000X-0.170000X0*%
%TD*%
%TA.AperFunction,SMDPad,CuDef*%
%ADD20RoundRect,0.150000X0.587500X0.150000X-0.587500X0.150000X-0.587500X-0.150000X0.587500X-0.150000X0*%
%TD*%
%TA.AperFunction,SMDPad,CuDef*%
%ADD21RoundRect,0.140000X0.170000X-0.140000X0.170000X0.140000X-0.170000X0.140000X-0.170000X-0.140000X0*%
%TD*%
%TA.AperFunction,SMDPad,CuDef*%
%ADD22RoundRect,0.140000X-0.140000X-0.170000X0.140000X-0.170000X0.140000X0.170000X-0.140000X0.170000X0*%
%TD*%
%TA.AperFunction,SMDPad,CuDef*%
%ADD23RoundRect,0.220000X0.220000X0.255000X-0.220000X0.255000X-0.220000X-0.255000X0.220000X-0.255000X0*%
%TD*%
%TA.AperFunction,SMDPad,CuDef*%
%ADD24RoundRect,0.220000X0.255000X-0.220000X0.255000X0.220000X-0.255000X0.220000X-0.255000X-0.220000X0*%
%TD*%
%TA.AperFunction,SMDPad,CuDef*%
%ADD25RoundRect,0.225000X-0.375000X0.225000X-0.375000X-0.225000X0.375000X-0.225000X0.375000X0.225000X0*%
%TD*%
%TA.AperFunction,SMDPad,CuDef*%
%ADD26RoundRect,0.225000X-0.250000X0.225000X-0.250000X-0.225000X0.250000X-0.225000X0.250000X0.225000X0*%
%TD*%
%TA.AperFunction,SMDPad,CuDef*%
%ADD27R,0.663000X0.225000*%
%TD*%
%TA.AperFunction,SMDPad,CuDef*%
%ADD28R,0.563000X0.225000*%
%TD*%
%TA.AperFunction,SMDPad,CuDef*%
%ADD29R,0.225000X0.563000*%
%TD*%
%TA.AperFunction,SMDPad,CuDef*%
%ADD30RoundRect,0.150000X-0.512500X-0.150000X0.512500X-0.150000X0.512500X0.150000X-0.512500X0.150000X0*%
%TD*%
%TA.AperFunction,SMDPad,CuDef*%
%ADD31RoundRect,0.150000X-0.587500X-0.150000X0.587500X-0.150000X0.587500X0.150000X-0.587500X0.150000X0*%
%TD*%
%TA.AperFunction,ComponentPad*%
%ADD32RoundRect,0.200100X-0.949900X-0.949900X0.949900X-0.949900X0.949900X0.949900X-0.949900X0.949900X0*%
%TD*%
%TA.AperFunction,ComponentPad*%
%ADD33C,2.500000*%
%TD*%
%TA.AperFunction,SMDPad,CuDef*%
%ADD34RoundRect,0.220000X-0.255000X0.220000X-0.255000X-0.220000X0.255000X-0.220000X0.255000X0.220000X0*%
%TD*%
%TA.AperFunction,SMDPad,CuDef*%
%ADD35RoundRect,0.225000X0.225000X0.250000X-0.225000X0.250000X-0.225000X-0.250000X0.225000X-0.250000X0*%
%TD*%
%TA.AperFunction,SMDPad,CuDef*%
%ADD36RoundRect,0.250000X0.450000X0.350000X-0.450000X0.350000X-0.450000X-0.350000X0.450000X-0.350000X0*%
%TD*%
%TA.AperFunction,SMDPad,CuDef*%
%ADD37RoundRect,0.075000X-0.075000X0.662500X-0.075000X-0.662500X0.075000X-0.662500X0.075000X0.662500X0*%
%TD*%
%TA.AperFunction,SMDPad,CuDef*%
%ADD38RoundRect,0.075000X-0.662500X0.075000X-0.662500X-0.075000X0.662500X-0.075000X0.662500X0.075000X0*%
%TD*%
%TA.AperFunction,SMDPad,CuDef*%
%ADD39RoundRect,0.075000X-0.075000X0.725000X-0.075000X-0.725000X0.075000X-0.725000X0.075000X0.725000X0*%
%TD*%
%TA.AperFunction,SMDPad,CuDef*%
%ADD40RoundRect,0.075000X-0.725000X0.075000X-0.725000X-0.075000X0.725000X-0.075000X0.725000X0.075000X0*%
%TD*%
%TA.AperFunction,SMDPad,CuDef*%
%ADD41RoundRect,0.220000X-0.220000X-0.255000X0.220000X-0.255000X0.220000X0.255000X-0.220000X0.255000X0*%
%TD*%
%TA.AperFunction,SMDPad,CuDef*%
%ADD42RoundRect,0.150000X0.150000X0.425000X-0.150000X0.425000X-0.150000X-0.425000X0.150000X-0.425000X0*%
%TD*%
%TA.AperFunction,SMDPad,CuDef*%
%ADD43RoundRect,0.075000X0.075000X0.500000X-0.075000X0.500000X-0.075000X-0.500000X0.075000X-0.500000X0*%
%TD*%
%TA.AperFunction,ComponentPad*%
%ADD44O,1.000000X2.100000*%
%TD*%
%TA.AperFunction,ComponentPad*%
%ADD45O,1.000000X1.800000*%
%TD*%
%TA.AperFunction,SMDPad,CuDef*%
%ADD46RoundRect,0.225000X-0.225000X-0.250000X0.225000X-0.250000X0.225000X0.250000X-0.225000X0.250000X0*%
%TD*%
%TA.AperFunction,SMDPad,CuDef*%
%ADD47R,3.600000X2.600000*%
%TD*%
%TA.AperFunction,ComponentPad*%
%ADD48RoundRect,0.249999X0.525001X0.525001X-0.525001X0.525001X-0.525001X-0.525001X0.525001X-0.525001X0*%
%TD*%
%TA.AperFunction,ComponentPad*%
%ADD49C,1.550000*%
%TD*%
%TA.AperFunction,ComponentPad*%
%ADD50C,1.300000*%
%TD*%
%TA.AperFunction,ComponentPad*%
%ADD51C,2.286000*%
%TD*%
%TA.AperFunction,SMDPad,CuDef*%
%ADD52RoundRect,0.075000X-0.075000X0.350000X-0.075000X-0.350000X0.075000X-0.350000X0.075000X0.350000X0*%
%TD*%
%TA.AperFunction,HeatsinkPad*%
%ADD53R,2.400000X1.600000*%
%TD*%
%TA.AperFunction,SMDPad,CuDef*%
%ADD54RoundRect,0.250000X0.250000X-0.650000X0.250000X0.650000X-0.250000X0.650000X-0.250000X-0.650000X0*%
%TD*%
%TA.AperFunction,SMDPad,CuDef*%
%ADD55RoundRect,0.140000X0.219203X0.021213X0.021213X0.219203X-0.219203X-0.021213X-0.021213X-0.219203X0*%
%TD*%
%TA.AperFunction,SMDPad,CuDef*%
%ADD56R,0.800000X1.500000*%
%TD*%
%TA.AperFunction,SMDPad,CuDef*%
%ADD57R,1.500000X0.800000*%
%TD*%
%TA.AperFunction,SMDPad,CuDef*%
%ADD58R,1.100000X1.100000*%
%TD*%
%TA.AperFunction,SMDPad,CuDef*%
%ADD59R,1.400000X1.200000*%
%TD*%
%TA.AperFunction,SMDPad,CuDef*%
%ADD60RoundRect,0.225000X0.250000X-0.225000X0.250000X0.225000X-0.250000X0.225000X-0.250000X-0.225000X0*%
%TD*%
%TA.AperFunction,SMDPad,CuDef*%
%ADD61O,0.630000X2.250000*%
%TD*%
%TA.AperFunction,SMDPad,CuDef*%
%ADD62RoundRect,0.250001X-0.499999X-0.999999X0.499999X-0.999999X0.499999X0.999999X-0.499999X0.999999X0*%
%TD*%
%TA.AperFunction,SMDPad,CuDef*%
%ADD63RoundRect,0.062500X-0.062500X0.350000X-0.062500X-0.350000X0.062500X-0.350000X0.062500X0.350000X0*%
%TD*%
%TA.AperFunction,SMDPad,CuDef*%
%ADD64RoundRect,0.062500X-0.350000X0.062500X-0.350000X-0.062500X0.350000X-0.062500X0.350000X0.062500X0*%
%TD*%
%TA.AperFunction,HeatsinkPad*%
%ADD65R,1.700000X1.700000*%
%TD*%
%TA.AperFunction,SMDPad,CuDef*%
%ADD66C,0.500000*%
%TD*%
%TA.AperFunction,SMDPad,CuDef*%
%ADD67R,0.675000X0.254000*%
%TD*%
%TA.AperFunction,SMDPad,CuDef*%
%ADD68R,0.254000X0.675000*%
%TD*%
%TA.AperFunction,SMDPad,CuDef*%
%ADD69RoundRect,0.125000X0.345000X0.125000X-0.345000X0.125000X-0.345000X-0.125000X0.345000X-0.125000X0*%
%TD*%
%TA.AperFunction,SMDPad,CuDef*%
%ADD70RoundRect,0.150000X-0.150000X0.512500X-0.150000X-0.512500X0.150000X-0.512500X0.150000X0.512500X0*%
%TD*%
%TA.AperFunction,ViaPad*%
%ADD71C,0.500000*%
%TD*%
%TA.AperFunction,Conductor*%
%ADD72C,0.300000*%
%TD*%
%TA.AperFunction,Conductor*%
%ADD73C,0.150000*%
%TD*%
%TA.AperFunction,Conductor*%
%ADD74C,0.250000*%
%TD*%
%TA.AperFunction,Conductor*%
%ADD75C,0.200000*%
%TD*%
%TA.AperFunction,Conductor*%
%ADD76C,0.500000*%
%TD*%
%TA.AperFunction,Conductor*%
%ADD77C,0.100000*%
%TD*%
%TA.AperFunction,Conductor*%
%ADD78C,0.180000*%
%TD*%
%TA.AperFunction,Conductor*%
%ADD79C,0.120000*%
%TD*%
%TA.AperFunction,Conductor*%
%ADD80C,0.400000*%
%TD*%
G04 APERTURE END LIST*
D10*
%TA.AperFunction,EtchedComponent*%
%TO.C,NT1100*%
G36*
X113980000Y-118045001D02*
G01*
X113480000Y-118045001D01*
X113480000Y-117045001D01*
X113980000Y-117045001D01*
X113980000Y-118045001D01*
G37*
%TD.AperFunction*%
%TA.AperFunction,EtchedComponent*%
%TO.C,NT1101*%
G36*
X113060000Y-118025001D02*
G01*
X112560000Y-118025001D01*
X112560000Y-117025001D01*
X113060000Y-117025001D01*
X113060000Y-118025001D01*
G37*
%TD.AperFunction*%
%TD*%
D11*
%TO.P,X1200,1,1*%
%TO.N,/IMU/OSC32_OUT*%
X109930000Y-89685000D03*
%TO.P,X1200,2,2*%
%TO.N,/IMU/OSC32_IN*%
X109930000Y-87185002D03*
%TD*%
D12*
%TO.P,L301,1,1*%
%TO.N,/Power/SW_3V3*%
X107120720Y-134271542D03*
%TO.P,L301,2,2*%
%TO.N,/Power/+3V3_UNPROTEC*%
X107120720Y-130571542D03*
%TD*%
D13*
%TO.P,JP300,1,A*%
%TO.N,/Power/+5V_UNPROTEC*%
X103725000Y-136675000D03*
D14*
%TO.P,JP300,2,B*%
%TO.N,+5V*%
X105175000Y-136675000D03*
%TD*%
D15*
%TO.P,TP302,1,1*%
%TO.N,+3V3*%
X132750000Y-105325000D03*
%TD*%
D16*
%TO.P,C1101,1*%
%TO.N,+3V3*%
X63770000Y-83185002D03*
%TO.P,C1101,2*%
%TO.N,GND*%
X63770000Y-84185000D03*
%TD*%
D17*
%TO.P,LED300,1*%
%TO.N,Net-(LED300-Pad1)*%
X106863600Y-55785000D03*
%TO.P,LED300,2*%
%TO.N,GND*%
X109403600Y-55785000D03*
%TO.P,LED300,3*%
%TO.N,Net-(LED300-Pad3)*%
X106863600Y-58325000D03*
%TO.P,LED300,4*%
%TO.N,GND*%
X109403600Y-58325000D03*
%TD*%
D18*
%TO.P,L1100,1,1*%
%TO.N,/GPS-RTK/RF_IN*%
X71295000Y-62155001D03*
%TO.P,L1100,2,2*%
%TO.N,/GPS-RTK/RF_*%
X70325000Y-62155001D03*
%TD*%
D16*
%TO.P,R903,1*%
%TO.N,/ST-LINK/ST-LINK.D+*%
X126850000Y-131625000D03*
%TO.P,R903,2*%
%TO.N,/USB-hub/USBOUT1_R.D+*%
X126850000Y-132625000D03*
%TD*%
D19*
%TO.P,R308,1*%
%TO.N,Net-(U302-PGANG)*%
X127200000Y-138375000D03*
%TO.P,R308,2*%
%TO.N,Net-(D301-Pad1)*%
X126200000Y-138375000D03*
%TD*%
D20*
%TO.P,U802,1,1*%
%TO.N,/USB/USB2S.D+*%
X122387500Y-62765001D03*
%TO.P,U802,2,2*%
%TO.N,/USB/USB2S.D-*%
X122387500Y-60865001D03*
%TO.P,U802,3,3*%
%TO.N,GND*%
X120512500Y-61815001D03*
%TD*%
D16*
%TO.P,R418,1*%
%TO.N,/GPS-RTK/USB_GPS.D-*%
X70330000Y-82975002D03*
%TO.P,R418,2*%
%TO.N,/USB-hub/USB_GPS_.D-*%
X70330000Y-83975000D03*
%TD*%
D21*
%TO.P,C501,1*%
%TO.N,+3V3*%
X119100000Y-138075000D03*
%TO.P,C501,2*%
%TO.N,GND*%
X119100000Y-137075000D03*
%TD*%
D22*
%TO.P,R716,1*%
%TO.N,/MCU/SWD.SWDIO*%
X123000000Y-128525000D03*
%TO.P,R716,2*%
%TO.N,Net-(U700-PB14)*%
X124000000Y-128525000D03*
%TD*%
D16*
%TO.P,R306,1*%
%TO.N,/Power/+3V3_UNPROTEC*%
X114070720Y-132821542D03*
%TO.P,R306,2*%
%TO.N,/Power/FB_3V3*%
X114070720Y-133821542D03*
%TD*%
D23*
%TO.P,D1103,1*%
%TO.N,Net-(D1103-Pad1)*%
X79019999Y-67975001D03*
%TO.P,D1103,2*%
%TO.N,/GPS-RTK/TIMEPULSE*%
X77440001Y-67975001D03*
%TD*%
D24*
%TO.P,D301,1*%
%TO.N,Net-(D301-Pad1)*%
X124850000Y-138365000D03*
%TO.P,D301,2*%
%TO.N,+5V*%
X124850000Y-136785000D03*
%TD*%
D25*
%TO.P,D1100,1*%
%TO.N,Net-(D1100-Pad1)*%
X69470000Y-86635001D03*
%TO.P,D1100,2*%
%TO.N,+3V3*%
X69470000Y-89935001D03*
%TD*%
D23*
%TO.P,FB400,1*%
%TO.N,/MCU/+VDDA*%
X106740000Y-105225000D03*
%TO.P,FB400,2*%
%TO.N,+3V3*%
X105160000Y-105225000D03*
%TD*%
D21*
%TO.P,C601,1*%
%TO.N,+3V3*%
X114550000Y-138075000D03*
%TO.P,C601,2*%
%TO.N,GND*%
X114550000Y-137075000D03*
%TD*%
D19*
%TO.P,R301,1*%
%TO.N,/Power/FB_5V0*%
X97650000Y-138871508D03*
%TO.P,R301,2*%
%TO.N,GND*%
X96650000Y-138871508D03*
%TD*%
%TO.P,C408,1*%
%TO.N,+3V3*%
X105200000Y-106475000D03*
%TO.P,C408,2*%
%TO.N,GND*%
X104200000Y-106475000D03*
%TD*%
D21*
%TO.P,R600,1*%
%TO.N,Net-(U600-STB)*%
X119100000Y-135925000D03*
%TO.P,R600,2*%
%TO.N,GND*%
X119100000Y-134925000D03*
%TD*%
D22*
%TO.P,C400,1*%
%TO.N,+3V3*%
X115575000Y-107650000D03*
%TO.P,C400,2*%
%TO.N,GND*%
X116575000Y-107650000D03*
%TD*%
D26*
%TO.P,C1100,1*%
%TO.N,+3V3*%
X64930000Y-83095001D03*
%TO.P,C1100,2*%
%TO.N,GND*%
X64930000Y-84655001D03*
%TD*%
D19*
%TO.P,C313,1*%
%TO.N,/MCU/OSC32_OUT*%
X114250000Y-106025000D03*
%TO.P,C313,2*%
%TO.N,GND*%
X113250000Y-106025000D03*
%TD*%
D22*
%TO.P,R801,1*%
%TO.N,/USB/CC1*%
X124350000Y-62675000D03*
%TO.P,R801,2*%
%TO.N,GND*%
X125350000Y-62675000D03*
%TD*%
D19*
%TO.P,C600,1*%
%TO.N,GND*%
X117300000Y-134025000D03*
%TO.P,C600,2*%
%TO.N,+5V*%
X116300000Y-134025000D03*
%TD*%
%TO.P,C407,1*%
%TO.N,/MCU/+VDDA*%
X107675000Y-107375000D03*
%TO.P,C407,2*%
%TO.N,GND*%
X106675000Y-107375000D03*
%TD*%
D22*
%TO.P,C314,1*%
%TO.N,/MCU/OSC32_IN*%
X115200000Y-106025000D03*
%TO.P,C314,2*%
%TO.N,GND*%
X116200000Y-106025000D03*
%TD*%
D27*
%TO.P,U801,1,D+*%
%TO.N,/USB-hub/USBIN1.D+*%
X132131500Y-137600000D03*
D28*
%TO.P,U801,2,D-*%
%TO.N,/USB-hub/USBIN1.D-*%
X132081500Y-138000000D03*
D29*
%TO.P,U801,3,GND*%
%TO.N,GND*%
X132250000Y-138568500D03*
%TO.P,U801,4,HSD1-*%
%TO.N,/Backplane/BACKPLANE.D-*%
X132650000Y-138568500D03*
%TO.P,U801,5,HSD1+*%
%TO.N,/Backplane/BACKPLANE.D+*%
X133050000Y-138568500D03*
D28*
%TO.P,U801,6,HSD2-*%
%TO.N,/USB/USB2S.D-*%
X133218500Y-138000000D03*
%TO.P,U801,7,HSD2+*%
%TO.N,/USB/USB2S.D+*%
X133218500Y-137600000D03*
D29*
%TO.P,U801,8,~{OE}*%
%TO.N,Net-(U801-~{OE})*%
X133050000Y-137031500D03*
%TO.P,U801,9,VCC*%
%TO.N,+3V3*%
X132650000Y-137031500D03*
%TO.P,U801,10,SEL*%
%TO.N,Net-(U801-SEL)*%
X132250000Y-137031500D03*
%TD*%
D15*
%TO.P,TP701,1,1*%
%TO.N,/ST-LINK/STLINK_RX*%
X133250000Y-113725000D03*
%TD*%
D26*
%TO.P,C304,1*%
%TO.N,+12V_FUSED*%
X94646542Y-136211059D03*
%TO.P,C304,2*%
%TO.N,GND*%
X94646542Y-137771059D03*
%TD*%
D16*
%TO.P,C305,1*%
%TO.N,GND*%
X96090000Y-134071508D03*
%TO.P,C305,2*%
%TO.N,+12V_FUSED*%
X96090000Y-135071508D03*
%TD*%
D19*
%TO.P,R404,1*%
%TO.N,/MCU/NRST*%
X119950000Y-107645000D03*
%TO.P,R404,2*%
%TO.N,/MCU/SWD.~{RST}*%
X118950000Y-107645000D03*
%TD*%
%TO.P,C1204,1*%
%TO.N,/IMU/NRESET*%
X102097500Y-91234999D03*
%TO.P,C1204,2*%
%TO.N,GND*%
X101097502Y-91234999D03*
%TD*%
D30*
%TO.P,U301,1,GND*%
%TO.N,GND*%
X110412500Y-133168050D03*
%TO.P,U301,2,SW*%
%TO.N,/Power/SW_3V3*%
X110412500Y-134118050D03*
%TO.P,U301,3,VIN*%
%TO.N,+12V_FUSED*%
X110412500Y-135068050D03*
%TO.P,U301,4,VFB*%
%TO.N,/Power/FB_3V3*%
X112687500Y-135068050D03*
%TO.P,U301,5,EN*%
%TO.N,+12V_FUSED*%
X112687500Y-134118050D03*
%TO.P,U301,6,VBST*%
%TO.N,/Power/VBST_3V3*%
X112687500Y-133168050D03*
%TD*%
D19*
%TO.P,C500,1*%
%TO.N,GND*%
X121900000Y-134025000D03*
%TO.P,C500,2*%
%TO.N,+5V*%
X120900000Y-134025000D03*
%TD*%
D16*
%TO.P,R902,1*%
%TO.N,/ST-LINK/ST-LINK.D-*%
X127750000Y-131625000D03*
%TO.P,R902,2*%
%TO.N,/USB-hub/USBOUT1_R.D-*%
X127750000Y-132625000D03*
%TD*%
D24*
%TO.P,D400,1*%
%TO.N,Net-(D400-Pad1)*%
X129240000Y-108665000D03*
%TO.P,D400,2*%
%TO.N,+12V_FUSED*%
X129240000Y-107085000D03*
%TD*%
D31*
%TO.P,U200,1,1*%
%TO.N,/Backplane/BACKPLANE.D-*%
X131832500Y-141212501D03*
%TO.P,U200,2,2*%
%TO.N,/Backplane/BACKPLANE.D+*%
X131832500Y-143112501D03*
%TO.P,U200,3,3*%
%TO.N,GND*%
X133707500Y-142162501D03*
%TD*%
D16*
%TO.P,R700,1*%
%TO.N,+3V3*%
X121325000Y-115925000D03*
%TO.P,R700,2*%
%TO.N,/ST-LINK/STLINK-RST*%
X121325000Y-116925000D03*
%TD*%
D22*
%TO.P,R405,1*%
%TO.N,+3V3*%
X100228400Y-58685001D03*
%TO.P,R405,2*%
%TO.N,/MCU/USR_BTN*%
X101228400Y-58685001D03*
%TD*%
D21*
%TO.P,R409,1*%
%TO.N,+3V3*%
X114450000Y-61725000D03*
%TO.P,R409,2*%
%TO.N,Net-(LED301-Pad3)*%
X114450000Y-60725000D03*
%TD*%
%TO.P,R400,1*%
%TO.N,/MCU/USER_LED_1*%
X113550000Y-61725000D03*
%TO.P,R400,2*%
%TO.N,Net-(LED300-Pad1)*%
X113550000Y-60725000D03*
%TD*%
D32*
%TO.P,J1100,1,In*%
%TO.N,/GPS-RTK/RF_IN*%
X71350000Y-56015001D03*
D33*
%TO.P,J1100,2,Ext*%
%TO.N,GND*%
X68810000Y-53475001D03*
X68810000Y-58555001D03*
X73890000Y-53475001D03*
X73890000Y-58555001D03*
%TD*%
D21*
%TO.P,R411,1*%
%TO.N,Net-(D401-Pad1)*%
X126950000Y-108375000D03*
%TO.P,R411,2*%
%TO.N,GND*%
X126950000Y-107375000D03*
%TD*%
D16*
%TO.P,R1200,1*%
%TO.N,+3V3*%
X105110000Y-84435003D03*
%TO.P,R1200,2*%
%TO.N,Net-(U1200-~{BOOT_LOAD_PIN})*%
X105110000Y-85435001D03*
%TD*%
D19*
%TO.P,R1105,1*%
%TO.N,Net-(D1101-Pad1)*%
X50469999Y-69385001D03*
%TO.P,R1105,2*%
%TO.N,GND*%
X49470001Y-69385001D03*
%TD*%
D16*
%TO.P,C410,1*%
%TO.N,/MCU/BOOT0*%
X123100000Y-113600000D03*
%TO.P,C410,2*%
%TO.N,GND*%
X123100000Y-114600000D03*
%TD*%
D34*
%TO.P,D701,1*%
%TO.N,Net-(D701-Pad1)*%
X125175000Y-110660000D03*
%TO.P,D701,2*%
%TO.N,/ST-LINK/LED*%
X125175000Y-112240000D03*
%TD*%
D19*
%TO.P,R1103,1*%
%TO.N,/GPS-RTK/GPS_NRESET*%
X78130000Y-72175001D03*
%TO.P,R1103,2*%
%TO.N,/GPS-RTK/NRST*%
X77130002Y-72175001D03*
%TD*%
D16*
%TO.P,R701,1*%
%TO.N,+3V3*%
X124000000Y-115925000D03*
%TO.P,R701,2*%
%TO.N,Net-(U700-PA0)*%
X124000000Y-116925000D03*
%TD*%
%TO.P,C405,1*%
%TO.N,+3V3*%
X121275000Y-110350000D03*
%TO.P,C405,2*%
%TO.N,GND*%
X121275000Y-111350000D03*
%TD*%
D35*
%TO.P,C301,1*%
%TO.N,/Power/+5V_UNPROTEC*%
X102180000Y-136171508D03*
%TO.P,C301,2*%
%TO.N,GND*%
X100620000Y-136171508D03*
%TD*%
D21*
%TO.P,C300,1*%
%TO.N,/Power/VBST_5V0*%
X100400000Y-138281508D03*
%TO.P,C300,2*%
%TO.N,/Power/SW_5V0*%
X100400000Y-137281508D03*
%TD*%
D24*
%TO.P,D402,1*%
%TO.N,Net-(D402-Pad1)*%
X132240000Y-108665000D03*
%TO.P,D402,2*%
%TO.N,+3V3*%
X132240000Y-107085000D03*
%TD*%
D36*
%TO.P,Y700,1,1*%
%TO.N,/ST-LINK/STLINK-OSC_IN*%
X130150000Y-113525000D03*
%TO.P,Y700,2,2*%
%TO.N,GND*%
X127950000Y-113525000D03*
%TO.P,Y700,3,3*%
%TO.N,/ST-LINK/STLINK-OSC_OUT*%
X127950000Y-115125000D03*
%TO.P,Y700,4,4*%
%TO.N,GND*%
X130150000Y-115125000D03*
%TD*%
D37*
%TO.P,U700,1,VBAT*%
%TO.N,+3V3*%
X130400000Y-117762500D03*
%TO.P,U700,2,PC13*%
%TO.N,Net-(U700-PC13)*%
X129900000Y-117762500D03*
%TO.P,U700,3,PC14*%
%TO.N,Net-(U700-PC14)*%
X129400000Y-117762500D03*
%TO.P,U700,4,PC15*%
%TO.N,unconnected-(U700-PC15-Pad4)*%
X128900000Y-117762500D03*
%TO.P,U700,5,PD0*%
%TO.N,/ST-LINK/STLINK-OSC_IN*%
X128400000Y-117762500D03*
%TO.P,U700,6,PD1*%
%TO.N,/ST-LINK/STLINK-OSC_OUT*%
X127900000Y-117762500D03*
%TO.P,U700,7,NRST*%
%TO.N,/ST-LINK/STLINK-RST*%
X127400000Y-117762500D03*
%TO.P,U700,8,VSSA*%
%TO.N,GND*%
X126900000Y-117762500D03*
%TO.P,U700,9,VDDA*%
%TO.N,+3V3*%
X126400000Y-117762500D03*
%TO.P,U700,10,PA0*%
%TO.N,Net-(U700-PA0)*%
X125900000Y-117762500D03*
%TO.P,U700,11,PA1*%
%TO.N,unconnected-(U700-PA1-Pad11)*%
X125400000Y-117762500D03*
%TO.P,U700,12,PA2*%
%TO.N,/ST-LINK/STLINK_TX*%
X124900000Y-117762500D03*
D38*
%TO.P,U700,13,PA3*%
%TO.N,/ST-LINK/STLINK_RX*%
X123487500Y-119175000D03*
%TO.P,U700,14,PA4*%
%TO.N,unconnected-(U700-PA4-Pad14)*%
X123487500Y-119675000D03*
%TO.P,U700,15,PA5*%
%TO.N,Net-(U700-PA5)*%
X123487500Y-120175000D03*
%TO.P,U700,16,PA6*%
%TO.N,unconnected-(U700-PA6-Pad16)*%
X123487500Y-120675000D03*
%TO.P,U700,17,PA7*%
%TO.N,unconnected-(U700-PA7-Pad17)*%
X123487500Y-121175000D03*
%TO.P,U700,18,PB0*%
%TO.N,Net-(U700-PB0)*%
X123487500Y-121675000D03*
%TO.P,U700,19,PB1*%
%TO.N,unconnected-(U700-PB1-Pad19)*%
X123487500Y-122175000D03*
%TO.P,U700,20,PB2*%
%TO.N,unconnected-(U700-PB2-Pad20)*%
X123487500Y-122675000D03*
%TO.P,U700,21,PB10*%
%TO.N,unconnected-(U700-PB10-Pad21)*%
X123487500Y-123175000D03*
%TO.P,U700,22,PB11*%
%TO.N,unconnected-(U700-PB11-Pad22)*%
X123487500Y-123675000D03*
%TO.P,U700,23,VSS*%
%TO.N,GND*%
X123487500Y-124175000D03*
%TO.P,U700,24,VDD*%
%TO.N,+3V3*%
X123487500Y-124675000D03*
D37*
%TO.P,U700,25,PB12*%
%TO.N,Net-(U700-PB12)*%
X124900000Y-126087500D03*
%TO.P,U700,26,PB13*%
%TO.N,Net-(U700-PB13)*%
X125400000Y-126087500D03*
%TO.P,U700,27,PB14*%
%TO.N,Net-(U700-PB14)*%
X125900000Y-126087500D03*
%TO.P,U700,28,PB15*%
%TO.N,unconnected-(U700-PB15-Pad28)*%
X126400000Y-126087500D03*
%TO.P,U700,29,PA8*%
%TO.N,unconnected-(U700-PA8-Pad29)*%
X126900000Y-126087500D03*
%TO.P,U700,30,PA9*%
%TO.N,/ST-LINK/LED*%
X127400000Y-126087500D03*
%TO.P,U700,31,PA10*%
%TO.N,/ST-LINK/SWO*%
X127900000Y-126087500D03*
%TO.P,U700,32,PA11*%
%TO.N,/ST-LINK/ST-LINK.D-*%
X128400000Y-126087500D03*
%TO.P,U700,33,PA12*%
%TO.N,/ST-LINK/ST-LINK.D+*%
X128900000Y-126087500D03*
%TO.P,U700,34,PA13*%
%TO.N,/ST-LINK/DIO*%
X129400000Y-126087500D03*
%TO.P,U700,35,VSS*%
%TO.N,GND*%
X129900000Y-126087500D03*
%TO.P,U700,36,VDD*%
%TO.N,+3V3*%
X130400000Y-126087500D03*
D38*
%TO.P,U700,37,PA14*%
%TO.N,/ST-LINK/CLK*%
X131812500Y-124675000D03*
%TO.P,U700,38,PA15*%
%TO.N,/ST-LINK/USB_RENUM*%
X131812500Y-124175000D03*
%TO.P,U700,39,PB3*%
%TO.N,unconnected-(U700-PB3-Pad39)*%
X131812500Y-123675000D03*
%TO.P,U700,40,PB4*%
%TO.N,unconnected-(U700-PB4-Pad40)*%
X131812500Y-123175000D03*
%TO.P,U700,41,PB5*%
%TO.N,unconnected-(U700-PB5-Pad41)*%
X131812500Y-122675000D03*
%TO.P,U700,42,PB6*%
%TO.N,unconnected-(U700-PB6-Pad42)*%
X131812500Y-122175000D03*
%TO.P,U700,43,PB7*%
%TO.N,unconnected-(U700-PB7-Pad43)*%
X131812500Y-121675000D03*
%TO.P,U700,44,BOOT0*%
%TO.N,/ST-LINK/STLINK-BOOT0*%
X131812500Y-121175000D03*
%TO.P,U700,45,PB8*%
%TO.N,unconnected-(U700-PB8-Pad45)*%
X131812500Y-120675000D03*
%TO.P,U700,46,PB9*%
%TO.N,unconnected-(U700-PB9-Pad46)*%
X131812500Y-120175000D03*
%TO.P,U700,47,VSS*%
%TO.N,GND*%
X131812500Y-119675000D03*
%TO.P,U700,48,VDD*%
%TO.N,+3V3*%
X131812500Y-119175000D03*
%TD*%
D15*
%TO.P,TP700,1,1*%
%TO.N,/ST-LINK/STLINK_TX*%
X133250000Y-111725000D03*
%TD*%
D16*
%TO.P,C1202,1*%
%TO.N,/IMU/OSC32_OUT*%
X108410002Y-88785002D03*
%TO.P,C1202,2*%
%TO.N,GND*%
X108410002Y-89785000D03*
%TD*%
D22*
%TO.P,R707,1*%
%TO.N,+3V3*%
X122850000Y-109375000D03*
%TO.P,R707,2*%
%TO.N,Net-(D700-Pad2)*%
X123850000Y-109375000D03*
%TD*%
D39*
%TO.P,U400,1,PE2*%
%TO.N,/MCU/QSPI1.IO2*%
X118075000Y-109175000D03*
%TO.P,U400,2,PE3*%
%TO.N,/MCU/USER_LED_1*%
X117575000Y-109175000D03*
%TO.P,U400,3,PE4*%
%TO.N,/MCU/USER_LED_2*%
X117075000Y-109175000D03*
%TO.P,U400,4,PE5*%
%TO.N,/MCU/STATUS_LED*%
X116575000Y-109175000D03*
%TO.P,U400,5,PE6*%
%TO.N,/MCU/USR_BUTTON*%
X116075000Y-109175000D03*
%TO.P,U400,6,VBAT*%
%TO.N,+3V3*%
X115575000Y-109175000D03*
%TO.P,U400,7,PC13*%
%TO.N,unconnected-(U400-PC13-Pad7)*%
X115075000Y-109175000D03*
%TO.P,U400,8,PC14*%
%TO.N,/MCU/OSC32_IN*%
X114575000Y-109175000D03*
%TO.P,U400,9,PC15*%
%TO.N,/MCU/OSC32_OUT*%
X114075000Y-109175000D03*
%TO.P,U400,10,VSS*%
%TO.N,GND*%
X113575000Y-109175000D03*
%TO.P,U400,11,VDD*%
%TO.N,+3V3*%
X113075000Y-109175000D03*
%TO.P,U400,12,PH0*%
%TO.N,/MCU/OSC_IN*%
X112575000Y-109175000D03*
%TO.P,U400,13,PH1*%
%TO.N,/MCU/OSC_OUT*%
X112075000Y-109175000D03*
%TO.P,U400,14,NRST*%
%TO.N,/MCU/SWD.~{RST}*%
X111575000Y-109175000D03*
%TO.P,U400,15,PC0*%
%TO.N,unconnected-(U400-PC0-Pad15)*%
X111075000Y-109175000D03*
%TO.P,U400,16,PC1*%
%TO.N,unconnected-(U400-PC1-Pad16)*%
X110575000Y-109175000D03*
%TO.P,U400,17,PC2_C*%
%TO.N,unconnected-(U400-PC2_C-Pad17)*%
X110075000Y-109175000D03*
%TO.P,U400,18,PC3_C*%
%TO.N,unconnected-(U400-PC3_C-Pad18)*%
X109575000Y-109175000D03*
%TO.P,U400,19,VSSA*%
%TO.N,GND*%
X109075000Y-109175000D03*
%TO.P,U400,20,VREF+*%
%TO.N,unconnected-(U400-VREF+-Pad20)*%
X108575000Y-109175000D03*
%TO.P,U400,21,VDDA*%
%TO.N,/MCU/+VDDA*%
X108075000Y-109175000D03*
%TO.P,U400,22,PA0*%
%TO.N,unconnected-(U400-PA0-Pad22)*%
X107575000Y-109175000D03*
%TO.P,U400,23,PA1*%
%TO.N,unconnected-(U400-PA1-Pad23)*%
X107075000Y-109175000D03*
%TO.P,U400,24,PA2*%
%TO.N,unconnected-(U400-PA2-Pad24)*%
X106575000Y-109175000D03*
%TO.P,U400,25,PA3*%
%TO.N,unconnected-(U400-PA3-Pad25)*%
X106075000Y-109175000D03*
D40*
%TO.P,U400,26,VSS*%
%TO.N,GND*%
X104400000Y-110850000D03*
%TO.P,U400,27,VDD*%
%TO.N,+3V3*%
X104400000Y-111350000D03*
%TO.P,U400,28,PA4*%
%TO.N,unconnected-(U400-PA4-Pad28)*%
X104400000Y-111850000D03*
%TO.P,U400,29,PA5*%
%TO.N,unconnected-(U400-PA5-Pad29)*%
X104400000Y-112350000D03*
%TO.P,U400,30,PA6*%
%TO.N,unconnected-(U400-PA6-Pad30)*%
X104400000Y-112850000D03*
%TO.P,U400,31,PA7*%
%TO.N,unconnected-(U400-PA7-Pad31)*%
X104400000Y-113350000D03*
%TO.P,U400,32,PC4*%
%TO.N,unconnected-(U400-PC4-Pad32)*%
X104400000Y-113850000D03*
%TO.P,U400,33,PC5*%
%TO.N,unconnected-(U400-PC5-Pad33)*%
X104400000Y-114350000D03*
%TO.P,U400,34,PB0*%
%TO.N,unconnected-(U400-PB0-Pad34)*%
X104400000Y-114850000D03*
%TO.P,U400,35,PB1*%
%TO.N,unconnected-(U400-PB1-Pad35)*%
X104400000Y-115350000D03*
%TO.P,U400,36,PB2*%
%TO.N,/MCU/QSPI1.SCLK*%
X104400000Y-115850000D03*
%TO.P,U400,37,PE7*%
%TO.N,unconnected-(U400-PE7-Pad37)*%
X104400000Y-116350000D03*
%TO.P,U400,38,PE8*%
%TO.N,unconnected-(U400-PE8-Pad38)*%
X104400000Y-116850000D03*
%TO.P,U400,39,PE9*%
%TO.N,unconnected-(U400-PE9-Pad39)*%
X104400000Y-117350000D03*
%TO.P,U400,40,PE10*%
%TO.N,unconnected-(U400-PE10-Pad40)*%
X104400000Y-117850000D03*
%TO.P,U400,41,PE11*%
%TO.N,unconnected-(U400-PE11-Pad41)*%
X104400000Y-118350000D03*
%TO.P,U400,42,PE12*%
%TO.N,unconnected-(U400-PE12-Pad42)*%
X104400000Y-118850000D03*
%TO.P,U400,43,PE13*%
%TO.N,unconnected-(U400-PE13-Pad43)*%
X104400000Y-119350000D03*
%TO.P,U400,44,PE14*%
%TO.N,unconnected-(U400-PE14-Pad44)*%
X104400000Y-119850000D03*
%TO.P,U400,45,PE15*%
%TO.N,unconnected-(U400-PE15-Pad45)*%
X104400000Y-120350000D03*
%TO.P,U400,46,PB10*%
%TO.N,/MCU/QSPI1.CS*%
X104400000Y-120850000D03*
%TO.P,U400,47,PB11*%
%TO.N,unconnected-(U400-PB11-Pad47)*%
X104400000Y-121350000D03*
%TO.P,U400,48,VCAP*%
%TO.N,/MCU/VCAP_1*%
X104400000Y-121850000D03*
%TO.P,U400,49,VSS*%
%TO.N,GND*%
X104400000Y-122350000D03*
%TO.P,U400,50,VDD*%
%TO.N,+3V3*%
X104400000Y-122850000D03*
D39*
%TO.P,U400,51,PB12*%
%TO.N,/CAN transceiver 2/CAN.RX*%
X106075000Y-124525000D03*
%TO.P,U400,52,PB13*%
%TO.N,/CAN transceiver 2/CAN.TX*%
X106575000Y-124525000D03*
%TO.P,U400,53,PB14*%
%TO.N,unconnected-(U400-PB14-Pad53)*%
X107075000Y-124525000D03*
%TO.P,U400,54,PB15*%
%TO.N,unconnected-(U400-PB15-Pad54)*%
X107575000Y-124525000D03*
%TO.P,U400,55,PD8*%
%TO.N,unconnected-(U400-PD8-Pad55)*%
X108075000Y-124525000D03*
%TO.P,U400,56,PD9*%
%TO.N,unconnected-(U400-PD9-Pad56)*%
X108575000Y-124525000D03*
%TO.P,U400,57,PD10*%
%TO.N,unconnected-(U400-PD10-Pad57)*%
X109075000Y-124525000D03*
%TO.P,U400,58,PD11*%
%TO.N,/MCU/QSPI1.IO0*%
X109575000Y-124525000D03*
%TO.P,U400,59,PD12*%
%TO.N,/MCU/QSPI1.IO1*%
X110075000Y-124525000D03*
%TO.P,U400,60,PD13*%
%TO.N,/MCU/QSPI1.IO3*%
X110575000Y-124525000D03*
%TO.P,U400,61,PD14*%
%TO.N,unconnected-(U400-PD14-Pad61)*%
X111075000Y-124525000D03*
%TO.P,U400,62,PD15*%
%TO.N,unconnected-(U400-PD15-Pad62)*%
X111575000Y-124525000D03*
%TO.P,U400,63,PC6*%
%TO.N,unconnected-(U400-PC6-Pad63)*%
X112075000Y-124525000D03*
%TO.P,U400,64,PC7*%
%TO.N,unconnected-(U400-PC7-Pad64)*%
X112575000Y-124525000D03*
%TO.P,U400,65,PC8*%
%TO.N,unconnected-(U400-PC8-Pad65)*%
X113075000Y-124525000D03*
%TO.P,U400,66,PC9*%
%TO.N,unconnected-(U400-PC9-Pad66)*%
X113575000Y-124525000D03*
%TO.P,U400,67,PA8*%
%TO.N,unconnected-(U400-PA8-Pad67)*%
X114075000Y-124525000D03*
%TO.P,U400,68,PA9*%
%TO.N,unconnected-(U400-PA9-Pad68)*%
X114575000Y-124525000D03*
%TO.P,U400,69,PA10*%
%TO.N,unconnected-(U400-PA10-Pad69)*%
X115075000Y-124525000D03*
%TO.P,U400,70,PA11*%
%TO.N,/MCU/USB_MCU.D-*%
X115575000Y-124525000D03*
%TO.P,U400,71,PA12*%
%TO.N,/MCU/USB_MCU.D+*%
X116075000Y-124525000D03*
%TO.P,U400,72,PA13*%
%TO.N,/MCU/SWD.SWDIO*%
X116575000Y-124525000D03*
%TO.P,U400,73,VCAP*%
%TO.N,/MCU/VCAP_2*%
X117075000Y-124525000D03*
%TO.P,U400,74,VSS*%
%TO.N,GND*%
X117575000Y-124525000D03*
%TO.P,U400,75,VDD*%
%TO.N,+3V3*%
X118075000Y-124525000D03*
D40*
%TO.P,U400,76,PA14*%
%TO.N,/MCU/SWD.SWCLK*%
X119750000Y-122850000D03*
%TO.P,U400,77,PA15*%
%TO.N,unconnected-(U400-PA15-Pad77)*%
X119750000Y-122350000D03*
%TO.P,U400,78,PC10*%
%TO.N,/GPS-RTK/GPS_UART.RX*%
X119750000Y-121850000D03*
%TO.P,U400,79,PC11*%
%TO.N,/GPS-RTK/GPS_UART.TX*%
X119750000Y-121350000D03*
%TO.P,U400,80,PC12*%
%TO.N,unconnected-(U400-PC12-Pad80)*%
X119750000Y-120850000D03*
%TO.P,U400,81,PD0*%
%TO.N,/CAN transceiver 1/CAN.RX*%
X119750000Y-120350000D03*
%TO.P,U400,82,PD1*%
%TO.N,/CAN transceiver 1/CAN.TX*%
X119750000Y-119850000D03*
%TO.P,U400,83,PD2*%
%TO.N,/GPS-RTK/GPS_GEOFENCE_STAT*%
X119750000Y-119350000D03*
%TO.P,U400,84,PD3*%
%TO.N,/GPS-RTK/GPS_RTK_STAT*%
X119750000Y-118850000D03*
%TO.P,U400,85,PD4*%
%TO.N,/GPS-RTK/GPS_EXINTERUPT*%
X119750000Y-118350000D03*
%TO.P,U400,86,PD5*%
%TO.N,/GPS-RTK/GPS_MODE_SELECT*%
X119750000Y-117850000D03*
%TO.P,U400,87,PD6*%
%TO.N,/GPS-RTK/GPS_NRESET*%
X119750000Y-117350000D03*
%TO.P,U400,88,PD7*%
%TO.N,/GPS-RTK/GPS_SPI.MOSI*%
X119750000Y-116850000D03*
%TO.P,U400,89,PB3*%
%TO.N,/GPS-RTK/GPS_SPI.CLK*%
X119750000Y-116350000D03*
%TO.P,U400,90,PB4*%
%TO.N,/GPS-RTK/GPS_SPI.MISO*%
X119750000Y-115850000D03*
%TO.P,U400,91,PB5*%
%TO.N,/GPS-RTK/GPS_SPI.CS*%
X119750000Y-115350000D03*
%TO.P,U400,92,PB6*%
%TO.N,unconnected-(U400-PB6-Pad92)*%
X119750000Y-114850000D03*
%TO.P,U400,93,PB7*%
%TO.N,/MCU/BOOT_EN*%
X119750000Y-114350000D03*
%TO.P,U400,94,BOOT0*%
%TO.N,/MCU/BOOT0*%
X119750000Y-113850000D03*
%TO.P,U400,95,PB8*%
%TO.N,/IMU/IMU_I2C.SCL*%
X119750000Y-113350000D03*
%TO.P,U400,96,PB9*%
%TO.N,/IMU/IMU_I2C.SDA*%
X119750000Y-112850000D03*
%TO.P,U400,97,PE0*%
%TO.N,/IMU/IMU_EXINTERUPT*%
X119750000Y-112350000D03*
%TO.P,U400,98,PE1*%
%TO.N,/IMU/IMU_NRESET*%
X119750000Y-111850000D03*
%TO.P,U400,99,VSS*%
%TO.N,GND*%
X119750000Y-111350000D03*
%TO.P,U400,100,VDD*%
%TO.N,+3V3*%
X119750000Y-110850000D03*
%TD*%
D19*
%TO.P,C409,1*%
%TO.N,+3V3*%
X105200000Y-107375000D03*
%TO.P,C409,2*%
%TO.N,GND*%
X104200000Y-107375000D03*
%TD*%
%TO.P,C708,1*%
%TO.N,/ST-LINK/STLINK-OSC_OUT*%
X128600000Y-116235000D03*
%TO.P,C708,2*%
%TO.N,GND*%
X127600000Y-116235000D03*
%TD*%
D16*
%TO.P,R705,1*%
%TO.N,GND*%
X132900000Y-115125000D03*
%TO.P,R705,2*%
%TO.N,Net-(U700-PC13)*%
X132900000Y-116125000D03*
%TD*%
D19*
%TO.P,R1100,1*%
%TO.N,Net-(D1100-Pad1)*%
X66870000Y-86335001D03*
%TO.P,R1100,2*%
%TO.N,/GPS-RTK/V_BCKP*%
X65870002Y-86335001D03*
%TD*%
D16*
%TO.P,R307,1*%
%TO.N,/Power/FB_3V3*%
X114070720Y-134721542D03*
%TO.P,R307,2*%
%TO.N,GND*%
X114070720Y-135721542D03*
%TD*%
D41*
%TO.P,D1101,1*%
%TO.N,Net-(D1101-Pad1)*%
X50480001Y-70685001D03*
%TO.P,D1101,2*%
%TO.N,/GPS-RTK/GPS_GEOFENCE_STAT*%
X52059999Y-70685001D03*
%TD*%
D22*
%TO.P,R711,1*%
%TO.N,Net-(Q700-B)*%
X132550000Y-128175000D03*
%TO.P,R711,2*%
%TO.N,GND*%
X133550000Y-128175000D03*
%TD*%
%TO.P,R710,1*%
%TO.N,Net-(Q700-B)*%
X132550000Y-127275000D03*
%TO.P,R710,2*%
%TO.N,/ST-LINK/USB_RENUM*%
X133550000Y-127275000D03*
%TD*%
%TO.P,R715,1*%
%TO.N,/MCU/SWD.SWCLK*%
X123000000Y-127650000D03*
%TO.P,R715,2*%
%TO.N,Net-(U700-PB13)*%
X124000000Y-127650000D03*
%TD*%
D19*
%TO.P,R1106,1*%
%TO.N,Net-(D1102-Pad1)*%
X50479999Y-74085001D03*
%TO.P,R1106,2*%
%TO.N,GND*%
X49480001Y-74085001D03*
%TD*%
D16*
%TO.P,C801,1*%
%TO.N,Net-(J800-SHIELD)*%
X116250000Y-60725000D03*
%TO.P,C801,2*%
%TO.N,GND*%
X116250000Y-61725000D03*
%TD*%
D15*
%TO.P,TP300,1,1*%
%TO.N,+12V_FUSED*%
X128750000Y-105325000D03*
%TD*%
D21*
%TO.P,C402,1*%
%TO.N,+3V3*%
X102875000Y-111350000D03*
%TO.P,C402,2*%
%TO.N,GND*%
X102875000Y-110350000D03*
%TD*%
D16*
%TO.P,C1104,1*%
%TO.N,GND*%
X68570000Y-60985002D03*
%TO.P,C1104,2*%
%TO.N,/GPS-RTK/RF_*%
X68570000Y-61985000D03*
%TD*%
D13*
%TO.P,JP301,1,A*%
%TO.N,/Power/+3V3_UNPROTEC*%
X112970720Y-130225000D03*
D14*
%TO.P,JP301,2,B*%
%TO.N,+3V3*%
X114420720Y-130225000D03*
%TD*%
D42*
%TO.P,J800,A1,GND*%
%TO.N,GND*%
X125250000Y-58715000D03*
%TO.P,J800,A4,VBUS*%
%TO.N,/USB/VBUS_IN*%
X124450000Y-58715000D03*
D43*
%TO.P,J800,A5,CC1*%
%TO.N,/USB/CC1*%
X123300000Y-58715000D03*
%TO.P,J800,A6,D+*%
%TO.N,/USB/USB2S.D+*%
X122300000Y-58715000D03*
%TO.P,J800,A7,D-*%
%TO.N,/USB/USB2S.D-*%
X121800000Y-58715000D03*
%TO.P,J800,A8,SBU1*%
%TO.N,unconnected-(J800-SBU1-PadA8)*%
X120800000Y-58715000D03*
D42*
%TO.P,J800,A9,VBUS*%
%TO.N,/USB/VBUS_IN*%
X119650000Y-58715000D03*
%TO.P,J800,A12,GND*%
%TO.N,GND*%
X118850000Y-58715000D03*
%TO.P,J800,B1,GND*%
X118850000Y-58715000D03*
%TO.P,J800,B4,VBUS*%
%TO.N,/USB/VBUS_IN*%
X119650000Y-58715000D03*
D43*
%TO.P,J800,B5,CC2*%
%TO.N,/USB/CC2*%
X120300000Y-58715000D03*
%TO.P,J800,B6,D+*%
%TO.N,/USB/USB2S.D+*%
X121300000Y-58715000D03*
%TO.P,J800,B7,D-*%
%TO.N,/USB/USB2S.D-*%
X122800000Y-58715000D03*
%TO.P,J800,B8,SBU2*%
%TO.N,unconnected-(J800-SBU2-PadB8)*%
X123800000Y-58715000D03*
D42*
%TO.P,J800,B9,VBUS*%
%TO.N,/USB/VBUS_IN*%
X124450000Y-58715000D03*
%TO.P,J800,B12,GND*%
%TO.N,GND*%
X125250000Y-58715000D03*
D44*
%TO.P,J800,S1,SHIELD*%
%TO.N,Net-(J800-SHIELD)*%
X126370000Y-58140000D03*
D45*
X126370000Y-53960000D03*
D44*
X117730000Y-58140000D03*
D45*
X117730000Y-53960000D03*
%TD*%
D22*
%TO.P,C311,1*%
%TO.N,GND*%
X109270720Y-136281542D03*
%TO.P,C311,2*%
%TO.N,+12V_FUSED*%
X110270720Y-136281542D03*
%TD*%
%TO.P,C1105,1*%
%TO.N,/GPS-RTK/NRST*%
X77130002Y-71275001D03*
%TO.P,C1105,2*%
%TO.N,GND*%
X78130000Y-71275001D03*
%TD*%
D15*
%TO.P,TP301,1,1*%
%TO.N,+5V*%
X130750000Y-105325000D03*
%TD*%
D22*
%TO.P,C707,1*%
%TO.N,/ST-LINK/STLINK-OSC_IN*%
X129500000Y-116225000D03*
%TO.P,C707,2*%
%TO.N,GND*%
X130500000Y-116225000D03*
%TD*%
D16*
%TO.P,R901,1*%
%TO.N,/MCU/USB_MCU.D+*%
X123900000Y-132725000D03*
%TO.P,R901,2*%
%TO.N,/USB-hub/USB_MCU_R.D+*%
X123900000Y-133725000D03*
%TD*%
D19*
%TO.P,R709,1*%
%TO.N,+5V*%
X133550000Y-129075000D03*
%TO.P,R709,2*%
%TO.N,Net-(Q700-B)*%
X132550000Y-129075000D03*
%TD*%
D16*
%TO.P,R805,1*%
%TO.N,Net-(J800-SHIELD)*%
X117150000Y-60725000D03*
%TO.P,R805,2*%
%TO.N,GND*%
X117150000Y-61725000D03*
%TD*%
%TO.P,R800,1*%
%TO.N,/USB/CC2*%
X118050000Y-60725000D03*
%TO.P,R800,2*%
%TO.N,GND*%
X118050000Y-61725000D03*
%TD*%
D46*
%TO.P,C310,1*%
%TO.N,+12V_FUSED*%
X111420720Y-136481542D03*
%TO.P,C310,2*%
%TO.N,GND*%
X112980720Y-136481542D03*
%TD*%
D16*
%TO.P,R402,1*%
%TO.N,/MCU/BOOT0*%
X122200000Y-113600000D03*
%TO.P,R402,2*%
%TO.N,GND*%
X122200000Y-114600000D03*
%TD*%
D21*
%TO.P,R702,1*%
%TO.N,GND*%
X133300000Y-122175000D03*
%TO.P,R702,2*%
%TO.N,/ST-LINK/STLINK-BOOT0*%
X133300000Y-121175000D03*
%TD*%
%TO.P,C1201,1*%
%TO.N,+3V3*%
X106010000Y-85434999D03*
%TO.P,C1201,2*%
%TO.N,GND*%
X106010000Y-84435001D03*
%TD*%
D46*
%TO.P,C309,1*%
%TO.N,+12V_FUSED*%
X111410271Y-137725000D03*
%TO.P,C309,2*%
%TO.N,GND*%
X112970271Y-137725000D03*
%TD*%
D21*
%TO.P,C900,1*%
%TO.N,Net-(U302-3V3)*%
X130450000Y-134575000D03*
%TO.P,C900,2*%
%TO.N,GND*%
X130450000Y-133575000D03*
%TD*%
D16*
%TO.P,C404,1*%
%TO.N,+3V3*%
X118975000Y-124600000D03*
%TO.P,C404,2*%
%TO.N,GND*%
X118975000Y-125600000D03*
%TD*%
%TO.P,R802,1*%
%TO.N,/USB/VBUS_IN*%
X132550000Y-133525000D03*
%TO.P,R802,2*%
%TO.N,Net-(U801-SEL)*%
X132550000Y-134525000D03*
%TD*%
D22*
%TO.P,C701,1*%
%TO.N,+3V3*%
X131350000Y-117625000D03*
%TO.P,C701,2*%
%TO.N,GND*%
X132350000Y-117625000D03*
%TD*%
D47*
%TO.P,BAT1100,1,1*%
%TO.N,/GPS-RTK/V_BCKP*%
X61470000Y-87785001D03*
%TO.P,BAT1100,2,2*%
%TO.N,GND*%
X61470000Y-117085001D03*
%TD*%
D19*
%TO.P,R300,1*%
%TO.N,/Power/+5V_UNPROTEC*%
X99550000Y-138871508D03*
%TO.P,R300,2*%
%TO.N,/Power/FB_5V0*%
X98550000Y-138871508D03*
%TD*%
D22*
%TO.P,R1201,1*%
%TO.N,+3V3*%
X101097501Y-90335002D03*
%TO.P,R1201,2*%
%TO.N,/IMU/NRESET*%
X102097499Y-90335002D03*
%TD*%
D48*
%TO.P,J200,a1,a1*%
%TO.N,GND*%
X128740000Y-145975000D03*
D49*
%TO.P,J200,a2,a2*%
%TO.N,/Backplane/BACKPLANE.D+*%
X126200000Y-145975000D03*
%TO.P,J200,a3,a3*%
%TO.N,+5V_STDBY*%
X123660000Y-145975000D03*
%TO.P,J200,a4,a4*%
%TO.N,GND*%
X121120000Y-145975000D03*
%TO.P,J200,a5,a5*%
%TO.N,/Backplane/CAN1.+*%
X118580000Y-145975000D03*
%TO.P,J200,a6,a6*%
%TO.N,/Backplane/CAN1.-*%
X116040000Y-145975000D03*
%TO.P,J200,a7,a7*%
%TO.N,GND*%
X113500000Y-145975000D03*
%TO.P,J200,a8,a8*%
%TO.N,/Backplane/CAN2.+*%
X110960000Y-145975000D03*
%TO.P,J200,a9,a9*%
%TO.N,/Backplane/CAN2.-*%
X108420000Y-145975000D03*
%TO.P,J200,a10,a10*%
%TO.N,GND*%
X105880000Y-145975000D03*
%TO.P,J200,a11,a11*%
%TO.N,+12V*%
X103340000Y-145975000D03*
%TO.P,J200,a12,a12*%
X100800000Y-145975000D03*
%TO.P,J200,a13,a13*%
%TO.N,GND*%
X98260000Y-145975000D03*
%TO.P,J200,a14,a14*%
%TO.N,+24V*%
X95720000Y-145975000D03*
%TO.P,J200,a15,a15*%
%TO.N,GND*%
X93180000Y-145975000D03*
%TO.P,J200,a16,a16*%
%TO.N,/Backplane/GPIOL0*%
X90640000Y-145975000D03*
%TO.P,J200,a17,a17*%
%TO.N,/Backplane/GPIOL1*%
X88100000Y-145975000D03*
%TO.P,J200,a18,a18*%
%TO.N,/Backplane/GPIOL2*%
X85560000Y-145975000D03*
%TO.P,J200,a19,a19*%
%TO.N,/Backplane/GPIOL3*%
X83020000Y-145975000D03*
%TO.P,J200,a20,a20*%
%TO.N,/Backplane/GPIOL4*%
X80480000Y-145975000D03*
%TO.P,J200,a21,a21*%
%TO.N,/Backplane/GPIOL5*%
X77940000Y-145975000D03*
%TO.P,J200,a22,a22*%
%TO.N,/Backplane/GPIOL6*%
X75400000Y-145975000D03*
%TO.P,J200,a23,a23*%
%TO.N,/Backplane/GPIOL7*%
X72860000Y-145975000D03*
%TO.P,J200,a24,a24*%
%TO.N,/Backplane/GPIOL8*%
X70320000Y-145975000D03*
%TO.P,J200,a25,a25*%
%TO.N,/Backplane/GPIOL9*%
X67780000Y-145975000D03*
%TO.P,J200,a26,a26*%
%TO.N,/Backplane/GPIOL10*%
X65240000Y-145975000D03*
%TO.P,J200,a27,a27*%
%TO.N,/Backplane/GPIOL11*%
X62700000Y-145975000D03*
%TO.P,J200,a28,a28*%
%TO.N,/Backplane/GPIOL12*%
X60160000Y-145975000D03*
%TO.P,J200,a29,a29*%
%TO.N,/Backplane/GPIOL13*%
X57620000Y-145975000D03*
%TO.P,J200,a30,a30*%
%TO.N,/Backplane/GPIOL14*%
X55080000Y-145975000D03*
%TO.P,J200,a31,a31*%
%TO.N,/Backplane/GPIOL15*%
X52540000Y-145975000D03*
%TO.P,J200,a32,a32*%
%TO.N,GND*%
X50000000Y-145975000D03*
%TO.P,J200,b1,b1*%
X128740000Y-143435000D03*
%TO.P,J200,b2,b2*%
X126200000Y-143435000D03*
%TO.P,J200,b3,b3*%
%TO.N,+5V_STDBY*%
X123660000Y-143435000D03*
%TO.P,J200,b4,b4*%
%TO.N,GND*%
X121120000Y-143435000D03*
%TO.P,J200,b5,b5*%
%TO.N,/Backplane/CAN1.+*%
X118580000Y-143435000D03*
%TO.P,J200,b6,b6*%
%TO.N,/Backplane/CAN1.-*%
X116040000Y-143435000D03*
%TO.P,J200,b7,b7*%
%TO.N,GND*%
X113500000Y-143435000D03*
%TO.P,J200,b8,b8*%
%TO.N,/Backplane/CAN2.+*%
X110960000Y-143435000D03*
%TO.P,J200,b9,b9*%
%TO.N,/Backplane/CAN2.-*%
X108420000Y-143435000D03*
%TO.P,J200,b10,b10*%
%TO.N,GND*%
X105880000Y-143435000D03*
%TO.P,J200,b11,b11*%
%TO.N,+12V*%
X103340000Y-143435000D03*
%TO.P,J200,b12,b12*%
X100800000Y-143435000D03*
%TO.P,J200,b13,b13*%
%TO.N,GND*%
X98260000Y-143435000D03*
%TO.P,J200,b14,b14*%
%TO.N,+24V*%
X95720000Y-143435000D03*
%TO.P,J200,b15,b15*%
%TO.N,GND*%
X93180000Y-143435000D03*
%TO.P,J200,b16,b16*%
%TO.N,/Backplane/GPIOC0*%
X90640000Y-143435000D03*
%TO.P,J200,b17,b17*%
%TO.N,/Backplane/GPIOC1*%
X88100000Y-143435000D03*
%TO.P,J200,b18,b18*%
%TO.N,/Backplane/GPIOC2*%
X85560000Y-143435000D03*
%TO.P,J200,b19,b19*%
%TO.N,/Backplane/GPIOC3*%
X83020000Y-143435000D03*
%TO.P,J200,b20,b20*%
%TO.N,/Backplane/GPIOC4*%
X80480000Y-143435000D03*
%TO.P,J200,b21,b21*%
%TO.N,/Backplane/GPIOC5*%
X77940000Y-143435000D03*
%TO.P,J200,b22,b22*%
%TO.N,/Backplane/GPIOC6*%
X75400000Y-143435000D03*
%TO.P,J200,b23,b23*%
%TO.N,/Backplane/GPIOC7*%
X72860000Y-143435000D03*
%TO.P,J200,b24,b24*%
%TO.N,/Backplane/GPIOC8*%
X70320000Y-143435000D03*
%TO.P,J200,b25,b25*%
%TO.N,/Backplane/GPIOC9*%
X67780000Y-143435000D03*
%TO.P,J200,b26,b26*%
%TO.N,/Backplane/GPIOC10*%
X65240000Y-143435000D03*
%TO.P,J200,b27,b27*%
%TO.N,/Backplane/GPIOC11*%
X62700000Y-143435000D03*
%TO.P,J200,b28,b28*%
%TO.N,/Backplane/GPIOC12*%
X60160000Y-143435000D03*
%TO.P,J200,b29,b29*%
%TO.N,/Backplane/GPIOC13*%
X57620000Y-143435000D03*
%TO.P,J200,b30,b30*%
%TO.N,/Backplane/GPIOC14*%
X55080000Y-143435000D03*
%TO.P,J200,b31,b31*%
%TO.N,/Backplane/GPIOC15*%
X52540000Y-143435000D03*
%TO.P,J200,b32,b32*%
%TO.N,GND*%
X50000000Y-143435000D03*
%TO.P,J200,c1,c1*%
X128740000Y-140895000D03*
%TO.P,J200,c2,c2*%
%TO.N,/Backplane/BACKPLANE.D-*%
X126200000Y-140895000D03*
%TO.P,J200,c3,c3*%
%TO.N,+5V_STDBY*%
X123660000Y-140895000D03*
%TO.P,J200,c4,c4*%
%TO.N,GND*%
X121120000Y-140895000D03*
%TO.P,J200,c5,c5*%
%TO.N,/Backplane/CAN1.+*%
X118580000Y-140895000D03*
%TO.P,J200,c6,c6*%
%TO.N,/Backplane/CAN1.-*%
X116040000Y-140895000D03*
%TO.P,J200,c7,c7*%
%TO.N,GND*%
X113500000Y-140895000D03*
%TO.P,J200,c8,c8*%
%TO.N,/Backplane/CAN2.+*%
X110960000Y-140895000D03*
%TO.P,J200,c9,c9*%
%TO.N,/Backplane/CAN2.-*%
X108420000Y-140895000D03*
%TO.P,J200,c10,c10*%
%TO.N,GND*%
X105880000Y-140895000D03*
%TO.P,J200,c11,c11*%
%TO.N,+12V*%
X103340000Y-140895000D03*
%TO.P,J200,c12,c12*%
X100800000Y-140895000D03*
%TO.P,J200,c13,c13*%
%TO.N,GND*%
X98260000Y-140895000D03*
%TO.P,J200,c14,c14*%
%TO.N,+24V*%
X95720000Y-140895000D03*
%TO.P,J200,c15,c15*%
%TO.N,GND*%
X93180000Y-140895000D03*
%TO.P,J200,c16,c16*%
%TO.N,/Backplane/GPIOR0*%
X90640000Y-140895000D03*
%TO.P,J200,c17,c17*%
%TO.N,/Backplane/GPIOR1*%
X88100000Y-140895000D03*
%TO.P,J200,c18,c18*%
%TO.N,/Backplane/GPIOR2*%
X85560000Y-140895000D03*
%TO.P,J200,c19,c19*%
%TO.N,/Backplane/GPIOR3*%
X83020000Y-140895000D03*
%TO.P,J200,c20,c20*%
%TO.N,/Backplane/GPIOR4*%
X80480000Y-140895000D03*
%TO.P,J200,c21,c21*%
%TO.N,/Backplane/GPIOR5*%
X77940000Y-140895000D03*
%TO.P,J200,c22,c22*%
%TO.N,/Backplane/GPIOR6*%
X75400000Y-140895000D03*
%TO.P,J200,c23,c23*%
%TO.N,/Backplane/GPIOR7*%
X72860000Y-140895000D03*
%TO.P,J200,c24,c24*%
%TO.N,/Backplane/GPIOR8*%
X70320000Y-140895000D03*
%TO.P,J200,c25,c25*%
%TO.N,/Backplane/GPIOR9*%
X67780000Y-140895000D03*
%TO.P,J200,c26,c26*%
%TO.N,/Backplane/GPIOR10*%
X65240000Y-140895000D03*
%TO.P,J200,c27,c27*%
%TO.N,/Backplane/GPIOR11*%
X62700000Y-140895000D03*
%TO.P,J200,c28,c28*%
%TO.N,/Backplane/GPIOR12*%
X60160000Y-140895000D03*
%TO.P,J200,c29,c29*%
%TO.N,/Backplane/GPIOR13*%
X57620000Y-140895000D03*
%TO.P,J200,c30,c30*%
%TO.N,/Backplane/GPIOR14*%
X55080000Y-140895000D03*
%TO.P,J200,c31,c31*%
%TO.N,/Backplane/GPIOR15*%
X52540000Y-140895000D03*
%TO.P,J200,c32,c32*%
%TO.N,GND*%
X50000000Y-140895000D03*
%TD*%
D19*
%TO.P,R1101,1*%
%TO.N,+3V3*%
X78130000Y-73075001D03*
%TO.P,R1101,2*%
%TO.N,/GPS-RTK/NRST*%
X77130002Y-73075001D03*
%TD*%
D22*
%TO.P,C700,1*%
%TO.N,+3V3*%
X122000000Y-125875000D03*
%TO.P,C700,2*%
%TO.N,GND*%
X123000000Y-125875000D03*
%TD*%
D21*
%TO.P,R500,1*%
%TO.N,Net-(U500-STB)*%
X123650000Y-138075000D03*
%TO.P,R500,2*%
%TO.N,GND*%
X123650000Y-137075000D03*
%TD*%
D19*
%TO.P,C406,1*%
%TO.N,/MCU/+VDDA*%
X107675000Y-106475000D03*
%TO.P,C406,2*%
%TO.N,GND*%
X106675000Y-106475000D03*
%TD*%
%TO.P,C411,1*%
%TO.N,/MCU/OSC_OUT*%
X109925000Y-107025000D03*
%TO.P,C411,2*%
%TO.N,GND*%
X108925000Y-107025000D03*
%TD*%
D16*
%TO.P,C704,1*%
%TO.N,+3V3*%
X133290000Y-118922500D03*
%TO.P,C704,2*%
%TO.N,GND*%
X133290000Y-119922500D03*
%TD*%
D19*
%TO.P,C1205,1*%
%TO.N,Net-(U1200-CAP)*%
X102109999Y-88535002D03*
%TO.P,C1205,2*%
%TO.N,GND*%
X101110001Y-88535002D03*
%TD*%
D21*
%TO.P,C902,1*%
%TO.N,Net-(U302-3V3)*%
X131350000Y-134575000D03*
%TO.P,C902,2*%
%TO.N,GND*%
X131350000Y-133575000D03*
%TD*%
D22*
%TO.P,C312,1*%
%TO.N,+3V3*%
X132650000Y-135775000D03*
%TO.P,C312,2*%
%TO.N,GND*%
X133650000Y-135775000D03*
%TD*%
D21*
%TO.P,C702,1*%
%TO.N,+3V3*%
X122010000Y-124927500D03*
%TO.P,C702,2*%
%TO.N,GND*%
X122010000Y-123927500D03*
%TD*%
D16*
%TO.P,R706,1*%
%TO.N,GND*%
X131950000Y-115125000D03*
%TO.P,R706,2*%
%TO.N,Net-(U700-PC14)*%
X131950000Y-116125000D03*
%TD*%
D21*
%TO.P,R803,1*%
%TO.N,Net-(U801-SEL)*%
X133450000Y-134525000D03*
%TO.P,R803,2*%
%TO.N,GND*%
X133450000Y-133525000D03*
%TD*%
D46*
%TO.P,C1102,1*%
%TO.N,/GPS-RTK/V_BCKP*%
X66090000Y-88385001D03*
%TO.P,C1102,2*%
%TO.N,GND*%
X67650000Y-88385001D03*
%TD*%
D26*
%TO.P,C307,1*%
%TO.N,/Power/+3V3_UNPROTEC*%
X110108674Y-130191542D03*
%TO.P,C307,2*%
%TO.N,GND*%
X110108674Y-131751542D03*
%TD*%
D19*
%TO.P,C306,1*%
%TO.N,/Power/VBST_3V3*%
X113480720Y-131971542D03*
%TO.P,C306,2*%
%TO.N,/Power/SW_3V3*%
X112480720Y-131971542D03*
%TD*%
D21*
%TO.P,R401,1*%
%TO.N,/MCU/BOOT_EN*%
X121300000Y-114600000D03*
%TO.P,R401,2*%
%TO.N,/MCU/BOOT0*%
X121300000Y-113600000D03*
%TD*%
D41*
%TO.P,F300,1*%
%TO.N,+12V*%
X103610000Y-138775000D03*
%TO.P,F300,2*%
%TO.N,+12V_FUSED*%
X105190000Y-138775000D03*
%TD*%
D22*
%TO.P,R714,1*%
%TO.N,Net-(U700-PB14)*%
X123000000Y-126775000D03*
%TO.P,R714,2*%
%TO.N,Net-(U700-PB12)*%
X124000000Y-126775000D03*
%TD*%
D16*
%TO.P,R900,1*%
%TO.N,/MCU/USB_MCU.D-*%
X124800000Y-132725000D03*
%TO.P,R900,2*%
%TO.N,/USB-hub/USB_MCU_R.D-*%
X124800000Y-133725000D03*
%TD*%
D22*
%TO.P,C414,1*%
%TO.N,/MCU/VCAP_2*%
X117075000Y-126050000D03*
%TO.P,C414,2*%
%TO.N,GND*%
X118075000Y-126050000D03*
%TD*%
D50*
%TO.P,SW400,1*%
%TO.N,GND*%
X103080000Y-54575000D03*
%TO.P,SW400,2*%
X101450000Y-54575000D03*
%TO.P,SW400,3*%
%TO.N,/MCU/SWD.~{RST}*%
X99710000Y-54575000D03*
%TO.P,SW400,4*%
%TO.N,/MCU/USR_BUTTON*%
X98080000Y-54575000D03*
D51*
%TO.P,SW400,5*%
%TO.N,N/C*%
X104080000Y-56825000D03*
%TO.P,SW400,6*%
X97080000Y-56825000D03*
%TD*%
D19*
%TO.P,R427,1*%
%TO.N,+3V3*%
X108469999Y-92885001D03*
%TO.P,R427,2*%
%TO.N,/IMU/IMU_I2C.SDA*%
X107470001Y-92885001D03*
%TD*%
D52*
%TO.P,U600,1,TXD*%
%TO.N,/CAN transceiver 2/CAN.TX*%
X117775000Y-135175000D03*
%TO.P,U600,2,GND*%
%TO.N,GND*%
X117125000Y-135175000D03*
%TO.P,U600,3,VCC*%
%TO.N,+5V*%
X116475000Y-135175000D03*
%TO.P,U600,4,RXD*%
%TO.N,/CAN transceiver 2/CAN.RX*%
X115825000Y-135175000D03*
%TO.P,U600,5,VIO*%
%TO.N,+3V3*%
X115825000Y-138075000D03*
%TO.P,U600,6,CANL*%
%TO.N,/Backplane/CAN2.-*%
X116475000Y-138075000D03*
%TO.P,U600,7,CANH*%
%TO.N,/Backplane/CAN2.+*%
X117125000Y-138075000D03*
%TO.P,U600,8,STB*%
%TO.N,Net-(U600-STB)*%
X117775000Y-138075000D03*
D53*
%TO.P,U600,9,EP*%
%TO.N,GND*%
X116800000Y-136625000D03*
%TD*%
D54*
%TO.P,X300,1,1*%
%TO.N,/MCU/OSC32_OUT*%
X113475000Y-104550000D03*
%TO.P,X300,2,2*%
%TO.N,/MCU/OSC32_IN*%
X115975000Y-104550000D03*
%TD*%
D19*
%TO.P,R406,1*%
%TO.N,/MCU/USR_BTN*%
X101228400Y-56885001D03*
%TO.P,R406,2*%
%TO.N,/MCU/USR_BUTTON*%
X100228400Y-56885001D03*
%TD*%
D21*
%TO.P,R412,1*%
%TO.N,Net-(D402-Pad1)*%
X126050000Y-108375000D03*
%TO.P,R412,2*%
%TO.N,GND*%
X126050000Y-107375000D03*
%TD*%
%TO.P,C706,1*%
%TO.N,/ST-LINK/STLINK-RST*%
X122200000Y-116925000D03*
%TO.P,C706,2*%
%TO.N,GND*%
X122200000Y-115925000D03*
%TD*%
D22*
%TO.P,C800,1*%
%TO.N,/USB/VBUS_IN*%
X124350000Y-60525000D03*
%TO.P,C800,2*%
%TO.N,GND*%
X125350000Y-60525000D03*
%TD*%
D35*
%TO.P,C302,1*%
%TO.N,/Power/+5V_UNPROTEC*%
X102180000Y-134909462D03*
%TO.P,C302,2*%
%TO.N,GND*%
X100620000Y-134909462D03*
%TD*%
D22*
%TO.P,R1202,1*%
%TO.N,/IMU/IMU_NRESET*%
X101110001Y-89435002D03*
%TO.P,R1202,2*%
%TO.N,/IMU/NRESET*%
X102109999Y-89435002D03*
%TD*%
D16*
%TO.P,R1102,1*%
%TO.N,/GPS-RTK/RF_*%
X65840000Y-63005002D03*
%TO.P,R1102,2*%
%TO.N,/GPS-RTK/VCC_RF*%
X65840000Y-64005000D03*
%TD*%
D22*
%TO.P,C401,1*%
%TO.N,+3V3*%
X112825000Y-107475000D03*
%TO.P,C401,2*%
%TO.N,GND*%
X113825000Y-107475000D03*
%TD*%
%TO.P,C705,1*%
%TO.N,+3V3*%
X125700000Y-116235000D03*
%TO.P,C705,2*%
%TO.N,GND*%
X126700000Y-116235000D03*
%TD*%
D55*
%TO.P,R712,1*%
%TO.N,Net-(Q700-E)*%
X128553553Y-129028553D03*
%TO.P,R712,2*%
%TO.N,/ST-LINK/ST-LINK.D+*%
X127846447Y-128321447D03*
%TD*%
D22*
%TO.P,R426,1*%
%TO.N,+3V3*%
X105070000Y-92885001D03*
%TO.P,R426,2*%
%TO.N,/IMU/IMU_I2C.SCL*%
X106070000Y-92885001D03*
%TD*%
D36*
%TO.P,X400,1,1*%
%TO.N,/MCU/OSC_IN*%
X111475000Y-104250000D03*
%TO.P,X400,2,2*%
%TO.N,GND*%
X109275000Y-104250000D03*
%TO.P,X400,3,3*%
%TO.N,/MCU/OSC_OUT*%
X109275000Y-105850000D03*
%TO.P,X400,4,4*%
%TO.N,GND*%
X111475000Y-105850000D03*
%TD*%
D56*
%TO.P,U1100,1,GND*%
%TO.N,GND*%
X72430000Y-65925003D03*
%TO.P,U1100,2,RF_IN*%
%TO.N,/GPS-RTK/RF_IN*%
X71330000Y-65925002D03*
%TO.P,U1100,3,GND*%
%TO.N,GND*%
X70230000Y-65925003D03*
%TO.P,U1100,4,ANT_DETECT*%
%TO.N,unconnected-(U1100-ANT_DETECT-Pad4)*%
X69130000Y-65925002D03*
%TO.P,U1100,5,ANT_OFF*%
%TO.N,unconnected-(U1100-ANT_OFF-Pad5)*%
X68030000Y-65925002D03*
%TO.P,U1100,6,~{ANT_SHORT}*%
%TO.N,unconnected-(U1100-~{ANT_SHORT}-Pad6)*%
X66930000Y-65925002D03*
%TO.P,U1100,7,VCC_RF*%
%TO.N,/GPS-RTK/VCC_RF*%
X65830000Y-65925002D03*
%TO.P,U1100,8,Reserved*%
%TO.N,unconnected-(U1100-Reserved-Pad8)*%
X64730000Y-65925002D03*
%TO.P,U1100,9,Reserved*%
%TO.N,unconnected-(U1100-Reserved-Pad9)*%
X63630000Y-65925002D03*
%TO.P,U1100,10,Reserved*%
%TO.N,unconnected-(U1100-Reserved-Pad10)*%
X62530000Y-65925002D03*
%TO.P,U1100,11,Reserved*%
%TO.N,unconnected-(U1100-Reserved-Pad11)*%
X61430000Y-65925002D03*
%TO.P,U1100,12,GND*%
%TO.N,GND*%
X60330000Y-65925003D03*
%TO.P,U1100,13,Reserved*%
%TO.N,unconnected-(U1100-Reserved-Pad13)*%
X59230000Y-65925002D03*
%TO.P,U1100,14,GND*%
%TO.N,GND*%
X58130000Y-65925003D03*
D57*
%TO.P,U1100,15,Reserved*%
%TO.N,unconnected-(U1100-Reserved-Pad15)*%
X55330000Y-66825002D03*
%TO.P,U1100,16,Reserved*%
%TO.N,unconnected-(U1100-Reserved-Pad16)*%
X55330000Y-67925002D03*
%TO.P,U1100,17,Reserved*%
%TO.N,unconnected-(U1100-Reserved-Pad17)*%
X55330000Y-69025002D03*
%TO.P,U1100,18,Reserved*%
%TO.N,unconnected-(U1100-Reserved-Pad18)*%
X55330000Y-70125002D03*
%TO.P,U1100,19,GEOFENCE_STAT*%
%TO.N,/GPS-RTK/GPS_GEOFENCE_STAT*%
X55330000Y-71225003D03*
%TO.P,U1100,20,RTK_STAT*%
%TO.N,/GPS-RTK/GPS_RTK_STAT*%
X55330000Y-72325002D03*
%TO.P,U1100,21,Reserved*%
%TO.N,unconnected-(U1100-Reserved-Pad21)*%
X55330001Y-73425002D03*
%TO.P,U1100,22,Reserved*%
%TO.N,unconnected-(U1100-Reserved-Pad22)*%
X55330000Y-74525002D03*
%TO.P,U1100,23,Reserved*%
%TO.N,unconnected-(U1100-Reserved-Pad23)*%
X55330000Y-75625001D03*
%TO.P,U1100,24,Reserved*%
%TO.N,unconnected-(U1100-Reserved-Pad24)*%
X55330000Y-76725002D03*
%TO.P,U1100,25,Reserved*%
%TO.N,unconnected-(U1100-Reserved-Pad25)*%
X55330000Y-77825002D03*
%TO.P,U1100,26,RXD2*%
%TO.N,unconnected-(U1100-RXD2-Pad26)*%
X55330000Y-78925002D03*
%TO.P,U1100,27,TXD2*%
%TO.N,unconnected-(U1100-TXD2-Pad27)*%
X55330000Y-80025002D03*
D56*
%TO.P,U1100,28,Reserved*%
%TO.N,unconnected-(U1100-Reserved-Pad28)*%
X58130000Y-80925001D03*
%TO.P,U1100,29,Reserved*%
%TO.N,unconnected-(U1100-Reserved-Pad29)*%
X59230000Y-80925002D03*
%TO.P,U1100,30,Reserved*%
%TO.N,unconnected-(U1100-Reserved-Pad30)*%
X60330000Y-80925001D03*
%TO.P,U1100,31,Reserved*%
%TO.N,unconnected-(U1100-Reserved-Pad31)*%
X61430000Y-80925002D03*
%TO.P,U1100,32,GND*%
%TO.N,GND*%
X62530000Y-80925002D03*
%TO.P,U1100,33,VCC*%
%TO.N,+3V3*%
X63630000Y-80925002D03*
%TO.P,U1100,34,VCC*%
X64730000Y-80925002D03*
%TO.P,U1100,35,Reserved*%
%TO.N,unconnected-(U1100-Reserved-Pad35)*%
X65830000Y-80925002D03*
%TO.P,U1100,36,V_BCKP*%
%TO.N,/GPS-RTK/V_BCKP*%
X66930000Y-80925002D03*
%TO.P,U1100,37,GND*%
%TO.N,GND*%
X68030000Y-80925002D03*
%TO.P,U1100,38,V_USB*%
%TO.N,+3V3*%
X69130000Y-80925002D03*
%TO.P,U1100,39,USB_DM*%
%TO.N,/GPS-RTK/USB_GPS.D-*%
X70230000Y-80925001D03*
%TO.P,U1100,40,USB_DP*%
%TO.N,/GPS-RTK/USB_GPS.D+*%
X71330000Y-80925002D03*
%TO.P,U1100,41,GND*%
%TO.N,GND*%
X72430000Y-80925001D03*
D57*
%TO.P,U1100,42,TXD/SPI_MISO*%
%TO.N,/GPS-RTK/GPS_SPI.MISO*%
X75230000Y-80025002D03*
%TO.P,U1100,43,RXD/SPI_MOSI*%
%TO.N,/GPS-RTK/GPS_SPI.MOSI*%
X75230000Y-78925002D03*
%TO.P,U1100,44,SDA/~{SPI_CS}*%
%TO.N,/GPS-RTK/GPS_SPI.CS*%
X75230000Y-77825002D03*
%TO.P,U1100,45,SCL/SPI_CLK*%
%TO.N,/GPS-RTK/GPS_SPI.CLK*%
X75230000Y-76725002D03*
%TO.P,U1100,46,TX_READY*%
%TO.N,unconnected-(U1100-TX_READY-Pad46)*%
X75230000Y-75625001D03*
%TO.P,U1100,47,D_SEL*%
%TO.N,/GPS-RTK/GPS_MODE_SELECT*%
X75230000Y-74525002D03*
%TO.P,U1100,48,GND*%
%TO.N,GND*%
X75229999Y-73425002D03*
%TO.P,U1100,49,~{RESET}*%
%TO.N,/GPS-RTK/NRST*%
X75230000Y-72325002D03*
%TO.P,U1100,50,~{SAFEBOOT}*%
%TO.N,unconnected-(U1100-~{SAFEBOOT}-Pad50)*%
X75230000Y-71225003D03*
%TO.P,U1100,51,EXTINT*%
%TO.N,/GPS-RTK/GPS_EXINTERUPT*%
X75230000Y-70125002D03*
%TO.P,U1100,52,Reserved*%
%TO.N,unconnected-(U1100-Reserved-Pad52)*%
X75230000Y-69025002D03*
%TO.P,U1100,53,TIMEPULSE*%
%TO.N,/GPS-RTK/TIMEPULSE*%
X75230000Y-67925002D03*
%TO.P,U1100,54,Reserved*%
%TO.N,unconnected-(U1100-Reserved-Pad54)*%
X75230000Y-66825002D03*
D58*
%TO.P,U1100,55,GND*%
%TO.N,GND*%
X72630000Y-68175002D03*
X70530000Y-68175002D03*
X68430000Y-68175002D03*
X66330001Y-68175002D03*
X64229999Y-68175002D03*
X62130000Y-68175002D03*
X60030000Y-68175002D03*
X57930000Y-68175002D03*
X72630000Y-70275002D03*
X70530000Y-70275002D03*
X68430000Y-70275002D03*
X62130000Y-70275002D03*
X60030000Y-70275002D03*
X57930000Y-70275002D03*
X66330000Y-70275003D03*
X64230000Y-70275003D03*
X70530000Y-72375001D03*
X60030000Y-72375001D03*
X72630000Y-72375002D03*
X68429999Y-72375002D03*
X66330000Y-72375002D03*
X64230000Y-72375002D03*
X62130001Y-72375002D03*
X57930000Y-72375002D03*
X72630000Y-74475002D03*
X68429999Y-74475002D03*
X66330000Y-74475002D03*
X64230000Y-74475002D03*
X62130001Y-74475002D03*
X57930000Y-74475002D03*
X70530000Y-74475003D03*
X60030000Y-74475003D03*
X66330000Y-76575001D03*
X64230000Y-76575001D03*
X72630000Y-76575002D03*
X70530000Y-76575002D03*
X68430000Y-76575002D03*
X62130000Y-76575002D03*
X60030000Y-76575002D03*
X57930000Y-76575002D03*
X72630000Y-78675002D03*
X70530000Y-78675002D03*
X68430000Y-78675002D03*
X66330001Y-78675002D03*
X64229999Y-78675002D03*
X62130000Y-78675002D03*
X60030000Y-78675002D03*
X57930000Y-78675002D03*
%TD*%
D16*
%TO.P,R708,1*%
%TO.N,/MCU/SWD.~{RST}*%
X121900000Y-120675000D03*
%TO.P,R708,2*%
%TO.N,Net-(U700-PB0)*%
X121900000Y-121675000D03*
%TD*%
D19*
%TO.P,C403,1*%
%TO.N,+3V3*%
X104325000Y-123750000D03*
%TO.P,C403,2*%
%TO.N,GND*%
X103325000Y-123750000D03*
%TD*%
D21*
%TO.P,R410,1*%
%TO.N,Net-(D400-Pad1)*%
X127850000Y-108375000D03*
%TO.P,R410,2*%
%TO.N,GND*%
X127850000Y-107375000D03*
%TD*%
D22*
%TO.P,C1103,1*%
%TO.N,/GPS-RTK/V_BCKP*%
X65870001Y-87235001D03*
%TO.P,C1103,2*%
%TO.N,GND*%
X66869999Y-87235001D03*
%TD*%
D59*
%TO.P,Y900,1,1*%
%TO.N,Net-(U302-XO)*%
X131600000Y-130475000D03*
%TO.P,Y900,2,2*%
%TO.N,GND*%
X129400000Y-130475000D03*
%TO.P,Y900,3,3*%
%TO.N,Net-(U302-XI)*%
X129400000Y-132175000D03*
%TO.P,Y900,4,4*%
%TO.N,GND*%
X131600000Y-132175000D03*
%TD*%
D52*
%TO.P,U500,1,TXD*%
%TO.N,/CAN transceiver 1/CAN.TX*%
X122375000Y-135175000D03*
%TO.P,U500,2,GND*%
%TO.N,GND*%
X121725000Y-135175000D03*
%TO.P,U500,3,VCC*%
%TO.N,+5V*%
X121075000Y-135175000D03*
%TO.P,U500,4,RXD*%
%TO.N,/CAN transceiver 1/CAN.RX*%
X120425000Y-135175000D03*
%TO.P,U500,5,VIO*%
%TO.N,+3V3*%
X120425000Y-138075000D03*
%TO.P,U500,6,CANL*%
%TO.N,/Backplane/CAN1.-*%
X121075000Y-138075000D03*
%TO.P,U500,7,CANH*%
%TO.N,/Backplane/CAN1.+*%
X121725000Y-138075000D03*
%TO.P,U500,8,STB*%
%TO.N,Net-(U500-STB)*%
X122375000Y-138075000D03*
D53*
%TO.P,U500,9,EP*%
%TO.N,GND*%
X121400000Y-136625000D03*
%TD*%
D22*
%TO.P,R713,1*%
%TO.N,Net-(D701-Pad1)*%
X124750000Y-109375000D03*
%TO.P,R713,2*%
%TO.N,GND*%
X125750000Y-109375000D03*
%TD*%
D60*
%TO.P,C1200,1*%
%TO.N,+3V3*%
X107110000Y-85215002D03*
%TO.P,C1200,2*%
%TO.N,GND*%
X107110000Y-83655002D03*
%TD*%
D22*
%TO.P,C412,1*%
%TO.N,/MCU/OSC_IN*%
X110825000Y-107025000D03*
%TO.P,C412,2*%
%TO.N,GND*%
X111825000Y-107025000D03*
%TD*%
%TO.P,C415,1*%
%TO.N,/MCU/NRST*%
X118960000Y-105865000D03*
%TO.P,C415,2*%
%TO.N,GND*%
X119960000Y-105865000D03*
%TD*%
D61*
%TO.P,U100,1,CS#*%
%TO.N,/MCU/QSPI1.CS*%
X101705000Y-113320000D03*
%TO.P,U100,2,DO*%
%TO.N,/MCU/QSPI1.IO1*%
X100435000Y-113320000D03*
%TO.P,U100,3,IO2*%
%TO.N,/MCU/QSPI1.IO2*%
X99155000Y-113320000D03*
%TO.P,U100,4,GND*%
%TO.N,GND*%
X97885000Y-113320000D03*
%TO.P,U100,5,DI*%
%TO.N,/MCU/QSPI1.IO0*%
X97885000Y-120380000D03*
%TO.P,U100,6,CLK*%
%TO.N,/MCU/QSPI1.SCLK*%
X99155000Y-120380000D03*
%TO.P,U100,7,IO3*%
%TO.N,/MCU/QSPI1.IO3*%
X100435000Y-120380000D03*
%TO.P,U100,8,VCC*%
%TO.N,+3V3*%
X101705000Y-120380000D03*
%TD*%
D24*
%TO.P,D700,1*%
%TO.N,/ST-LINK/LED*%
X123425000Y-112240000D03*
%TO.P,D700,2*%
%TO.N,Net-(D700-Pad2)*%
X123425000Y-110660000D03*
%TD*%
D16*
%TO.P,C413,1*%
%TO.N,/MCU/VCAP_1*%
X102875000Y-121850000D03*
%TO.P,C413,2*%
%TO.N,GND*%
X102875000Y-122850000D03*
%TD*%
D62*
%TO.P,L300,1,1*%
%TO.N,/Power/SW_5V0*%
X98100000Y-131921508D03*
%TO.P,L300,2,2*%
%TO.N,/Power/+5V_UNPROTEC*%
X101800000Y-131921508D03*
%TD*%
D21*
%TO.P,C100,1*%
%TO.N,+3V3*%
X102850000Y-120925000D03*
%TO.P,C100,2*%
%TO.N,GND*%
X102850000Y-119925000D03*
%TD*%
D16*
%TO.P,R416,1*%
%TO.N,/GPS-RTK/USB_GPS.D+*%
X71230000Y-82975002D03*
%TO.P,R416,2*%
%TO.N,/USB-hub/USB_GPS_.D+*%
X71230000Y-83975000D03*
%TD*%
D63*
%TO.P,U302,1,XO*%
%TO.N,Net-(U302-XO)*%
X128550000Y-133850000D03*
%TO.P,U302,2,XI*%
%TO.N,Net-(U302-XI)*%
X128050000Y-133850000D03*
%TO.P,U302,3,DM4*%
%TO.N,/USB-hub/USBOUT1_R.D-*%
X127550000Y-133850000D03*
%TO.P,U302,4,DP4*%
%TO.N,/USB-hub/USBOUT1_R.D+*%
X127050000Y-133850000D03*
D64*
%TO.P,U302,5,DM3*%
%TO.N,/USB-hub/USB_MCU_R.D-*%
X126337500Y-134562500D03*
%TO.P,U302,6,DP3*%
%TO.N,/USB-hub/USB_MCU_R.D+*%
X126337500Y-135062500D03*
%TO.P,U302,7,DM2*%
%TO.N,/USB-hub/USB_GPS_.D+*%
X126337500Y-135562500D03*
%TO.P,U302,8,DP2*%
%TO.N,/USB-hub/USB_GPS_.D-*%
X126337500Y-136062500D03*
D63*
%TO.P,U302,9,DM1*%
%TO.N,unconnected-(U302-DM1-Pad9)*%
X127050000Y-136775000D03*
%TO.P,U302,10,DP1*%
%TO.N,unconnected-(U302-DP1-Pad10)*%
X127550000Y-136775000D03*
%TO.P,U302,11,DMU*%
%TO.N,/USB-hub/USBIN1.D-*%
X128050000Y-136775000D03*
%TO.P,U302,12,DPU*%
%TO.N,/USB-hub/USBIN1.D+*%
X128550000Y-136775000D03*
D64*
%TO.P,U302,13,RESET*%
%TO.N,unconnected-(U302-RESET-Pad13)*%
X129262500Y-136062500D03*
%TO.P,U302,14,PGANG*%
%TO.N,Net-(U302-PGANG)*%
X129262500Y-135562500D03*
%TO.P,U302,15,5V*%
%TO.N,+5V*%
X129262500Y-135062500D03*
%TO.P,U302,16,3V3*%
%TO.N,Net-(U302-3V3)*%
X129262500Y-134562500D03*
D65*
%TO.P,U302,17,GND*%
%TO.N,GND*%
X127800000Y-135312500D03*
%TD*%
D22*
%TO.P,C703,1*%
%TO.N,+3V3*%
X131350000Y-126275000D03*
%TO.P,C703,2*%
%TO.N,GND*%
X132350000Y-126275000D03*
%TD*%
D24*
%TO.P,D401,1*%
%TO.N,Net-(D401-Pad1)*%
X130750000Y-108665000D03*
%TO.P,D401,2*%
%TO.N,+5V*%
X130750000Y-107085000D03*
%TD*%
D21*
%TO.P,R408,1*%
%TO.N,/MCU/STATUS_LED*%
X115350000Y-61725000D03*
%TO.P,R408,2*%
%TO.N,Net-(LED301-Pad1)*%
X115350000Y-60725000D03*
%TD*%
D66*
%TO.P,NT1100,1,1*%
%TO.N,/GPS-RTK/GPS_UART.TX*%
X113730000Y-118045000D03*
%TO.P,NT1100,2,2*%
%TO.N,/GPS-RTK/GPS_SPI.MISO*%
X113730000Y-117045002D03*
%TD*%
D19*
%TO.P,R403,1*%
%TO.N,+3V3*%
X119960000Y-106765000D03*
%TO.P,R403,2*%
%TO.N,/MCU/NRST*%
X118960000Y-106765000D03*
%TD*%
D21*
%TO.P,R703,1*%
%TO.N,Net-(U700-PA0)*%
X123100000Y-116925000D03*
%TO.P,R703,2*%
%TO.N,GND*%
X123100000Y-115925000D03*
%TD*%
D26*
%TO.P,C308,1*%
%TO.N,/Power/+3V3_UNPROTEC*%
X111370720Y-130191542D03*
%TO.P,C308,2*%
%TO.N,GND*%
X111370720Y-131751542D03*
%TD*%
D41*
%TO.P,D1102,1*%
%TO.N,Net-(D1102-Pad1)*%
X50480001Y-72685001D03*
%TO.P,D1102,2*%
%TO.N,/GPS-RTK/GPS_RTK_STAT*%
X52059999Y-72685001D03*
%TD*%
D19*
%TO.P,R1107,1*%
%TO.N,Net-(D1103-Pad1)*%
X79029999Y-69275001D03*
%TO.P,R1107,2*%
%TO.N,GND*%
X78030001Y-69275001D03*
%TD*%
D67*
%TO.P,U1200,1,PIN1*%
%TO.N,unconnected-(U1200-PIN1-Pad1)*%
X107022500Y-87035001D03*
D68*
%TO.P,U1200,2,GND*%
%TO.N,GND*%
X106110001Y-86897501D03*
%TO.P,U1200,3,VDD*%
%TO.N,+3V3*%
X105610000Y-86897501D03*
%TO.P,U1200,4,~{BOOT_LOAD_PIN}*%
%TO.N,Net-(U1200-~{BOOT_LOAD_PIN})*%
X105110000Y-86897501D03*
%TO.P,U1200,5,PS1*%
%TO.N,GND*%
X104609999Y-86897501D03*
D67*
%TO.P,U1200,6,PS0*%
X103697500Y-87035001D03*
%TO.P,U1200,7,PIN7*%
%TO.N,unconnected-(U1200-PIN7-Pad7)*%
X103697500Y-87535001D03*
%TO.P,U1200,8,PIN8*%
%TO.N,unconnected-(U1200-PIN8-Pad8)*%
X103697499Y-88035001D03*
%TO.P,U1200,9,CAP*%
%TO.N,Net-(U1200-CAP)*%
X103697500Y-88535001D03*
%TO.P,U1200,10,BL_IND*%
%TO.N,unconnected-(U1200-BL_IND-Pad10)*%
X103697500Y-89035001D03*
%TO.P,U1200,11,~{RESET}*%
%TO.N,/IMU/NRESET*%
X103697500Y-89535001D03*
%TO.P,U1200,12,PIN12*%
%TO.N,unconnected-(U1200-PIN12-Pad12)*%
X103697500Y-90035001D03*
%TO.P,U1200,13,PIN13*%
%TO.N,unconnected-(U1200-PIN13-Pad13)*%
X103697499Y-90535001D03*
%TO.P,U1200,14,INT*%
%TO.N,/IMU/IMU_EXINTERUPT*%
X103697500Y-91035001D03*
%TO.P,U1200,15,PIN15*%
%TO.N,unconnected-(U1200-PIN15-Pad15)*%
X103697500Y-91535001D03*
D68*
%TO.P,U1200,16,PIN16*%
%TO.N,unconnected-(U1200-PIN16-Pad16)*%
X104609999Y-91672501D03*
%TO.P,U1200,17,COM3*%
%TO.N,+3V3*%
X105110000Y-91672501D03*
%TO.P,U1200,18,COM2*%
%TO.N,GND*%
X105610000Y-91672501D03*
%TO.P,U1200,19,COM1*%
%TO.N,/IMU/IMU_I2C.SCL*%
X106110001Y-91672501D03*
D67*
%TO.P,U1200,20,COM0*%
%TO.N,/IMU/IMU_I2C.SDA*%
X107022500Y-91535001D03*
%TO.P,U1200,21,PIN21*%
%TO.N,unconnected-(U1200-PIN21-Pad21)*%
X107022500Y-91035001D03*
%TO.P,U1200,22,PIN22*%
%TO.N,unconnected-(U1200-PIN22-Pad22)*%
X107022501Y-90535001D03*
%TO.P,U1200,23,PIN23*%
%TO.N,unconnected-(U1200-PIN23-Pad23)*%
X107022500Y-90035001D03*
%TO.P,U1200,24,PIN24*%
%TO.N,unconnected-(U1200-PIN24-Pad24)*%
X107022500Y-89535001D03*
%TO.P,U1200,25,GNDIO*%
%TO.N,GND*%
X107022500Y-89035001D03*
%TO.P,U1200,26,XOUT32*%
%TO.N,/IMU/OSC32_OUT*%
X107022500Y-88535001D03*
%TO.P,U1200,27,XIN32*%
%TO.N,/IMU/OSC32_IN*%
X107022501Y-88035001D03*
%TO.P,U1200,28,VDDIO*%
%TO.N,+3V3*%
X107022500Y-87535001D03*
%TD*%
D66*
%TO.P,NT1101,1,1*%
%TO.N,/GPS-RTK/GPS_UART.RX*%
X112810000Y-118025000D03*
%TO.P,NT1101,2,2*%
%TO.N,/GPS-RTK/GPS_SPI.MOSI*%
X112810000Y-117025002D03*
%TD*%
D21*
%TO.P,R407,1*%
%TO.N,/MCU/USER_LED_2*%
X112650000Y-61725000D03*
%TO.P,R407,2*%
%TO.N,Net-(LED300-Pad3)*%
X112650000Y-60725000D03*
%TD*%
%TO.P,C1203,1*%
%TO.N,/IMU/OSC32_IN*%
X108410002Y-87835000D03*
%TO.P,C1203,2*%
%TO.N,GND*%
X108410002Y-86835002D03*
%TD*%
D69*
%TO.P,Q700,1,B*%
%TO.N,Net-(Q700-B)*%
X129600000Y-127725000D03*
%TO.P,Q700,2,E*%
%TO.N,Net-(Q700-E)*%
X129600000Y-129025000D03*
%TO.P,Q700,3,C*%
%TO.N,+3V3*%
X131400000Y-128375000D03*
%TD*%
D16*
%TO.P,C904,1*%
%TO.N,+5V*%
X130450000Y-135525000D03*
%TO.P,C904,2*%
%TO.N,GND*%
X130450000Y-136525000D03*
%TD*%
D19*
%TO.P,C416,1*%
%TO.N,/MCU/USR_BTN*%
X101228400Y-57785001D03*
%TO.P,C416,2*%
%TO.N,GND*%
X100228400Y-57785001D03*
%TD*%
D22*
%TO.P,R804,1*%
%TO.N,Net-(U801-~{OE})*%
X134450000Y-138925000D03*
%TO.P,R804,2*%
%TO.N,GND*%
X135450000Y-138925000D03*
%TD*%
D70*
%TO.P,U300,1,GND*%
%TO.N,GND*%
X99203492Y-135213288D03*
%TO.P,U300,2,SW*%
%TO.N,/Power/SW_5V0*%
X98253492Y-135213288D03*
%TO.P,U300,3,VIN*%
%TO.N,+12V_FUSED*%
X97303492Y-135213288D03*
%TO.P,U300,4,VFB*%
%TO.N,/Power/FB_5V0*%
X97303492Y-137488288D03*
%TO.P,U300,5,EN*%
%TO.N,+12V_FUSED*%
X98253492Y-137488288D03*
%TO.P,U300,6,VBST*%
%TO.N,/Power/VBST_5V0*%
X99203492Y-137488288D03*
%TD*%
D19*
%TO.P,R1104,1*%
%TO.N,+3V3*%
X78229999Y-74575001D03*
%TO.P,R1104,2*%
%TO.N,/GPS-RTK/GPS_MODE_SELECT*%
X77230001Y-74575001D03*
%TD*%
D26*
%TO.P,C303,1*%
%TO.N,+12V_FUSED*%
X95890000Y-136221508D03*
%TO.P,C303,2*%
%TO.N,GND*%
X95890000Y-137781508D03*
%TD*%
D17*
%TO.P,LED301,1*%
%TO.N,Net-(LED301-Pad1)*%
X111913600Y-55785000D03*
%TO.P,LED301,2*%
%TO.N,GND*%
X114453600Y-55785000D03*
%TO.P,LED301,3*%
%TO.N,Net-(LED301-Pad3)*%
X111913600Y-58325000D03*
%TO.P,LED301,4*%
%TO.N,GND*%
X114453600Y-58325000D03*
%TD*%
D22*
%TO.P,R704,1*%
%TO.N,Net-(U700-PA5)*%
X121050000Y-127650000D03*
%TO.P,R704,2*%
%TO.N,/MCU/SWD.SWCLK*%
X122050000Y-127650000D03*
%TD*%
D71*
%TO.N,+3V3*%
X115300000Y-138075000D03*
X78830001Y-73075001D03*
X99598400Y-58685001D03*
X131350000Y-125625000D03*
X121325000Y-115325000D03*
X105160000Y-83685002D03*
X105560000Y-88785002D03*
X104325000Y-124400000D03*
X120590000Y-106765000D03*
X109170000Y-92885001D03*
X115350000Y-131500000D03*
X132050000Y-135775000D03*
X131800000Y-106175000D03*
X131400000Y-128975000D03*
X133950000Y-118922500D03*
X114650000Y-131500000D03*
X115350000Y-130625000D03*
X102275000Y-111350000D03*
X121350000Y-124927500D03*
X104860000Y-89885002D03*
X127900000Y-121575000D03*
X121875000Y-110350000D03*
X105200000Y-108075000D03*
X105560001Y-89885001D03*
X125700000Y-115575000D03*
X131350000Y-118275000D03*
X124000000Y-115300000D03*
X65370000Y-79685001D03*
X122225000Y-109375000D03*
X115575000Y-107050000D03*
X101700000Y-121825000D03*
X63370000Y-79685001D03*
X69370000Y-79685001D03*
X104860000Y-88785001D03*
X67370000Y-79685001D03*
X119900000Y-138075000D03*
X69470000Y-88985001D03*
X78930000Y-74575001D03*
X116025000Y-131500000D03*
X112825000Y-106875000D03*
X119625000Y-124600000D03*
X114450000Y-62375000D03*
X104370000Y-92885001D03*
X100460000Y-90385001D03*
%TO.N,GND*%
X106050000Y-107375000D03*
X65570000Y-59514683D03*
X75970000Y-57085001D03*
X69513330Y-74475001D03*
X108925000Y-107700000D03*
X67170000Y-63285001D03*
X99598400Y-57785001D03*
X65279998Y-76575001D03*
X95300000Y-131025000D03*
X74370000Y-62685001D03*
X103700000Y-128625000D03*
X106050000Y-106475000D03*
X76768430Y-61910522D03*
X64368430Y-61910522D03*
X61011143Y-78722155D03*
X129900000Y-124961216D03*
X73570000Y-61085001D03*
X61046666Y-74475001D03*
X128350000Y-134775000D03*
X104900000Y-128625000D03*
X63170000Y-57085001D03*
X68570000Y-88385001D03*
X62530000Y-82075001D03*
X109870720Y-132521542D03*
X66570000Y-60285001D03*
X75970000Y-64285001D03*
X69513330Y-70275001D03*
X134830000Y-142145001D03*
X100460000Y-91185001D03*
X127250000Y-134775000D03*
X48770000Y-69385001D03*
X61046666Y-76575001D03*
X116250000Y-62375000D03*
X95300000Y-133425000D03*
X73570000Y-64285001D03*
X69570000Y-63285001D03*
X132350000Y-125625000D03*
X65570000Y-56285001D03*
X113850000Y-136425000D03*
X75168430Y-61910522D03*
X75170000Y-63485001D03*
X60330000Y-64775001D03*
X109700000Y-128625000D03*
X63170000Y-58685001D03*
X106260000Y-88985001D03*
X96500000Y-128625000D03*
X67970000Y-63285001D03*
X76770000Y-53085001D03*
X74370000Y-63485001D03*
X130325000Y-129675000D03*
X65279998Y-72375001D03*
X106100000Y-128625000D03*
X110520720Y-132521542D03*
X76770000Y-55485001D03*
X67361141Y-78722155D03*
X75970000Y-63485001D03*
X64370000Y-64285001D03*
X65279998Y-74475001D03*
X108650000Y-136275000D03*
X71630000Y-72375001D03*
X72568430Y-61910522D03*
X105660000Y-90885000D03*
X102850000Y-119385001D03*
X113300000Y-128625000D03*
X76770000Y-58685001D03*
X58930000Y-70275001D03*
X63170000Y-53885001D03*
X75970000Y-62685001D03*
X75970000Y-56285001D03*
X103700000Y-132225000D03*
X76770000Y-63485001D03*
X75970000Y-57885001D03*
X97700000Y-128625000D03*
X63170000Y-59514683D03*
X108410002Y-90435000D03*
X67770000Y-87285001D03*
X69513330Y-68175002D03*
X115050000Y-136625000D03*
X64370000Y-54685001D03*
X121350000Y-123927500D03*
X103575000Y-106475000D03*
X68030000Y-82075001D03*
X75970000Y-61085001D03*
X71594477Y-78722155D03*
X66570000Y-59514683D03*
X116825000Y-106025000D03*
X119625000Y-125600000D03*
X108200000Y-104250000D03*
X64370000Y-58685001D03*
X61770000Y-115085001D03*
X126375000Y-109375000D03*
X74370000Y-64285001D03*
X126900000Y-113525000D03*
X131150000Y-116225000D03*
X66570000Y-56285001D03*
X112525000Y-106025000D03*
X63163332Y-70275001D03*
X67970000Y-64085001D03*
X66570000Y-57885001D03*
X97840000Y-111345001D03*
X71630000Y-68175002D03*
X63170000Y-62685001D03*
X67570000Y-61085001D03*
X73570000Y-63485001D03*
X63168430Y-61910522D03*
X76770000Y-57885001D03*
X65570000Y-58685001D03*
X113850000Y-137675000D03*
X100100000Y-128625000D03*
X94450000Y-138675000D03*
X64370000Y-56285001D03*
X65570000Y-57085001D03*
X116575000Y-107050000D03*
X128350000Y-135825000D03*
X76770000Y-64285001D03*
X65279998Y-68175002D03*
X67396664Y-70275001D03*
X65570000Y-55485001D03*
X75970000Y-58685001D03*
X76770000Y-56285001D03*
X98900000Y-128625000D03*
X118750000Y-126325000D03*
X64370000Y-60285001D03*
X134150000Y-128175000D03*
X67396664Y-76575001D03*
X63163332Y-72375001D03*
X131900000Y-133925000D03*
X126950000Y-106725000D03*
X67396664Y-74475001D03*
X69513330Y-76575001D03*
X119100000Y-134275000D03*
X75170000Y-62685001D03*
X111170720Y-132521542D03*
X75970000Y-60285001D03*
X103575000Y-107350000D03*
X66570000Y-57085001D03*
X69570000Y-64085001D03*
X76770000Y-59514683D03*
X62570000Y-115085001D03*
X103700000Y-133425000D03*
X67396664Y-72375001D03*
X74370000Y-61085001D03*
X63170000Y-63485001D03*
X122200000Y-115275000D03*
X63170000Y-60285001D03*
X103700000Y-131025000D03*
X66570000Y-58685001D03*
X77230000Y-69275001D03*
X117150000Y-62375000D03*
X131150000Y-115125000D03*
X119410000Y-61815001D03*
X70310000Y-60995001D03*
X76770000Y-60285001D03*
X133300000Y-122825000D03*
X63770000Y-84995001D03*
X118050000Y-62925000D03*
X108500000Y-128625000D03*
X68770000Y-64085001D03*
X63170000Y-53085001D03*
X133950000Y-119922500D03*
X75170000Y-61085001D03*
X68808824Y-63259329D03*
X134100000Y-133525000D03*
X134300000Y-135775000D03*
X61046666Y-72375001D03*
X76770000Y-62685001D03*
X112100000Y-128625000D03*
X58930000Y-76575001D03*
X105960000Y-83685001D03*
X107160001Y-82785000D03*
X58130000Y-64775001D03*
X64370000Y-63485001D03*
X78830001Y-71275001D03*
X65570000Y-53885001D03*
X71630000Y-70275001D03*
X75970000Y-53085001D03*
X60170000Y-115085001D03*
X63127809Y-78722155D03*
X58930000Y-74475001D03*
X63170000Y-64285001D03*
X73568430Y-61910522D03*
X64370000Y-61085001D03*
X113825000Y-106875000D03*
X71630000Y-76575001D03*
X75968430Y-61910522D03*
X73570000Y-62685001D03*
X121900000Y-133425000D03*
X65570000Y-61085001D03*
X76770000Y-54685001D03*
X64370000Y-59514683D03*
X114500000Y-128625000D03*
X64370000Y-62685001D03*
X63170000Y-55485001D03*
X65570000Y-60285001D03*
X75970000Y-54685001D03*
X74210000Y-73455001D03*
X63163332Y-74475001D03*
X69540000Y-61025001D03*
X100460000Y-88585001D03*
X63170000Y-57885001D03*
X118850000Y-59675000D03*
X71630000Y-74475001D03*
X60970000Y-115085001D03*
X103325000Y-124400000D03*
X72570000Y-61085001D03*
X69477807Y-78722155D03*
X64930000Y-85475001D03*
X64370000Y-57885001D03*
X76770000Y-57085001D03*
X76770000Y-61085001D03*
X121875000Y-111350000D03*
X108410001Y-86135002D03*
X64370000Y-53085001D03*
X117300000Y-133425000D03*
X120590000Y-105865000D03*
X129800000Y-133725000D03*
X75170000Y-64285001D03*
X95953492Y-138663288D03*
X127250000Y-135825000D03*
X64370000Y-53885001D03*
X66570000Y-55485001D03*
X131100000Y-136425000D03*
X75970000Y-59514683D03*
X61046666Y-68175002D03*
X64370000Y-57085001D03*
X110900000Y-128625000D03*
X72570000Y-63485001D03*
X48780000Y-74085001D03*
X101300000Y-128625000D03*
X70230000Y-64285001D03*
X58894477Y-78722155D03*
X72570000Y-62685001D03*
X99850000Y-134671508D03*
X104618595Y-87781488D03*
X67170000Y-64085001D03*
X102500000Y-128625000D03*
X75970000Y-55485001D03*
X66570000Y-54685001D03*
X65570000Y-57885001D03*
X95300000Y-132225000D03*
X107300000Y-128625000D03*
X95200000Y-138675000D03*
X99850000Y-135971508D03*
X63170000Y-56285001D03*
X66570000Y-53885001D03*
X95300000Y-129825000D03*
X63170000Y-54685001D03*
X136150000Y-138925000D03*
X102225000Y-122850000D03*
X65570000Y-54685001D03*
X126700000Y-115575000D03*
X64370000Y-55485001D03*
X102275000Y-110350000D03*
X123200000Y-136625000D03*
X66570000Y-53085001D03*
X65279998Y-70275001D03*
X106210001Y-86135002D03*
X69513330Y-72375001D03*
X72430000Y-82075001D03*
X131950000Y-139425000D03*
X72430000Y-64285001D03*
X113850000Y-137075000D03*
X63163332Y-76575001D03*
X125350000Y-62025000D03*
X125350000Y-61225000D03*
X63170000Y-61085001D03*
X75970000Y-53885001D03*
X123550000Y-125325000D03*
X66570000Y-61085001D03*
X132700000Y-132175000D03*
X61046666Y-70275001D03*
X63163332Y-68175002D03*
X99850000Y-135321508D03*
X123100000Y-115275000D03*
X67396664Y-68175002D03*
X65570000Y-53085001D03*
X103700000Y-129825000D03*
X76770000Y-53885001D03*
X95300000Y-128625000D03*
X65244475Y-78722155D03*
X74368430Y-61910522D03*
X58930000Y-72375001D03*
X132350000Y-118275000D03*
X58930000Y-68175002D03*
X119650000Y-136625000D03*
%TO.N,+5V*%
X106125000Y-137025000D03*
X134150000Y-129075000D03*
X116300000Y-133425000D03*
X106775000Y-136325000D03*
X133300000Y-110375000D03*
X131100000Y-135525001D03*
X106775000Y-137025000D03*
X126200000Y-137025000D03*
X106125000Y-136325000D03*
X120900000Y-133425000D03*
%TO.N,/ST-LINK/LED*%
X124950000Y-114800000D03*
X127400000Y-124950000D03*
%TO.N,/ST-LINK/STLINK-BOOT0*%
X130675000Y-121175000D03*
%TO.N,/ST-LINK/DIO*%
X128875000Y-124675000D03*
%TO.N,/ST-LINK/CLK*%
X130350000Y-124175000D03*
%TO.N,+12V_FUSED*%
X94451270Y-135361059D03*
X133950000Y-109925000D03*
X106125000Y-139025000D03*
X106125000Y-138325000D03*
X106775000Y-138325000D03*
X95375000Y-135375000D03*
X106775000Y-139025000D03*
X94950000Y-134875000D03*
%TO.N,/ST-LINK/STLINK_RX*%
X126100000Y-119500000D03*
X132200000Y-113725000D03*
%TO.N,/USB/VBUS_IN*%
X124350000Y-61225000D03*
X134050000Y-132625000D03*
%TO.N,/ST-LINK/STLINK_TX*%
X132200000Y-111725000D03*
X126075000Y-114450000D03*
%TO.N,/MCU/USR_BUTTON*%
X115975000Y-110350000D03*
X99538600Y-56899202D03*
%TO.N,/MCU/SWD.~{RST}*%
X111575001Y-110375000D03*
X121900000Y-120045000D03*
X118377238Y-107645000D03*
%TO.N,Net-(U302-PGANG)*%
X129600000Y-136625000D03*
X127900000Y-138925000D03*
%TO.N,Net-(U700-PA5)*%
X124700000Y-120175000D03*
X121054124Y-126900877D03*
%TO.N,Net-(U700-PC13)*%
X130100000Y-118925000D03*
X132900000Y-116775000D03*
%TO.N,Net-(U700-PC14)*%
X129225000Y-118925000D03*
X131950000Y-116775000D03*
%TO.N,/CAN transceiver 1/CAN.TX*%
X122775000Y-134250000D03*
X118550000Y-119850000D03*
%TO.N,/CAN transceiver 1/CAN.RX*%
X117700000Y-120375000D03*
X120025000Y-134250000D03*
%TO.N,/CAN transceiver 2/CAN.TX*%
X118175000Y-134250000D03*
X106575000Y-123400000D03*
%TO.N,/CAN transceiver 2/CAN.RX*%
X105600000Y-125425000D03*
X115425000Y-134250000D03*
%TO.N,/USB/CC1*%
X123300000Y-57725000D03*
X124350000Y-62025000D03*
%TO.N,Net-(U801-~{OE})*%
X133850000Y-136575000D03*
X133850000Y-138925000D03*
%TO.N,/MCU/USER_LED_1*%
X113550000Y-62925000D03*
X117850000Y-107125000D03*
%TO.N,/MCU/USER_LED_2*%
X117300000Y-107625000D03*
X112650000Y-62375000D03*
%TO.N,/MCU/STATUS_LED*%
X115350000Y-62925000D03*
X116675000Y-110350000D03*
%TO.N,/USB-hub/USB_GPS_.D+*%
X71195000Y-85224927D03*
X124099810Y-135255191D03*
%TO.N,/USB-hub/USB_GPS_.D-*%
X123640190Y-135714811D03*
X70545000Y-85224927D03*
%TO.N,/GPS-RTK/GPS_SPI.CLK*%
X76970000Y-76725002D03*
X117040000Y-115805001D03*
%TO.N,/GPS-RTK/GPS_SPI.CS*%
X115560000Y-114795001D03*
X78570000Y-77825002D03*
%TO.N,/GPS-RTK/GPS_NRESET*%
X78750000Y-72175001D03*
X117260000Y-117350000D03*
%TO.N,/IMU/IMU_NRESET*%
X100500000Y-89445001D03*
X111304124Y-114160877D03*
%TO.N,/GPS-RTK/GPS_EXINTERUPT*%
X73880000Y-70195001D03*
X114920000Y-117820001D03*
%TO.N,/GPS-RTK/GPS_MODE_SELECT*%
X116430000Y-117635001D03*
X74160000Y-74575001D03*
%TO.N,/GPS-RTK/GPS_SPI.MISO*%
X113710000Y-115325001D03*
X78445000Y-80025002D03*
%TO.N,/GPS-RTK/GPS_GEOFENCE_STAT*%
X53470000Y-71225003D03*
X116335000Y-120100001D03*
%TO.N,/GPS-RTK/GPS_RTK_STAT*%
X115820000Y-119665001D03*
X53370000Y-72325002D03*
%TO.N,/IMU/IMU_I2C.SDA*%
X108720000Y-94335001D03*
X117880000Y-113175001D03*
%TO.N,/IMU/IMU_I2C.SCL*%
X117990000Y-113965001D03*
X107520000Y-94335001D03*
%TO.N,/IMU/IMU_EXINTERUPT*%
X102830000Y-91035001D03*
X112470000Y-114210001D03*
%TO.N,/GPS-RTK/GPS_SPI.MOSI*%
X116667248Y-116337504D03*
X76770000Y-78925002D03*
X112810000Y-116365001D03*
%TD*%
D72*
%TO.N,+3V3*%
X131350000Y-126275000D02*
X130587500Y-126275000D01*
X120425000Y-138075000D02*
X119100000Y-138075000D01*
X106010000Y-85434998D02*
X106890001Y-85435000D01*
X78229999Y-74575001D02*
X78930000Y-74575001D01*
X101705000Y-121820000D02*
X101700000Y-121825000D01*
X112825000Y-107475000D02*
X113075000Y-107725000D01*
D73*
X132240000Y-105835000D02*
X132750000Y-105325000D01*
D72*
X105070000Y-92885001D02*
X104370000Y-92885001D01*
X118975000Y-124600000D02*
X119625000Y-124600000D01*
X115575000Y-107650000D02*
X115575000Y-107050000D01*
D73*
X124000000Y-115300000D02*
X124000000Y-115925000D01*
X114450000Y-61725000D02*
X114450000Y-62375000D01*
D72*
X118975000Y-124600000D02*
X118150000Y-124600000D01*
X131350000Y-117625000D02*
X130537500Y-117625000D01*
X101700000Y-121825000D02*
X101700000Y-120385000D01*
X102850000Y-120925000D02*
X102250000Y-120925000D01*
X122000000Y-124937500D02*
X122010000Y-124927500D01*
D73*
X119960000Y-106765000D02*
X120590000Y-106765000D01*
D72*
X115575000Y-109175000D02*
X115575000Y-107650000D01*
X104325000Y-123750000D02*
X104325000Y-122925000D01*
X126400000Y-117762500D02*
X126400000Y-116935000D01*
X105200000Y-107375000D02*
X105200000Y-108075000D01*
X121350000Y-124927500D02*
X122010000Y-124927500D01*
X133037500Y-119175000D02*
X133290000Y-118922500D01*
X122000000Y-125875000D02*
X122000000Y-124937500D01*
X130537500Y-117625000D02*
X130400000Y-117762500D01*
X64830000Y-81025001D02*
X64730000Y-80925001D01*
X125700000Y-115575000D02*
X125700000Y-116235000D01*
X122262500Y-124675000D02*
X122010000Y-124927500D01*
X113075000Y-107725000D02*
X113075000Y-109175000D01*
X101097501Y-90335002D02*
X100509999Y-90335002D01*
X105160000Y-105225000D02*
X105200000Y-105265000D01*
D74*
X105110001Y-83734999D02*
X105160000Y-83685002D01*
D72*
X101705000Y-120380000D02*
X101705000Y-121820000D01*
X69470000Y-89935001D02*
X69470000Y-88985001D01*
X131812500Y-119175000D02*
X133037500Y-119175000D01*
X106010000Y-85557184D02*
X106010000Y-85434998D01*
X125710000Y-116235000D02*
X125700000Y-116235000D01*
X105200000Y-106475000D02*
X105200000Y-107375000D01*
X131400000Y-128975000D02*
X131400000Y-128375000D01*
X104325000Y-122925000D02*
X104400000Y-122850000D01*
X108469999Y-92885001D02*
X109170000Y-92885001D01*
X63860001Y-83095001D02*
X63770000Y-83185002D01*
X105610002Y-87335000D02*
X105610001Y-85957183D01*
D74*
X105110001Y-84435001D02*
X105110001Y-83734999D01*
D72*
X126400000Y-116935000D02*
X125700000Y-116235000D01*
X121275000Y-110350000D02*
X121875000Y-110350000D01*
X101700000Y-120385000D02*
X101705000Y-120380000D01*
X102875000Y-111350000D02*
X102275000Y-111350000D01*
D75*
X132650000Y-136125000D02*
X132650000Y-135775000D01*
X132650000Y-136125000D02*
X132650000Y-136937500D01*
D72*
X100509999Y-90335002D02*
X100460000Y-90385001D01*
X104325000Y-123750000D02*
X104325000Y-124400000D01*
X123487500Y-124675000D02*
X122262500Y-124675000D01*
X102875000Y-111350000D02*
X104400000Y-111350000D01*
D75*
X132050000Y-135775000D02*
X132650000Y-135775000D01*
D72*
X105610000Y-86897501D02*
X105610002Y-87335000D01*
X130587500Y-126275000D02*
X130400000Y-126087500D01*
X64730000Y-82775002D02*
X64830000Y-82875001D01*
D73*
X132240000Y-106175000D02*
X132240000Y-105835000D01*
X121325000Y-115325000D02*
X121325000Y-115925000D01*
X122850000Y-109375000D02*
X122225000Y-109375000D01*
D72*
X133950000Y-118922500D02*
X133290000Y-118922500D01*
X131350000Y-118275000D02*
X131350000Y-117625000D01*
X115825000Y-138075000D02*
X114550000Y-138075000D01*
X112825000Y-107475000D02*
X112825000Y-106875000D01*
D73*
X132240000Y-107085000D02*
X132240000Y-106175000D01*
D72*
X102250000Y-120925000D02*
X101700000Y-120925000D01*
X78130000Y-73075001D02*
X78830001Y-73075001D01*
D73*
X100228400Y-58685001D02*
X99598400Y-58685001D01*
X132240000Y-106175000D02*
X131800000Y-106175000D01*
D72*
X105610001Y-85957183D02*
X106010000Y-85557184D01*
X131350000Y-126275000D02*
X131350000Y-125625000D01*
X119750000Y-110850000D02*
X120775000Y-110850000D01*
X65149999Y-82875002D02*
X64930000Y-83095001D01*
X120775000Y-110850000D02*
X121275000Y-110350000D01*
X106890001Y-85435000D02*
X107110001Y-85215000D01*
X118150000Y-124600000D02*
X118075000Y-124525000D01*
X105200000Y-105265000D02*
X105200000Y-106475000D01*
%TO.N,GND*%
X119200000Y-137075000D02*
X119650000Y-136625000D01*
D73*
X122200000Y-115275000D02*
X122200000Y-115925000D01*
D72*
X117150000Y-61725000D02*
X117150000Y-62375000D01*
X114550000Y-137075000D02*
X114600000Y-137075000D01*
D73*
X128150000Y-113525000D02*
X126900000Y-113525000D01*
X127850000Y-107375000D02*
X126050000Y-107375000D01*
D72*
X117125000Y-134200000D02*
X117125000Y-135175000D01*
D73*
X123100000Y-115275000D02*
X123100000Y-115925000D01*
D72*
X117300000Y-134025000D02*
X117125000Y-134200000D01*
X113575000Y-107725000D02*
X113825000Y-107475000D01*
D75*
X132250000Y-139125000D02*
X132250000Y-138662500D01*
D74*
X131550000Y-133575000D02*
X131900000Y-133925000D01*
D72*
X103325000Y-123750000D02*
X103325000Y-124400000D01*
D73*
X133550000Y-128175000D02*
X134150000Y-128175000D01*
D72*
X106675000Y-107375000D02*
X106050000Y-107375000D01*
D73*
X123100000Y-114600000D02*
X123100000Y-115275000D01*
D72*
X121900000Y-134025000D02*
X121900000Y-133425000D01*
D74*
X130450000Y-133575000D02*
X129950000Y-133575000D01*
X62130000Y-68175002D02*
X62130000Y-78675002D01*
D72*
X111825000Y-106200000D02*
X111475000Y-105850000D01*
X121275000Y-111350000D02*
X121875000Y-111350000D01*
X121725000Y-136300000D02*
X121400000Y-136625000D01*
D73*
X132900000Y-115125000D02*
X131950000Y-115125000D01*
X122200000Y-114600000D02*
X122200000Y-115275000D01*
D74*
X68030000Y-80925002D02*
X68030000Y-82075001D01*
D72*
X116250000Y-61725000D02*
X116250000Y-62375000D01*
D76*
X95300000Y-128625000D02*
X114500000Y-128625000D01*
D72*
X108925000Y-107700000D02*
X108925000Y-108075000D01*
D74*
X62530000Y-80925002D02*
X62530000Y-82075001D01*
D72*
X116575000Y-107650000D02*
X116575000Y-107050000D01*
X102875000Y-122850000D02*
X102225000Y-122850000D01*
D73*
X131950000Y-115125000D02*
X131150000Y-115125000D01*
D74*
X64930000Y-84655001D02*
X64930000Y-85475001D01*
D72*
X67720000Y-87235001D02*
X67770000Y-87285001D01*
X113250000Y-106025000D02*
X112525000Y-106025000D01*
X129900000Y-124961216D02*
X129900000Y-126087500D01*
X134830000Y-142145001D02*
X134812500Y-142162501D01*
D74*
X72430000Y-80925001D02*
X72430000Y-82075001D01*
X75200000Y-73455001D02*
X75229999Y-73425002D01*
X57930000Y-68175002D02*
X57930000Y-70275002D01*
D72*
X126900000Y-117762500D02*
X126900000Y-116435000D01*
X121900000Y-134025000D02*
X121725000Y-134200000D01*
D73*
X125750000Y-109375000D02*
X126375000Y-109375000D01*
D72*
X123650000Y-137075000D02*
X123200000Y-136625000D01*
D74*
X130550000Y-136425000D02*
X131100000Y-136425000D01*
D72*
X114600000Y-137075000D02*
X115050000Y-136625000D01*
X119650000Y-136625000D02*
X121400000Y-136625000D01*
X101097502Y-91234999D02*
X100509998Y-91234999D01*
D74*
X107110001Y-83655001D02*
X107110001Y-82835000D01*
D72*
X103375000Y-122350000D02*
X104400000Y-122350000D01*
D75*
X49470001Y-69385001D02*
X48770000Y-69385001D01*
D73*
X133300000Y-122175000D02*
X133300000Y-122825000D01*
D72*
X97840000Y-111345001D02*
X97885000Y-111390001D01*
D74*
X72430000Y-65925003D02*
X72430000Y-64285001D01*
D75*
X105660000Y-90885000D02*
X105610001Y-90934999D01*
D72*
X102850000Y-119925000D02*
X102850000Y-119385001D01*
X67650000Y-88385001D02*
X68570000Y-88385001D01*
X113825000Y-107475000D02*
X113825000Y-106875000D01*
D73*
X129400000Y-130475000D02*
X129525000Y-130475000D01*
D72*
X132350000Y-117625000D02*
X132350000Y-118275000D01*
X119410000Y-61815001D02*
X120512500Y-61815001D01*
D74*
X72630000Y-76575002D02*
X57930000Y-76575002D01*
X58930000Y-68175002D02*
X61130000Y-68175002D01*
X57930000Y-78675002D02*
X57930000Y-70275002D01*
D72*
X125250000Y-60425000D02*
X125350000Y-60525000D01*
X121275000Y-111350000D02*
X119750000Y-111350000D01*
D75*
X131600000Y-132175000D02*
X132700000Y-132175000D01*
D74*
X58130000Y-65925003D02*
X58130000Y-64775001D01*
D75*
X106110000Y-86897502D02*
X106110000Y-86235002D01*
D72*
X131150000Y-116225000D02*
X130500000Y-116225000D01*
X109275000Y-104250000D02*
X108200000Y-104250000D01*
X126900000Y-116435000D02*
X126700000Y-116235000D01*
D75*
X131950000Y-139425000D02*
X132250000Y-139125000D01*
D74*
X70530000Y-68175002D02*
X70530000Y-78675002D01*
D72*
X123200000Y-136625000D02*
X121400000Y-136625000D01*
D74*
X67330000Y-68175002D02*
X71630000Y-68175002D01*
D72*
X104200000Y-106475000D02*
X103575000Y-106475000D01*
D74*
X61130000Y-68175002D02*
X63230000Y-68175002D01*
D72*
X108925000Y-107700000D02*
X108925000Y-107025000D01*
D76*
X95300000Y-128625000D02*
X95300000Y-133425000D01*
D72*
X122257500Y-124175000D02*
X122010000Y-123927500D01*
D75*
X49480001Y-74085001D02*
X48780000Y-74085001D01*
D72*
X102875000Y-122850000D02*
X103375000Y-122350000D01*
X112525000Y-106025000D02*
X111650000Y-106025000D01*
D75*
X135450000Y-138925000D02*
X136150000Y-138925000D01*
D72*
X111650000Y-106025000D02*
X111475000Y-105850000D01*
X111825000Y-107025000D02*
X111825000Y-106200000D01*
X133042500Y-119675000D02*
X133290000Y-119922500D01*
D75*
X105610001Y-90934999D02*
X105610002Y-91672500D01*
D72*
X133950000Y-119922500D02*
X133290000Y-119922500D01*
X109075000Y-108225000D02*
X109075000Y-109175000D01*
X121725000Y-134200000D02*
X121725000Y-135175000D01*
D73*
X119100000Y-134925000D02*
X119100000Y-134275000D01*
D74*
X64229999Y-68175002D02*
X64229999Y-78675002D01*
D72*
X97885000Y-111390001D02*
X97885000Y-113320000D01*
D74*
X104610000Y-87772893D02*
X104618595Y-87781488D01*
D72*
X121350000Y-123927500D02*
X122010000Y-123927500D01*
D75*
X106508000Y-88985002D02*
X106558000Y-89035001D01*
X106558000Y-89035001D02*
X107022500Y-89035002D01*
D72*
X102875000Y-110350000D02*
X103375000Y-110850000D01*
D75*
X108410002Y-89785000D02*
X108410002Y-90435000D01*
D73*
X119960000Y-105865000D02*
X120590000Y-105865000D01*
D75*
X133450000Y-133525000D02*
X134100000Y-133525000D01*
D72*
X66869999Y-87235001D02*
X67720000Y-87235001D01*
D74*
X70530000Y-70275002D02*
X70530000Y-76575002D01*
D72*
X104200000Y-107375000D02*
X103600000Y-107375000D01*
X106675000Y-106475000D02*
X106050000Y-106475000D01*
X123487500Y-124175000D02*
X122257500Y-124175000D01*
X100509999Y-88535002D02*
X100460000Y-88585001D01*
D74*
X57930000Y-70275002D02*
X70530000Y-70275002D01*
D72*
X125350000Y-62675000D02*
X125350000Y-62025000D01*
D74*
X71630000Y-68175002D02*
X72630000Y-68175002D01*
X74210000Y-73455001D02*
X75200000Y-73455001D01*
X72630000Y-68175002D02*
X72630000Y-78675002D01*
D72*
X118975000Y-125600000D02*
X119625000Y-125600000D01*
D73*
X126950000Y-107375000D02*
X126950000Y-106725000D01*
D72*
X125350000Y-60525000D02*
X125350000Y-61225000D01*
X118850000Y-58715000D02*
X118850000Y-59675000D01*
X116200000Y-106025000D02*
X116825000Y-106025000D01*
D74*
X104610000Y-86897502D02*
X103835000Y-86897502D01*
D73*
X129525000Y-130475000D02*
X130325000Y-129675000D01*
D74*
X63230000Y-68175002D02*
X65330000Y-68175002D01*
X104610000Y-86897502D02*
X104610000Y-87772893D01*
D72*
X117575000Y-124525000D02*
X117575000Y-125550000D01*
D75*
X108410002Y-86835002D02*
X108410001Y-86135002D01*
D72*
X131812500Y-119675000D02*
X133042500Y-119675000D01*
X116300000Y-136125000D02*
X116800000Y-136625000D01*
X125250000Y-58715000D02*
X125250000Y-60425000D01*
D74*
X60030000Y-68175002D02*
X60030000Y-78675002D01*
D72*
X103375000Y-110850000D02*
X104400000Y-110850000D01*
D74*
X72630000Y-72375002D02*
X57930000Y-72375002D01*
D72*
X117300000Y-134025000D02*
X117300000Y-133425000D01*
X121725000Y-135175000D02*
X121725000Y-136300000D01*
X134812500Y-142162501D02*
X133707500Y-142162501D01*
X132350000Y-126275000D02*
X132350000Y-125625000D01*
X115050000Y-136625000D02*
X116800000Y-136625000D01*
X117125000Y-136300000D02*
X116800000Y-136625000D01*
X117300000Y-136125000D02*
X116800000Y-136625000D01*
D75*
X106110000Y-86235002D02*
X106210001Y-86135002D01*
D72*
X118750000Y-126325000D02*
X118475000Y-126050000D01*
X113575000Y-109175000D02*
X113575000Y-107725000D01*
X100509998Y-91234999D02*
X100460000Y-91185001D01*
X117575000Y-125550000D02*
X118075000Y-126050000D01*
X123000000Y-125875000D02*
X123550000Y-125325000D01*
D74*
X107110001Y-82835000D02*
X107160001Y-82785000D01*
D72*
X118050000Y-61725000D02*
X118050000Y-62925000D01*
X108925000Y-108075000D02*
X109075000Y-108225000D01*
X63770000Y-84185000D02*
X63770000Y-84995001D01*
D74*
X65330000Y-68175002D02*
X67330000Y-68175002D01*
D72*
X78030001Y-69275001D02*
X77230000Y-69275001D01*
D75*
X106260000Y-88985001D02*
X106508000Y-88985002D01*
D72*
X130150000Y-115125000D02*
X131150000Y-115125000D01*
X101110001Y-88535002D02*
X100509999Y-88535002D01*
X127600000Y-116235000D02*
X126700000Y-116235000D01*
D76*
X103700000Y-128625000D02*
X103700000Y-133425000D01*
D74*
X70230000Y-65925003D02*
X70230000Y-64285001D01*
D72*
X103600000Y-107375000D02*
X103575000Y-107350000D01*
D74*
X70530000Y-70275002D02*
X72630000Y-70275002D01*
X57930000Y-74475002D02*
X72630000Y-74475002D01*
X103835000Y-86897502D02*
X103697500Y-87035000D01*
D75*
X133650000Y-135775000D02*
X134300000Y-135775000D01*
D74*
X57930000Y-68175002D02*
X58930000Y-68175002D01*
X72630000Y-78675002D02*
X57930000Y-78675002D01*
D72*
X119100000Y-137075000D02*
X119200000Y-137075000D01*
X126700000Y-115575000D02*
X126700000Y-116235000D01*
X102875000Y-110350000D02*
X102275000Y-110350000D01*
X118475000Y-126050000D02*
X118075000Y-126050000D01*
D75*
X78130000Y-71275001D02*
X78830001Y-71275001D01*
D74*
X66330001Y-68175002D02*
X66330001Y-78675002D01*
X130450000Y-136525000D02*
X130550000Y-136425000D01*
X60330000Y-65925003D02*
X60330000Y-64775001D01*
X129950000Y-133575000D02*
X129800000Y-133725000D01*
D73*
X126900000Y-113525000D02*
X127950000Y-113525000D01*
D74*
X68430000Y-68175002D02*
X68430000Y-78675002D01*
X131350000Y-133575000D02*
X131550000Y-133575000D01*
X106010000Y-83735000D02*
X105960000Y-83685001D01*
X106010000Y-84435002D02*
X106010000Y-83735000D01*
X131350000Y-133575000D02*
X130450000Y-133575000D01*
D72*
X117125000Y-135175000D02*
X117125000Y-136300000D01*
D73*
X100228400Y-57785001D02*
X99598400Y-57785001D01*
%TO.N,/ST-LINK/STLINK-RST*%
X123000000Y-118525000D02*
X122200000Y-117725000D01*
X122200000Y-116925000D02*
X121325000Y-116925000D01*
X124001344Y-118525000D02*
X123000000Y-118525000D01*
X122200000Y-117725000D02*
X122200000Y-116925000D01*
X127400000Y-118499999D02*
X126874999Y-119025000D01*
X126874999Y-119025000D02*
X124501344Y-119025000D01*
X124501344Y-119025000D02*
X124001344Y-118525000D01*
X127400000Y-117762500D02*
X127400000Y-118499999D01*
%TO.N,/ST-LINK/STLINK-OSC_IN*%
X129500000Y-116225000D02*
X129100000Y-115825000D01*
X128400000Y-117762500D02*
X128400000Y-116875000D01*
X128400000Y-116875000D02*
X128475000Y-116800000D01*
X128475000Y-116800000D02*
X128925000Y-116800000D01*
X129100000Y-115825000D02*
X129100000Y-114575000D01*
X128925000Y-116800000D02*
X129500000Y-116225000D01*
X129100000Y-114575000D02*
X130150000Y-113525000D01*
%TO.N,/ST-LINK/STLINK-OSC_OUT*%
X127900000Y-117762500D02*
X127900000Y-116825000D01*
X128490000Y-116235000D02*
X128600000Y-116235000D01*
X127950000Y-115125000D02*
X128600000Y-115775000D01*
D77*
X128540000Y-116235000D02*
X128600000Y-116235000D01*
D73*
X128600000Y-115775000D02*
X128600000Y-116235000D01*
X127900000Y-116825000D02*
X128490000Y-116235000D01*
%TO.N,+5V*%
X133700000Y-109275000D02*
X133700000Y-104825000D01*
D72*
X121075000Y-134200000D02*
X120900000Y-134025000D01*
X116475000Y-134200000D02*
X116300000Y-134025000D01*
D77*
X125960000Y-136785000D02*
X124850000Y-136785000D01*
D73*
X133550000Y-129075000D02*
X134150000Y-129075000D01*
D74*
X131100000Y-135525001D02*
X131099999Y-135525000D01*
D73*
X131750000Y-104325000D02*
X130750000Y-105325000D01*
D72*
X120900000Y-134025000D02*
X120900000Y-133425000D01*
D74*
X131099999Y-135525000D02*
X130450000Y-135525000D01*
D72*
X121075000Y-135175000D02*
X121075000Y-134200000D01*
X116300000Y-134025000D02*
X116300000Y-133425000D01*
D73*
X133700000Y-104825000D02*
X133200000Y-104325000D01*
D74*
X129987500Y-135062500D02*
X130450000Y-135525000D01*
D77*
X126200000Y-137025000D02*
X125960000Y-136785000D01*
D73*
X133200000Y-104325000D02*
X131750000Y-104325000D01*
D74*
X129262500Y-135062500D02*
X129987500Y-135062500D01*
D72*
X116475000Y-135175000D02*
X116475000Y-134200000D01*
D73*
X133300000Y-109675000D02*
X133700000Y-109275000D01*
X133300000Y-110375000D02*
X133300000Y-109675000D01*
X130750000Y-107085000D02*
X130750000Y-105325000D01*
%TO.N,/ST-LINK/LED*%
X123425000Y-112240000D02*
X125175000Y-112240000D01*
X127400000Y-124950000D02*
X127400000Y-126087500D01*
X124950000Y-114800000D02*
X125175000Y-114575000D01*
X125175000Y-114575000D02*
X125175000Y-112240000D01*
%TO.N,/MCU/OSC_IN*%
X111450000Y-104250000D02*
X111475000Y-104250000D01*
X110825000Y-107025000D02*
X110825000Y-106950000D01*
X112575000Y-108300000D02*
X111925000Y-107650000D01*
X112575000Y-109175000D02*
X112575000Y-108300000D01*
X110375000Y-105325000D02*
X111450000Y-104250000D01*
X111075000Y-107650000D02*
X110825000Y-107400000D01*
X110825000Y-107400000D02*
X110825000Y-107025000D01*
X110375000Y-106500000D02*
X110375000Y-105325000D01*
X110825000Y-106950000D02*
X110375000Y-106500000D01*
X111925000Y-107650000D02*
X111075000Y-107650000D01*
%TO.N,/ST-LINK/STLINK-BOOT0*%
X131812500Y-121175000D02*
X130675000Y-121175000D01*
X131812500Y-121175000D02*
X133300000Y-121175000D01*
%TO.N,/MCU/OSC_OUT*%
X112075000Y-109175000D02*
X112075000Y-108275000D01*
X111775000Y-107975000D02*
X110475000Y-107975000D01*
X110475000Y-107975000D02*
X109925000Y-107425000D01*
X109925000Y-106500000D02*
X109275000Y-105850000D01*
X109925000Y-107425000D02*
X109925000Y-107025000D01*
X112075000Y-108275000D02*
X111775000Y-107975000D01*
X109925000Y-107025000D02*
X109925000Y-106500000D01*
%TO.N,/MCU/BOOT0*%
X123100000Y-113600000D02*
X123100000Y-113650000D01*
X120875000Y-113600000D02*
X123100000Y-113600000D01*
X120625000Y-113850000D02*
X120875000Y-113600000D01*
X119750000Y-113850000D02*
X120625000Y-113850000D01*
%TO.N,/MCU/NRST*%
X119880000Y-107645000D02*
X119000000Y-106765000D01*
X119950000Y-107645000D02*
X119880000Y-107645000D01*
X118960000Y-106765000D02*
X118960000Y-105865000D01*
X119000000Y-106765000D02*
X118960000Y-106765000D01*
%TO.N,/ST-LINK/DIO*%
X129400000Y-125200000D02*
X129400000Y-126087500D01*
X128875000Y-124675000D02*
X129400000Y-125200000D01*
%TO.N,/ST-LINK/CLK*%
X130350000Y-124175000D02*
X130850000Y-124675000D01*
X130850000Y-124675000D02*
X131812500Y-124675000D01*
D77*
%TO.N,+12V_FUSED*%
X111874212Y-134118050D02*
X111570720Y-134421542D01*
D73*
X129240000Y-105815000D02*
X128750000Y-105325000D01*
D77*
X98253492Y-137488288D02*
X98253492Y-136675000D01*
D73*
X134100000Y-109675000D02*
X134100000Y-104575000D01*
X134100000Y-104575000D02*
X133400000Y-103875000D01*
D77*
X97950000Y-136371508D02*
X97550000Y-136371508D01*
X111324212Y-135068050D02*
X110412500Y-135068050D01*
D73*
X133400000Y-103875000D02*
X130200000Y-103875000D01*
D77*
X111570720Y-134821542D02*
X111324212Y-135068050D01*
X98253492Y-136675000D02*
X97950000Y-136371508D01*
D73*
X130200000Y-103875000D02*
X128750000Y-105325000D01*
D77*
X97550000Y-136371508D02*
X97303492Y-136125000D01*
X97303492Y-136125000D02*
X97303492Y-135213288D01*
X112687500Y-134118050D02*
X111874212Y-134118050D01*
D73*
X129240000Y-107085000D02*
X129240000Y-105815000D01*
D77*
X111570720Y-134421542D02*
X111570720Y-134821542D01*
D73*
X133950000Y-109825000D02*
X134100000Y-109675000D01*
X133950000Y-109925000D02*
X133950000Y-109825000D01*
%TO.N,/ST-LINK/STLINK_RX*%
X124186698Y-119175000D02*
X123487500Y-119175000D01*
X124511698Y-119500000D02*
X124186698Y-119175000D01*
X132200000Y-113725000D02*
X133250000Y-113725000D01*
X126100000Y-119500000D02*
X124511698Y-119500000D01*
%TO.N,/ST-LINK/USB_RENUM*%
X132900000Y-124175000D02*
X131812500Y-124175000D01*
X133550000Y-124825000D02*
X132900000Y-124175000D01*
X133550000Y-127275000D02*
X133550000Y-124825000D01*
D74*
%TO.N,Net-(U302-3V3)*%
X130437500Y-134562500D02*
X130450000Y-134575000D01*
X131350000Y-134575000D02*
X130450000Y-134575000D01*
X129262500Y-134562500D02*
X130437500Y-134562500D01*
D72*
%TO.N,/USB/VBUS_IN*%
X124350000Y-60525000D02*
X124350000Y-61225000D01*
X124450000Y-58715000D02*
X124450000Y-57963173D01*
D73*
X133900000Y-132775000D02*
X132825000Y-132775000D01*
X132825000Y-132775000D02*
X132550000Y-133050000D01*
X134050000Y-132625000D02*
X133900000Y-132775000D01*
D72*
X119650000Y-57950000D02*
X119650000Y-58715000D01*
X120525000Y-57075000D02*
X119650000Y-57950000D01*
X124450000Y-58715000D02*
X124450000Y-60425000D01*
D73*
X132550000Y-133050000D02*
X132550000Y-133525000D01*
D72*
X124450000Y-57963173D02*
X123561827Y-57075000D01*
X124450000Y-60425000D02*
X124350000Y-60525000D01*
D75*
X132350000Y-133375000D02*
X132350000Y-133525000D01*
D72*
X123561827Y-57075000D02*
X120525000Y-57075000D01*
D73*
%TO.N,/ST-LINK/STLINK_TX*%
X126075000Y-114450000D02*
X124900000Y-115625000D01*
X132200000Y-111725000D02*
X133250000Y-111725000D01*
X124900000Y-115625000D02*
X124900000Y-117762500D01*
D77*
%TO.N,/MCU/USR_BUTTON*%
X99538600Y-56899202D02*
X99552801Y-56885001D01*
X116075000Y-109175000D02*
X116075000Y-110250000D01*
X99552801Y-56885001D02*
X100228400Y-56885001D01*
X116075000Y-110250000D02*
X115975000Y-110350000D01*
D73*
%TO.N,Net-(D700-Pad2)*%
X123425000Y-109800000D02*
X123850000Y-109375000D01*
X123425000Y-110660000D02*
X123425000Y-109800000D01*
%TO.N,Net-(D701-Pad1)*%
X125175000Y-109800000D02*
X125175000Y-110660000D01*
X124750000Y-109375000D02*
X125175000Y-109800000D01*
%TO.N,Net-(Q700-B)*%
X131550000Y-127725000D02*
X132000000Y-127275000D01*
X132550000Y-128175000D02*
X132550000Y-127275000D01*
X132550000Y-129075000D02*
X132550000Y-128175000D01*
X129600000Y-127725000D02*
X131550000Y-127725000D01*
X132000000Y-127275000D02*
X132550000Y-127275000D01*
%TO.N,Net-(Q700-E)*%
X128553553Y-129028553D02*
X128557106Y-129025000D01*
X128557106Y-129025000D02*
X129600000Y-129025000D01*
%TO.N,/MCU/SWD.~{RST}*%
X111575001Y-110375000D02*
X111575000Y-110374999D01*
X111575000Y-110374999D02*
X111575000Y-109175000D01*
X118377238Y-107645000D02*
X118950000Y-107645000D01*
X121900000Y-120045000D02*
X121900000Y-120675000D01*
%TO.N,Net-(U500-STB)*%
X122375000Y-138075000D02*
X123650000Y-138075000D01*
%TO.N,Net-(U600-STB)*%
X118500000Y-136525000D02*
X118500000Y-137625000D01*
X117775000Y-138075000D02*
X118050000Y-138075000D01*
X119100000Y-135925000D02*
X118500000Y-136525000D01*
X118500000Y-137625000D02*
X118050000Y-138075000D01*
%TO.N,/MCU/SWD.SWCLK*%
X120750000Y-122975000D02*
X120625000Y-122850000D01*
X122050000Y-127650000D02*
X123000000Y-127650000D01*
X120750000Y-125665001D02*
X120750000Y-122975000D01*
X120625000Y-122850000D02*
X119750000Y-122850000D01*
X122050000Y-126965001D02*
X120750000Y-125665001D01*
X122050000Y-127650000D02*
X122050000Y-126965001D01*
D78*
%TO.N,/ST-LINK/ST-LINK.D+*%
X126850000Y-130225000D02*
X126850000Y-130125000D01*
X127568082Y-130725000D02*
X127568082Y-130625000D01*
X126850000Y-129125000D02*
X126850000Y-129041690D01*
X128900000Y-126675000D02*
X128900000Y-126087500D01*
X126850000Y-129041690D02*
X127708345Y-128183345D01*
X126850000Y-131625000D02*
X126850000Y-131125000D01*
X127708345Y-128183345D02*
X128815000Y-127076690D01*
X127368082Y-130425000D02*
X127050000Y-130425000D01*
X127050000Y-130925000D02*
X127368082Y-130925000D01*
X128815000Y-126760000D02*
X128900000Y-126675000D01*
D73*
X127846447Y-128321447D02*
X127708345Y-128183345D01*
D78*
X127568064Y-129725000D02*
X127568064Y-129625000D01*
X127368064Y-129425000D02*
X127050000Y-129425000D01*
X127050000Y-129925000D02*
X127368064Y-129925000D01*
X128815000Y-127076690D02*
X128815000Y-126760000D01*
X126850000Y-129225000D02*
X126850000Y-129125000D01*
X126850000Y-130125000D02*
G75*
G02*
X127050000Y-129925000I200000J0D01*
G01*
X127568082Y-130625000D02*
G75*
G03*
X127368082Y-130425018I-199982J0D01*
G01*
X127050000Y-129425000D02*
G75*
G02*
X126850000Y-129225000I0J200000D01*
G01*
X126850000Y-131125000D02*
G75*
G02*
X127050000Y-130925000I200000J0D01*
G01*
X127368064Y-129925000D02*
G75*
G03*
X127568100Y-129725000I36J200000D01*
G01*
X127050000Y-130425000D02*
G75*
G02*
X126850000Y-130225000I0J200000D01*
G01*
X127368082Y-130925000D02*
G75*
G03*
X127568100Y-130725000I18J200000D01*
G01*
X127568064Y-129625000D02*
G75*
G03*
X127368064Y-129425036I-199964J0D01*
G01*
D73*
%TO.N,/MCU/SWD.SWDIO*%
X116450000Y-126350000D02*
X118625000Y-128525000D01*
X118625000Y-128525000D02*
X123000000Y-128525000D01*
X116450000Y-125725000D02*
X116450000Y-126350000D01*
X116575000Y-124525000D02*
X116575000Y-125600000D01*
X116575000Y-125600000D02*
X116550000Y-125625000D01*
X116575000Y-125600000D02*
X116450000Y-125725000D01*
D77*
%TO.N,Net-(D301-Pad1)*%
X126200000Y-138375000D02*
X124860000Y-138375000D01*
X124860000Y-138375000D02*
X124850000Y-138365000D01*
D78*
%TO.N,/MCU/QSPI1.SCLK*%
X100875000Y-116175000D02*
X100675000Y-115975000D01*
X98875000Y-118510000D02*
X97635000Y-118510000D01*
X102550000Y-117875000D02*
X100450000Y-117875000D01*
X99225000Y-117750000D02*
X100125000Y-118650000D01*
X102675000Y-118000000D02*
X102550000Y-117875000D01*
X102475000Y-116950000D02*
X102650000Y-116775000D01*
X102650000Y-116375000D02*
X102450000Y-116175000D01*
X103250000Y-115850000D02*
X104400000Y-115850000D01*
X102525000Y-118650000D02*
X102675000Y-118500000D01*
X102225000Y-115350000D02*
X102600000Y-114975000D01*
X99625000Y-116025000D02*
X100550000Y-116950000D01*
X97525000Y-117875000D02*
X97650000Y-117750000D01*
X99155000Y-120380000D02*
X99155000Y-118790000D01*
X97525000Y-118400000D02*
X97525000Y-117875000D01*
X100550000Y-116950000D02*
X102475000Y-116950000D01*
X100675000Y-115975000D02*
X100675000Y-115750000D01*
X102675000Y-118500000D02*
X102675000Y-118000000D01*
X103025000Y-115100000D02*
X103025000Y-115625000D01*
X103025000Y-115625000D02*
X103250000Y-115850000D01*
X100450000Y-117875000D02*
X99475000Y-116900000D01*
X97450000Y-116350000D02*
X97775000Y-116025000D01*
X99475000Y-116900000D02*
X97650000Y-116900000D01*
X97775000Y-116025000D02*
X99625000Y-116025000D01*
X102450000Y-116175000D02*
X100875000Y-116175000D01*
X97635000Y-118510000D02*
X97525000Y-118400000D01*
X102900000Y-114975000D02*
X103025000Y-115100000D01*
X102600000Y-114975000D02*
X102900000Y-114975000D01*
X97450000Y-116700000D02*
X97450000Y-116350000D01*
X101075000Y-115350000D02*
X102225000Y-115350000D01*
X100675000Y-115750000D02*
X101075000Y-115350000D01*
X99155000Y-118790000D02*
X98875000Y-118510000D01*
X97650000Y-116900000D02*
X97450000Y-116700000D01*
X102650000Y-116775000D02*
X102650000Y-116375000D01*
X100125000Y-118650000D02*
X102525000Y-118650000D01*
X97650000Y-117750000D02*
X99225000Y-117750000D01*
%TO.N,/MCU/QSPI1.IO3*%
X107906309Y-121569320D02*
X107865296Y-121528307D01*
X109200315Y-120770288D02*
X108911815Y-120481788D01*
X110575000Y-123090551D02*
X110575000Y-124525000D01*
X111272710Y-121589339D02*
X110992695Y-121309324D01*
X110142183Y-120247029D02*
X110246834Y-120142377D01*
X110400000Y-118575000D02*
X111403181Y-118575000D01*
X111950000Y-120855000D02*
X111950000Y-120975000D01*
X110575000Y-122700000D02*
X110575000Y-123090551D01*
X104660000Y-125225000D02*
X105300000Y-124585000D01*
X110756521Y-122518475D02*
X110653285Y-122621714D01*
X107801658Y-122092580D02*
X107906309Y-121987928D01*
X109435077Y-119958530D02*
X109723576Y-120247029D01*
X105300000Y-124585000D02*
X105300000Y-123675000D01*
X100435000Y-122510000D02*
X103150000Y-125225000D01*
X111950000Y-119121819D02*
X111950000Y-119775000D01*
X107969950Y-121005049D02*
X107969951Y-121005049D01*
X107865296Y-121109700D02*
X107969950Y-121005049D01*
X110653285Y-122621714D02*
X110575000Y-122700000D01*
X110476507Y-121825511D02*
X110756521Y-122105525D01*
X103150000Y-125225000D02*
X104660000Y-125225000D01*
X108911815Y-120063181D02*
X109016469Y-119958530D01*
X105300000Y-123675000D02*
X106923432Y-122051568D01*
X109095664Y-121293548D02*
X109200315Y-121188896D01*
X111937635Y-121337365D02*
X111685661Y-121589339D01*
X110246834Y-119723769D02*
X109958334Y-119435269D01*
X110062988Y-118912011D02*
X110305701Y-118669299D01*
X107342039Y-122051568D02*
X107383051Y-122092580D01*
X111470000Y-120255000D02*
X111470000Y-120375000D01*
X100435000Y-120380000D02*
X100435000Y-122510000D01*
X108388558Y-121005049D02*
X108677057Y-121293548D01*
X109016469Y-119958530D02*
X109016470Y-119958530D01*
X111950000Y-120975000D02*
X111950000Y-121325000D01*
X110305701Y-118669299D02*
X110400000Y-118575000D01*
X111950000Y-121325000D02*
X111937635Y-121337365D01*
X110579745Y-121309324D02*
X110476507Y-121412561D01*
X109958334Y-119016662D02*
X110062988Y-118912011D01*
X111470000Y-120375000D02*
G75*
G03*
X111710000Y-120615000I240000J0D01*
G01*
X106923432Y-122051568D02*
G75*
G02*
X107342039Y-122051567I209304J-209305D01*
G01*
X110476507Y-121412561D02*
G75*
G03*
X110476543Y-121825475I206493J-206439D01*
G01*
X110246834Y-120142377D02*
G75*
G03*
X110246807Y-119723796I-209334J209277D01*
G01*
X109958334Y-119435269D02*
G75*
G02*
X109958368Y-119016697I209266J209269D01*
G01*
X110992695Y-121309324D02*
G75*
G03*
X110579745Y-121309324I-206475J-206474D01*
G01*
X109200315Y-121188896D02*
G75*
G03*
X109200307Y-120770296I-209315J209296D01*
G01*
X111710000Y-120615000D02*
G75*
G02*
X111950000Y-120855000I0J-240000D01*
G01*
X111950000Y-119775000D02*
G75*
G02*
X111710000Y-120015000I-240000J0D01*
G01*
X111403181Y-118575000D02*
G75*
G02*
X111950000Y-119121819I19J-546800D01*
G01*
X109723576Y-120247029D02*
G75*
G03*
X110142183Y-120247030I209304J209305D01*
G01*
X107906309Y-121987928D02*
G75*
G03*
X107906333Y-121569296I-209309J209328D01*
G01*
X108911815Y-120481788D02*
G75*
G02*
X108911830Y-120063197I209285J209288D01*
G01*
X110756521Y-122105525D02*
G75*
G02*
X110756521Y-122518475I-206521J-206475D01*
G01*
X107969951Y-121005049D02*
G75*
G02*
X108388558Y-121005049I209303J-209305D01*
G01*
X107865296Y-121528307D02*
G75*
G02*
X107865292Y-121109697I209304J209307D01*
G01*
X107383051Y-122092580D02*
G75*
G03*
X107801658Y-122092580I209303J209305D01*
G01*
X111685661Y-121589339D02*
G75*
G02*
X111272711Y-121589339I-206475J206475D01*
G01*
X108677057Y-121293548D02*
G75*
G03*
X109095664Y-121293549I209304J209305D01*
G01*
X109016470Y-119958530D02*
G75*
G02*
X109435077Y-119958530I209303J-209305D01*
G01*
X111710000Y-120015000D02*
G75*
G03*
X111470000Y-120255000I0J-240000D01*
G01*
%TO.N,/MCU/USB_MCU.D-*%
X120110000Y-130795000D02*
X119053310Y-130795000D01*
X115660000Y-125260000D02*
X115575000Y-125175000D01*
X123908488Y-131719615D02*
X123851920Y-131776184D01*
X121129518Y-131383329D02*
X121009518Y-131383329D01*
X123540792Y-131776183D02*
X123463010Y-131698401D01*
X120529518Y-130795000D02*
X120409518Y-130795000D01*
X121969518Y-131143329D02*
X121969518Y-131035000D01*
X120409518Y-130795000D02*
X120110000Y-130795000D01*
X123463011Y-131387275D02*
X123519578Y-131330705D01*
X123441798Y-130941798D02*
X123295000Y-130795000D01*
X122329518Y-131383329D02*
X122209518Y-131383329D01*
X115660000Y-127401690D02*
X115660000Y-125260000D01*
X123295000Y-130795000D02*
X122809518Y-130795000D01*
X115575000Y-125175000D02*
X115575000Y-124525000D01*
X119053310Y-130795000D02*
X115660000Y-127401690D01*
X122569518Y-131035000D02*
X122569518Y-131143329D01*
X121729518Y-130795000D02*
X121609518Y-130795000D01*
X120769518Y-131143329D02*
X120769518Y-131035000D01*
X124800000Y-132300000D02*
X124219616Y-131719616D01*
X124800000Y-132725000D02*
X124800000Y-132300000D01*
X123519579Y-131019579D02*
X123441798Y-130941798D01*
X121369518Y-131035000D02*
X121369518Y-131143329D01*
X123463010Y-131698401D02*
G75*
G02*
X123462972Y-131387237I155590J155601D01*
G01*
X122809518Y-130795000D02*
G75*
G03*
X122569500Y-131035000I-18J-240000D01*
G01*
X121369518Y-131143329D02*
G75*
G02*
X121129518Y-131383318I-240018J29D01*
G01*
X121609518Y-130795000D02*
G75*
G03*
X121369500Y-131035000I-18J-240000D01*
G01*
X121009518Y-131383329D02*
G75*
G02*
X120769471Y-131143329I-18J240029D01*
G01*
X122569518Y-131143329D02*
G75*
G02*
X122329518Y-131383318I-240018J29D01*
G01*
X123851920Y-131776184D02*
G75*
G02*
X123540836Y-131776140I-155520J155584D01*
G01*
X120769518Y-131035000D02*
G75*
G03*
X120529518Y-130794982I-240018J0D01*
G01*
X124219616Y-131719616D02*
G75*
G03*
X123908537Y-131719663I-155516J-155584D01*
G01*
X121969518Y-131035000D02*
G75*
G03*
X121729518Y-130794982I-240018J0D01*
G01*
X123519578Y-131330705D02*
G75*
G03*
X123519621Y-131019538I-155578J155605D01*
G01*
X122209518Y-131383329D02*
G75*
G02*
X121969471Y-131143329I-18J240029D01*
G01*
%TO.N,/USB/USB2S.D-*%
X123460000Y-63848311D02*
X123460000Y-62475001D01*
X133312500Y-138000000D02*
X133600000Y-138000000D01*
X121960000Y-60865001D02*
X122387500Y-60865001D01*
X134847735Y-137965000D02*
X135680000Y-137132735D01*
X122554999Y-59535000D02*
X121715000Y-59535000D01*
X121715000Y-59225000D02*
X121715000Y-59535000D01*
X121800000Y-59140000D02*
X121715000Y-59225000D01*
X135680000Y-66021654D02*
X134418346Y-64760000D01*
X122800000Y-59289999D02*
X122554999Y-59535000D01*
X134418346Y-64760000D02*
X124371689Y-64760000D01*
X133600000Y-138000000D02*
X133635000Y-137965000D01*
X135680000Y-137132735D02*
X135680000Y-66021654D01*
X121800000Y-58715000D02*
X121800000Y-59140000D01*
X121715000Y-60620001D02*
X121960000Y-60865001D01*
X124371689Y-64760000D02*
X123460000Y-63848311D01*
X121715000Y-59535000D02*
X121715000Y-60620001D01*
X122387500Y-61402501D02*
X122387500Y-60865001D01*
X133635000Y-137965000D02*
X134847735Y-137965000D01*
X122800000Y-58715000D02*
X122800000Y-59289999D01*
X123460000Y-62475001D02*
X122387500Y-61402501D01*
D77*
%TO.N,Net-(U302-PGANG)*%
X129600000Y-136625000D02*
X129900000Y-136325000D01*
X127900000Y-138925000D02*
X127350000Y-138375000D01*
X129900000Y-136325000D02*
X129900000Y-135725000D01*
X127350000Y-138375000D02*
X127200000Y-138375000D01*
X129737500Y-135562500D02*
X129262500Y-135562500D01*
X129900000Y-135725000D02*
X129737500Y-135562500D01*
D78*
%TO.N,/MCU/USB_MCU.D+*%
X116075000Y-124525000D02*
X116075000Y-125175000D01*
X125350000Y-133100000D02*
X125205000Y-133245000D01*
X125350000Y-132383310D02*
X125350000Y-133100000D01*
D77*
X124420000Y-133245000D02*
X125205000Y-133245000D01*
D78*
X119190000Y-130465000D02*
X123431690Y-130465000D01*
D77*
X123900000Y-132725000D02*
X124420000Y-133245000D01*
D78*
X116075000Y-125175000D02*
X115990000Y-125260000D01*
X115990000Y-125260000D02*
X115990000Y-127265000D01*
X123431690Y-130465000D02*
X125350000Y-132383310D01*
X115990000Y-127265000D02*
X119190000Y-130465000D01*
%TO.N,/USB/USB2S.D+*%
X121300000Y-58035000D02*
X121300000Y-58715000D01*
X135350000Y-136996043D02*
X135350000Y-136590658D01*
X122387500Y-62242501D02*
X122387500Y-62765001D01*
X135350000Y-66158346D02*
X134281654Y-65090000D01*
X124234999Y-65090000D02*
X122387500Y-63242501D01*
X133312500Y-137600000D02*
X133600000Y-137600000D01*
X121500000Y-57835000D02*
X121300000Y-58035000D01*
X121385000Y-59225000D02*
X121385000Y-61240001D01*
X122387500Y-63242501D02*
X122387500Y-62765001D01*
X135284901Y-137061145D02*
X135341469Y-137004575D01*
X135341469Y-137004575D02*
X135350000Y-136996043D01*
X122300000Y-58035000D02*
X122100000Y-57835000D01*
X133600000Y-137600000D02*
X133635000Y-137635000D01*
X134775782Y-137343987D02*
X134712143Y-137280348D01*
X135350000Y-136590658D02*
X135350000Y-66158346D01*
X134281654Y-65090000D02*
X124234999Y-65090000D01*
X122100000Y-57835000D02*
X121500000Y-57835000D01*
X134994987Y-136997505D02*
X135058627Y-137061145D01*
X122300000Y-58715000D02*
X122300000Y-58035000D01*
X133635000Y-137635000D02*
X134711043Y-137635000D01*
X134711043Y-137635000D02*
X134775782Y-137570261D01*
X121300000Y-58715000D02*
X121300000Y-59140000D01*
X121300000Y-59140000D02*
X121385000Y-59225000D01*
X121385000Y-61240001D02*
X122387500Y-62242501D01*
X134712143Y-137054074D02*
X134768713Y-136997505D01*
X134768713Y-136997505D02*
G75*
G02*
X134994987Y-136997505I113137J-113137D01*
G01*
X134775782Y-137570261D02*
G75*
G03*
X134775806Y-137343963I-113182J113161D01*
G01*
X134712143Y-137280348D02*
G75*
G02*
X134712132Y-137054063I113157J113148D01*
G01*
X135058627Y-137061145D02*
G75*
G03*
X135284901Y-137061145I113137J113137D01*
G01*
%TO.N,/USB-hub/USB_MCU_R.D-*%
X125111136Y-134647500D02*
X125035136Y-134647500D01*
X124800000Y-133755000D02*
X124800000Y-133725000D01*
X126050000Y-134562500D02*
X125965000Y-134647500D01*
X124515000Y-134040000D02*
X124800000Y-133755000D01*
X126337500Y-134562500D02*
X126050000Y-134562500D01*
X124830828Y-134647500D02*
X124515000Y-134331672D01*
X125263136Y-134393397D02*
X125263136Y-134495500D01*
X124515000Y-134331672D02*
X124515000Y-134040000D01*
X125035136Y-134647500D02*
X124986600Y-134647500D01*
X125491136Y-134241397D02*
X125415136Y-134241397D01*
X124986600Y-134647500D02*
X124830828Y-134647500D01*
X125965000Y-134647500D02*
X125795136Y-134647500D01*
X125643136Y-134495500D02*
X125643136Y-134393397D01*
X125415136Y-134241397D02*
G75*
G03*
X125263097Y-134393397I-36J-152003D01*
G01*
X125263136Y-134495500D02*
G75*
G02*
X125111136Y-134647536I-152036J0D01*
G01*
X125643136Y-134393397D02*
G75*
G03*
X125491136Y-134241364I-152036J-3D01*
G01*
X125795136Y-134647500D02*
G75*
G02*
X125643100Y-134495500I-36J152000D01*
G01*
D77*
%TO.N,/ST-LINK/ST-LINK.D-*%
X126478718Y-132105000D02*
X127270000Y-132105000D01*
X127270000Y-132105000D02*
X127750000Y-131625000D01*
D78*
X126425000Y-132100641D02*
X126250000Y-131925641D01*
D77*
X126474359Y-132100641D02*
X126478718Y-132105000D01*
D78*
X128485000Y-126760000D02*
X128400000Y-126675000D01*
X126520000Y-130945002D02*
X126520000Y-128905000D01*
X126520000Y-128905000D02*
X128485000Y-126940000D01*
X126250000Y-131215002D02*
X126520000Y-130945002D01*
X128485000Y-126940000D02*
X128485000Y-126760000D01*
X128400000Y-126675000D02*
X128400000Y-126087500D01*
X126250000Y-131925641D02*
X126250000Y-131215002D01*
X126474359Y-132100641D02*
X126425000Y-132100641D01*
%TO.N,/USB-hub/USB_MCU_R.D+*%
X125694246Y-134977500D02*
X125694246Y-134980754D01*
X124185000Y-134040000D02*
X123900000Y-133755000D01*
X124185000Y-134468362D02*
X124185000Y-134040000D01*
X126337500Y-135062500D02*
X126050000Y-135062500D01*
X125965000Y-134977500D02*
X125694246Y-134977500D01*
X124697392Y-134980754D02*
X124185000Y-134468362D01*
X123900000Y-133755000D02*
X123900000Y-133725000D01*
X126050000Y-135062500D02*
X125965000Y-134977500D01*
X124722408Y-134980754D02*
X124697392Y-134980754D01*
X125694246Y-134980754D02*
X124722408Y-134980754D01*
%TO.N,/Backplane/BACKPLANE.D+*%
X133050000Y-139012500D02*
X133015000Y-139047500D01*
X133015000Y-141440001D02*
X131832500Y-142622501D01*
X127500000Y-144675000D02*
X129390000Y-144675000D01*
X130952499Y-143112501D02*
X131832500Y-143112501D01*
X133050000Y-138662500D02*
X133050000Y-139012500D01*
X131832500Y-142622501D02*
X131832500Y-143112501D01*
X129390000Y-144675000D02*
X130952499Y-143112501D01*
X133015000Y-139047500D02*
X133015000Y-141440001D01*
X126200000Y-145975000D02*
X127500000Y-144675000D01*
%TO.N,/Backplane/BACKPLANE.D-*%
X132685000Y-139047500D02*
X132650000Y-139012500D01*
X127430000Y-142125000D02*
X130530001Y-142125000D01*
X132650000Y-139012500D02*
X132650000Y-138662500D01*
X126200000Y-140895000D02*
X127430000Y-142125000D01*
X132685000Y-140780001D02*
X132685000Y-139047500D01*
X130530001Y-142125000D02*
X131442500Y-141212501D01*
X131832500Y-141212501D02*
X132252500Y-141212501D01*
X131442500Y-141212501D02*
X131832500Y-141212501D01*
X132252500Y-141212501D02*
X132685000Y-140780001D01*
%TO.N,/MCU/QSPI1.CS*%
X103685000Y-109370000D02*
X104335000Y-110020000D01*
X106125000Y-120850000D02*
X104400000Y-120850000D01*
X106585000Y-114874000D02*
X106585000Y-115050000D01*
X104905000Y-110020000D02*
X106585000Y-111700000D01*
X106423819Y-120551181D02*
X106125000Y-120850000D01*
X108085000Y-117514000D02*
X108085000Y-117690000D01*
X101705000Y-113320000D02*
X101705000Y-111970000D01*
X106585000Y-120390000D02*
X106423819Y-120551181D01*
X106937000Y-113642000D02*
X107733000Y-113642000D01*
X108085000Y-119274000D02*
X108085000Y-119450000D01*
X107733000Y-116282000D02*
X106937000Y-116282000D01*
X106585000Y-116634000D02*
X106585000Y-116810000D01*
X106585000Y-118394000D02*
X106585000Y-118570000D01*
X101435000Y-111700000D02*
X101435000Y-109980000D01*
X106937000Y-115402000D02*
X107733000Y-115402000D01*
X106585000Y-120330000D02*
X106585000Y-120390000D01*
X108085000Y-113994000D02*
X108085000Y-114170000D01*
X104335000Y-110020000D02*
X104905000Y-110020000D01*
X101435000Y-109980000D02*
X102045000Y-109370000D01*
X107733000Y-114522000D02*
X106937000Y-114522000D01*
X102045000Y-109370000D02*
X103685000Y-109370000D01*
X107733000Y-119802000D02*
X106937000Y-119802000D01*
X106937000Y-117162000D02*
X107733000Y-117162000D01*
X101705000Y-111970000D02*
X101435000Y-111700000D01*
X106585000Y-120154000D02*
X106585000Y-120330000D01*
X107733000Y-118042000D02*
X106937000Y-118042000D01*
X108085000Y-115754000D02*
X108085000Y-115930000D01*
X106585000Y-111700000D02*
X106585000Y-113290000D01*
X106937000Y-118922000D02*
X107733000Y-118922000D01*
X108085000Y-119450000D02*
G75*
G02*
X107733000Y-119802000I-352000J0D01*
G01*
X107733000Y-113642000D02*
G75*
G02*
X108085000Y-113994000I0J-352000D01*
G01*
X107733000Y-117162000D02*
G75*
G02*
X108085000Y-117514000I0J-352000D01*
G01*
X106937000Y-114522000D02*
G75*
G03*
X106585000Y-114874000I0J-352000D01*
G01*
X107733000Y-115402000D02*
G75*
G02*
X108085000Y-115754000I0J-352000D01*
G01*
X108085000Y-115930000D02*
G75*
G02*
X107733000Y-116282000I-352000J0D01*
G01*
X106585000Y-116810000D02*
G75*
G03*
X106937000Y-117162000I352000J0D01*
G01*
X106585000Y-113290000D02*
G75*
G03*
X106937000Y-113642000I352000J0D01*
G01*
X106937000Y-119802000D02*
G75*
G03*
X106585000Y-120154000I0J-352000D01*
G01*
X106937000Y-116282000D02*
G75*
G03*
X106585000Y-116634000I0J-352000D01*
G01*
X106937000Y-118042000D02*
G75*
G03*
X106585000Y-118394000I0J-352000D01*
G01*
X106585000Y-115050000D02*
G75*
G03*
X106937000Y-115402000I352000J0D01*
G01*
X108085000Y-117690000D02*
G75*
G02*
X107733000Y-118042000I-352000J0D01*
G01*
X107733000Y-118922000D02*
G75*
G02*
X108085000Y-119274000I0J-352000D01*
G01*
X108085000Y-114170000D02*
G75*
G02*
X107733000Y-114522000I-352000J0D01*
G01*
X106585000Y-118570000D02*
G75*
G03*
X106937000Y-118922000I352000J0D01*
G01*
%TO.N,/USB-hub/USBOUT1_R.D-*%
X127465000Y-133477500D02*
X127550000Y-133562500D01*
X127550000Y-133562500D02*
X127550000Y-133850000D01*
X127465000Y-132940000D02*
X127465000Y-133477500D01*
X127750000Y-132655000D02*
X127465000Y-132940000D01*
X127750000Y-132625000D02*
X127750000Y-132655000D01*
%TO.N,/USB-hub/USBOUT1_R.D+*%
X127135000Y-132940000D02*
X127135000Y-133477500D01*
X127135000Y-133477500D02*
X127050000Y-133562500D01*
X127050000Y-133562500D02*
X127050000Y-133850000D01*
X126850000Y-132625000D02*
X126850000Y-132655000D01*
X126850000Y-132655000D02*
X127135000Y-132940000D01*
D73*
%TO.N,Net-(U700-PA0)*%
X125674999Y-118725000D02*
X124698656Y-118725000D01*
X124698656Y-118725000D02*
X124000000Y-118026344D01*
X124000000Y-116925000D02*
X123100000Y-116925000D01*
X125900000Y-117762500D02*
X125900000Y-118499999D01*
X125900000Y-118499999D02*
X125674999Y-118725000D01*
X124000000Y-118026344D02*
X124000000Y-116925000D01*
%TO.N,Net-(U700-PA5)*%
X121050000Y-126905001D02*
X121050000Y-127650000D01*
X124700000Y-120175000D02*
X123487500Y-120175000D01*
X121054124Y-126900877D02*
X121050000Y-126905001D01*
%TO.N,Net-(U700-PC13)*%
X129900000Y-117762500D02*
X129900000Y-118725000D01*
X129900000Y-118725000D02*
X130100000Y-118925000D01*
X132900000Y-116125000D02*
X132900000Y-116775000D01*
%TO.N,Net-(U700-PC14)*%
X129225000Y-118925000D02*
X129400000Y-118750000D01*
X129400000Y-118750000D02*
X129400000Y-117762500D01*
X131950000Y-116125000D02*
X131950000Y-116775000D01*
%TO.N,Net-(U700-PB0)*%
X123487500Y-121675000D02*
X121900000Y-121675000D01*
%TO.N,Net-(U700-PB14)*%
X125650000Y-124925000D02*
X125900000Y-125175000D01*
X125900000Y-125175000D02*
X125900000Y-126087500D01*
X124850000Y-124925000D02*
X125650000Y-124925000D01*
X125900000Y-127475000D02*
X124850000Y-128525000D01*
X125900000Y-126087500D02*
X125900000Y-127475000D01*
X124850000Y-128525000D02*
X124000000Y-128525000D01*
X123000000Y-126775000D02*
X124850000Y-124925000D01*
%TO.N,Net-(U700-PB12)*%
X124625000Y-127000000D02*
X124400000Y-126775000D01*
X124900000Y-126900000D02*
X124800000Y-127000000D01*
X124800000Y-127000000D02*
X124625000Y-127000000D01*
X124400000Y-126775000D02*
X124000000Y-126775000D01*
X124900000Y-126087500D02*
X124900000Y-126900000D01*
%TO.N,Net-(U700-PB13)*%
X124000000Y-127650000D02*
X124975000Y-127650000D01*
X124975000Y-127650000D02*
X125400000Y-127225000D01*
X125400000Y-127225000D02*
X125400000Y-126087500D01*
D78*
%TO.N,/USB-hub/USBIN1.D+*%
X131324000Y-137434000D02*
X131324000Y-137399155D01*
X132077500Y-137610000D02*
X131500000Y-137610000D01*
X128465000Y-137147500D02*
X128550000Y-137062500D01*
X128550000Y-137062500D02*
X128550000Y-136775000D01*
X130620000Y-137610000D02*
X129550000Y-137610000D01*
X132087500Y-137600000D02*
X132077500Y-137610000D01*
X128465000Y-137310057D02*
X128465000Y-137147500D01*
X128764943Y-137610000D02*
X128465000Y-137310057D01*
X130708000Y-137610000D02*
X130620000Y-137610000D01*
X131148000Y-137223155D02*
X131060000Y-137223155D01*
X129550000Y-137610000D02*
X128764943Y-137610000D01*
X130884000Y-137399155D02*
X130884000Y-137434000D01*
X131324000Y-137399155D02*
G75*
G03*
X131148000Y-137223200I-176000J-45D01*
G01*
X130884000Y-137434000D02*
G75*
G02*
X130708000Y-137610000I-176000J0D01*
G01*
X131060000Y-137223155D02*
G75*
G03*
X130883955Y-137399155I0J-176045D01*
G01*
X131500000Y-137610000D02*
G75*
G02*
X131324000Y-137434000I0J176000D01*
G01*
D73*
%TO.N,Net-(U302-XO)*%
X130500000Y-131475000D02*
X130500000Y-132725000D01*
X130150000Y-133075000D02*
X128850000Y-133075000D01*
X131500000Y-130475000D02*
X130500000Y-131475000D01*
X130500000Y-132725000D02*
X130150000Y-133075000D01*
X128850000Y-133075000D02*
X128550000Y-133375000D01*
X128550000Y-133375000D02*
X128550000Y-133850000D01*
X131600000Y-130475000D02*
X131500000Y-130475000D01*
%TO.N,Net-(U302-XI)*%
X128050000Y-133368750D02*
X128050000Y-133850000D01*
X129243750Y-132175000D02*
X128050000Y-133368750D01*
X129400000Y-132175000D02*
X129243750Y-132175000D01*
D75*
%TO.N,/USB-hub/USBIN1.D-*%
X131987500Y-138000000D02*
X131650000Y-138000000D01*
D78*
X128135000Y-137147500D02*
X128050000Y-137062500D01*
X128050000Y-137062500D02*
X128050000Y-136775000D01*
X128135000Y-137446749D02*
X128135000Y-137147500D01*
X128628251Y-137940000D02*
X128135000Y-137446749D01*
X131590000Y-137940000D02*
X128628251Y-137940000D01*
X131650000Y-138000000D02*
X131590000Y-137940000D01*
D79*
%TO.N,/Backplane/CAN1.+*%
X117930000Y-139445000D02*
X117430000Y-139945000D01*
X121049706Y-139445000D02*
X117930000Y-139445000D01*
X117430000Y-139945000D02*
X117430000Y-140285000D01*
X118040000Y-140895000D02*
X118580000Y-140895000D01*
X121520000Y-138755000D02*
X121520000Y-138974706D01*
X118580000Y-140895000D02*
X118580000Y-145975000D01*
X121725000Y-138075000D02*
X121725000Y-138550000D01*
X117430000Y-140285000D02*
X118040000Y-140895000D01*
X121725000Y-138550000D02*
X121520000Y-138755000D01*
X121520000Y-138974706D02*
X121049706Y-139445000D01*
%TO.N,/Backplane/CAN2.-*%
X109570000Y-139865588D02*
X109570000Y-140255000D01*
X108420000Y-140895000D02*
X108420000Y-145975000D01*
X116680000Y-138921987D02*
X116396987Y-139205000D01*
X116396987Y-139205000D02*
X110230588Y-139205000D01*
X108930000Y-140895000D02*
X108420000Y-140895000D01*
X116680000Y-138754574D02*
X116680000Y-138921987D01*
X116475000Y-138549574D02*
X116680000Y-138754574D01*
X110230588Y-139205000D02*
X109570000Y-139865588D01*
X116475000Y-138075000D02*
X116475000Y-138549574D01*
X109570000Y-140255000D02*
X108930000Y-140895000D01*
%TO.N,/Backplane/CAN2.+*%
X117125000Y-138550000D02*
X116920000Y-138755000D01*
X116920000Y-139021399D02*
X116496399Y-139445000D01*
X110330000Y-139445000D02*
X109810000Y-139965000D01*
X116920000Y-138755000D02*
X116920000Y-139021399D01*
X109810000Y-139965000D02*
X109810000Y-140285000D01*
X110420000Y-140895000D02*
X110960000Y-140895000D01*
X109810000Y-140285000D02*
X110420000Y-140895000D01*
X117125000Y-138075000D02*
X117125000Y-138550000D01*
X110960000Y-140895000D02*
X110960000Y-145975000D01*
X116496399Y-139445000D02*
X110330000Y-139445000D01*
D78*
%TO.N,/MCU/QSPI1.IO0*%
X100075000Y-124480000D02*
X99820000Y-124480000D01*
X98315000Y-122340000D02*
X99475000Y-122340000D01*
X99600000Y-125875000D02*
X101015000Y-124460000D01*
X99820000Y-124480000D02*
X99100000Y-125200000D01*
X97885000Y-120380000D02*
X97885000Y-121910000D01*
X97885000Y-121910000D02*
X98315000Y-122340000D01*
X100650000Y-126000000D02*
X100760000Y-126110000D01*
X99425000Y-125875000D02*
X99600000Y-125875000D01*
X100760000Y-126110000D02*
X101865000Y-126110000D01*
X99460000Y-123125000D02*
X97675000Y-123125000D01*
X100295000Y-123520000D02*
X100575000Y-123800000D01*
X97450000Y-123350000D02*
X97450000Y-123550000D01*
X99835000Y-123790000D02*
X100105000Y-123520000D01*
X97670000Y-123770000D02*
X97995000Y-123770000D01*
X98905000Y-123790000D02*
X99835000Y-123790000D01*
X100950000Y-125450000D02*
X100650000Y-125750000D01*
X99625000Y-122490000D02*
X99625000Y-122960000D01*
X97450000Y-123550000D02*
X97670000Y-123770000D01*
X98405000Y-124800000D02*
X98625000Y-124800000D01*
X100575000Y-123980000D02*
X100075000Y-124480000D01*
X100575000Y-123800000D02*
X100575000Y-123980000D01*
X98200000Y-124595000D02*
X98405000Y-124800000D01*
X109575000Y-125550000D02*
X109575000Y-124525000D01*
X100650000Y-125750000D02*
X100650000Y-126000000D01*
X98825000Y-123870000D02*
X98905000Y-123790000D01*
X98825000Y-124600000D02*
X98825000Y-123870000D01*
X99625000Y-122960000D02*
X99460000Y-123125000D01*
X99475000Y-122340000D02*
X99625000Y-122490000D01*
X101750000Y-124995000D02*
X101750000Y-125250000D01*
X102275000Y-125700000D02*
X102525000Y-125700000D01*
X97675000Y-123125000D02*
X97450000Y-123350000D01*
X101865000Y-126110000D02*
X102275000Y-125700000D01*
X98200000Y-123975000D02*
X98200000Y-124595000D01*
X99100000Y-125550000D02*
X99425000Y-125875000D01*
X102525000Y-125700000D02*
X102935000Y-126110000D01*
X101750000Y-125250000D02*
X101550000Y-125450000D01*
X109015000Y-126110000D02*
X109575000Y-125550000D01*
X102935000Y-126110000D02*
X109015000Y-126110000D01*
X101015000Y-124460000D02*
X101215000Y-124460000D01*
X101215000Y-124460000D02*
X101750000Y-124995000D01*
X98625000Y-124800000D02*
X98825000Y-124600000D01*
X101550000Y-125450000D02*
X100950000Y-125450000D01*
X99100000Y-125200000D02*
X99100000Y-125550000D01*
X97995000Y-123770000D02*
X98200000Y-123975000D01*
X100105000Y-123520000D02*
X100295000Y-123520000D01*
D73*
%TO.N,/MCU/OSC32_OUT*%
X114550000Y-106925000D02*
X114550000Y-106325000D01*
X114075000Y-109175000D02*
X114075000Y-108250000D01*
X114550000Y-106325000D02*
X114250000Y-106025000D01*
X114075000Y-108250000D02*
X114550000Y-107775000D01*
X114250000Y-106025000D02*
X114250000Y-105950000D01*
X114550000Y-107775000D02*
X114550000Y-106925000D01*
X114250000Y-105950000D02*
X113475000Y-105175000D01*
X113475000Y-105175000D02*
X113475000Y-104550000D01*
D78*
%TO.N,/MCU/QSPI1.IO2*%
X101395000Y-108450000D02*
X103945000Y-108450000D01*
X115039000Y-112340000D02*
X115255000Y-112340000D01*
X103945000Y-108450000D02*
X106875000Y-111380000D01*
X109207000Y-111908000D02*
X109207000Y-111812000D01*
X99155000Y-110690000D02*
X101395000Y-108450000D01*
X111367000Y-111908000D02*
X111367000Y-111812000D01*
X99155000Y-113320000D02*
X99155000Y-110690000D01*
X113527000Y-111908000D02*
X113527000Y-111812000D01*
X110719000Y-112340000D02*
X110935000Y-112340000D01*
X112879000Y-112340000D02*
X113095000Y-112340000D01*
X113959000Y-111380000D02*
X114175000Y-111380000D01*
X108127000Y-111812000D02*
X108127000Y-111908000D01*
X117395000Y-111380000D02*
X118075000Y-110700000D01*
X108559000Y-112340000D02*
X108775000Y-112340000D01*
D73*
X118025000Y-109225000D02*
X118075000Y-109175000D01*
D78*
X118075000Y-110700000D02*
X118075000Y-109175000D01*
X110287000Y-111812000D02*
X110287000Y-111908000D01*
X116335000Y-111380000D02*
X116605000Y-111380000D01*
X109639000Y-111380000D02*
X109855000Y-111380000D01*
X106875000Y-111380000D02*
X107695000Y-111380000D01*
X114607000Y-111812000D02*
X114607000Y-111908000D01*
X116119000Y-111380000D02*
X116335000Y-111380000D01*
X115687000Y-111908000D02*
X115687000Y-111812000D01*
X116605000Y-111380000D02*
X117395000Y-111380000D01*
X111799000Y-111380000D02*
X112015000Y-111380000D01*
X112447000Y-111812000D02*
X112447000Y-111908000D01*
X108127000Y-111908000D02*
G75*
G03*
X108559000Y-112340000I432000J0D01*
G01*
X112015000Y-111380000D02*
G75*
G02*
X112447000Y-111812000I0J-432000D01*
G01*
X115687000Y-111812000D02*
G75*
G02*
X116119000Y-111380000I432000J0D01*
G01*
X114175000Y-111380000D02*
G75*
G02*
X114607000Y-111812000I0J-432000D01*
G01*
X109855000Y-111380000D02*
G75*
G02*
X110287000Y-111812000I0J-432000D01*
G01*
X111367000Y-111812000D02*
G75*
G02*
X111799000Y-111380000I432000J0D01*
G01*
X108775000Y-112340000D02*
G75*
G03*
X109207000Y-111908000I0J432000D01*
G01*
X114607000Y-111908000D02*
G75*
G03*
X115039000Y-112340000I432000J0D01*
G01*
X110287000Y-111908000D02*
G75*
G03*
X110719000Y-112340000I432000J0D01*
G01*
X109207000Y-111812000D02*
G75*
G02*
X109639000Y-111380000I432000J0D01*
G01*
X110935000Y-112340000D02*
G75*
G03*
X111367000Y-111908000I0J432000D01*
G01*
X107695000Y-111380000D02*
G75*
G02*
X108127000Y-111812000I0J-432000D01*
G01*
X112447000Y-111908000D02*
G75*
G03*
X112879000Y-112340000I432000J0D01*
G01*
X115255000Y-112340000D02*
G75*
G03*
X115687000Y-111908000I0J432000D01*
G01*
X113095000Y-112340000D02*
G75*
G03*
X113527000Y-111908000I0J432000D01*
G01*
X113527000Y-111812000D02*
G75*
G02*
X113959000Y-111380000I432000J0D01*
G01*
D79*
%TO.N,/Backplane/CAN1.-*%
X117830588Y-139205000D02*
X117190000Y-139845588D01*
X116040000Y-140895000D02*
X116040000Y-145975000D01*
X121280000Y-138754574D02*
X121280000Y-138875294D01*
X121280000Y-138875294D02*
X120950294Y-139205000D01*
X120950294Y-139205000D02*
X117830588Y-139205000D01*
X121075000Y-138075000D02*
X121075000Y-138549574D01*
X121075000Y-138549574D02*
X121280000Y-138754574D01*
X117190000Y-140255000D02*
X116550000Y-140895000D01*
X116550000Y-140895000D02*
X116040000Y-140895000D01*
X117190000Y-139845588D02*
X117190000Y-140255000D01*
D78*
%TO.N,/MCU/QSPI1.IO1*%
X99145000Y-126950000D02*
X109295000Y-126950000D01*
X100435000Y-113320000D02*
X100435000Y-114840000D01*
X109295000Y-126950000D02*
X110075000Y-126170000D01*
X110075000Y-126170000D02*
X110075000Y-124525000D01*
X97425000Y-115175000D02*
X96655000Y-115945000D01*
X100435000Y-114840000D02*
X100100000Y-115175000D01*
X96655000Y-124460000D02*
X99145000Y-126950000D01*
X96655000Y-115945000D02*
X96655000Y-124460000D01*
X100100000Y-115175000D02*
X97425000Y-115175000D01*
D73*
%TO.N,/MCU/BOOT_EN*%
X119750000Y-114350000D02*
X120650000Y-114350000D01*
X120650000Y-114350000D02*
X120900000Y-114600000D01*
X120900000Y-114600000D02*
X121300000Y-114600000D01*
%TO.N,/MCU/OSC32_IN*%
X114900000Y-107975000D02*
X114900000Y-106650000D01*
X114575000Y-109175000D02*
X114575000Y-108300000D01*
X115200000Y-106025000D02*
X115200000Y-105925000D01*
X115975000Y-105150000D02*
X115975000Y-104550000D01*
X114900000Y-106325000D02*
X115200000Y-106025000D01*
X114900000Y-106650000D02*
X114900000Y-106325000D01*
X114575000Y-108300000D02*
X114900000Y-107975000D01*
X115200000Y-105925000D02*
X115975000Y-105150000D01*
D72*
%TO.N,+24V*%
X95720000Y-140895000D02*
X95720000Y-145975000D01*
%TO.N,/MCU/VCAP_2*%
X117075000Y-124525000D02*
X117075000Y-126050000D01*
%TO.N,/MCU/VCAP_1*%
X102875000Y-121850000D02*
X104400000Y-121850000D01*
D73*
%TO.N,/CAN transceiver 1/CAN.TX*%
X122775000Y-134250000D02*
X122375000Y-134650000D01*
X122375000Y-134650000D02*
X122375000Y-135175000D01*
X118550000Y-119850000D02*
X119750000Y-119850000D01*
%TO.N,/CAN transceiver 1/CAN.RX*%
X117725000Y-120350000D02*
X119750000Y-120350000D01*
X117700000Y-120375000D02*
X117725000Y-120350000D01*
X120025000Y-134250000D02*
X120425000Y-134650000D01*
X120425000Y-134650000D02*
X120425000Y-135175000D01*
%TO.N,/CAN transceiver 2/CAN.TX*%
X117775000Y-134650000D02*
X117775000Y-135175000D01*
D75*
X106575000Y-123400000D02*
X106575000Y-124525000D01*
D73*
X118175000Y-134250000D02*
X117775000Y-134650000D01*
%TO.N,/CAN transceiver 2/CAN.RX*%
X115425000Y-134250000D02*
X115825000Y-134650000D01*
X115825000Y-134650000D02*
X115825000Y-135175000D01*
D75*
X106000000Y-125425000D02*
X106075000Y-125350000D01*
X105600000Y-125425000D02*
X106000000Y-125425000D01*
X106075000Y-125350000D02*
X106075000Y-124525000D01*
D73*
%TO.N,Net-(D400-Pad1)*%
X127850000Y-108375000D02*
X128950000Y-108375000D01*
X128950000Y-108375000D02*
X129240000Y-108665000D01*
%TO.N,/USB/CC1*%
X123300000Y-58715000D02*
X123300000Y-57725000D01*
D72*
X124350000Y-62675000D02*
X124350000Y-62025000D01*
D73*
%TO.N,/USB/CC2*%
X118550000Y-60725000D02*
X118050000Y-60725000D01*
X120300000Y-59400000D02*
X120025000Y-59675000D01*
X119600000Y-59675000D02*
X118550000Y-60725000D01*
X120300000Y-58715000D02*
X120300000Y-59400000D01*
X120025000Y-59675000D02*
X119600000Y-59675000D01*
D74*
%TO.N,Net-(J800-SHIELD)*%
X117730000Y-53960000D02*
X126370000Y-53960000D01*
X126370000Y-58140000D02*
X126370000Y-53960000D01*
X117730000Y-58140000D02*
X117730000Y-53960000D01*
X117150000Y-60125000D02*
X117730000Y-59545000D01*
X117150000Y-60725000D02*
X117150000Y-60125000D01*
X116250000Y-60725000D02*
X117150000Y-60725000D01*
X117730000Y-59545000D02*
X117730000Y-58140000D01*
D77*
%TO.N,Net-(U801-SEL)*%
X132250000Y-136937500D02*
X132250000Y-136475000D01*
X132050000Y-136275000D02*
X131800000Y-136275000D01*
X132550000Y-134950000D02*
X132550000Y-134525000D01*
X131550000Y-136025000D02*
X131550000Y-135475000D01*
X133450000Y-134525000D02*
X132550000Y-134525000D01*
X131800000Y-136275000D02*
X131550000Y-136025000D01*
X132250000Y-136475000D02*
X132050000Y-136275000D01*
X132275000Y-135225000D02*
X132550000Y-134950000D01*
X131550000Y-135475000D02*
X131800000Y-135225000D01*
X131800000Y-135225000D02*
X132275000Y-135225000D01*
D73*
%TO.N,Net-(U801-~{OE})*%
X133710001Y-136435001D02*
X133850000Y-136575000D01*
X133050000Y-136937500D02*
X133050000Y-136515001D01*
X133050000Y-136515001D02*
X133130000Y-136435001D01*
X134450000Y-138925000D02*
X133850000Y-138925000D01*
X133130000Y-136435001D02*
X133710001Y-136435001D01*
D77*
%TO.N,/Power/SW_5V0*%
X99100000Y-136471508D02*
X98253492Y-135625000D01*
X100280000Y-137281508D02*
X99470000Y-136471508D01*
X100400000Y-137281508D02*
X100280000Y-137281508D01*
X99470000Y-136471508D02*
X99100000Y-136471508D01*
X98253492Y-135625000D02*
X98253492Y-135213288D01*
%TO.N,/Power/VBST_5V0*%
X99203492Y-137848493D02*
X99636507Y-138281508D01*
X99203492Y-137488288D02*
X99203492Y-137848493D01*
X99636507Y-138281508D02*
X100400000Y-138281508D01*
%TO.N,/Power/VBST_3V3*%
X112687500Y-133168050D02*
X113047705Y-133168050D01*
X113047705Y-133168050D02*
X113480720Y-132735035D01*
X113480720Y-132735035D02*
X113480720Y-131971542D01*
%TO.N,/Power/SW_3V3*%
X110824212Y-134118050D02*
X110412500Y-134118050D01*
X111670720Y-133271542D02*
X110824212Y-134118050D01*
X112480720Y-132091542D02*
X111670720Y-132901542D01*
X111670720Y-132901542D02*
X111670720Y-133271542D01*
X112480720Y-131971542D02*
X112480720Y-132091542D01*
%TO.N,/Power/FB_5V0*%
X97303492Y-138525000D02*
X97650000Y-138871508D01*
X97303492Y-137488288D02*
X97303492Y-138525000D01*
X97650000Y-138871508D02*
X98550000Y-138871508D01*
%TO.N,/Power/FB_3V3*%
X112687500Y-135068050D02*
X113724212Y-135068050D01*
X114070720Y-134721542D02*
X114070720Y-133821542D01*
X113724212Y-135068050D02*
X114070720Y-134721542D01*
D73*
%TO.N,/MCU/USR_BTN*%
X101228400Y-56885001D02*
X101228400Y-58685001D01*
%TO.N,/MCU/USER_LED_1*%
X113550000Y-61725000D02*
X113550000Y-62925000D01*
D77*
X117850000Y-107125000D02*
X117850000Y-107925000D01*
X117575000Y-108200000D02*
X117575000Y-109175000D01*
X117850000Y-107925000D02*
X117575000Y-108200000D01*
%TO.N,/MCU/USER_LED_2*%
X117075000Y-109175000D02*
X117075000Y-108225000D01*
D73*
X112650000Y-61725000D02*
X112650000Y-62375000D01*
D77*
X117300000Y-108000000D02*
X117300000Y-107625000D01*
X117075000Y-108225000D02*
X117300000Y-108000000D01*
D73*
%TO.N,/MCU/STATUS_LED*%
X115350000Y-61725000D02*
X115350000Y-62925000D01*
D77*
X116575000Y-109175000D02*
X116575000Y-110250000D01*
X116575000Y-110250000D02*
X116675000Y-110350000D01*
D73*
%TO.N,Net-(LED300-Pad1)*%
X108100000Y-58825000D02*
X108100000Y-57021400D01*
X109200000Y-59925000D02*
X108100000Y-58825000D01*
X113550000Y-60725000D02*
X112750000Y-59925000D01*
X112750000Y-59925000D02*
X109200000Y-59925000D01*
X108100000Y-57021400D02*
X106863600Y-55785000D01*
%TO.N,Net-(LED300-Pad3)*%
X112650000Y-60725000D02*
X109263600Y-60725000D01*
X109263600Y-60725000D02*
X106863600Y-58325000D01*
%TO.N,Net-(LED301-Pad1)*%
X114700000Y-59575000D02*
X113900000Y-59575000D01*
X113200000Y-58875000D02*
X113200000Y-57071400D01*
X113200000Y-57071400D02*
X111913600Y-55785000D01*
X115350000Y-60225000D02*
X114700000Y-59575000D01*
X115350000Y-60725000D02*
X115350000Y-60225000D01*
X113900000Y-59575000D02*
X113200000Y-58875000D01*
%TO.N,Net-(LED301-Pad3)*%
X114450000Y-60725000D02*
X114450000Y-60325000D01*
X114450000Y-60325000D02*
X114150000Y-60025000D01*
X114150000Y-60025000D02*
X113613600Y-60025000D01*
X113613600Y-60025000D02*
X111913600Y-58325000D01*
%TO.N,Net-(D401-Pad1)*%
X128050000Y-109475000D02*
X129940000Y-109475000D01*
X126950000Y-108375000D02*
X128050000Y-109475000D01*
X129940000Y-109475000D02*
X130750000Y-108665000D01*
%TO.N,Net-(D402-Pad1)*%
X127550000Y-109875000D02*
X131030000Y-109875000D01*
X131030000Y-109875000D02*
X132240000Y-108665000D01*
X126050000Y-108375000D02*
X127550000Y-109875000D01*
D72*
%TO.N,+5V_STDBY*%
X123660000Y-140895000D02*
X123660000Y-145975000D01*
D77*
%TO.N,/Power/+5V_UNPROTEC*%
X101000000Y-138871508D02*
X101900000Y-137971508D01*
X99550000Y-138871508D02*
X101000000Y-138871508D01*
X101900000Y-137971508D02*
X101900000Y-137421508D01*
%TO.N,/Power/+3V3_UNPROTEC*%
X114070720Y-132821542D02*
X114070720Y-131625000D01*
X112970720Y-130525000D02*
X112970720Y-130225000D01*
X114070720Y-131625000D02*
X112970720Y-130525000D01*
D72*
%TO.N,/MCU/+VDDA*%
X107675000Y-106160000D02*
X107675000Y-106475000D01*
X107675000Y-107375000D02*
X107675000Y-106475000D01*
X108075000Y-107775000D02*
X107675000Y-107375000D01*
X106740000Y-105225000D02*
X107675000Y-106160000D01*
X108075000Y-109175000D02*
X108075000Y-107775000D01*
D75*
%TO.N,Net-(U1200-CAP)*%
X102110000Y-88535000D02*
X103697500Y-88535000D01*
D72*
%TO.N,Net-(D1100-Pad1)*%
X66870000Y-86335001D02*
X69170000Y-86335001D01*
X69170000Y-86335001D02*
X69470000Y-86635001D01*
D75*
%TO.N,Net-(D1101-Pad1)*%
X50480001Y-70685001D02*
X50480001Y-69395003D01*
X50480001Y-69395003D02*
X50469999Y-69385001D01*
%TO.N,Net-(D1102-Pad1)*%
X50480001Y-74084999D02*
X50479999Y-74085001D01*
X50480001Y-72685001D02*
X50480001Y-74084999D01*
D72*
%TO.N,Net-(D1103-Pad1)*%
X79029999Y-69275001D02*
X79029999Y-67985001D01*
X79029999Y-67985001D02*
X79019999Y-67975001D01*
D75*
%TO.N,Net-(U1200-~{BOOT_LOAD_PIN})*%
X105110001Y-85435000D02*
X105110000Y-86897502D01*
%TO.N,/GPS-RTK/NRST*%
X75280000Y-72275001D02*
X75230000Y-72325001D01*
X77130002Y-73075001D02*
X77130002Y-72325002D01*
X77130002Y-72325002D02*
X75230000Y-72325002D01*
X77130001Y-71275001D02*
X77130002Y-73075001D01*
D80*
%TO.N,/GPS-RTK/RF_*%
X65840000Y-63005002D02*
X65840000Y-62485001D01*
X65840000Y-62485001D02*
X66170000Y-62155001D01*
X66170000Y-62155001D02*
X70320000Y-62155001D01*
%TO.N,/GPS-RTK/RF_IN*%
X71330000Y-65925002D02*
X71330000Y-56035001D01*
X71330000Y-56035001D02*
X71350000Y-56015001D01*
%TO.N,/GPS-RTK/VCC_RF*%
X65830000Y-64025002D02*
X65890000Y-63965002D01*
X65830000Y-65925002D02*
X65830000Y-64025002D01*
D78*
%TO.N,/GPS-RTK/USB_GPS.D+*%
X70970000Y-82715001D02*
X70970000Y-81285002D01*
X71230000Y-82975001D02*
X70970000Y-82715001D01*
X70970000Y-81285002D02*
X71330001Y-80925001D01*
%TO.N,/USB-hub/USB_GPS_.D+*%
X124099810Y-135481465D02*
X124099810Y-135255191D01*
X124265845Y-135647500D02*
X124099810Y-135481465D01*
X71070000Y-84135000D02*
X71230000Y-83975000D01*
X125718749Y-135562500D02*
X125633749Y-135647500D01*
X71070000Y-85099927D02*
X71070000Y-84135000D01*
X126337500Y-135562500D02*
X125718749Y-135562500D01*
X71195000Y-85224927D02*
X71070000Y-85099927D01*
X125633749Y-135647500D02*
X124265845Y-135647500D01*
%TO.N,/GPS-RTK/USB_GPS.D-*%
X70570000Y-82735001D02*
X70330000Y-82975001D01*
X70570000Y-81265001D02*
X70570000Y-82735001D01*
X70230000Y-80925001D02*
X70570000Y-81265001D01*
%TO.N,/USB-hub/USB_GPS_.D-*%
X126337500Y-136062500D02*
X125718749Y-136062500D01*
X70670000Y-85099927D02*
X70670000Y-84315000D01*
X70545000Y-85224927D02*
X70670000Y-85099927D01*
X125718749Y-136062500D02*
X125633749Y-135977500D01*
X123866464Y-135714811D02*
X123640190Y-135714811D01*
X125633749Y-135977500D02*
X124129153Y-135977500D01*
X124129153Y-135977500D02*
X123866464Y-135714811D01*
X70670000Y-84315000D02*
X70330000Y-83975000D01*
D73*
%TO.N,/GPS-RTK/GPS_SPI.CLK*%
X117040000Y-115805001D02*
X117584999Y-116350000D01*
X76970000Y-76725002D02*
X75230000Y-76725002D01*
X117584999Y-116350000D02*
X119750000Y-116350000D01*
%TO.N,/GPS-RTK/GPS_SPI.CS*%
X78570000Y-77825002D02*
X75230000Y-77825002D01*
X118250000Y-114815001D02*
X118784999Y-115350000D01*
X118784999Y-115350000D02*
X119750000Y-115350000D01*
X115580000Y-114815001D02*
X118250000Y-114815001D01*
X115560000Y-114795001D02*
X115580000Y-114815001D01*
D75*
%TO.N,/IMU/OSC32_OUT*%
X109710000Y-89465000D02*
X109710000Y-89585002D01*
X108780000Y-88535000D02*
X109710000Y-89465000D01*
X107022500Y-88535000D02*
X108780000Y-88535000D01*
%TO.N,/IMU/OSC32_IN*%
X107022500Y-88035002D02*
X108760002Y-88035001D01*
X108760002Y-88035001D02*
X109710000Y-87085003D01*
D73*
%TO.N,/GPS-RTK/GPS_NRESET*%
X78750000Y-72175001D02*
X78130000Y-72175001D01*
X117260000Y-117350000D02*
X119750000Y-117350000D01*
%TO.N,/IMU/IMU_NRESET*%
X111730000Y-113735001D02*
X115567488Y-113735001D01*
X100500000Y-89445001D02*
X100728248Y-89445001D01*
X115567488Y-113735001D02*
X117452489Y-111850000D01*
X100738247Y-89435002D02*
X101110001Y-89435002D01*
X117452489Y-111850000D02*
X119750000Y-111850000D01*
X111304124Y-114160877D02*
X111730000Y-113735001D01*
X100728248Y-89445001D02*
X100738247Y-89435002D01*
%TO.N,/GPS-RTK/GPS_EXINTERUPT*%
X73880000Y-70195001D02*
X75160001Y-70195001D01*
X114920000Y-117820001D02*
X115449999Y-118350000D01*
X75160001Y-70195001D02*
X75230000Y-70125002D01*
X115449999Y-118350000D02*
X119750000Y-118350000D01*
D75*
%TO.N,/GPS-RTK/GPS_MODE_SELECT*%
X75230000Y-74525002D02*
X74209999Y-74525002D01*
D73*
X116430000Y-117635001D02*
X116644999Y-117850000D01*
D75*
X75279999Y-74575001D02*
X75230000Y-74525002D01*
X77230000Y-74575001D02*
X75279999Y-74575001D01*
X74209999Y-74525002D02*
X74160000Y-74575001D01*
D73*
X116644999Y-117850000D02*
X119750000Y-117850000D01*
%TO.N,/GPS-RTK/GPS_SPI.MISO*%
X113710000Y-115325001D02*
X113710000Y-117025002D01*
X113710000Y-117025002D02*
X113730000Y-117045002D01*
X117804999Y-115850000D02*
X119750000Y-115850000D01*
X78445000Y-80025002D02*
X75230000Y-80025002D01*
X113710000Y-115325001D02*
X117280000Y-115325001D01*
X117280000Y-115325001D02*
X117804999Y-115850000D01*
%TO.N,/GPS-RTK/GPS_GEOFENCE_STAT*%
X116335000Y-120100001D02*
X116335000Y-120060001D01*
X116335000Y-120060001D02*
X117045001Y-119350000D01*
X117045001Y-119350000D02*
X119750000Y-119350000D01*
D75*
X55330000Y-71225003D02*
X52600001Y-71225003D01*
X52600001Y-71225003D02*
X52059999Y-70685001D01*
D73*
%TO.N,/GPS-RTK/GPS_RTK_STAT*%
X115820000Y-119665001D02*
X116575000Y-118910001D01*
X116575000Y-118910001D02*
X119689999Y-118910001D01*
X119689999Y-118910001D02*
X119750000Y-118850000D01*
D75*
X52059999Y-72685001D02*
X52419998Y-72325002D01*
X52419998Y-72325002D02*
X55330000Y-72325002D01*
%TO.N,/IMU/NRESET*%
X102209999Y-89534999D02*
X102110000Y-89435000D01*
X102109999Y-91222502D02*
X102097499Y-91234999D01*
X102110000Y-89435000D02*
X102109999Y-91222502D01*
X103697500Y-89534999D02*
X102209999Y-89534999D01*
D73*
%TO.N,/IMU/IMU_I2C.SDA*%
X107370000Y-92985001D02*
X107370000Y-91882501D01*
X107370000Y-91882501D02*
X107022500Y-91535001D01*
X117880000Y-113175001D02*
X118205001Y-112850000D01*
X118205001Y-112850000D02*
X119750000Y-112850000D01*
X108720000Y-94335001D02*
X107370000Y-92985001D01*
%TO.N,/IMU/IMU_I2C.SCL*%
X117990000Y-113965001D02*
X118161752Y-113965001D01*
X106110001Y-92925002D02*
X106110001Y-91672501D01*
X118776753Y-113350000D02*
X119750000Y-113350000D01*
X118161752Y-113965001D02*
X118776753Y-113350000D01*
X107520000Y-94335001D02*
X106110001Y-92925002D01*
%TO.N,/IMU/IMU_EXINTERUPT*%
X112525000Y-114265001D02*
X115461752Y-114265001D01*
X115461752Y-114265001D02*
X117376753Y-112350000D01*
X102830000Y-91035001D02*
X103697500Y-91035001D01*
X117376753Y-112350000D02*
X119750000Y-112350000D01*
X112470000Y-114210001D02*
X112525000Y-114265001D01*
D72*
%TO.N,/GPS-RTK/TIMEPULSE*%
X77440001Y-67975001D02*
X75279999Y-67975001D01*
X75279999Y-67975001D02*
X75230000Y-67925002D01*
D73*
%TO.N,/GPS-RTK/GPS_SPI.MOSI*%
X117051473Y-116337504D02*
X117563969Y-116850000D01*
D75*
X75289999Y-78985001D02*
X75230000Y-78925002D01*
X76770000Y-78925002D02*
X75230000Y-78925002D01*
D73*
X112810000Y-117025002D02*
X112810000Y-116365001D01*
X117563969Y-116850000D02*
X119750000Y-116850000D01*
X116667248Y-116337504D02*
X117051473Y-116337504D01*
%TO.N,/GPS-RTK/GPS_UART.TX*%
X113730000Y-118771017D02*
X113730000Y-118045000D01*
X119750000Y-121350000D02*
X116308983Y-121350000D01*
X116308983Y-121350000D02*
X113730000Y-118771017D01*
%TO.N,/GPS-RTK/GPS_UART.RX*%
X112810000Y-118275281D02*
X116384719Y-121850000D01*
X112810000Y-118025000D02*
X112810000Y-118275281D01*
X116384719Y-121850000D02*
X119750000Y-121850000D01*
%TD*%
%TA.AperFunction,Conductor*%
%TO.N,+12V_FUSED*%
G36*
X97460025Y-134569685D02*
G01*
X97487112Y-134593277D01*
X97570880Y-134690954D01*
X97599580Y-134754657D01*
X97600754Y-134771677D01*
X97600754Y-135874426D01*
X97581069Y-135941465D01*
X97564435Y-135962107D01*
X96787073Y-136739469D01*
X96725750Y-136772954D01*
X96699392Y-136775788D01*
X94174754Y-136775788D01*
X94107715Y-136756103D01*
X94061960Y-136703299D01*
X94050754Y-136651788D01*
X94050754Y-134681008D01*
X94070439Y-134613969D01*
X94123243Y-134568214D01*
X94174754Y-134557008D01*
X96325991Y-134557008D01*
X96326000Y-134557008D01*
X96369684Y-134552311D01*
X96369690Y-134552309D01*
X96372970Y-134551779D01*
X96373040Y-134552214D01*
X96393639Y-134550000D01*
X97392986Y-134550000D01*
X97460025Y-134569685D01*
G37*
%TD.AperFunction*%
%TD*%
%TA.AperFunction,Conductor*%
%TO.N,GND*%
G36*
X111682691Y-131173923D02*
G01*
X111761338Y-131189566D01*
X111806028Y-131208077D01*
X111862346Y-131245708D01*
X111896553Y-131279915D01*
X111934182Y-131336230D01*
X111952696Y-131380929D01*
X111968337Y-131459561D01*
X111970720Y-131483752D01*
X111970720Y-132195918D01*
X111951035Y-132262957D01*
X111934401Y-132283599D01*
X111528823Y-132689178D01*
X111458357Y-132759643D01*
X111458356Y-132759644D01*
X111420220Y-132851712D01*
X111420220Y-133020680D01*
X111400535Y-133087719D01*
X111383901Y-133108361D01*
X111097224Y-133395037D01*
X111078433Y-133410458D01*
X111015659Y-133452402D01*
X110948982Y-133473280D01*
X110928578Y-133471958D01*
X110911438Y-133469416D01*
X110911393Y-133469410D01*
X110887247Y-133467033D01*
X110887216Y-133467030D01*
X110876997Y-133466528D01*
X110867088Y-133466042D01*
X110867076Y-133466042D01*
X109901262Y-133466042D01*
X109846804Y-133453443D01*
X109833159Y-133446772D01*
X109799944Y-133423056D01*
X109794362Y-133417474D01*
X109772793Y-133388448D01*
X109767890Y-133379315D01*
X109758349Y-133363062D01*
X109758348Y-133363061D01*
X109758347Y-133363059D01*
X109710065Y-133307074D01*
X109655661Y-133263234D01*
X109651372Y-133260689D01*
X109605358Y-133233388D01*
X109605354Y-133233386D01*
X109547267Y-133209326D01*
X109492863Y-133165484D01*
X109470799Y-133099190D01*
X109470720Y-133094765D01*
X109470720Y-131483752D01*
X109473101Y-131459571D01*
X109488745Y-131380921D01*
X109507254Y-131336235D01*
X109544888Y-131279912D01*
X109579090Y-131245710D01*
X109635413Y-131208076D01*
X109680099Y-131189567D01*
X109758748Y-131173923D01*
X109782931Y-131171542D01*
X111658509Y-131171542D01*
X111682691Y-131173923D01*
G37*
%TD.AperFunction*%
%TD*%
%TA.AperFunction,Conductor*%
%TO.N,GND*%
G36*
X96596531Y-137232973D02*
G01*
X96642286Y-137285777D01*
X96653492Y-137337288D01*
X96653492Y-139039288D01*
X96633807Y-139106327D01*
X96581003Y-139152082D01*
X96529492Y-139163288D01*
X94177492Y-139163288D01*
X94110453Y-139143603D01*
X94064698Y-139090799D01*
X94053492Y-139039288D01*
X94053492Y-137337288D01*
X94073177Y-137270249D01*
X94125981Y-137224494D01*
X94177492Y-137213288D01*
X96529492Y-137213288D01*
X96596531Y-137232973D01*
G37*
%TD.AperFunction*%
%TD*%
%TA.AperFunction,Conductor*%
%TO.N,GND*%
G36*
X63313039Y-114504686D02*
G01*
X63358794Y-114557490D01*
X63370000Y-114609001D01*
X63370000Y-118361001D01*
X63350315Y-118428040D01*
X63297511Y-118473795D01*
X63246000Y-118485001D01*
X59694000Y-118485001D01*
X59626961Y-118465316D01*
X59581206Y-118412512D01*
X59570000Y-118361001D01*
X59570000Y-114609001D01*
X59589685Y-114541962D01*
X59642489Y-114496207D01*
X59694000Y-114485001D01*
X63246000Y-114485001D01*
X63313039Y-114504686D01*
G37*
%TD.AperFunction*%
%TD*%
%TA.AperFunction,Conductor*%
%TO.N,GND*%
G36*
X100911971Y-134273889D02*
G01*
X100990618Y-134289532D01*
X101035308Y-134308043D01*
X101091626Y-134345674D01*
X101125833Y-134379881D01*
X101143383Y-134406146D01*
X101163462Y-134436196D01*
X101181976Y-134480895D01*
X101197538Y-134559133D01*
X101197617Y-134559527D01*
X101200000Y-134583718D01*
X101200000Y-136459297D01*
X101197617Y-136483488D01*
X101181976Y-136562120D01*
X101163462Y-136606819D01*
X101125836Y-136663131D01*
X101091623Y-136697344D01*
X101035311Y-136734970D01*
X100990612Y-136753484D01*
X100911980Y-136769125D01*
X100887789Y-136771508D01*
X100175623Y-136771508D01*
X100108584Y-136751823D01*
X100087942Y-136735189D01*
X99611897Y-136259144D01*
X99519829Y-136221008D01*
X99519828Y-136221008D01*
X99350862Y-136221008D01*
X99283823Y-136201323D01*
X99263181Y-136184689D01*
X98976504Y-135898012D01*
X98961083Y-135879222D01*
X98919138Y-135816447D01*
X98898260Y-135749769D01*
X98899582Y-135729366D01*
X98902127Y-135712213D01*
X98904510Y-135688022D01*
X98905500Y-135667876D01*
X98905500Y-134702049D01*
X98918099Y-134647590D01*
X98924764Y-134633954D01*
X98948476Y-134600742D01*
X98951225Y-134597992D01*
X98954063Y-134595154D01*
X98983094Y-134573580D01*
X98992225Y-134568678D01*
X99008484Y-134559134D01*
X99064467Y-134510853D01*
X99108307Y-134456449D01*
X99138152Y-134406147D01*
X99138156Y-134406138D01*
X99162214Y-134348056D01*
X99206054Y-134293652D01*
X99272348Y-134271587D01*
X99276775Y-134271508D01*
X100887789Y-134271508D01*
X100911971Y-134273889D01*
G37*
%TD.AperFunction*%
%TD*%
%TA.AperFunction,Conductor*%
%TO.N,/Power/+5V_UNPROTEC*%
G36*
X102337707Y-130523889D02*
G01*
X102416354Y-130539532D01*
X102461046Y-130558045D01*
X102527714Y-130602591D01*
X102546504Y-130618012D01*
X102703495Y-130775003D01*
X102718916Y-130793793D01*
X102763461Y-130860459D01*
X102781976Y-130905159D01*
X102797617Y-130983791D01*
X102800000Y-131007982D01*
X102800000Y-135475000D01*
X102887867Y-135562867D01*
X102887870Y-135562871D01*
X103162128Y-135837129D01*
X103162132Y-135837132D01*
X103250000Y-135925000D01*
X103837789Y-135925000D01*
X103861971Y-135927381D01*
X103940618Y-135943024D01*
X103985308Y-135961535D01*
X104041626Y-135999166D01*
X104075833Y-136033373D01*
X104113462Y-136089688D01*
X104131976Y-136134387D01*
X104147617Y-136213019D01*
X104150000Y-136237210D01*
X104150000Y-137112789D01*
X104147617Y-137136980D01*
X104131976Y-137215612D01*
X104113462Y-137260311D01*
X104075836Y-137316623D01*
X104041623Y-137350836D01*
X103985311Y-137388462D01*
X103940612Y-137406976D01*
X103861980Y-137422617D01*
X103837789Y-137425000D01*
X101812211Y-137425000D01*
X101788020Y-137422617D01*
X101709387Y-137406976D01*
X101664689Y-137388462D01*
X101608373Y-137350833D01*
X101574166Y-137316626D01*
X101536535Y-137260308D01*
X101518024Y-137215618D01*
X101502381Y-137136971D01*
X101500000Y-137112789D01*
X101500000Y-134495771D01*
X101500000Y-134371508D01*
X101412132Y-134283640D01*
X101412129Y-134283636D01*
X100996504Y-133868012D01*
X100981083Y-133849222D01*
X100936538Y-133782556D01*
X100918024Y-133737862D01*
X100902381Y-133659215D01*
X100900000Y-133635033D01*
X100900000Y-130907982D01*
X100902381Y-130883801D01*
X100918025Y-130805151D01*
X100936536Y-130760463D01*
X100981088Y-130693786D01*
X100996499Y-130675008D01*
X101053500Y-130618007D01*
X101072278Y-130602596D01*
X101138955Y-130558044D01*
X101183643Y-130539533D01*
X101262292Y-130523889D01*
X101286475Y-130521508D01*
X102313525Y-130521508D01*
X102337707Y-130523889D01*
G37*
%TD.AperFunction*%
%TD*%
%TA.AperFunction,Conductor*%
%TO.N,/Power/SW_3V3*%
G36*
X109321672Y-133372603D02*
G01*
X109426836Y-133386448D01*
X109458103Y-133394826D01*
X109526719Y-133423247D01*
X109581123Y-133467087D01*
X109590668Y-133483348D01*
X109610802Y-133524534D01*
X109693514Y-133607246D01*
X109693515Y-133607246D01*
X109693517Y-133607248D01*
X109798607Y-133658623D01*
X109809369Y-133660191D01*
X109820720Y-133671542D01*
X110867088Y-133671542D01*
X110891270Y-133673923D01*
X110985768Y-133692719D01*
X111030458Y-133711230D01*
X111100214Y-133757840D01*
X111134421Y-133792047D01*
X111181029Y-133861800D01*
X111199543Y-133906499D01*
X111218337Y-134000982D01*
X111220720Y-134025173D01*
X111220720Y-134217910D01*
X111218337Y-134242101D01*
X111199543Y-134336584D01*
X111181029Y-134381283D01*
X111134424Y-134451033D01*
X111100211Y-134485246D01*
X111030461Y-134531851D01*
X110985762Y-134550365D01*
X110911348Y-134565167D01*
X110887157Y-134567550D01*
X109866739Y-134567550D01*
X109839338Y-134571542D01*
X109820720Y-134571542D01*
X109817544Y-134574717D01*
X109798608Y-134577476D01*
X109693514Y-134628853D01*
X109610803Y-134711564D01*
X109610802Y-134711567D01*
X109559427Y-134816657D01*
X109559426Y-134816658D01*
X109555199Y-134825307D01*
X109553093Y-134824277D01*
X109530471Y-134861790D01*
X109372919Y-135019343D01*
X109360723Y-135030038D01*
X109276562Y-135094617D01*
X109248528Y-135110802D01*
X109158103Y-135148257D01*
X109126837Y-135156635D01*
X109033011Y-135168988D01*
X109021671Y-135170481D01*
X109005487Y-135171542D01*
X106155623Y-135171542D01*
X106139438Y-135170481D01*
X106123990Y-135168447D01*
X106053222Y-135159130D01*
X106021956Y-135150752D01*
X105949193Y-135120613D01*
X105921158Y-135104427D01*
X105858671Y-135056478D01*
X105835783Y-135033590D01*
X105787834Y-134971103D01*
X105771648Y-134943068D01*
X105741509Y-134870305D01*
X105733131Y-134839038D01*
X105731323Y-134825307D01*
X105721781Y-134752824D01*
X105720720Y-134736639D01*
X105720720Y-133806444D01*
X105721781Y-133790259D01*
X105724245Y-133771542D01*
X105733131Y-133704042D01*
X105741508Y-133672781D01*
X105771650Y-133600011D01*
X105787834Y-133571980D01*
X105835783Y-133509493D01*
X105858671Y-133486605D01*
X105921158Y-133438656D01*
X105949189Y-133422472D01*
X106021959Y-133392330D01*
X106053220Y-133383953D01*
X106139438Y-133372603D01*
X106155623Y-133371542D01*
X109305487Y-133371542D01*
X109321672Y-133372603D01*
G37*
%TD.AperFunction*%
%TD*%
%TA.AperFunction,Conductor*%
%TO.N,+12V*%
G36*
X103108707Y-137994685D02*
G01*
X103154462Y-138047489D01*
X103164406Y-138116647D01*
X103135381Y-138180203D01*
X103129349Y-138186681D01*
X103045979Y-138270050D01*
X102985575Y-138388598D01*
X102970000Y-138486941D01*
X102970000Y-138625000D01*
X103486000Y-138625000D01*
X103553039Y-138644685D01*
X103598794Y-138697489D01*
X103610000Y-138749000D01*
X103610000Y-138775000D01*
X103636000Y-138775000D01*
X103703039Y-138794685D01*
X103748794Y-138847489D01*
X103760000Y-138899000D01*
X103760000Y-139449999D01*
X103863051Y-139449999D01*
X103961406Y-139434422D01*
X104025018Y-139402010D01*
X104093687Y-139389113D01*
X104158428Y-139415389D01*
X104195875Y-139465041D01*
X104200000Y-139475000D01*
X104663681Y-139938681D01*
X104697166Y-140000004D01*
X104700000Y-140026362D01*
X104700000Y-147201000D01*
X104680315Y-147268039D01*
X104627511Y-147313794D01*
X104576000Y-147325000D01*
X99574000Y-147325000D01*
X99506961Y-147305315D01*
X99461206Y-147252511D01*
X99450000Y-147201000D01*
X99450000Y-145975000D01*
X99820282Y-145975000D01*
X99839106Y-146166134D01*
X99839107Y-146166136D01*
X99894859Y-146349923D01*
X99985390Y-146519296D01*
X99985394Y-146519303D01*
X100011614Y-146551251D01*
X100011616Y-146551252D01*
X100356329Y-146206538D01*
X100399901Y-146282007D01*
X100492993Y-146375099D01*
X100568460Y-146418670D01*
X100223747Y-146763383D01*
X100223747Y-146763384D01*
X100255701Y-146789608D01*
X100255704Y-146789610D01*
X100425076Y-146880140D01*
X100608863Y-146935892D01*
X100608865Y-146935893D01*
X100800000Y-146954717D01*
X100991134Y-146935893D01*
X100991136Y-146935892D01*
X101174923Y-146880140D01*
X101344301Y-146789606D01*
X101344305Y-146789603D01*
X101376251Y-146763384D01*
X101376251Y-146763383D01*
X101031539Y-146418670D01*
X101107007Y-146375099D01*
X101200099Y-146282007D01*
X101243670Y-146206538D01*
X101588383Y-146551251D01*
X101588384Y-146551251D01*
X101614603Y-146519305D01*
X101614606Y-146519301D01*
X101705140Y-146349923D01*
X101760892Y-146166136D01*
X101760893Y-146166134D01*
X101779717Y-145975000D01*
X102360282Y-145975000D01*
X102379106Y-146166134D01*
X102379107Y-146166136D01*
X102434859Y-146349923D01*
X102525390Y-146519296D01*
X102525394Y-146519303D01*
X102551614Y-146551251D01*
X102551616Y-146551252D01*
X102896329Y-146206538D01*
X102939901Y-146282007D01*
X103032993Y-146375099D01*
X103108460Y-146418670D01*
X102763747Y-146763383D01*
X102763747Y-146763384D01*
X102795701Y-146789608D01*
X102795704Y-146789610D01*
X102965076Y-146880140D01*
X103148863Y-146935892D01*
X103148865Y-146935893D01*
X103340000Y-146954717D01*
X103531134Y-146935893D01*
X103531136Y-146935892D01*
X103714923Y-146880140D01*
X103884301Y-146789606D01*
X103884305Y-146789603D01*
X103916251Y-146763384D01*
X103916251Y-146763383D01*
X103571539Y-146418670D01*
X103647007Y-146375099D01*
X103740099Y-146282007D01*
X103783670Y-146206538D01*
X104128383Y-146551251D01*
X104128384Y-146551251D01*
X104154603Y-146519305D01*
X104154606Y-146519301D01*
X104245140Y-146349923D01*
X104300892Y-146166136D01*
X104300893Y-146166134D01*
X104319717Y-145975000D01*
X104300893Y-145783865D01*
X104300892Y-145783863D01*
X104245140Y-145600076D01*
X104154610Y-145430704D01*
X104154608Y-145430701D01*
X104128383Y-145398747D01*
X103783670Y-145743460D01*
X103740099Y-145667993D01*
X103647007Y-145574901D01*
X103571539Y-145531329D01*
X103916252Y-145186616D01*
X103916251Y-145186614D01*
X103884303Y-145160394D01*
X103884296Y-145160390D01*
X103714923Y-145069859D01*
X103531136Y-145014107D01*
X103531134Y-145014106D01*
X103340000Y-144995282D01*
X103148865Y-145014106D01*
X103148863Y-145014107D01*
X102965076Y-145069859D01*
X102795704Y-145160390D01*
X102795692Y-145160398D01*
X102763747Y-145186613D01*
X102763747Y-145186616D01*
X103108461Y-145531329D01*
X103032993Y-145574901D01*
X102939901Y-145667993D01*
X102896329Y-145743460D01*
X102551616Y-145398747D01*
X102551613Y-145398747D01*
X102525398Y-145430692D01*
X102525390Y-145430704D01*
X102434859Y-145600076D01*
X102379107Y-145783863D01*
X102379106Y-145783865D01*
X102360282Y-145975000D01*
X101779717Y-145975000D01*
X101760893Y-145783865D01*
X101760892Y-145783863D01*
X101705140Y-145600076D01*
X101614610Y-145430704D01*
X101614608Y-145430701D01*
X101588383Y-145398747D01*
X101243670Y-145743460D01*
X101200099Y-145667993D01*
X101107007Y-145574901D01*
X101031539Y-145531329D01*
X101376252Y-145186616D01*
X101376251Y-145186614D01*
X101344303Y-145160394D01*
X101344296Y-145160390D01*
X101174923Y-145069859D01*
X100991136Y-145014107D01*
X100991134Y-145014106D01*
X100800000Y-144995282D01*
X100608865Y-145014106D01*
X100608863Y-145014107D01*
X100425076Y-145069859D01*
X100255704Y-145160390D01*
X100255692Y-145160398D01*
X100223747Y-145186613D01*
X100223747Y-145186616D01*
X100568461Y-145531329D01*
X100492993Y-145574901D01*
X100399901Y-145667993D01*
X100356329Y-145743460D01*
X100011616Y-145398747D01*
X100011613Y-145398747D01*
X99985398Y-145430692D01*
X99985390Y-145430704D01*
X99894859Y-145600076D01*
X99839107Y-145783863D01*
X99839106Y-145783865D01*
X99820282Y-145975000D01*
X99450000Y-145975000D01*
X99450000Y-143435000D01*
X99820282Y-143435000D01*
X99839106Y-143626134D01*
X99839107Y-143626136D01*
X99894859Y-143809923D01*
X99985390Y-143979296D01*
X99985394Y-143979303D01*
X100011614Y-144011251D01*
X100011616Y-144011252D01*
X100356329Y-143666538D01*
X100399901Y-143742007D01*
X100492993Y-143835099D01*
X100568460Y-143878670D01*
X100223747Y-144223383D01*
X100223747Y-144223384D01*
X100255701Y-144249608D01*
X100255704Y-144249610D01*
X100425076Y-144340140D01*
X100608863Y-144395892D01*
X100608865Y-144395893D01*
X100800000Y-144414717D01*
X100991134Y-144395893D01*
X100991136Y-144395892D01*
X101174923Y-144340140D01*
X101344301Y-144249606D01*
X101344305Y-144249603D01*
X101376251Y-144223384D01*
X101376251Y-144223383D01*
X101031539Y-143878670D01*
X101107007Y-143835099D01*
X101200099Y-143742007D01*
X101243670Y-143666538D01*
X101588383Y-144011251D01*
X101588384Y-144011251D01*
X101614603Y-143979305D01*
X101614606Y-143979301D01*
X101705140Y-143809923D01*
X101760892Y-143626136D01*
X101760893Y-143626134D01*
X101779717Y-143435000D01*
X102360282Y-143435000D01*
X102379106Y-143626134D01*
X102379107Y-143626136D01*
X102434859Y-143809923D01*
X102525390Y-143979296D01*
X102525394Y-143979303D01*
X102551614Y-144011251D01*
X102551616Y-144011252D01*
X102896329Y-143666538D01*
X102939901Y-143742007D01*
X103032993Y-143835099D01*
X103108460Y-143878670D01*
X102763747Y-144223383D01*
X102763747Y-144223384D01*
X102795701Y-144249608D01*
X102795704Y-144249610D01*
X102965076Y-144340140D01*
X103148863Y-144395892D01*
X103148865Y-144395893D01*
X103340000Y-144414717D01*
X103531134Y-144395893D01*
X103531136Y-144395892D01*
X103714923Y-144340140D01*
X103884301Y-144249606D01*
X103884305Y-144249603D01*
X103916251Y-144223384D01*
X103916251Y-144223383D01*
X103571539Y-143878670D01*
X103647007Y-143835099D01*
X103740099Y-143742007D01*
X103783670Y-143666538D01*
X104128383Y-144011251D01*
X104128384Y-144011251D01*
X104154603Y-143979305D01*
X104154606Y-143979301D01*
X104245140Y-143809923D01*
X104300892Y-143626136D01*
X104300893Y-143626134D01*
X104319717Y-143435000D01*
X104300893Y-143243865D01*
X104300892Y-143243863D01*
X104245140Y-143060076D01*
X104154610Y-142890704D01*
X104154608Y-142890701D01*
X104128383Y-142858747D01*
X103783670Y-143203460D01*
X103740099Y-143127993D01*
X103647007Y-143034901D01*
X103571539Y-142991329D01*
X103916252Y-142646616D01*
X103916251Y-142646614D01*
X103884303Y-142620394D01*
X103884296Y-142620390D01*
X103714923Y-142529859D01*
X103531136Y-142474107D01*
X103531134Y-142474106D01*
X103340000Y-142455282D01*
X103148865Y-142474106D01*
X103148863Y-142474107D01*
X102965076Y-142529859D01*
X102795704Y-142620390D01*
X102795692Y-142620398D01*
X102763747Y-142646613D01*
X102763747Y-142646616D01*
X103108461Y-142991329D01*
X103032993Y-143034901D01*
X102939901Y-143127993D01*
X102896329Y-143203460D01*
X102551616Y-142858747D01*
X102551613Y-142858747D01*
X102525398Y-142890692D01*
X102525390Y-142890704D01*
X102434859Y-143060076D01*
X102379107Y-143243863D01*
X102379106Y-143243865D01*
X102360282Y-143435000D01*
X101779717Y-143435000D01*
X101760893Y-143243865D01*
X101760892Y-143243863D01*
X101705140Y-143060076D01*
X101614610Y-142890704D01*
X101614608Y-142890701D01*
X101588383Y-142858747D01*
X101243670Y-143203460D01*
X101200099Y-143127993D01*
X101107007Y-143034901D01*
X101031539Y-142991329D01*
X101376252Y-142646616D01*
X101376251Y-142646614D01*
X101344303Y-142620394D01*
X101344296Y-142620390D01*
X101174923Y-142529859D01*
X100991136Y-142474107D01*
X100991134Y-142474106D01*
X100800000Y-142455282D01*
X100608865Y-142474106D01*
X100608863Y-142474107D01*
X100425076Y-142529859D01*
X100255704Y-142620390D01*
X100255692Y-142620398D01*
X100223747Y-142646613D01*
X100223747Y-142646616D01*
X100568461Y-142991329D01*
X100492993Y-143034901D01*
X100399901Y-143127993D01*
X100356329Y-143203460D01*
X100011616Y-142858747D01*
X100011613Y-142858747D01*
X99985398Y-142890692D01*
X99985390Y-142890704D01*
X99894859Y-143060076D01*
X99839107Y-143243863D01*
X99839106Y-143243865D01*
X99820282Y-143435000D01*
X99450000Y-143435000D01*
X99450000Y-140895000D01*
X99820282Y-140895000D01*
X99839106Y-141086134D01*
X99839107Y-141086136D01*
X99894859Y-141269923D01*
X99985390Y-141439296D01*
X99985394Y-141439303D01*
X100011614Y-141471251D01*
X100011616Y-141471252D01*
X100356329Y-141126538D01*
X100399901Y-141202007D01*
X100492993Y-141295099D01*
X100568460Y-141338670D01*
X100223747Y-141683383D01*
X100223747Y-141683384D01*
X100255701Y-141709608D01*
X100255704Y-141709610D01*
X100425076Y-141800140D01*
X100608863Y-141855892D01*
X100608865Y-141855893D01*
X100800000Y-141874717D01*
X100991134Y-141855893D01*
X100991136Y-141855892D01*
X101174923Y-141800140D01*
X101344301Y-141709606D01*
X101344305Y-141709603D01*
X101376251Y-141683384D01*
X101376251Y-141683383D01*
X101031539Y-141338670D01*
X101107007Y-141295099D01*
X101200099Y-141202007D01*
X101243670Y-141126538D01*
X101588383Y-141471251D01*
X101588384Y-141471251D01*
X101614603Y-141439305D01*
X101614606Y-141439301D01*
X101705140Y-141269923D01*
X101760892Y-141086136D01*
X101760893Y-141086134D01*
X101779717Y-140895000D01*
X102360282Y-140895000D01*
X102379106Y-141086134D01*
X102379107Y-141086136D01*
X102434859Y-141269923D01*
X102525390Y-141439296D01*
X102525394Y-141439303D01*
X102551614Y-141471251D01*
X102551616Y-141471252D01*
X102896329Y-141126538D01*
X102939901Y-141202007D01*
X103032993Y-141295099D01*
X103108460Y-141338670D01*
X102763747Y-141683383D01*
X102763747Y-141683384D01*
X102795701Y-141709608D01*
X102795704Y-141709610D01*
X102965076Y-141800140D01*
X103148863Y-141855892D01*
X103148865Y-141855893D01*
X103340000Y-141874717D01*
X103531134Y-141855893D01*
X103531136Y-141855892D01*
X103714923Y-141800140D01*
X103884301Y-141709606D01*
X103884305Y-141709603D01*
X103916251Y-141683384D01*
X103916251Y-141683383D01*
X103571539Y-141338670D01*
X103647007Y-141295099D01*
X103740099Y-141202007D01*
X103783670Y-141126538D01*
X104128383Y-141471251D01*
X104128384Y-141471251D01*
X104154603Y-141439305D01*
X104154606Y-141439301D01*
X104245140Y-141269923D01*
X104300892Y-141086136D01*
X104300893Y-141086134D01*
X104319717Y-140895000D01*
X104300893Y-140703865D01*
X104300892Y-140703863D01*
X104245140Y-140520076D01*
X104154610Y-140350704D01*
X104154608Y-140350701D01*
X104128383Y-140318747D01*
X103783670Y-140663460D01*
X103740099Y-140587993D01*
X103647007Y-140494901D01*
X103571539Y-140451329D01*
X103916252Y-140106616D01*
X103916251Y-140106614D01*
X103884303Y-140080394D01*
X103884296Y-140080390D01*
X103714923Y-139989859D01*
X103531136Y-139934107D01*
X103531134Y-139934106D01*
X103340000Y-139915282D01*
X103148865Y-139934106D01*
X103148863Y-139934107D01*
X102965076Y-139989859D01*
X102795704Y-140080390D01*
X102795692Y-140080398D01*
X102763747Y-140106613D01*
X102763747Y-140106616D01*
X103108461Y-140451329D01*
X103032993Y-140494901D01*
X102939901Y-140587993D01*
X102896329Y-140663460D01*
X102551616Y-140318747D01*
X102551613Y-140318747D01*
X102525398Y-140350692D01*
X102525390Y-140350704D01*
X102434859Y-140520076D01*
X102379107Y-140703863D01*
X102379106Y-140703865D01*
X102360282Y-140895000D01*
X101779717Y-140895000D01*
X101760893Y-140703865D01*
X101760892Y-140703863D01*
X101705140Y-140520076D01*
X101614610Y-140350704D01*
X101614608Y-140350701D01*
X101588383Y-140318747D01*
X101243670Y-140663460D01*
X101200099Y-140587993D01*
X101107007Y-140494901D01*
X101031539Y-140451329D01*
X101376252Y-140106616D01*
X101376251Y-140106614D01*
X101344303Y-140080394D01*
X101344296Y-140080390D01*
X101174923Y-139989859D01*
X100991136Y-139934107D01*
X100991134Y-139934106D01*
X100800000Y-139915282D01*
X100608865Y-139934106D01*
X100608863Y-139934107D01*
X100425076Y-139989859D01*
X100255704Y-140080390D01*
X100255692Y-140080398D01*
X100223747Y-140106613D01*
X100223747Y-140106616D01*
X100568461Y-140451329D01*
X100492993Y-140494901D01*
X100399901Y-140587993D01*
X100356329Y-140663460D01*
X100011616Y-140318747D01*
X100011613Y-140318747D01*
X99985398Y-140350692D01*
X99985390Y-140350704D01*
X99894859Y-140520076D01*
X99839107Y-140703863D01*
X99839106Y-140703865D01*
X99820282Y-140895000D01*
X99450000Y-140895000D01*
X99450000Y-139976362D01*
X99469685Y-139909323D01*
X99486319Y-139888681D01*
X99913681Y-139461319D01*
X99975004Y-139427834D01*
X100001362Y-139425000D01*
X101300000Y-139425000D01*
X101661949Y-139063051D01*
X102970001Y-139063051D01*
X102985577Y-139161405D01*
X103045979Y-139279949D01*
X103140050Y-139374020D01*
X103258598Y-139434424D01*
X103356941Y-139449999D01*
X103459999Y-139449999D01*
X103460000Y-139449998D01*
X103460000Y-138925000D01*
X102970001Y-138925000D01*
X102970001Y-139063051D01*
X101661949Y-139063051D01*
X102713681Y-138011319D01*
X102775004Y-137977834D01*
X102801362Y-137975000D01*
X103041668Y-137975000D01*
X103108707Y-137994685D01*
G37*
%TD.AperFunction*%
%TD*%
%TA.AperFunction,Conductor*%
%TO.N,+3V3*%
G36*
X114854129Y-129477381D02*
G01*
X114894505Y-129485412D01*
X114939199Y-129503925D01*
X114939202Y-129503927D01*
X114973425Y-129526794D01*
X114992215Y-129542215D01*
X116232784Y-130782784D01*
X116248205Y-130801574D01*
X116271073Y-130835798D01*
X116289588Y-130880498D01*
X116297617Y-130920862D01*
X116300000Y-130945053D01*
X116300000Y-131562789D01*
X116297617Y-131586982D01*
X116289588Y-131627344D01*
X116271072Y-131672043D01*
X116255122Y-131695913D01*
X116220913Y-131730122D01*
X116197043Y-131746072D01*
X116152344Y-131764588D01*
X116135841Y-131767870D01*
X116111978Y-131772617D01*
X116087789Y-131775000D01*
X114462211Y-131775000D01*
X114438021Y-131772617D01*
X114421026Y-131769236D01*
X114359116Y-131736851D01*
X114324543Y-131676135D01*
X114321220Y-131647620D01*
X114321220Y-131575173D01*
X114321219Y-131575170D01*
X114297670Y-131518318D01*
X114283084Y-131483103D01*
X114283083Y-131483102D01*
X114276299Y-131472949D01*
X114278283Y-131471622D01*
X114252834Y-131425015D01*
X114250000Y-131398657D01*
X114250000Y-129687210D01*
X114252381Y-129663029D01*
X114260412Y-129622651D01*
X114278927Y-129577956D01*
X114294877Y-129554086D01*
X114329086Y-129519877D01*
X114352956Y-129503927D01*
X114397653Y-129485412D01*
X114438027Y-129477381D01*
X114462211Y-129475000D01*
X114829946Y-129475000D01*
X114854129Y-129477381D01*
G37*
%TD.AperFunction*%
%TD*%
%TA.AperFunction,Conductor*%
%TO.N,/Power/+3V3_UNPROTEC*%
G36*
X112782691Y-129473923D02*
G01*
X112861338Y-129489566D01*
X112906028Y-129508077D01*
X112962346Y-129545708D01*
X112996553Y-129579915D01*
X113034182Y-129636230D01*
X113052696Y-129680929D01*
X113068337Y-129759561D01*
X113070720Y-129783752D01*
X113070720Y-130559331D01*
X113068337Y-130583522D01*
X113052696Y-130662154D01*
X113034182Y-130706853D01*
X112996556Y-130763165D01*
X112962343Y-130797378D01*
X112906031Y-130835004D01*
X112861332Y-130853518D01*
X112782700Y-130869159D01*
X112758509Y-130871542D01*
X109570720Y-130871542D01*
X109482856Y-130959406D01*
X109482848Y-130959412D01*
X109067224Y-131375037D01*
X109048434Y-131390458D01*
X108981768Y-131435003D01*
X108937068Y-131453518D01*
X108858436Y-131469159D01*
X108834245Y-131471542D01*
X106107195Y-131471542D01*
X106083004Y-131469159D01*
X106004371Y-131453518D01*
X105959671Y-131435003D01*
X105893005Y-131390458D01*
X105874215Y-131375037D01*
X105817224Y-131318046D01*
X105801803Y-131299256D01*
X105757258Y-131232590D01*
X105738744Y-131187896D01*
X105723101Y-131109249D01*
X105720720Y-131085067D01*
X105720720Y-130060858D01*
X105723061Y-130036876D01*
X105738436Y-129958880D01*
X105756637Y-129914507D01*
X105800469Y-129848169D01*
X105815632Y-129829466D01*
X106071913Y-129569640D01*
X106090766Y-129553978D01*
X106157770Y-129508706D01*
X106202789Y-129489877D01*
X106282069Y-129473965D01*
X106306469Y-129471542D01*
X112758509Y-129471542D01*
X112782691Y-129473923D01*
G37*
%TD.AperFunction*%
%TD*%
%TA.AperFunction,Conductor*%
%TO.N,+5V*%
G36*
X106993039Y-135944685D02*
G01*
X107038794Y-135997489D01*
X107050000Y-136049000D01*
X107050000Y-137301000D01*
X107030315Y-137368039D01*
X106977511Y-137413794D01*
X106926000Y-137425000D01*
X105574000Y-137425000D01*
X105506961Y-137405315D01*
X105461206Y-137352511D01*
X105450000Y-137301000D01*
X105450000Y-136049000D01*
X105469685Y-135981961D01*
X105522489Y-135936206D01*
X105574000Y-135925000D01*
X106926000Y-135925000D01*
X106993039Y-135944685D01*
G37*
%TD.AperFunction*%
%TD*%
%TA.AperFunction,Conductor*%
%TO.N,/GPS-RTK/V_BCKP*%
G36*
X67372539Y-80199687D02*
G01*
X67418294Y-80252491D01*
X67429500Y-80304002D01*
X67429500Y-81694754D01*
X67441131Y-81753231D01*
X67441132Y-81753232D01*
X67480000Y-81811400D01*
X67485448Y-81819554D01*
X67514891Y-81839227D01*
X67559695Y-81892838D01*
X67570000Y-81942329D01*
X67570000Y-85433638D01*
X67550315Y-85500677D01*
X67533681Y-85521319D01*
X67245778Y-85809221D01*
X67184455Y-85842706D01*
X67114763Y-85837722D01*
X67105697Y-85833924D01*
X67099488Y-85831029D01*
X67099486Y-85831028D01*
X67049902Y-85824501D01*
X66690105Y-85824501D01*
X66674386Y-85826570D01*
X66640513Y-85831029D01*
X66640511Y-85831030D01*
X66640509Y-85831030D01*
X66549685Y-85873383D01*
X66497280Y-85885001D01*
X66470000Y-85885001D01*
X66470000Y-85894421D01*
X66450315Y-85961460D01*
X66447575Y-85965545D01*
X66446775Y-85966687D01*
X66396027Y-86075515D01*
X66389500Y-86125099D01*
X66389500Y-86544895D01*
X66389501Y-86544901D01*
X66396028Y-86594488D01*
X66396029Y-86594490D01*
X66396029Y-86594491D01*
X66446776Y-86703317D01*
X66447571Y-86704452D01*
X66448265Y-86706510D01*
X66451361Y-86713149D01*
X66450620Y-86713494D01*
X66469902Y-86770657D01*
X66470000Y-86775580D01*
X66470000Y-86794418D01*
X66450315Y-86861457D01*
X66447579Y-86865536D01*
X66446773Y-86866686D01*
X66396026Y-86975513D01*
X66396026Y-86975514D01*
X66389499Y-87025099D01*
X66389499Y-87444895D01*
X66389500Y-87444901D01*
X66396027Y-87494488D01*
X66396028Y-87494490D01*
X66396028Y-87494491D01*
X66446774Y-87603316D01*
X66447573Y-87604456D01*
X66448269Y-87606522D01*
X66451360Y-87613149D01*
X66450621Y-87613493D01*
X66469902Y-87670662D01*
X66470000Y-87675582D01*
X66470000Y-88861001D01*
X66450315Y-88928040D01*
X66397511Y-88973795D01*
X66346000Y-88985001D01*
X59794000Y-88985001D01*
X59726961Y-88965316D01*
X59681206Y-88912512D01*
X59670000Y-88861001D01*
X59670000Y-86009001D01*
X59689685Y-85941962D01*
X59742489Y-85896207D01*
X59794000Y-85885001D01*
X64709465Y-85885001D01*
X64744399Y-85890024D01*
X64865225Y-85925500D01*
X64865227Y-85925501D01*
X64865228Y-85925501D01*
X64994773Y-85925501D01*
X64994773Y-85925500D01*
X65038484Y-85912666D01*
X65115601Y-85890024D01*
X65150535Y-85885001D01*
X65170000Y-85885001D01*
X65570000Y-85485001D01*
X65570000Y-85081596D01*
X65583516Y-85025300D01*
X65589719Y-85013127D01*
X65589719Y-85013124D01*
X65589720Y-85013124D01*
X65605500Y-84913494D01*
X65605500Y-84396507D01*
X65589720Y-84296877D01*
X65583515Y-84284699D01*
X65570000Y-84228405D01*
X65570000Y-83608122D01*
X65571262Y-83590474D01*
X65575500Y-83560999D01*
X65575500Y-83510803D01*
X65587088Y-83462531D01*
X65586704Y-83462406D01*
X65588292Y-83457517D01*
X65589015Y-83454508D01*
X65589719Y-83453127D01*
X65589719Y-83453125D01*
X65589720Y-83453124D01*
X65605500Y-83353494D01*
X65605500Y-82836507D01*
X65589719Y-82736876D01*
X65589719Y-82736875D01*
X65589015Y-82735493D01*
X65588292Y-82732482D01*
X65586703Y-82727591D01*
X65587087Y-82727465D01*
X65575500Y-82679198D01*
X65575500Y-81999502D01*
X65595185Y-81932463D01*
X65647989Y-81886708D01*
X65699500Y-81875502D01*
X66249750Y-81875502D01*
X66249751Y-81875501D01*
X66264568Y-81872554D01*
X66308229Y-81863870D01*
X66308229Y-81863869D01*
X66308231Y-81863869D01*
X66374552Y-81819554D01*
X66418867Y-81753233D01*
X66418867Y-81753231D01*
X66418868Y-81753231D01*
X66427552Y-81709570D01*
X66430500Y-81694750D01*
X66430500Y-80304002D01*
X66450185Y-80236963D01*
X66502989Y-80191208D01*
X66554500Y-80180002D01*
X67305500Y-80180002D01*
X67372539Y-80199687D01*
G37*
%TD.AperFunction*%
%TD*%
%TA.AperFunction,Conductor*%
%TO.N,+3V3*%
G36*
X69713039Y-79504686D02*
G01*
X69758794Y-79557490D01*
X69770000Y-79609001D01*
X69770000Y-79907673D01*
X69750315Y-79974712D01*
X69714892Y-80010775D01*
X69685446Y-80030449D01*
X69641132Y-80096770D01*
X69641131Y-80096771D01*
X69629500Y-80155248D01*
X69629500Y-80155251D01*
X69629500Y-80155253D01*
X69629500Y-81694749D01*
X69629500Y-81694751D01*
X69629499Y-81694751D01*
X69637866Y-81736809D01*
X69631639Y-81806401D01*
X69588776Y-81861578D01*
X69522887Y-81884823D01*
X69516249Y-81885001D01*
X68743751Y-81885001D01*
X68676712Y-81865316D01*
X68630957Y-81812512D01*
X68621013Y-81743354D01*
X68622134Y-81736809D01*
X68630500Y-81694752D01*
X68630500Y-80155251D01*
X68630499Y-80155249D01*
X68618868Y-80096772D01*
X68618867Y-80096771D01*
X68574552Y-80030449D01*
X68508230Y-79986134D01*
X68508229Y-79986133D01*
X68449752Y-79974502D01*
X68449748Y-79974502D01*
X67610252Y-79974502D01*
X67610247Y-79974502D01*
X67551770Y-79986133D01*
X67551768Y-79986134D01*
X67548887Y-79988060D01*
X67541655Y-79990324D01*
X67540487Y-79990808D01*
X67540443Y-79990703D01*
X67482209Y-80008935D01*
X67414829Y-79990448D01*
X67411113Y-79988060D01*
X67408231Y-79986134D01*
X67408229Y-79986133D01*
X67349752Y-79974502D01*
X67349748Y-79974502D01*
X66510252Y-79974502D01*
X66510247Y-79974502D01*
X66451770Y-79986133D01*
X66451768Y-79986134D01*
X66448887Y-79988060D01*
X66441655Y-79990324D01*
X66440487Y-79990808D01*
X66440443Y-79990703D01*
X66382209Y-80008935D01*
X66314829Y-79990448D01*
X66311113Y-79988060D01*
X66308231Y-79986134D01*
X66308229Y-79986133D01*
X66249752Y-79974502D01*
X66249748Y-79974502D01*
X65410252Y-79974502D01*
X65410247Y-79974502D01*
X65351770Y-79986133D01*
X65351769Y-79986134D01*
X65285447Y-80030449D01*
X65241132Y-80096771D01*
X65241131Y-80096772D01*
X65229500Y-80155249D01*
X65229500Y-81694754D01*
X65241131Y-81753231D01*
X65241132Y-81753232D01*
X65280743Y-81812512D01*
X65285448Y-81819554D01*
X65314891Y-81839227D01*
X65359695Y-81892838D01*
X65370000Y-81942329D01*
X65370000Y-83561001D01*
X65350315Y-83628040D01*
X65297511Y-83673795D01*
X65246000Y-83685001D01*
X63294000Y-83685001D01*
X63226961Y-83665316D01*
X63181206Y-83612512D01*
X63170000Y-83561001D01*
X63170000Y-79609001D01*
X63189685Y-79541962D01*
X63242489Y-79496207D01*
X63294000Y-79485001D01*
X69646000Y-79485001D01*
X69713039Y-79504686D01*
G37*
%TD.AperFunction*%
%TD*%
%TA.AperFunction,Conductor*%
%TO.N,GND*%
G36*
X114343039Y-135744685D02*
G01*
X114388794Y-135797489D01*
X114400000Y-135849000D01*
X114400000Y-137477869D01*
X114380315Y-137544908D01*
X114327511Y-137590663D01*
X114292183Y-137600808D01*
X114290517Y-137601027D01*
X114290509Y-137601029D01*
X114181683Y-137651776D01*
X114096776Y-137736683D01*
X114046027Y-137845514D01*
X114039500Y-137895097D01*
X114039501Y-138201000D01*
X114019817Y-138268039D01*
X113967013Y-138313794D01*
X113915501Y-138325000D01*
X112524000Y-138325000D01*
X112456961Y-138305315D01*
X112411206Y-138252511D01*
X112400000Y-138201000D01*
X112400000Y-135849000D01*
X112419685Y-135781961D01*
X112472489Y-135736206D01*
X112524000Y-135725000D01*
X114276000Y-135725000D01*
X114343039Y-135744685D01*
G37*
%TD.AperFunction*%
%TD*%
%TA.AperFunction,Conductor*%
%TO.N,+12V_FUSED*%
G36*
X111115677Y-134794685D02*
G01*
X111136319Y-134811319D01*
X111913681Y-135588681D01*
X111947166Y-135650004D01*
X111950000Y-135676362D01*
X111950000Y-138201000D01*
X111930315Y-138268039D01*
X111877511Y-138313794D01*
X111826000Y-138325000D01*
X110049999Y-138325000D01*
X109036319Y-139338681D01*
X108974996Y-139372166D01*
X108948638Y-139375000D01*
X104851362Y-139375000D01*
X104784323Y-139355315D01*
X104763681Y-139338681D01*
X104636319Y-139211319D01*
X104602834Y-139149996D01*
X104600000Y-139123638D01*
X104600000Y-138099000D01*
X104619685Y-138031961D01*
X104672489Y-137986206D01*
X104724000Y-137975000D01*
X108417262Y-137975000D01*
X109750000Y-136642262D01*
X109750000Y-134976362D01*
X109769685Y-134909323D01*
X109786319Y-134888681D01*
X109863681Y-134811319D01*
X109925004Y-134777834D01*
X109951362Y-134775000D01*
X111048638Y-134775000D01*
X111115677Y-134794685D01*
G37*
%TD.AperFunction*%
%TD*%
%TA.AperFunction,Conductor*%
%TO.N,GND*%
G36*
X66628362Y-51805186D02*
G01*
X66649004Y-51821819D01*
X66649499Y-51822314D01*
X66649500Y-51822315D01*
X66742686Y-51915501D01*
X66856814Y-51981393D01*
X66984108Y-52015501D01*
X66984110Y-52015501D01*
X75715890Y-52015501D01*
X75715892Y-52015501D01*
X75843186Y-51981393D01*
X75957314Y-51915501D01*
X76050500Y-51822315D01*
X76050500Y-51822314D01*
X76050996Y-51821819D01*
X76112320Y-51788335D01*
X76138677Y-51785501D01*
X77246000Y-51785501D01*
X77313039Y-51805186D01*
X77358794Y-51857990D01*
X77370000Y-51909501D01*
X77370000Y-64561001D01*
X77350315Y-64628040D01*
X77297511Y-64673795D01*
X77246000Y-64685001D01*
X72134500Y-64685001D01*
X72067461Y-64665316D01*
X72021706Y-64612512D01*
X72010500Y-64561001D01*
X72010500Y-62634450D01*
X72020700Y-62585200D01*
X72023432Y-62578887D01*
X72067697Y-62426527D01*
X72067698Y-62426521D01*
X72070499Y-62390926D01*
X72070500Y-62390919D01*
X72070500Y-61919083D01*
X72067698Y-61883479D01*
X72023430Y-61731110D01*
X72023429Y-61731109D01*
X72023429Y-61731107D01*
X72020698Y-61724794D01*
X72010500Y-61675550D01*
X72010500Y-57769500D01*
X72030185Y-57702461D01*
X72082989Y-57656706D01*
X72134500Y-57645500D01*
X72354919Y-57645500D01*
X72423478Y-57639271D01*
X72423481Y-57639270D01*
X72423483Y-57639270D01*
X72581279Y-57590099D01*
X72722722Y-57504593D01*
X72839592Y-57387723D01*
X72925098Y-57246280D01*
X72974269Y-57088484D01*
X72980500Y-57019914D01*
X72980499Y-55010089D01*
X72980499Y-55010088D01*
X72980499Y-55010080D01*
X72974270Y-54941522D01*
X72974268Y-54941514D01*
X72960334Y-54896799D01*
X72925098Y-54783722D01*
X72839592Y-54642279D01*
X72839590Y-54642277D01*
X72839589Y-54642275D01*
X72722725Y-54525411D01*
X72581279Y-54439903D01*
X72423480Y-54390731D01*
X72377757Y-54386576D01*
X72354913Y-54384501D01*
X72354909Y-54384501D01*
X70345079Y-54384501D01*
X70276521Y-54390730D01*
X70276513Y-54390732D01*
X70118723Y-54439902D01*
X69977274Y-54525411D01*
X69860410Y-54642275D01*
X69774902Y-54783721D01*
X69725730Y-54941520D01*
X69719500Y-55010091D01*
X69719500Y-57019921D01*
X69725729Y-57088479D01*
X69725731Y-57088487D01*
X69774901Y-57246277D01*
X69774902Y-57246280D01*
X69860408Y-57387723D01*
X69860410Y-57387726D01*
X69977274Y-57504590D01*
X69977276Y-57504591D01*
X69977278Y-57504593D01*
X70118721Y-57590099D01*
X70276517Y-57639270D01*
X70345087Y-57645501D01*
X70525500Y-57645500D01*
X70592539Y-57665184D01*
X70638294Y-57717988D01*
X70649500Y-57769500D01*
X70649500Y-61230501D01*
X70629815Y-61297540D01*
X70577011Y-61343295D01*
X70525500Y-61354501D01*
X70114074Y-61354501D01*
X70078479Y-61357302D01*
X70078473Y-61357303D01*
X69926113Y-61401568D01*
X69926110Y-61401570D01*
X69831989Y-61457233D01*
X69768868Y-61474501D01*
X69298383Y-61474501D01*
X69231344Y-61454816D01*
X69210706Y-61438186D01*
X69123332Y-61350812D01*
X69110621Y-61343295D01*
X68988387Y-61271006D01*
X68988384Y-61271005D01*
X68837843Y-61227268D01*
X68837837Y-61227267D01*
X68802675Y-61224500D01*
X68802668Y-61224500D01*
X68337332Y-61224500D01*
X68337324Y-61224500D01*
X68302162Y-61227267D01*
X68302156Y-61227268D01*
X68151615Y-61271005D01*
X68151612Y-61271006D01*
X68016670Y-61350810D01*
X68016666Y-61350813D01*
X67987522Y-61379958D01*
X67929296Y-61438183D01*
X67867976Y-61471667D01*
X67841617Y-61474501D01*
X66102972Y-61474501D01*
X65971512Y-61500649D01*
X65971503Y-61500652D01*
X65847667Y-61551945D01*
X65847655Y-61551952D01*
X65736207Y-61626420D01*
X65688814Y-61673813D01*
X65641421Y-61721207D01*
X65641419Y-61721209D01*
X65443552Y-61919075D01*
X65388765Y-61973862D01*
X65388763Y-61973864D01*
X65311423Y-62051203D01*
X65311420Y-62051207D01*
X65236263Y-62163687D01*
X65234617Y-62168289D01*
X65185651Y-62286503D01*
X65185650Y-62286505D01*
X65172326Y-62353497D01*
X65172325Y-62353498D01*
X65159500Y-62417973D01*
X65159500Y-62475329D01*
X65142232Y-62538449D01*
X65096008Y-62616610D01*
X65096005Y-62616617D01*
X65052268Y-62767158D01*
X65052267Y-62767164D01*
X65049500Y-62802326D01*
X65049500Y-63207677D01*
X65052267Y-63242839D01*
X65052268Y-63242845D01*
X65096006Y-63393389D01*
X65096010Y-63393398D01*
X65124682Y-63441881D01*
X65141865Y-63509605D01*
X65124682Y-63568121D01*
X65096010Y-63616603D01*
X65096006Y-63616612D01*
X65052268Y-63767156D01*
X65052267Y-63767162D01*
X65049500Y-63802324D01*
X65049500Y-64207675D01*
X65052267Y-64242837D01*
X65052268Y-64242843D01*
X65096005Y-64393384D01*
X65096006Y-64393387D01*
X65132232Y-64454642D01*
X65149500Y-64517763D01*
X65149500Y-64561001D01*
X65129815Y-64628040D01*
X65077011Y-64673795D01*
X65025500Y-64685001D01*
X62694000Y-64685001D01*
X62626961Y-64665316D01*
X62581206Y-64612512D01*
X62570000Y-64561001D01*
X62570000Y-51909501D01*
X62589685Y-51842462D01*
X62642489Y-51796707D01*
X62694000Y-51785501D01*
X66561323Y-51785501D01*
X66628362Y-51805186D01*
G37*
%TD.AperFunction*%
%TA.AperFunction,Conductor*%
G36*
X69831988Y-62852768D02*
G01*
X69926109Y-62908431D01*
X69926110Y-62908431D01*
X69926113Y-62908433D01*
X70078473Y-62952698D01*
X70078476Y-62952698D01*
X70078478Y-62952699D01*
X70114082Y-62955501D01*
X70114090Y-62955501D01*
X70525500Y-62955501D01*
X70592539Y-62975186D01*
X70638294Y-63027990D01*
X70649500Y-63079501D01*
X70649500Y-64561001D01*
X70629815Y-64628040D01*
X70577011Y-64673795D01*
X70525500Y-64685001D01*
X66634500Y-64685001D01*
X66567461Y-64665316D01*
X66521706Y-64612512D01*
X66510500Y-64561001D01*
X66510500Y-64551580D01*
X66527767Y-64488461D01*
X66583993Y-64393389D01*
X66583993Y-64393385D01*
X66583995Y-64393384D01*
X66627731Y-64242843D01*
X66627732Y-64242837D01*
X66630499Y-64207675D01*
X66630500Y-64207668D01*
X66630500Y-63802332D01*
X66627732Y-63767161D01*
X66627731Y-63767156D01*
X66583995Y-63616616D01*
X66583993Y-63616612D01*
X66583993Y-63616611D01*
X66555315Y-63568119D01*
X66538133Y-63500399D01*
X66555314Y-63441883D01*
X66583993Y-63393391D01*
X66627732Y-63242841D01*
X66630500Y-63207670D01*
X66630500Y-62959501D01*
X66650185Y-62892462D01*
X66702989Y-62846707D01*
X66754500Y-62835501D01*
X69768868Y-62835501D01*
X69831988Y-62852768D01*
G37*
%TD.AperFunction*%
%TD*%
%TA.AperFunction,Conductor*%
%TO.N,GND*%
G36*
X109493039Y-135944685D02*
G01*
X109538794Y-135997489D01*
X109550000Y-136049000D01*
X109550000Y-136473638D01*
X109530315Y-136540677D01*
X109513681Y-136561319D01*
X108686319Y-137388681D01*
X108624996Y-137422166D01*
X108598638Y-137425000D01*
X108124000Y-137425000D01*
X108056961Y-137405315D01*
X108011206Y-137352511D01*
X108000000Y-137301000D01*
X108000000Y-136049000D01*
X108019685Y-135981961D01*
X108072489Y-135936206D01*
X108124000Y-135925000D01*
X109426000Y-135925000D01*
X109493039Y-135944685D01*
G37*
%TD.AperFunction*%
%TD*%
%TA.AperFunction,Conductor*%
%TO.N,+3V3*%
G36*
X105748814Y-86324685D02*
G01*
X105794569Y-86377489D01*
X105804513Y-86446647D01*
X105796337Y-86476451D01*
X105794132Y-86481772D01*
X105782501Y-86540248D01*
X105782501Y-87254753D01*
X105794132Y-87313230D01*
X105794133Y-87313231D01*
X105838448Y-87379553D01*
X105904770Y-87423868D01*
X105904771Y-87423869D01*
X105963248Y-87435500D01*
X105963251Y-87435501D01*
X105963253Y-87435501D01*
X106256751Y-87435501D01*
X106256752Y-87435500D01*
X106271569Y-87432553D01*
X106315230Y-87423869D01*
X106315230Y-87423868D01*
X106315232Y-87423868D01*
X106381553Y-87379553D01*
X106395427Y-87358788D01*
X106449038Y-87313983D01*
X106518363Y-87305274D01*
X106567422Y-87324577D01*
X106606768Y-87350868D01*
X106606770Y-87350869D01*
X106665247Y-87362500D01*
X106665250Y-87362501D01*
X106665252Y-87362501D01*
X107379750Y-87362501D01*
X107379751Y-87362500D01*
X107438231Y-87350868D01*
X107438236Y-87350864D01*
X107438539Y-87350740D01*
X107439278Y-87350660D01*
X107450210Y-87348486D01*
X107450404Y-87349463D01*
X107508008Y-87343265D01*
X107570489Y-87374535D01*
X107606147Y-87434621D01*
X107610001Y-87465297D01*
X107610001Y-87604703D01*
X107590316Y-87671742D01*
X107537512Y-87717497D01*
X107468354Y-87727441D01*
X107438556Y-87719267D01*
X107438234Y-87719133D01*
X107379752Y-87707501D01*
X107379749Y-87707501D01*
X106665253Y-87707501D01*
X106665248Y-87707501D01*
X106606771Y-87719132D01*
X106606770Y-87719133D01*
X106540448Y-87763448D01*
X106496133Y-87829770D01*
X106496132Y-87829771D01*
X106484501Y-87888248D01*
X106484501Y-88181753D01*
X106498516Y-88252210D01*
X106496638Y-88252583D01*
X106502489Y-88307021D01*
X106496809Y-88326364D01*
X106484500Y-88388248D01*
X106484500Y-88415756D01*
X106464815Y-88482795D01*
X106412011Y-88528550D01*
X106342853Y-88538494D01*
X106325572Y-88534735D01*
X106324776Y-88534501D01*
X106324772Y-88534501D01*
X106195228Y-88534501D01*
X106195226Y-88534501D01*
X106070935Y-88570995D01*
X106070932Y-88570996D01*
X106070931Y-88570997D01*
X106035500Y-88593767D01*
X105961950Y-88641034D01*
X105877118Y-88738938D01*
X105877117Y-88738939D01*
X105823302Y-88856775D01*
X105804867Y-88985001D01*
X105823302Y-89113226D01*
X105827911Y-89123318D01*
X105877118Y-89231064D01*
X105961951Y-89328968D01*
X106070931Y-89399005D01*
X106194438Y-89435269D01*
X106195225Y-89435500D01*
X106195227Y-89435501D01*
X106195228Y-89435501D01*
X106324771Y-89435501D01*
X106324772Y-89435501D01*
X106325562Y-89435268D01*
X106326387Y-89435268D01*
X106333552Y-89434239D01*
X106333700Y-89435268D01*
X106395430Y-89435267D01*
X106454210Y-89473039D01*
X106483237Y-89536593D01*
X106484500Y-89554245D01*
X106484500Y-89681753D01*
X106498515Y-89752211D01*
X106496637Y-89752584D01*
X106502490Y-89807015D01*
X106496811Y-89826353D01*
X106484500Y-89888248D01*
X106484500Y-90181753D01*
X106498515Y-90252211D01*
X106496637Y-90252584D01*
X106502489Y-90307021D01*
X106496812Y-90326357D01*
X106484501Y-90388248D01*
X106484501Y-90681753D01*
X106498516Y-90752210D01*
X106496638Y-90752583D01*
X106502489Y-90807021D01*
X106496809Y-90826364D01*
X106484500Y-90888248D01*
X106484500Y-91030667D01*
X106464815Y-91097706D01*
X106412011Y-91143461D01*
X106342853Y-91153405D01*
X106319282Y-91146938D01*
X106256753Y-91134501D01*
X106256749Y-91134501D01*
X106222364Y-91134501D01*
X106155325Y-91114816D01*
X106109570Y-91062012D01*
X106099626Y-90992854D01*
X106115133Y-90885000D01*
X106096697Y-90756774D01*
X106042882Y-90638937D01*
X105958049Y-90541033D01*
X105849069Y-90470996D01*
X105849065Y-90470994D01*
X105849064Y-90470994D01*
X105724774Y-90434500D01*
X105724772Y-90434500D01*
X105595228Y-90434500D01*
X105595226Y-90434500D01*
X105470935Y-90470994D01*
X105470932Y-90470995D01*
X105470931Y-90470996D01*
X105419677Y-90503934D01*
X105361950Y-90541033D01*
X105277118Y-90638937D01*
X105277117Y-90638938D01*
X105223302Y-90756774D01*
X105204867Y-90885000D01*
X105223302Y-91013225D01*
X105277117Y-91131061D01*
X105281913Y-91138524D01*
X105279589Y-91140017D01*
X105302723Y-91190674D01*
X105295940Y-91244677D01*
X105296515Y-91244792D01*
X105294916Y-91252829D01*
X105294547Y-91255769D01*
X105294132Y-91256769D01*
X105282500Y-91315248D01*
X105282500Y-92029753D01*
X105294132Y-92088232D01*
X105296333Y-92093545D01*
X105303803Y-92163014D01*
X105272529Y-92225493D01*
X105212441Y-92261147D01*
X105181773Y-92264999D01*
X105038225Y-92264999D01*
X104971186Y-92245314D01*
X104925431Y-92192510D01*
X104915487Y-92123352D01*
X104923667Y-92093539D01*
X104925862Y-92088237D01*
X104925866Y-92088232D01*
X104937499Y-92029749D01*
X104937499Y-91315253D01*
X104937499Y-91315250D01*
X104937498Y-91315248D01*
X104925867Y-91256771D01*
X104925866Y-91256770D01*
X104881551Y-91190448D01*
X104815229Y-91146133D01*
X104815228Y-91146132D01*
X104756751Y-91134501D01*
X104756747Y-91134501D01*
X104463251Y-91134501D01*
X104463246Y-91134501D01*
X104392789Y-91148516D01*
X104392445Y-91146788D01*
X104337478Y-91152696D01*
X104275000Y-91121418D01*
X104239350Y-91061327D01*
X104235500Y-91030667D01*
X104235500Y-90888250D01*
X104235499Y-90888248D01*
X104221485Y-90817791D01*
X104223362Y-90817417D01*
X104217508Y-90762987D01*
X104223186Y-90743652D01*
X104235498Y-90681753D01*
X104235499Y-90681751D01*
X104235499Y-90388250D01*
X104235498Y-90388248D01*
X104221484Y-90317791D01*
X104223362Y-90317417D01*
X104217508Y-90262993D01*
X104223187Y-90243652D01*
X104235499Y-90181753D01*
X104235500Y-90181751D01*
X104235500Y-89888250D01*
X104235499Y-89888248D01*
X104221485Y-89817791D01*
X104223362Y-89817417D01*
X104217510Y-89762987D01*
X104223188Y-89743648D01*
X104235499Y-89681753D01*
X104235500Y-89681751D01*
X104235500Y-89388250D01*
X104235499Y-89388248D01*
X104221485Y-89317791D01*
X104223362Y-89317417D01*
X104217510Y-89262987D01*
X104223188Y-89243648D01*
X104235499Y-89181753D01*
X104235500Y-89181751D01*
X104235500Y-88888250D01*
X104235499Y-88888248D01*
X104221485Y-88817791D01*
X104223362Y-88817417D01*
X104217510Y-88762987D01*
X104223188Y-88743648D01*
X104235499Y-88681753D01*
X104235500Y-88681751D01*
X104235500Y-88388250D01*
X104235499Y-88388248D01*
X104221485Y-88317791D01*
X104223386Y-88317412D01*
X104217543Y-88263068D01*
X104248815Y-88200588D01*
X104308903Y-88164934D01*
X104378728Y-88167425D01*
X104406608Y-88180763D01*
X104429526Y-88195492D01*
X104429528Y-88195492D01*
X104429529Y-88195493D01*
X104553820Y-88231987D01*
X104553822Y-88231988D01*
X104553823Y-88231988D01*
X104683368Y-88231988D01*
X104683368Y-88231987D01*
X104807664Y-88195492D01*
X104916644Y-88125455D01*
X105001477Y-88027551D01*
X105055292Y-87909714D01*
X105073728Y-87781488D01*
X105055292Y-87653262D01*
X105035996Y-87611012D01*
X105026053Y-87541855D01*
X105055077Y-87478299D01*
X105113855Y-87440524D01*
X105148791Y-87435501D01*
X105256750Y-87435501D01*
X105256751Y-87435500D01*
X105271568Y-87432553D01*
X105315229Y-87423869D01*
X105315229Y-87423868D01*
X105315231Y-87423868D01*
X105381552Y-87379553D01*
X105425867Y-87313232D01*
X105425867Y-87313230D01*
X105425868Y-87313230D01*
X105437499Y-87254753D01*
X105437500Y-87254751D01*
X105437500Y-86540250D01*
X105437499Y-86540248D01*
X105425868Y-86481771D01*
X105423665Y-86476453D01*
X105416196Y-86406984D01*
X105447471Y-86344504D01*
X105507560Y-86308852D01*
X105538222Y-86305000D01*
X105681776Y-86305000D01*
X105748814Y-86324685D01*
G37*
%TD.AperFunction*%
%TD*%
%TA.AperFunction,Conductor*%
%TO.N,/Power/SW_5V0*%
G36*
X98581282Y-130522569D02*
G01*
X98667497Y-130533919D01*
X98698762Y-130542296D01*
X98771527Y-130572436D01*
X98799561Y-130588622D01*
X98862048Y-130636571D01*
X98884936Y-130659459D01*
X98932885Y-130721946D01*
X98949071Y-130749981D01*
X98979210Y-130822744D01*
X98987588Y-130854010D01*
X98998939Y-130940224D01*
X99000000Y-130956410D01*
X99000000Y-134106275D01*
X98998939Y-134122461D01*
X98985093Y-134227625D01*
X98976715Y-134258891D01*
X98948294Y-134327507D01*
X98904454Y-134381911D01*
X98888195Y-134391455D01*
X98847006Y-134411591D01*
X98847006Y-134411592D01*
X98764295Y-134494302D01*
X98712918Y-134599396D01*
X98711350Y-134610157D01*
X98700000Y-134621508D01*
X98700000Y-134828614D01*
X98700000Y-135667876D01*
X98697617Y-135692067D01*
X98678823Y-135786550D01*
X98660309Y-135831249D01*
X98613704Y-135900999D01*
X98579491Y-135935212D01*
X98509741Y-135981817D01*
X98465042Y-136000331D01*
X98370559Y-136019125D01*
X98346368Y-136021508D01*
X98153632Y-136021508D01*
X98129441Y-136019125D01*
X98034957Y-136000331D01*
X97990259Y-135981817D01*
X97920505Y-135935209D01*
X97886298Y-135901002D01*
X97839688Y-135831246D01*
X97821177Y-135786556D01*
X97808635Y-135723499D01*
X97806254Y-135699317D01*
X97806254Y-134771690D01*
X97806254Y-134771677D01*
X97805767Y-134757536D01*
X97804593Y-134740516D01*
X97804286Y-134736061D01*
X97803992Y-134727529D01*
X97803992Y-134667527D01*
X97800000Y-134640129D01*
X97800000Y-134621508D01*
X97796824Y-134618332D01*
X97794065Y-134599396D01*
X97772885Y-134556071D01*
X97742690Y-134494305D01*
X97742688Y-134494303D01*
X97742688Y-134494302D01*
X97659974Y-134411588D01*
X97546235Y-134355985D01*
X97547265Y-134353876D01*
X97509749Y-134331257D01*
X97352198Y-134173706D01*
X97341503Y-134161511D01*
X97276924Y-134077350D01*
X97260739Y-134049316D01*
X97223284Y-133958891D01*
X97214906Y-133927624D01*
X97201061Y-133822460D01*
X97200000Y-133806275D01*
X97200000Y-130956410D01*
X97201061Y-130940225D01*
X97212411Y-130854011D01*
X97220788Y-130822747D01*
X97250930Y-130749977D01*
X97267114Y-130721946D01*
X97315063Y-130659459D01*
X97337951Y-130636571D01*
X97400438Y-130588622D01*
X97428469Y-130572438D01*
X97501239Y-130542296D01*
X97532500Y-130533919D01*
X97618718Y-130522569D01*
X97634903Y-130521508D01*
X98565097Y-130521508D01*
X98581282Y-130522569D01*
G37*
%TD.AperFunction*%
%TD*%
%TA.AperFunction,Conductor*%
%TO.N,GND*%
G36*
X95565677Y-132894685D02*
G01*
X95586319Y-132911319D01*
X96413681Y-133738681D01*
X96447166Y-133800004D01*
X96450000Y-133826362D01*
X96450000Y-134227508D01*
X96430315Y-134294547D01*
X96377511Y-134340302D01*
X96326000Y-134351508D01*
X94174000Y-134351508D01*
X94106961Y-134331823D01*
X94061206Y-134279019D01*
X94050000Y-134227508D01*
X94050000Y-133926362D01*
X94069685Y-133859323D01*
X94086319Y-133838681D01*
X95013681Y-132911319D01*
X95075004Y-132877834D01*
X95101362Y-132875000D01*
X95498638Y-132875000D01*
X95565677Y-132894685D01*
G37*
%TD.AperFunction*%
%TD*%
M02*
