M48
; DRILL file {KiCad 8.0.8-8.0.8-0~ubuntu22.04.1} date 2025-02-26T01:07:32+0100
; FORMAT={-:-/ absolute / inch / decimal}
; #@! TF.CreationDate,2025-02-26T01:07:32+01:00
; #@! TF.GenerationSoftware,Kicad,Pcbnew,8.0.8-8.0.8-0~ubuntu22.04.1
; #@! TF.FileFunction,Plated,1,4,PTH
FMAT,2
INCH
; #@! TA.AperFunction,Plated,PTH,ViaDrill
T1C0.0118
; #@! TA.AperFunction,Plated,PTH,ComponentDrill
T2C0.0236
; #@! TA.AperFunction,Plated,PTH,ComponentDrill
T3C0.0315
; #@! TA.AperFunction,Plated,PTH,ComponentDrill
T4C0.0394
; #@! TA.AperFunction,Plated,PTH,ComponentDrill
T5C0.0512
; #@! TA.AperFunction,Plated,PTH,ComponentDrill
T6C0.0591
; #@! TA.AperFunction,Plated,PTH,ComponentDrill
T7C0.0669
%
G90
G05
T1
X0.3701Y3.2244
X0.3705Y3.0394
X0.5512Y3.1087
X0.5551Y3.152
X0.7386Y3.4059
X0.7687Y2.8568
X0.7701Y3.272
X0.7701Y3.1894
X0.7701Y3.1067
X0.7701Y3.024
X0.7701Y2.9413
X0.8189Y1.4252
X0.8252Y3.4059
X0.8504Y1.4252
X0.852Y2.8568
X0.8534Y3.272
X0.8534Y3.1894
X0.8534Y3.1067
X0.8534Y3.024
X0.8534Y2.9413
X0.8819Y1.4252
X0.9118Y2.7248
X0.9134Y1.4252
X0.9353Y2.8568
X0.9367Y3.272
X0.9367Y3.1894
X0.9367Y3.1067
X0.9367Y3.024
X0.9367Y2.9413
X0.9369Y3.5187
X0.937Y3.8661
X0.937Y3.8346
X0.937Y3.8031
X0.937Y3.7717
X0.937Y3.7402
X0.937Y3.7087
X0.937Y3.6772
X0.937Y3.6457
X0.937Y3.613
X0.937Y3.5827
X0.937Y3.5512
X0.937Y3.4882
X0.937Y3.4567
X0.937Y3.4252
X0.9449Y2.8189
X0.9606Y2.6098
X0.9842Y3.5187
X0.9843Y3.8661
X0.9843Y3.8346
X0.9843Y3.8031
X0.9843Y3.7717
X0.9843Y3.7402
X0.9843Y3.7087
X0.9843Y3.6772
X0.9843Y3.6457
X0.9843Y3.613
X0.9843Y3.5827
X0.9843Y3.5512
X0.9843Y3.4882
X0.9843Y3.4567
X0.9843Y3.4252
X1.0063Y2.5909
X1.0187Y2.8568
X1.0201Y3.272
X1.0201Y3.1894
X1.0201Y3.1067
X1.0201Y3.024
X1.0201Y2.9413
X1.0236Y2.8189
X1.0315Y3.8661
X1.0315Y3.8346
X1.0315Y3.8031
X1.0315Y3.7717
X1.0315Y3.7402
X1.0315Y3.7087
X1.0315Y3.6772
X1.0315Y3.6457
X1.0315Y3.613
X1.0315Y3.5827
X1.0315Y3.5512
X1.0709Y3.8661
X1.0709Y3.8346
X1.0709Y3.8031
X1.0709Y3.7717
X1.0709Y3.7402
X1.0709Y3.7087
X1.0709Y3.6772
X1.0709Y3.6457
X1.0709Y3.613
X1.0709Y3.5827
X1.0709Y3.5512
X1.0945Y3.4646
X1.0945Y3.4331
X1.102Y2.8568
X1.1024Y2.8189
X1.1034Y3.272
X1.1034Y3.1894
X1.1034Y3.1067
X1.1034Y3.024
X1.1034Y2.9413
X1.1102Y3.5512
X1.1181Y2.5197
X1.126Y3.4646
X1.126Y3.4331
X1.1283Y2.7248
X1.1496Y2.4764
X1.1575Y3.4331
X1.159Y3.4656
X1.1811Y2.8189
X1.185Y2.4528
X1.1853Y2.8568
X1.1867Y3.272
X1.1867Y3.1894
X1.1867Y3.1067
X1.1867Y3.024
X1.1867Y2.9413
X1.1878Y3.5535
X1.189Y3.4646
X1.189Y3.4331
X1.215Y3.4252
X1.2181Y3.5547
X1.2274Y2.6008
X1.253Y2.6008
X1.2687Y2.8568
X1.2701Y3.272
X1.2701Y3.1894
X1.2701Y3.1067
X1.2701Y3.024
X1.2701Y2.9413
X1.3016Y3.4252
X1.3016Y2.7248
X1.307Y3.5187
X1.3071Y3.5512
X1.3071Y3.4882
X1.3071Y3.4567
X1.3464Y3.5187
X1.3465Y3.5512
X1.3465Y3.4882
X1.3465Y3.4567
X1.3465Y3.4252
X1.3587Y3.1925
X1.3697Y3.0201
X1.3717Y3.0642
X1.3779Y3.5187
X1.378Y3.5512
X1.378Y3.4882
X1.378Y3.4567
X1.378Y3.4252
X1.4094Y3.5187
X1.4094Y3.5512
X1.4094Y3.4882
X1.4094Y3.4567
X1.4094Y3.4252
X1.4409Y3.5187
X1.4409Y3.8661
X1.4409Y3.8346
X1.4409Y3.8031
X1.4409Y3.7717
X1.4409Y3.7402
X1.4409Y3.7087
X1.4409Y3.6772
X1.4409Y3.6457
X1.4409Y3.613
X1.4409Y3.5827
X1.4409Y3.5512
X1.4409Y3.4882
X1.4409Y3.4567
X1.4409Y3.4252
X1.4724Y3.5187
X1.4724Y3.8661
X1.4724Y3.8346
X1.4724Y3.8031
X1.4724Y3.7717
X1.4724Y3.7402
X1.4724Y3.7087
X1.4724Y3.6772
X1.4724Y3.6457
X1.4724Y3.613
X1.4724Y3.5827
X1.4724Y3.5512
X1.4724Y3.4882
X1.4724Y3.4567
X1.4724Y3.4252
X1.4724Y2.8488
X1.4803Y2.9354
X1.4906Y3.2287
X1.5384Y2.8055
X1.5433Y2.8921
X1.5504Y3.1146
X1.5535Y3.15
X1.5535Y3.0791
X1.5575Y3.0201
X2.1685Y0.4965
X2.1686Y0.6269
X2.1882Y0.6461
X2.198Y0.4965
X2.202Y0.8921
X2.202Y0.8449
X2.202Y0.7976
X2.202Y0.7504
X2.202Y0.7031
X2.2049Y0.6264
X2.2277Y0.4969
X2.2492Y0.8921
X2.2965Y0.8921
X2.302Y1.5724
X2.3437Y0.8921
X2.3688Y3.716
X2.3712Y3.6811
X2.3712Y3.6457
X2.3811Y0.6541
X2.3811Y0.6285
X2.3811Y0.6029
X2.3909Y0.8921
X2.4051Y2.4685
X2.4051Y2.3976
X2.4051Y2.3661
X2.4067Y2.4346
X2.4382Y0.8921
X2.4539Y1.1598
X2.4746Y1.1195
X2.4766Y1.6116
X2.4766Y1.5722
X2.4854Y0.8921
X2.4984Y2.372
X2.4992Y1.2559
X2.5179Y1.0585
X2.5278Y1.7642
X2.5278Y1.7297
X2.5327Y0.8921
X2.5327Y0.8449
X2.5327Y0.7976
X2.5327Y0.7504
X2.5327Y0.7031
X2.5573Y1.0585
X2.5688Y2.5001
X2.5783Y2.4606
X2.5783Y2.4173
X2.5799Y0.8921
X2.5902Y2.6614
X2.5917Y1.7012
X2.6059Y2.4606
X2.6059Y2.4173
X2.6075Y1.0181
X2.6098Y2.378
X2.6217Y2.6614
X2.6252Y1.7642
X2.6252Y1.7287
X2.6272Y0.8921
X2.6281Y0.589
X2.6281Y0.5614
X2.6281Y0.5102
X2.6281Y0.4827
X2.6315Y2.565
X2.6335Y2.4528
X2.6459Y1.0978
X2.6537Y0.589
X2.6537Y0.5614
X2.6537Y0.5102
X2.6537Y0.4827
X2.6689Y2.6969
X2.6744Y0.8921
X2.7098Y1.8518
X2.7181Y2.565
X2.7181Y2.3957
X2.7217Y0.8921
X2.7276Y0.5909
X2.7283Y1.9528
X2.7384Y1.7159
X2.7689Y1.937
X2.7689Y0.8921
X2.7756Y0.7387
X2.8012Y0.7387
X2.8075Y1.937
X2.8161Y0.8921
X2.8268Y0.7387
X2.8321Y1.4616
X2.8427Y1.6106
X2.8543Y1.9488
X2.8634Y0.8921
X2.878Y1.4596
X2.8801Y1.7819
X2.885Y3.5004
X2.8913Y1.3748
X2.8919Y1.7484
X2.9106Y0.8921
X2.9205Y3.4787
X2.9268Y1.4157
X2.9313Y1.7484
X2.9323Y0.585
X2.9323Y0.5594
X2.9323Y0.5358
X2.9559Y3.5004
X2.9579Y0.8921
X2.9638Y0.7789
X2.9744Y1.3175
X2.9795Y0.5772
X2.9894Y0.5201
X2.9913Y3.4787
X2.9913Y0.8134
X2.9913Y0.7789
X2.9943Y0.6707
X2.9996Y1.4366
X3.0002Y1.7415
X3.0098Y1.2449
X3.0159Y1.6116
X3.0179Y0.7789
X3.0268Y3.5004
X3.0287Y0.7031
X3.0301Y1.2278
X3.0339Y1.3248
X3.0396Y1.7415
X3.0432Y1.3759
X3.0435Y1.6116
X3.0494Y1.7819
X3.0579Y1.3969
X3.0622Y3.5004
X3.0665Y1.336
X3.0681Y1.7189
X3.0681Y0.7031
X3.0839Y1.2169
X3.0898Y1.7386
X3.0909Y1.5004
X3.0953Y1.4693
X3.0976Y3.4787
X3.1026Y0.6707
X3.1105Y1.7181
X3.1173Y1.2376
X3.1252Y0.9827
X3.1291Y3.6067
X3.139Y0.6697
X3.1512Y3.5224
X3.1596Y1.0506
X3.1596Y1.0112
X3.1606Y0.5772
X3.1705Y0.5201
X3.1754Y0.6707
X3.1976Y1.7882
X3.1976Y1.7528
X3.2098Y0.7031
X3.2146Y2.4213
X3.2159Y0.96
X3.2266Y1.4157
X3.2276Y1.0771
X3.2276Y1.0377
X3.2482Y1.6116
X3.2482Y1.5722
X3.2492Y1.2299
X3.2492Y0.7031
X3.261Y1.4177
X3.2618Y2.3661
X3.262Y1.65
X3.2657Y2.4213
X3.2837Y0.6707
X3.2894Y2.3661
X3.2933Y2.311
X3.2965Y1.4177
X3.3004Y0.5772
X3.3043Y3.6835
X3.3142Y1.022
X3.3169Y2.3661
X3.3177Y0.613
X3.3319Y1.4167
X3.3358Y0.6311
X3.3457Y3.5457
X3.3457Y3.5142
X3.3484Y2.2953
X3.3594Y1.2248
X3.3693Y1.4364
X3.385Y3.5457
X3.385Y3.5142
X3.3988Y1.4059
X3.4136Y1.4502
X3.4146Y1.2514
X3.4185Y0.5614
X3.4254Y1.65
X3.4382Y1.4059
X3.4461Y1.4866
X3.448Y1.7543
X3.4598Y0.65
X3.4598Y0.6087
X3.4657Y1.0368
X3.4854Y1.1697
X3.4854Y0.4866
X3.5031Y0.65
X3.5031Y0.6087
X3.5238Y1.0476
X3.5376Y1.274
X3.5524Y0.5772
X3.5602Y0.6913
X3.5642Y1.0364
X3.572Y1.274
X3.5809Y0.8508
X3.5819Y1.0673
X3.5947Y1.1854
X3.6114Y0.6205
X3.6114Y0.585
X3.6134Y1.4236
X3.6134Y1.3803
X3.6213Y1.2996
X3.6213Y1.0102
X3.6232Y0.8783
X3.639Y1.776
X3.6429Y0.6835
X3.6449Y1.3587
X3.6449Y0.4669
X3.6488Y0.6106
X3.6547Y1.5575
X3.6547Y1.4787
X3.6606Y1.2996
X3.6606Y1.0102
X3.6744Y0.7524
X3.6823Y1.3587
X3.698Y1.6106
X3.698Y1.1205
X3.7197Y0.5791
X3.7197Y0.4866
X3.7236Y1.6283
X3.7236Y1.2741
X3.7236Y1.2347
X3.7276Y0.7346
X3.7295Y0.6992
X3.7315Y0.9098
X3.7315Y0.8744
X3.7374Y0.6106
X3.7583Y0.3598
X3.8102Y0.4866
T3
X2.3114Y3.8075
X2.3756Y3.8075
X2.4441Y3.8075
X2.5083Y3.8075
T4
X0.4185Y0.4091
X0.4185Y0.3091
X0.4185Y0.2091
X0.5185Y0.4091
X0.5185Y0.3091
X0.5185Y0.2091
X0.6185Y0.4091
X0.6185Y0.3091
X0.6185Y0.2091
X0.7185Y0.4091
X0.7185Y0.3091
X0.7185Y0.2091
X0.8185Y0.4091
X0.8185Y0.3091
X0.8185Y0.2091
X0.9185Y0.4091
X0.9185Y0.3091
X0.9185Y0.2091
X1.0185Y0.4091
X1.0185Y0.3091
X1.0185Y0.2091
X1.1185Y0.4091
X1.1185Y0.3091
X1.1185Y0.2091
X1.2185Y0.4091
X1.2185Y0.3091
X1.2185Y0.2091
X1.3185Y0.4091
X1.3185Y0.3091
X1.3185Y0.2091
X1.4185Y0.4091
X1.4185Y0.3091
X1.4185Y0.2091
X1.5185Y0.4091
X1.5185Y0.3091
X1.5185Y0.2091
X1.6185Y0.4091
X1.6185Y0.3091
X1.6185Y0.2091
X1.7185Y0.4091
X1.7185Y0.3091
X1.7185Y0.2091
X1.8185Y0.4091
X1.8185Y0.3091
X1.8185Y0.2091
X1.9185Y0.4091
X1.9185Y0.3091
X1.9185Y0.2091
X2.0185Y0.4091
X2.0185Y0.3091
X2.0185Y0.2091
X2.1185Y0.4091
X2.1185Y0.3091
X2.1185Y0.2091
X2.2185Y0.4091
X2.2185Y0.3091
X2.2185Y0.2091
X2.3185Y0.4091
X2.3185Y0.3091
X2.3185Y0.2091
X2.4185Y0.4091
X2.4185Y0.3091
X2.4185Y0.2091
X2.5185Y0.4091
X2.5185Y0.3091
X2.5185Y0.2091
X2.6185Y0.4091
X2.6185Y0.3091
X2.6185Y0.2091
X2.6572Y3.7598
X2.6572Y3.6598
X2.7185Y0.4091
X2.7185Y0.3091
X2.7185Y0.2091
X2.7572Y3.7598
X2.7572Y3.6598
X2.8185Y0.4091
X2.8185Y0.3091
X2.8185Y0.2091
X2.856Y3.7598
X2.856Y3.6598
X2.9185Y0.4091
X2.9185Y0.3091
X2.9185Y0.2091
X2.956Y3.7598
X2.956Y3.6598
X3.0185Y0.4091
X3.0185Y0.3091
X3.0185Y0.2091
X3.1185Y0.4091
X3.1185Y0.3091
X3.1185Y0.2091
X3.2185Y0.4091
X3.2185Y0.3091
X3.2185Y0.2091
X3.3185Y0.4091
X3.3185Y0.3091
X3.3185Y0.2091
X3.4185Y0.4091
X3.4185Y0.3091
X3.4185Y0.2091
X3.5185Y0.4091
X3.5185Y0.3091
X3.5185Y0.2091
T5
X2.272Y3.7189
X2.5476Y3.7189
T6
X1.2598Y3.7579
T7
X1.1598Y3.8579
X1.1598Y3.6579
X1.3598Y3.8579
X1.3598Y3.6579
T2
G00X3.085Y3.8159
M15
G01X3.085Y3.8474
M16
G05
G00X3.085Y3.6455
M15
G01X3.085Y3.6888
M16
G05
G00X3.4252Y3.8159
M15
G01X3.4252Y3.8474
M16
G05
G00X3.4252Y3.6455
M15
G01X3.4252Y3.6888
M16
G05
M30
