%TF.GenerationSoftware,KiCad,Pcbnew,8.0.8-8.0.8-0~ubuntu22.04.1*%
%TF.CreationDate,2025-02-26T01:07:31+01:00*%
%TF.ProjectId,nav-module,6e61762d-6d6f-4647-956c-652e6b696361,1.0.0*%
%TF.SameCoordinates,Original*%
%TF.FileFunction,Copper,L4,Bot*%
%TF.FilePolarity,Positive*%
%FSLAX46Y46*%
G04 Gerber Fmt 4.6, Leading zero omitted, Abs format (unit mm)*
G04 Created by KiCad (PCBNEW 8.0.8-8.0.8-0~ubuntu22.04.1) date 2025-02-26 01:07:31*
%MOMM*%
%LPD*%
G01*
G04 APERTURE LIST*
G04 Aperture macros list*
%AMRoundRect*
0 Rectangle with rounded corners*
0 $1 Rounding radius*
0 $2 $3 $4 $5 $6 $7 $8 $9 X,Y pos of 4 corners*
0 Add a 4 corners polygon primitive as box body*
4,1,4,$2,$3,$4,$5,$6,$7,$8,$9,$2,$3,0*
0 Add four circle primitives for the rounded corners*
1,1,$1+$1,$2,$3*
1,1,$1+$1,$4,$5*
1,1,$1+$1,$6,$7*
1,1,$1+$1,$8,$9*
0 Add four rect primitives between the rounded corners*
20,1,$1+$1,$2,$3,$4,$5,0*
20,1,$1+$1,$4,$5,$6,$7,0*
20,1,$1+$1,$6,$7,$8,$9,0*
20,1,$1+$1,$8,$9,$2,$3,0*%
G04 Aperture macros list end*
%TA.AperFunction,ComponentPad*%
%ADD10RoundRect,0.200100X-0.949900X-0.949900X0.949900X-0.949900X0.949900X0.949900X-0.949900X0.949900X0*%
%TD*%
%TA.AperFunction,ComponentPad*%
%ADD11C,2.500000*%
%TD*%
%TA.AperFunction,ComponentPad*%
%ADD12C,1.600000*%
%TD*%
%TA.AperFunction,ComponentPad*%
%ADD13O,1.000000X1.800000*%
%TD*%
%TA.AperFunction,ComponentPad*%
%ADD14O,1.000000X2.100000*%
%TD*%
%TA.AperFunction,ComponentPad*%
%ADD15C,1.550000*%
%TD*%
%TA.AperFunction,ComponentPad*%
%ADD16RoundRect,0.249999X0.525001X0.525001X-0.525001X0.525001X-0.525001X-0.525001X0.525001X-0.525001X0*%
%TD*%
%TA.AperFunction,ComponentPad*%
%ADD17C,2.286000*%
%TD*%
%TA.AperFunction,ComponentPad*%
%ADD18C,1.300000*%
%TD*%
%TA.AperFunction,SMDPad,CuDef*%
%ADD19C,1.000000*%
%TD*%
%TA.AperFunction,ViaPad*%
%ADD20C,0.500000*%
%TD*%
%TA.AperFunction,Conductor*%
%ADD21C,0.150000*%
%TD*%
%TA.AperFunction,Conductor*%
%ADD22C,0.300000*%
%TD*%
%TA.AperFunction,Conductor*%
%ADD23C,0.200000*%
%TD*%
%TA.AperFunction,Conductor*%
%ADD24C,0.100000*%
%TD*%
%TA.AperFunction,Conductor*%
%ADD25C,0.180000*%
%TD*%
G04 APERTURE END LIST*
D10*
%TO.P,J1100,1,In*%
%TO.N,/GPS-RTK/RF_IN*%
X32000000Y95450000D03*
D11*
%TO.P,J1100,2,Ext*%
%TO.N,GND*%
X29460000Y97990000D03*
X29460000Y92910000D03*
X34540000Y97990000D03*
X34540000Y92910000D03*
%TD*%
D12*
%TO.P,LED300,1*%
%TO.N,Net-(LED300-Pad1)*%
X67493600Y95500001D03*
%TO.P,LED300,2*%
%TO.N,GND*%
X70033600Y95500001D03*
%TO.P,LED300,3*%
%TO.N,Net-(LED300-Pad3)*%
X67493600Y92960001D03*
%TO.P,LED300,4*%
%TO.N,GND*%
X70033600Y92960001D03*
%TD*%
D13*
%TO.P,J800,S1,SHIELD*%
%TO.N,Net-(J800-SHIELD)*%
X78360000Y97325001D03*
D14*
X78360000Y93145001D03*
D13*
X87000000Y97325001D03*
D14*
X87000000Y93145001D03*
%TD*%
D15*
%TO.P,J200,c32,c32*%
%TO.N,GND*%
X10630000Y10390001D03*
%TO.P,J200,c31,c31*%
%TO.N,/Backplane/GPIOR15*%
X13170000Y10390001D03*
%TO.P,J200,c30,c30*%
%TO.N,/Backplane/GPIOR14*%
X15710000Y10390001D03*
%TO.P,J200,c29,c29*%
%TO.N,/Backplane/GPIOR13*%
X18250000Y10390001D03*
%TO.P,J200,c28,c28*%
%TO.N,/Backplane/GPIOR12*%
X20790000Y10390001D03*
%TO.P,J200,c27,c27*%
%TO.N,/Backplane/GPIOR11*%
X23330000Y10390001D03*
%TO.P,J200,c26,c26*%
%TO.N,/Backplane/GPIOR10*%
X25870000Y10390001D03*
%TO.P,J200,c25,c25*%
%TO.N,/Backplane/GPIOR9*%
X28410000Y10390001D03*
%TO.P,J200,c24,c24*%
%TO.N,/Backplane/GPIOR8*%
X30950000Y10390001D03*
%TO.P,J200,c23,c23*%
%TO.N,/Backplane/GPIOR7*%
X33490000Y10390001D03*
%TO.P,J200,c22,c22*%
%TO.N,/Backplane/GPIOR6*%
X36030000Y10390001D03*
%TO.P,J200,c21,c21*%
%TO.N,/Backplane/GPIOR5*%
X38570000Y10390001D03*
%TO.P,J200,c20,c20*%
%TO.N,/Backplane/GPIOR4*%
X41110000Y10390001D03*
%TO.P,J200,c19,c19*%
%TO.N,/Backplane/GPIOR3*%
X43650000Y10390001D03*
%TO.P,J200,c18,c18*%
%TO.N,/Backplane/GPIOR2*%
X46190000Y10390001D03*
%TO.P,J200,c17,c17*%
%TO.N,/Backplane/GPIOR1*%
X48730000Y10390001D03*
%TO.P,J200,c16,c16*%
%TO.N,/Backplane/GPIOR0*%
X51270000Y10390001D03*
%TO.P,J200,c15,c15*%
%TO.N,GND*%
X53810000Y10390001D03*
%TO.P,J200,c14,c14*%
%TO.N,+24V*%
X56350000Y10390001D03*
%TO.P,J200,c13,c13*%
%TO.N,GND*%
X58890000Y10390001D03*
%TO.P,J200,c12,c12*%
%TO.N,+12V*%
X61430000Y10390001D03*
%TO.P,J200,c11,c11*%
X63970000Y10390001D03*
%TO.P,J200,c10,c10*%
%TO.N,GND*%
X66510000Y10390001D03*
%TO.P,J200,c9,c9*%
%TO.N,/Backplane/CAN2.-*%
X69050000Y10390001D03*
%TO.P,J200,c8,c8*%
%TO.N,/Backplane/CAN2.+*%
X71590000Y10390001D03*
%TO.P,J200,c7,c7*%
%TO.N,GND*%
X74130000Y10390001D03*
%TO.P,J200,c6,c6*%
%TO.N,/Backplane/CAN1.-*%
X76670000Y10390001D03*
%TO.P,J200,c5,c5*%
%TO.N,/Backplane/CAN1.+*%
X79210000Y10390001D03*
%TO.P,J200,c4,c4*%
%TO.N,GND*%
X81750000Y10390001D03*
%TO.P,J200,c3,c3*%
%TO.N,+5V_STDBY*%
X84290000Y10390001D03*
%TO.P,J200,c2,c2*%
%TO.N,/Backplane/BACKPLANE.D-*%
X86830000Y10390001D03*
%TO.P,J200,c1,c1*%
%TO.N,GND*%
X89370000Y10390001D03*
%TO.P,J200,b32,b32*%
X10630000Y7850001D03*
%TO.P,J200,b31,b31*%
%TO.N,/Backplane/GPIOC15*%
X13170000Y7850001D03*
%TO.P,J200,b30,b30*%
%TO.N,/Backplane/GPIOC14*%
X15710000Y7850001D03*
%TO.P,J200,b29,b29*%
%TO.N,/Backplane/GPIOC13*%
X18250000Y7850001D03*
%TO.P,J200,b28,b28*%
%TO.N,/Backplane/GPIOC12*%
X20790000Y7850001D03*
%TO.P,J200,b27,b27*%
%TO.N,/Backplane/GPIOC11*%
X23330000Y7850001D03*
%TO.P,J200,b26,b26*%
%TO.N,/Backplane/GPIOC10*%
X25870000Y7850001D03*
%TO.P,J200,b25,b25*%
%TO.N,/Backplane/GPIOC9*%
X28410000Y7850001D03*
%TO.P,J200,b24,b24*%
%TO.N,/Backplane/GPIOC8*%
X30950000Y7850001D03*
%TO.P,J200,b23,b23*%
%TO.N,/Backplane/GPIOC7*%
X33490000Y7850001D03*
%TO.P,J200,b22,b22*%
%TO.N,/Backplane/GPIOC6*%
X36030000Y7850001D03*
%TO.P,J200,b21,b21*%
%TO.N,/Backplane/GPIOC5*%
X38570000Y7850001D03*
%TO.P,J200,b20,b20*%
%TO.N,/Backplane/GPIOC4*%
X41110000Y7850001D03*
%TO.P,J200,b19,b19*%
%TO.N,/Backplane/GPIOC3*%
X43650000Y7850001D03*
%TO.P,J200,b18,b18*%
%TO.N,/Backplane/GPIOC2*%
X46190000Y7850001D03*
%TO.P,J200,b17,b17*%
%TO.N,/Backplane/GPIOC1*%
X48730000Y7850001D03*
%TO.P,J200,b16,b16*%
%TO.N,/Backplane/GPIOC0*%
X51270000Y7850001D03*
%TO.P,J200,b15,b15*%
%TO.N,GND*%
X53810000Y7850001D03*
%TO.P,J200,b14,b14*%
%TO.N,+24V*%
X56350000Y7850001D03*
%TO.P,J200,b13,b13*%
%TO.N,GND*%
X58890000Y7850001D03*
%TO.P,J200,b12,b12*%
%TO.N,+12V*%
X61430000Y7850001D03*
%TO.P,J200,b11,b11*%
X63970000Y7850001D03*
%TO.P,J200,b10,b10*%
%TO.N,GND*%
X66510000Y7850001D03*
%TO.P,J200,b9,b9*%
%TO.N,/Backplane/CAN2.-*%
X69050000Y7850001D03*
%TO.P,J200,b8,b8*%
%TO.N,/Backplane/CAN2.+*%
X71590000Y7850001D03*
%TO.P,J200,b7,b7*%
%TO.N,GND*%
X74130000Y7850001D03*
%TO.P,J200,b6,b6*%
%TO.N,/Backplane/CAN1.-*%
X76670000Y7850001D03*
%TO.P,J200,b5,b5*%
%TO.N,/Backplane/CAN1.+*%
X79210000Y7850001D03*
%TO.P,J200,b4,b4*%
%TO.N,GND*%
X81750000Y7850001D03*
%TO.P,J200,b3,b3*%
%TO.N,+5V_STDBY*%
X84290000Y7850001D03*
%TO.P,J200,b2,b2*%
%TO.N,GND*%
X86830000Y7850001D03*
%TO.P,J200,b1,b1*%
X89370000Y7850001D03*
%TO.P,J200,a32,a32*%
X10630000Y5310001D03*
%TO.P,J200,a31,a31*%
%TO.N,/Backplane/GPIOL15*%
X13170000Y5310001D03*
%TO.P,J200,a30,a30*%
%TO.N,/Backplane/GPIOL14*%
X15710000Y5310001D03*
%TO.P,J200,a29,a29*%
%TO.N,/Backplane/GPIOL13*%
X18250000Y5310001D03*
%TO.P,J200,a28,a28*%
%TO.N,/Backplane/GPIOL12*%
X20790000Y5310001D03*
%TO.P,J200,a27,a27*%
%TO.N,/Backplane/GPIOL11*%
X23330000Y5310001D03*
%TO.P,J200,a26,a26*%
%TO.N,/Backplane/GPIOL10*%
X25870000Y5310001D03*
%TO.P,J200,a25,a25*%
%TO.N,/Backplane/GPIOL9*%
X28410000Y5310001D03*
%TO.P,J200,a24,a24*%
%TO.N,/Backplane/GPIOL8*%
X30950000Y5310001D03*
%TO.P,J200,a23,a23*%
%TO.N,/Backplane/GPIOL7*%
X33490000Y5310001D03*
%TO.P,J200,a22,a22*%
%TO.N,/Backplane/GPIOL6*%
X36030000Y5310001D03*
%TO.P,J200,a21,a21*%
%TO.N,/Backplane/GPIOL5*%
X38570000Y5310001D03*
%TO.P,J200,a20,a20*%
%TO.N,/Backplane/GPIOL4*%
X41110000Y5310001D03*
%TO.P,J200,a19,a19*%
%TO.N,/Backplane/GPIOL3*%
X43650000Y5310001D03*
%TO.P,J200,a18,a18*%
%TO.N,/Backplane/GPIOL2*%
X46190000Y5310001D03*
%TO.P,J200,a17,a17*%
%TO.N,/Backplane/GPIOL1*%
X48730000Y5310001D03*
%TO.P,J200,a16,a16*%
%TO.N,/Backplane/GPIOL0*%
X51270000Y5310001D03*
%TO.P,J200,a15,a15*%
%TO.N,GND*%
X53810000Y5310001D03*
%TO.P,J200,a14,a14*%
%TO.N,+24V*%
X56350000Y5310001D03*
%TO.P,J200,a13,a13*%
%TO.N,GND*%
X58890000Y5310001D03*
%TO.P,J200,a12,a12*%
%TO.N,+12V*%
X61430000Y5310001D03*
%TO.P,J200,a11,a11*%
X63970000Y5310001D03*
%TO.P,J200,a10,a10*%
%TO.N,GND*%
X66510000Y5310001D03*
%TO.P,J200,a9,a9*%
%TO.N,/Backplane/CAN2.-*%
X69050000Y5310001D03*
%TO.P,J200,a8,a8*%
%TO.N,/Backplane/CAN2.+*%
X71590000Y5310001D03*
%TO.P,J200,a7,a7*%
%TO.N,GND*%
X74130000Y5310001D03*
%TO.P,J200,a6,a6*%
%TO.N,/Backplane/CAN1.-*%
X76670000Y5310001D03*
%TO.P,J200,a5,a5*%
%TO.N,/Backplane/CAN1.+*%
X79210000Y5310001D03*
%TO.P,J200,a4,a4*%
%TO.N,GND*%
X81750000Y5310001D03*
%TO.P,J200,a3,a3*%
%TO.N,+5V_STDBY*%
X84290000Y5310001D03*
%TO.P,J200,a2,a2*%
%TO.N,/Backplane/BACKPLANE.D+*%
X86830000Y5310001D03*
D16*
%TO.P,J200,a1,a1*%
%TO.N,GND*%
X89370000Y5310001D03*
%TD*%
D17*
%TO.P,SW400,6*%
%TO.N,N/C*%
X57710000Y94460001D03*
%TO.P,SW400,5*%
X64710000Y94460001D03*
D18*
%TO.P,SW400,4*%
%TO.N,/MCU/USR_BUTTON*%
X58710000Y96710001D03*
%TO.P,SW400,3*%
%TO.N,/MCU/SWD.~{RST}*%
X60340000Y96710001D03*
%TO.P,SW400,2*%
%TO.N,GND*%
X62080000Y96710001D03*
%TO.P,SW400,1*%
X63710000Y96710001D03*
%TD*%
D12*
%TO.P,LED301,1*%
%TO.N,Net-(LED301-Pad1)*%
X72543600Y95500001D03*
%TO.P,LED301,2*%
%TO.N,GND*%
X75083600Y95500001D03*
%TO.P,LED301,3*%
%TO.N,Net-(LED301-Pad3)*%
X72543600Y92960001D03*
%TO.P,LED301,4*%
%TO.N,GND*%
X75083600Y92960001D03*
%TD*%
D19*
%TO.P,TP704,1,1*%
%TO.N,/ST-LINK/DIO*%
X87730000Y28310001D03*
%TD*%
%TO.P,TP706,1,1*%
%TO.N,GND*%
X92530000Y28310001D03*
%TD*%
%TO.P,TP703,1,1*%
%TO.N,/ST-LINK/STLINK-BOOT0*%
X90130000Y30710000D03*
%TD*%
%TO.P,TP702,1,1*%
%TO.N,+3V3*%
X87730000Y30700000D03*
%TD*%
%TO.P,TP705,1,1*%
%TO.N,/ST-LINK/CLK*%
X90130000Y28310001D03*
%TD*%
D20*
%TO.N,GND*%
X85050000Y58300000D03*
%TO.N,+3V3*%
X84250000Y60100000D03*
X83550000Y60100000D03*
X82850000Y60100000D03*
%TO.N,GND*%
X82950000Y61500000D03*
X83650000Y58700000D03*
%TO.N,+3V3*%
X75930000Y13210001D03*
X39460001Y78210000D03*
X60228400Y92600000D03*
X91980000Y25660001D03*
X81955000Y35960001D03*
X65790000Y67599999D03*
X66190000Y62499999D03*
X64955000Y26885001D03*
X81220000Y44520001D03*
X72499999Y49500000D03*
X75980000Y19785001D03*
X92680000Y15510001D03*
X92430000Y45110001D03*
X92030000Y22310001D03*
X94580000Y32362501D03*
X75280000Y19785001D03*
X75980000Y20660001D03*
X62905000Y39935001D03*
X81980000Y26357501D03*
X65490000Y61399999D03*
X88530000Y29710001D03*
X82505000Y40935001D03*
X65830000Y43210001D03*
X66190001Y61400000D03*
X86330000Y35710001D03*
X91980000Y33010001D03*
X84630000Y35985001D03*
X26000000Y71600000D03*
X82855000Y41910001D03*
X76205000Y44235001D03*
X62330000Y29460001D03*
X24000000Y71600000D03*
X30000000Y71600000D03*
X65490000Y62500000D03*
X28000000Y71600000D03*
X80530000Y13210001D03*
X30100000Y62300000D03*
X39560000Y76710000D03*
X76655000Y19785001D03*
X73455000Y44410001D03*
X80255000Y26685001D03*
X75080000Y88910001D03*
X69300000Y49600000D03*
X61090000Y60900000D03*
%TO.N,GND*%
X66680000Y43910001D03*
X26200000Y91770318D03*
X36600000Y94200000D03*
X30143330Y76810000D03*
X69555000Y43585001D03*
X27800000Y88000000D03*
X60228400Y93500000D03*
X25909998Y74710000D03*
X55930000Y20260001D03*
X35000000Y88600000D03*
X64330000Y22660001D03*
X66680000Y44810001D03*
X37398430Y89374479D03*
X24998430Y89374479D03*
X21641143Y72562846D03*
X90530000Y26323785D03*
X34200000Y90200000D03*
X21676666Y76810000D03*
X88980000Y16510001D03*
X65530000Y22660001D03*
X23800000Y94200000D03*
X29200000Y62900000D03*
X23160000Y69210000D03*
X70500720Y18763459D03*
X27200000Y91000000D03*
X36600000Y87000000D03*
X30143330Y81010000D03*
X95460000Y9140000D03*
X61090000Y60100000D03*
X87880000Y16510001D03*
X9400000Y81900000D03*
X21676666Y74710000D03*
X76880000Y88910001D03*
X55930000Y17860001D03*
X34200000Y87000000D03*
X30200000Y88000000D03*
X92980000Y25660001D03*
X26200000Y95000000D03*
X74480000Y14860001D03*
X35798430Y89374479D03*
X35800000Y87800000D03*
X20960000Y86510000D03*
X70330000Y22660001D03*
X23800000Y92600000D03*
X66890000Y62300000D03*
X57130000Y22660001D03*
X28600000Y88000000D03*
X37400000Y98200000D03*
X35000000Y87800000D03*
X90955000Y21610001D03*
X25909998Y78910000D03*
X66730000Y22660001D03*
X71150720Y18763459D03*
X37400000Y95800000D03*
X27991141Y72562846D03*
X36600000Y87800000D03*
X25000000Y87000000D03*
X25909998Y76810000D03*
X69280000Y15010001D03*
X32260000Y78910000D03*
X33198430Y89374479D03*
X66290000Y60400001D03*
X63480000Y31900000D03*
X73930000Y22660001D03*
X37400000Y92600000D03*
X19560000Y81010000D03*
X23800000Y97400000D03*
X36600000Y88600000D03*
X36600000Y95000000D03*
X64330000Y19060001D03*
X37400000Y87800000D03*
X36600000Y93400000D03*
X58330000Y22660001D03*
X23800000Y91770318D03*
X69040002Y60850001D03*
X28400000Y64000000D03*
X30143330Y83109999D03*
X75680000Y14660001D03*
X25000000Y96600000D03*
X81980000Y27357501D03*
X64205000Y44810001D03*
X28660000Y69210000D03*
X36600000Y90200000D03*
X32224477Y72562846D03*
X27200000Y91770318D03*
X77455000Y45260001D03*
X80255000Y25685001D03*
X68830000Y47035001D03*
X25000000Y92600000D03*
X22400000Y36200000D03*
X87005000Y41910001D03*
X35000000Y87000000D03*
X87530000Y37760001D03*
X91780000Y35060001D03*
X27200000Y95000000D03*
X73155000Y45260001D03*
X23793332Y81010000D03*
X28600000Y87200000D03*
X27200000Y93400000D03*
X58470000Y39940000D03*
X32260000Y83109999D03*
X23800000Y88600000D03*
X28200000Y90200000D03*
X34200000Y87800000D03*
X23798430Y89374479D03*
X37400000Y93400000D03*
X26200000Y92600000D03*
X74480000Y13610001D03*
X60730000Y22660001D03*
X55080000Y12610001D03*
X25000000Y95000000D03*
X26200000Y94200000D03*
X77205000Y44235001D03*
X88980000Y15460001D03*
X37400000Y87000000D03*
X25909998Y83109999D03*
X28026664Y81010000D03*
X26200000Y95800000D03*
X36600000Y92600000D03*
X37400000Y95000000D03*
X59530000Y22660001D03*
X79380000Y24960001D03*
X25000000Y91000000D03*
X94780000Y23110001D03*
X28026664Y74710000D03*
X23793332Y78910000D03*
X92530000Y17360001D03*
X87580000Y44560001D03*
X28026664Y76810000D03*
X30143330Y74710000D03*
X79730000Y17010001D03*
X35800000Y88600000D03*
X71800720Y18763459D03*
X36600000Y91000000D03*
X64205000Y43935001D03*
X27200000Y94200000D03*
X30200000Y87200000D03*
X37400000Y91770318D03*
X23200000Y36200000D03*
X64330000Y17860001D03*
X28026664Y78910000D03*
X35000000Y90200000D03*
X23800000Y87800000D03*
X82830000Y36010001D03*
X23800000Y91000000D03*
X64330000Y20260001D03*
X27200000Y92600000D03*
X37860000Y82010000D03*
X77780000Y88910001D03*
X91780000Y36160001D03*
X80040000Y89470000D03*
X30940000Y90290000D03*
X37400000Y91000000D03*
X93930000Y28460001D03*
X24400000Y66290000D03*
X78680000Y88360001D03*
X69130000Y22660001D03*
X29400000Y87200000D03*
X23800000Y98200000D03*
X94580000Y31362501D03*
X35800000Y90200000D03*
X29438824Y88025672D03*
X94730000Y17760001D03*
X94930000Y15510001D03*
X21676666Y78910000D03*
X37400000Y88600000D03*
X72730000Y22660001D03*
X19560000Y74710000D03*
X66590000Y67600000D03*
X67790001Y68500001D03*
X18760000Y86510000D03*
X25000000Y87800000D03*
X39460001Y80010000D03*
X26200000Y97400000D03*
X32260000Y81010000D03*
X36600000Y98200000D03*
X20800000Y36200000D03*
X23757809Y72562846D03*
X19560000Y76810000D03*
X23800000Y87000000D03*
X34198430Y89374479D03*
X25000000Y90200000D03*
X74455000Y44410001D03*
X32260000Y74710000D03*
X36598430Y89374479D03*
X34200000Y88600000D03*
X82530000Y17860001D03*
X26200000Y90200000D03*
X37400000Y96600000D03*
X25000000Y91770318D03*
X75130000Y22660001D03*
X25000000Y88600000D03*
X23800000Y95800000D03*
X26200000Y91000000D03*
X36600000Y96600000D03*
X34840000Y77830000D03*
X23793332Y76810000D03*
X30170000Y90260000D03*
X61090000Y62700000D03*
X23800000Y93400000D03*
X79480000Y91610001D03*
X32260000Y76810000D03*
X21600000Y36200000D03*
X63955000Y26885001D03*
X33200000Y90200000D03*
X30107807Y72562846D03*
X25560000Y65810000D03*
X25000000Y93400000D03*
X37400000Y94200000D03*
X37400000Y90200000D03*
X82505000Y39935001D03*
X69040001Y65149999D03*
X25000000Y98200000D03*
X77930000Y17860001D03*
X81220000Y45420001D03*
X90430000Y17560001D03*
X35800000Y87000000D03*
X56583492Y12621713D03*
X87880000Y15460001D03*
X25000000Y97400000D03*
X27200000Y95800000D03*
X91730000Y14860001D03*
X36600000Y91770318D03*
X21676666Y83109999D03*
X25000000Y94200000D03*
X71530000Y22660001D03*
X33200000Y87800000D03*
X9410000Y77200000D03*
X61930000Y22660001D03*
X30860000Y87000000D03*
X19524477Y72562846D03*
X33200000Y88600000D03*
X60480000Y16613493D03*
X65248595Y63503513D03*
X27800000Y87200000D03*
X63130000Y22660001D03*
X36600000Y95800000D03*
X27200000Y96600000D03*
X26200000Y93400000D03*
X55930000Y19060001D03*
X67930000Y22660001D03*
X55830000Y12610001D03*
X60480000Y15313493D03*
X23800000Y95000000D03*
X27200000Y97400000D03*
X55930000Y21460001D03*
X23800000Y96600000D03*
X96780000Y12360001D03*
X62855000Y28435001D03*
X26200000Y96600000D03*
X87330000Y35710001D03*
X25000000Y95800000D03*
X62905000Y40935001D03*
X83830000Y14660001D03*
X27200000Y98200000D03*
X25909998Y81010000D03*
X66840001Y65149999D03*
X30143330Y78910000D03*
X33060000Y69210000D03*
X92580000Y11860001D03*
X33060000Y87000000D03*
X74480000Y14210001D03*
X23793332Y74710000D03*
X85980000Y89260001D03*
X85980000Y90060001D03*
X23800000Y90200000D03*
X36600000Y97400000D03*
X84180000Y25960001D03*
X27200000Y90200000D03*
X93330000Y19110001D03*
X21676666Y81010000D03*
X23793332Y83109999D03*
X60480000Y15963493D03*
X83730000Y36010001D03*
X28026664Y83109999D03*
X26200000Y98200000D03*
X64330000Y21460001D03*
X37400000Y97400000D03*
X55930000Y22660001D03*
X25874475Y72562846D03*
X34998430Y89374479D03*
X19560000Y78910000D03*
X92980000Y33010001D03*
X19560000Y83109999D03*
X80280000Y14660001D03*
%TO.N,+5V*%
X66755000Y14260001D03*
X94780000Y22210001D03*
X76930000Y17860001D03*
X67405000Y14960001D03*
X93930000Y40910001D03*
X91730000Y15760000D03*
X67405000Y14260001D03*
X86830000Y14260001D03*
X66755000Y14960001D03*
X81530000Y17860001D03*
%TO.N,/ST-LINK/LED*%
X85580000Y36485001D03*
X88030000Y26335001D03*
%TO.N,/ST-LINK/STLINK-BOOT0*%
X91305000Y30110001D03*
%TO.N,/ST-LINK/DIO*%
X89505000Y26610001D03*
%TO.N,/ST-LINK/CLK*%
X90980000Y27110001D03*
%TO.N,+12V_FUSED*%
X55081270Y15923942D03*
X94580000Y41360001D03*
X66755000Y12260001D03*
X66755000Y12960001D03*
X67405000Y12960001D03*
X56005000Y15910001D03*
X67405000Y12260001D03*
X55580000Y16410001D03*
%TO.N,/ST-LINK/STLINK_RX*%
X86730000Y31785001D03*
X92830000Y37560001D03*
%TO.N,/USB/VBUS_IN*%
X84980000Y90060001D03*
X94680000Y18660001D03*
%TO.N,/ST-LINK/STLINK_TX*%
X92830000Y39560001D03*
X86705000Y36835001D03*
%TO.N,/MCU/USR_BUTTON*%
X76605000Y40935001D03*
X60168600Y94385799D03*
%TO.N,/MCU/SWD.~{RST}*%
X72205001Y40910001D03*
X82530000Y31240001D03*
X79007238Y43640001D03*
%TO.N,Net-(U302-PGANG)*%
X90230000Y14660001D03*
X88530000Y12360001D03*
%TO.N,Net-(U700-PA5)*%
X85330000Y31110001D03*
X81684124Y24384124D03*
%TO.N,Net-(U700-PC13)*%
X90730000Y32360001D03*
X93530000Y34510001D03*
%TO.N,Net-(U700-PC14)*%
X89855000Y32360001D03*
X92580000Y34510001D03*
%TO.N,/CAN transceiver 1/CAN.TX*%
X83405000Y17035001D03*
X79180000Y31435001D03*
%TO.N,/CAN transceiver 1/CAN.RX*%
X78330000Y30910001D03*
X80655000Y17035001D03*
%TO.N,/CAN transceiver 2/CAN.TX*%
X78805000Y17035001D03*
X67205000Y27885001D03*
%TO.N,/CAN transceiver 2/CAN.RX*%
X66230000Y25860001D03*
X76055000Y17035001D03*
%TO.N,/USB/CC1*%
X83930000Y93560001D03*
X84980000Y89260001D03*
%TO.N,Net-(U801-~{OE})*%
X94480000Y14710001D03*
X94480000Y12360001D03*
%TO.N,/MCU/USER_LED_1*%
X74180000Y88360001D03*
X78480000Y44160001D03*
%TO.N,/MCU/USER_LED_2*%
X77930000Y43660001D03*
X73280000Y88910001D03*
%TO.N,/MCU/STATUS_LED*%
X75980000Y88360001D03*
X77305000Y40935001D03*
%TO.N,/USB-hub/USB_GPS_.D+*%
X31825000Y66060074D03*
X84729810Y16029810D03*
%TO.N,/USB-hub/USB_GPS_.D-*%
X84270190Y15570190D03*
X31175000Y66060074D03*
%TO.N,/GPS-RTK/GPS_SPI.CLK*%
X37600000Y74559999D03*
X77670000Y35480000D03*
%TO.N,/GPS-RTK/GPS_SPI.CS*%
X76190000Y36490000D03*
X39200000Y73459999D03*
%TO.N,/GPS-RTK/GPS_NRESET*%
X39380000Y79110000D03*
X77890000Y33935001D03*
%TO.N,/IMU/IMU_NRESET*%
X61130000Y61840000D03*
X71934124Y37124124D03*
%TO.N,/GPS-RTK/GPS_EXINTERUPT*%
X34510000Y81090000D03*
X75550000Y33465000D03*
%TO.N,/GPS-RTK/GPS_MODE_SELECT*%
X77060000Y33650000D03*
X34790000Y76710000D03*
%TO.N,/GPS-RTK/GPS_SPI.MISO*%
X74340000Y35960000D03*
X39075000Y71259999D03*
%TO.N,/GPS-RTK/GPS_GEOFENCE_STAT*%
X14100000Y80059998D03*
X76965000Y31185000D03*
%TO.N,/GPS-RTK/GPS_RTK_STAT*%
X76450000Y31620000D03*
X14000000Y78959999D03*
%TO.N,/Barometr/BAROMETR_I2C.SDA*%
X71310000Y49200000D03*
X78510000Y38110000D03*
%TO.N,/Barometr/BAROMETR_I2C.SCL*%
X78620000Y37320000D03*
X70330000Y49200000D03*
%TO.N,/IMU/IMU_EXINTERUPT*%
X63460000Y60250000D03*
X73100000Y37075000D03*
%TO.N,/GPS-RTK/GPS_SPI.MOSI*%
X77297248Y34947497D03*
X37400000Y72359999D03*
X73440000Y34920000D03*
%TO.N,GND*%
X81650000Y61500000D03*
%TD*%
D21*
%TO.N,/Barometr/BAROMETR_I2C.SDA*%
X74136625Y38180000D02*
X78440000Y38180000D01*
X71310000Y49200000D02*
X71310000Y41006625D01*
X71310000Y41006625D02*
X74136625Y38180000D01*
X78440000Y38180000D02*
X78510000Y38110000D01*
%TO.N,/Barometr/BAROMETR_I2C.SCL*%
X70330000Y49200000D02*
X70330000Y40692500D01*
X70330000Y40692500D02*
X73652500Y37370000D01*
X73652500Y37370000D02*
X78570000Y37370000D01*
X78570000Y37370000D02*
X78620000Y37320000D01*
D22*
%TO.N,+3V3*%
X87730000Y30510001D02*
X87730000Y30700000D01*
X88530000Y29710001D02*
X87730000Y30510001D01*
%TO.N,GND*%
X92530000Y28310001D02*
X92680000Y28460001D01*
X92680000Y28460001D02*
X93930000Y28460001D01*
D21*
%TO.N,+5V*%
X93930000Y40910001D02*
X95280000Y39560001D01*
X95280000Y39560001D02*
X95280000Y22710001D01*
X95280000Y22710001D02*
X94780000Y22210001D01*
%TO.N,/ST-LINK/LED*%
X85580000Y35160001D02*
X86080000Y34660001D01*
X86080000Y28285001D02*
X88030000Y26335001D01*
X85580000Y36485001D02*
X85580000Y35160001D01*
X86080000Y34660001D02*
X86080000Y28285001D01*
D23*
%TO.N,/ST-LINK/STLINK-BOOT0*%
X90705001Y30710000D02*
X91305000Y30110001D01*
X90130000Y30710000D02*
X90705001Y30710000D01*
D21*
%TO.N,/ST-LINK/DIO*%
X87805000Y28310001D02*
X87730000Y28310001D01*
X89505000Y26610001D02*
X87805000Y28310001D01*
D23*
%TO.N,/ST-LINK/CLK*%
X90130000Y28310001D02*
X90130000Y27960001D01*
X90130000Y27960001D02*
X90980000Y27110001D01*
D21*
%TO.N,+12V_FUSED*%
X88166541Y12051708D02*
X67613293Y12051708D01*
X94000000Y18930001D02*
X94000000Y17540001D01*
X95405000Y16135001D02*
X95405000Y15313249D01*
X94000000Y17540001D02*
X95405000Y16135001D01*
X95400000Y15308249D02*
X95400000Y12000000D01*
X95780000Y20710001D02*
X94000000Y18930001D01*
X66530000Y12260001D02*
X66755000Y12260001D01*
X95400000Y12000000D02*
X94785001Y11385001D01*
X88893459Y12051708D02*
X88726752Y11885001D01*
X88726752Y11885001D02*
X88333248Y11885001D01*
X94580000Y41360001D02*
X95780000Y40160001D01*
X95405000Y15313249D02*
X95400000Y15308249D01*
X95780000Y40160001D02*
X95780000Y20710001D01*
X88333248Y11885001D02*
X88166541Y12051708D01*
X90814999Y11385001D02*
X90148292Y12051708D01*
X94785001Y11385001D02*
X90814999Y11385001D01*
X90148292Y12051708D02*
X88893459Y12051708D01*
X67613293Y12051708D02*
X67405000Y12260001D01*
%TO.N,/ST-LINK/STLINK_RX*%
X91855000Y37560001D02*
X86730000Y32435001D01*
X86730000Y32435001D02*
X86730000Y31785001D01*
X92830000Y37560001D02*
X91855000Y37560001D01*
%TO.N,/USB/VBUS_IN*%
X85667500Y90747501D02*
X84980000Y90060001D01*
X94105000Y89435001D02*
X87630000Y89435001D01*
X96280000Y20260001D02*
X96280000Y87260001D01*
X94680000Y18660001D02*
X96280000Y20260001D01*
X96280000Y87260001D02*
X94105000Y89435001D01*
X86317500Y90747501D02*
X85667500Y90747501D01*
X87630000Y89435001D02*
X86317500Y90747501D01*
%TO.N,/ST-LINK/STLINK_TX*%
X92830000Y39560001D02*
X92680000Y39560001D01*
X89955000Y36835001D02*
X86705000Y36835001D01*
X92680000Y39560001D02*
X89955000Y36835001D01*
%TO.N,/MCU/USR_BUTTON*%
X61000000Y91800000D02*
X61000000Y94200000D01*
X94955000Y86560001D02*
X93580000Y87935001D01*
X94955000Y43785001D02*
X94955000Y86560001D01*
X81780000Y90335001D02*
X77480000Y90335001D01*
D24*
X60168600Y95251401D02*
X58710000Y96710001D01*
D21*
X61000000Y94200000D02*
X60814201Y94385799D01*
D24*
X60168600Y94385799D02*
X60168600Y95251401D01*
D21*
X62039999Y90760001D02*
X61000000Y91800000D01*
X93580000Y87935001D02*
X84180000Y87935001D01*
X84180000Y87935001D02*
X81780000Y90335001D01*
X76605000Y40335001D02*
X77580000Y39360001D01*
X77480000Y90335001D02*
X77055000Y90760001D01*
X77580000Y39360001D02*
X90530000Y39360001D01*
X60814201Y94385799D02*
X60168600Y94385799D01*
X90530000Y39360001D02*
X94955000Y43785001D01*
X76605000Y40935001D02*
X76605000Y40335001D01*
X77055000Y90760001D02*
X62039999Y90760001D01*
%TO.N,/MCU/SWD.~{RST}*%
X93930000Y88560001D02*
X95555000Y86935001D01*
X60340000Y96710001D02*
X60340000Y96025001D01*
X77330000Y38660001D02*
X75730000Y40260001D01*
X65005000Y91360001D02*
X77330000Y91360001D01*
X77780000Y90910001D02*
X82005000Y90910001D01*
X81050000Y32720001D02*
X82530000Y31240001D01*
X75730000Y42460001D02*
X73755001Y42460001D01*
X84355000Y88560001D02*
X93930000Y88560001D01*
X78460001Y42460001D02*
X75730000Y42460001D01*
X60340000Y96025001D02*
X65005000Y91360001D01*
X95555000Y43560001D02*
X90655000Y38660001D01*
X90655000Y38660001D02*
X81050000Y38660001D01*
X77330000Y91360001D02*
X77780000Y90910001D01*
X75730000Y40260001D02*
X75730000Y42460001D01*
X79007238Y43007238D02*
X78460001Y42460001D01*
X79007238Y43640001D02*
X79007238Y43007238D01*
X81050000Y38660001D02*
X77330000Y38660001D01*
X82005000Y90910001D02*
X84355000Y88560001D01*
X73755001Y42460001D02*
X72205001Y40910001D01*
X95555000Y86935001D02*
X95555000Y43560001D01*
X81050000Y38660001D02*
X81050000Y32720001D01*
D24*
%TO.N,Net-(U302-PGANG)*%
X88530000Y12960001D02*
X90230000Y14660001D01*
X88530000Y12360001D02*
X88530000Y12960001D01*
D21*
%TO.N,Net-(U700-PA5)*%
X82684124Y24384124D02*
X83230000Y24930000D01*
X83230000Y29010001D02*
X85330000Y31110001D01*
X83230000Y24930000D02*
X83230000Y29010001D01*
X81684124Y24384124D02*
X82684124Y24384124D01*
%TO.N,Net-(U700-PC13)*%
X90730000Y32785001D02*
X90730000Y32360001D01*
X93530000Y34510001D02*
X92780000Y33760001D01*
X92780000Y33760001D02*
X91705000Y33760001D01*
X91705000Y33760001D02*
X90730000Y32785001D01*
%TO.N,Net-(U700-PC14)*%
X92430000Y34360001D02*
X91355736Y34360001D01*
X89855000Y32859265D02*
X89855000Y32360001D01*
X92580000Y34510001D02*
X92430000Y34360001D01*
X91355736Y34360001D02*
X89855000Y32859265D01*
%TO.N,/CAN transceiver 1/CAN.TX*%
X83405000Y18685001D02*
X83405000Y17035001D01*
X79180000Y26060001D02*
X78630000Y25510001D01*
X78630000Y23460001D02*
X83405000Y18685001D01*
X78630000Y25510001D02*
X78630000Y23460001D01*
X79180000Y31435001D02*
X79180000Y26060001D01*
%TO.N,/CAN transceiver 1/CAN.RX*%
X77780000Y26060001D02*
X77780000Y22960001D01*
X78330000Y26610001D02*
X77780000Y26060001D01*
X77780000Y22960001D02*
X80655000Y20085001D01*
X78330000Y30910001D02*
X78330000Y26610001D01*
X80655000Y20085001D02*
X80655000Y17035001D01*
%TO.N,/CAN transceiver 2/CAN.TX*%
X76880000Y23860001D02*
X75480000Y25260001D01*
X68730000Y25260001D02*
X67205000Y26785001D01*
X78805000Y17035001D02*
X78805000Y20585001D01*
X76880000Y22510001D02*
X76880000Y23860001D01*
X78805000Y20585001D02*
X76880000Y22510001D01*
X67205000Y26785001D02*
X67205000Y27885001D01*
X75480000Y25260001D02*
X68730000Y25260001D01*
%TO.N,/CAN transceiver 2/CAN.RX*%
X67680000Y24410001D02*
X66230000Y25860001D01*
X76055000Y18235001D02*
X77430000Y19610001D01*
X77430000Y19610001D02*
X77430000Y20610001D01*
X74880000Y24410001D02*
X67680000Y24410001D01*
X75980000Y22060001D02*
X75980000Y23310001D01*
X75980000Y23310001D02*
X74880000Y24410001D01*
X76055000Y17035001D02*
X76055000Y18235001D01*
X77430000Y20610001D02*
X75980000Y22060001D01*
%TO.N,/USB/CC1*%
X84480000Y89260001D02*
X83930000Y89810001D01*
X83930000Y89810001D02*
X83930000Y93560001D01*
X84980000Y89260001D02*
X84480000Y89260001D01*
%TO.N,Net-(U801-~{OE})*%
X94480000Y12360001D02*
X94480000Y14710001D01*
%TO.N,/MCU/USER_LED_1*%
X79380000Y44160001D02*
X78480000Y44160001D01*
X82130000Y41410001D02*
X79380000Y44160001D01*
X90180000Y40760001D02*
X83780000Y40760001D01*
X82379999Y87560001D02*
X83129999Y86810001D01*
X83130000Y41410001D02*
X82130000Y41410001D01*
X83129999Y86810001D02*
X92830000Y86810001D01*
X74180000Y88360001D02*
X74980000Y87560001D01*
X92830000Y86810001D02*
X93855000Y85785001D01*
X83780000Y40760001D02*
X83130000Y41410001D01*
X93855000Y44435001D02*
X90180000Y40760001D01*
X74980000Y87560001D02*
X82379999Y87560001D01*
X93855000Y85785001D02*
X93855000Y44435001D01*
%TO.N,/MCU/USER_LED_2*%
X73280000Y88185001D02*
X73280000Y88910001D01*
X82059999Y86860001D02*
X74605000Y86860001D01*
X82389999Y42610001D02*
X83130000Y42610001D01*
X80000000Y45000000D02*
X82389999Y42610001D01*
X83130000Y42610001D02*
X84305000Y41435001D01*
X93280000Y44685001D02*
X93280000Y85360001D01*
X77930000Y43660001D02*
X77930000Y44532501D01*
X84305000Y41435001D02*
X90030000Y41435001D01*
X92430000Y86210001D02*
X82709999Y86210001D01*
X82709999Y86210001D02*
X82059999Y86860001D01*
X90030000Y41435001D02*
X93280000Y44685001D01*
X93280000Y85360001D02*
X92430000Y86210001D01*
X77930000Y44532501D02*
X78397499Y45000000D01*
X78397499Y45000000D02*
X80000000Y45000000D01*
X74605000Y86860001D02*
X73280000Y88185001D01*
%TO.N,/MCU/STATUS_LED*%
X90330000Y40060001D02*
X83430000Y40060001D01*
X83705000Y87410001D02*
X93280000Y87410001D01*
X76430000Y89635001D02*
X78305000Y89635001D01*
X79000001Y88940000D02*
X82175001Y88940000D01*
X78305000Y89635001D02*
X79000001Y88940000D01*
X83055000Y40435001D02*
X77805000Y40435001D01*
X75980000Y89185001D02*
X76430000Y89635001D01*
X94430000Y86260001D02*
X94430000Y44160001D01*
X93280000Y87410001D02*
X94430000Y86260001D01*
X77805000Y40435001D02*
X77305000Y40935001D01*
X82175001Y88940000D02*
X83705000Y87410001D01*
X83430000Y40060001D02*
X83055000Y40435001D01*
X75980000Y88360001D02*
X75980000Y89185001D01*
X94430000Y44160001D02*
X90330000Y40060001D01*
D25*
%TO.N,/USB-hub/USB_GPS_.D+*%
X31700000Y54166690D02*
X31700000Y65935074D01*
X81100000Y22533346D02*
X81100000Y31400000D01*
X84729810Y16029810D02*
X84503536Y16029810D01*
X79650000Y32850000D02*
X53016690Y32850000D01*
X84503536Y16029810D02*
X84265000Y16268346D01*
X84265000Y16268346D02*
X84265000Y19368346D01*
X81100000Y31400000D02*
X79650000Y32850000D01*
X53016690Y32850000D02*
X31700000Y54166690D01*
X31700000Y65935074D02*
X31825000Y66060074D01*
X84265000Y19368346D02*
X81100000Y22533346D01*
%TO.N,/USB-hub/USB_GPS_.D-*%
X84270190Y15796464D02*
X83935000Y16131654D01*
X80770000Y22396654D02*
X80770000Y31263310D01*
X31300000Y54000000D02*
X31300000Y65935074D01*
X80770000Y31263310D02*
X79513310Y32520000D01*
X79513310Y32520000D02*
X52780000Y32520000D01*
X31300000Y65935074D02*
X31175000Y66060074D01*
X83935000Y16131654D02*
X83935000Y19231654D01*
X84270190Y15570190D02*
X84270190Y15796464D01*
X52780000Y32520000D02*
X31300000Y54000000D01*
X83935000Y19231654D02*
X80770000Y22396654D01*
D21*
%TO.N,/GPS-RTK/GPS_SPI.CLK*%
X77665000Y35485000D02*
X59895000Y35485000D01*
X38300000Y74200000D02*
X37940001Y74559999D01*
X77670000Y35480000D02*
X77665000Y35485000D01*
X38300000Y57080000D02*
X38300000Y74200000D01*
X37940001Y74559999D02*
X37600000Y74559999D01*
X59895000Y35485000D02*
X38300000Y57080000D01*
%TO.N,/GPS-RTK/GPS_SPI.CS*%
X76190000Y36490000D02*
X76180000Y36480000D01*
X61100000Y36480000D02*
X40030000Y57550000D01*
X40030000Y72630000D02*
X39200001Y73459999D01*
X39200001Y73459999D02*
X39200000Y73459999D01*
X40030000Y57550000D02*
X40030000Y72630000D01*
X76180000Y36480000D02*
X61100000Y36480000D01*
%TO.N,/GPS-RTK/GPS_NRESET*%
X35320000Y76490000D02*
X37940000Y79110000D01*
X77890000Y33935001D02*
X77585001Y34240000D01*
X35320000Y57098528D02*
X35320000Y76490000D01*
X77585001Y34240000D02*
X58178528Y34240000D01*
X58178528Y34240000D02*
X35320000Y57098528D01*
X37940000Y79110000D02*
X39380000Y79110000D01*
%TO.N,/IMU/IMU_NRESET*%
X62100000Y60870000D02*
X61130000Y61840000D01*
X71934124Y37155876D02*
X67350000Y41740000D01*
X71934124Y37124124D02*
X71934124Y37155876D01*
X67350000Y41740000D02*
X67350000Y53850000D01*
X67350000Y53850000D02*
X62100000Y59100000D01*
X62100000Y59100000D02*
X62100000Y60870000D01*
%TO.N,/GPS-RTK/GPS_EXINTERUPT*%
X56590000Y33640000D02*
X33630000Y56600000D01*
X75375000Y33640000D02*
X56590000Y33640000D01*
X75550000Y33465000D02*
X75375000Y33640000D01*
X33630000Y80210000D02*
X34510000Y81090000D01*
X33630000Y56600000D02*
X33630000Y80210000D01*
%TO.N,/GPS-RTK/GPS_MODE_SELECT*%
X34480000Y76400000D02*
X34790000Y76710000D01*
X34480000Y56850000D02*
X34480000Y76400000D01*
X76770000Y33940000D02*
X57390000Y33940000D01*
X77060000Y33650000D02*
X76770000Y33940000D01*
X57390000Y33940000D02*
X34480000Y56850000D01*
%TO.N,/GPS-RTK/GPS_SPI.MISO*%
X74340000Y35960000D02*
X60600000Y35960000D01*
X39240000Y71094999D02*
X39075000Y71259999D01*
X60600000Y35960000D02*
X39240000Y57320000D01*
X39240000Y57320000D02*
X39240000Y71094999D01*
%TO.N,/GPS-RTK/GPS_GEOFENCE_STAT*%
X13000000Y62188248D02*
X13000000Y79129999D01*
X13000000Y79129999D02*
X13929999Y80059998D01*
X76965000Y31185000D02*
X76250000Y30470000D01*
X76250000Y30470000D02*
X44718248Y30470000D01*
X44718248Y30470000D02*
X13000000Y62188248D01*
X13929999Y80059998D02*
X14100000Y80059998D01*
%TO.N,/GPS-RTK/GPS_RTK_STAT*%
X76255000Y31425000D02*
X76450000Y31620000D01*
X14000000Y63040000D02*
X45615000Y31425000D01*
X14000000Y78959999D02*
X14000000Y63040000D01*
X45615000Y31425000D02*
X76255000Y31425000D01*
%TO.N,/IMU/IMU_EXINTERUPT*%
X72655000Y37075000D02*
X68150000Y41580000D01*
X63460000Y59015000D02*
X63460000Y60250000D01*
X68150000Y41580000D02*
X68150000Y54050000D01*
X63475000Y58725000D02*
X63475000Y59000000D01*
X63475000Y59000000D02*
X63460000Y59015000D01*
X68150000Y54050000D02*
X63475000Y58725000D01*
X73100000Y37075000D02*
X72655000Y37075000D01*
%TO.N,/GPS-RTK/GPS_SPI.MOSI*%
X77264745Y34980000D02*
X77297248Y34947497D01*
X73410000Y34950000D02*
X59260000Y34950000D01*
X73500000Y34980000D02*
X77264745Y34980000D01*
X37440000Y72319999D02*
X37400000Y72359999D01*
X73440000Y34920000D02*
X73500000Y34980000D01*
X59260000Y34950000D02*
X37440000Y56770000D01*
X37440000Y56770000D02*
X37440000Y72319999D01*
X73440000Y34920000D02*
X73410000Y34950000D01*
%TD*%
%TA.AperFunction,Conductor*%
%TO.N,+12V_FUSED*%
G36*
X67421971Y13257620D02*
G01*
X67500618Y13241977D01*
X67545308Y13223466D01*
X67601626Y13185835D01*
X67635833Y13151628D01*
X67673462Y13095313D01*
X67691976Y13050614D01*
X67707617Y12971982D01*
X67710000Y12947791D01*
X67710000Y12272212D01*
X67707617Y12248021D01*
X67691976Y12169389D01*
X67673462Y12124690D01*
X67635836Y12068378D01*
X67601623Y12034165D01*
X67545311Y11996539D01*
X67500612Y11978025D01*
X67421980Y11962384D01*
X67397789Y11960001D01*
X66772211Y11960001D01*
X66748020Y11962384D01*
X66669387Y11978025D01*
X66624689Y11996539D01*
X66568373Y12034168D01*
X66534166Y12068375D01*
X66496535Y12124693D01*
X66478024Y12169383D01*
X66462381Y12248030D01*
X66460000Y12272212D01*
X66460000Y12947791D01*
X66462381Y12971972D01*
X66478025Y13050622D01*
X66496534Y13095308D01*
X66534168Y13151631D01*
X66568370Y13185833D01*
X66624693Y13223467D01*
X66669379Y13241976D01*
X66748028Y13257620D01*
X66772211Y13260001D01*
X67397789Y13260001D01*
X67421971Y13257620D01*
G37*
%TD.AperFunction*%
%TD*%
%TA.AperFunction,Conductor*%
%TO.N,+5V*%
G36*
X91775080Y22890316D02*
G01*
X91820835Y22837512D01*
X91830779Y22768354D01*
X91801754Y22704798D01*
X91775080Y22681685D01*
X91731950Y22653968D01*
X91647118Y22556064D01*
X91647117Y22556063D01*
X91593302Y22438227D01*
X91574867Y22310001D01*
X91593302Y22181776D01*
X91596800Y22174117D01*
X91647118Y22063938D01*
X91731951Y21966034D01*
X91840931Y21895997D01*
X91965225Y21859502D01*
X91965227Y21859501D01*
X91965228Y21859501D01*
X92094773Y21859501D01*
X92094773Y21859502D01*
X92219069Y21895997D01*
X92328049Y21966034D01*
X92412882Y22063938D01*
X92466697Y22181775D01*
X92485133Y22310001D01*
X92466697Y22438227D01*
X92412882Y22556064D01*
X92328049Y22653968D01*
X92284919Y22681686D01*
X92239165Y22734489D01*
X92229221Y22803648D01*
X92258246Y22867203D01*
X92317024Y22904978D01*
X92351959Y22910001D01*
X94300575Y22910001D01*
X94367614Y22890316D01*
X94394289Y22867203D01*
X94397117Y22863939D01*
X94397118Y22863938D01*
X94481951Y22766034D01*
X94590931Y22695997D01*
X94715225Y22659502D01*
X94715227Y22659501D01*
X94715228Y22659501D01*
X94844773Y22659501D01*
X94844773Y22659502D01*
X94923745Y22682689D01*
X94969063Y22695995D01*
X94969064Y22695996D01*
X94969069Y22695997D01*
X94969072Y22696000D01*
X94977016Y22699627D01*
X95046174Y22709574D01*
X95107196Y22682689D01*
X95108420Y22681685D01*
X95177666Y22624856D01*
X95194854Y22607668D01*
X95303722Y22475012D01*
X95317227Y22454800D01*
X95398121Y22303458D01*
X95407424Y22281000D01*
X95457240Y22116777D01*
X95461982Y22092936D01*
X95479403Y21916063D01*
X95480000Y21903909D01*
X95480000Y21330308D01*
X95479403Y21318154D01*
X95461982Y21141280D01*
X95457240Y21117439D01*
X95407424Y20953216D01*
X95398121Y20930758D01*
X95317227Y20779416D01*
X95303722Y20759204D01*
X95190969Y20621815D01*
X95182797Y20612799D01*
X94072897Y19502900D01*
X94072887Y19502889D01*
X93846634Y19276636D01*
X93823598Y19271409D01*
X93757919Y19295243D01*
X93718549Y19343655D01*
X93712882Y19356064D01*
X93628049Y19453968D01*
X93519069Y19524005D01*
X93519065Y19524007D01*
X93519064Y19524007D01*
X93394774Y19560501D01*
X93394772Y19560501D01*
X93265228Y19560501D01*
X93265226Y19560501D01*
X93140935Y19524007D01*
X93140932Y19524006D01*
X93140931Y19524005D01*
X93108091Y19502900D01*
X93031950Y19453968D01*
X92947118Y19356064D01*
X92947117Y19356063D01*
X92893302Y19238227D01*
X92874867Y19110001D01*
X92893302Y18981776D01*
X92934446Y18891685D01*
X92947118Y18863938D01*
X93031951Y18766034D01*
X93140931Y18695997D01*
X93265225Y18659502D01*
X93265227Y18659501D01*
X93265228Y18659501D01*
X93394773Y18659501D01*
X93394773Y18659502D01*
X93449081Y18675448D01*
X93519064Y18695995D01*
X93519065Y18695996D01*
X93519069Y18695997D01*
X93533463Y18705248D01*
X93600500Y18724931D01*
X93667540Y18705246D01*
X93713294Y18652442D01*
X93724500Y18600931D01*
X93724500Y17485201D01*
X93755856Y17409501D01*
X93757666Y17405133D01*
X93757665Y17405133D01*
X93770560Y17374003D01*
X93780000Y17326549D01*
X93780000Y13416094D01*
X93779403Y13403940D01*
X93761982Y13227067D01*
X93757240Y13203226D01*
X93707424Y13039003D01*
X93698121Y13016545D01*
X93617227Y12865203D01*
X93603722Y12844991D01*
X93494854Y12712335D01*
X93477666Y12695147D01*
X93345010Y12586279D01*
X93324798Y12572774D01*
X93173456Y12491880D01*
X93150998Y12482577D01*
X92986775Y12432761D01*
X92962934Y12428019D01*
X92786061Y12410598D01*
X92773907Y12410001D01*
X89082111Y12410001D01*
X89015072Y12429686D01*
X88969317Y12482489D01*
X88965028Y12491880D01*
X88912882Y12606064D01*
X88828049Y12703968D01*
X88828048Y12703969D01*
X88828047Y12703970D01*
X88823296Y12708087D01*
X88785523Y12766865D01*
X88780500Y12801799D01*
X88780500Y12804879D01*
X88800185Y12871918D01*
X88816814Y12892555D01*
X90097441Y14173183D01*
X90158764Y14206667D01*
X90185122Y14209501D01*
X90294773Y14209501D01*
X90294773Y14209502D01*
X90419069Y14245997D01*
X90528049Y14316034D01*
X90612882Y14413938D01*
X90666697Y14531775D01*
X90685133Y14660001D01*
X90666697Y14788227D01*
X90633919Y14860001D01*
X91274867Y14860001D01*
X91293302Y14731776D01*
X91303247Y14710001D01*
X91347118Y14613938D01*
X91400235Y14552637D01*
X91430811Y14517349D01*
X91431951Y14516034D01*
X91540931Y14445997D01*
X91650117Y14413938D01*
X91665225Y14409502D01*
X91665227Y14409501D01*
X91665228Y14409501D01*
X91794773Y14409501D01*
X91794773Y14409502D01*
X91919069Y14445997D01*
X92028049Y14516034D01*
X92112882Y14613938D01*
X92166697Y14731775D01*
X92185133Y14860001D01*
X92166697Y14988227D01*
X92156753Y15010001D01*
X92113407Y15104915D01*
X92111431Y15118655D01*
X92090085Y15132373D01*
X92028049Y15203968D01*
X91919069Y15274005D01*
X91919065Y15274007D01*
X91919064Y15274007D01*
X91794774Y15310501D01*
X91794772Y15310501D01*
X91665228Y15310501D01*
X91665226Y15310501D01*
X91540935Y15274007D01*
X91540932Y15274006D01*
X91540931Y15274005D01*
X91497944Y15246379D01*
X91431950Y15203968D01*
X91347118Y15106064D01*
X91347117Y15106063D01*
X91293302Y14988227D01*
X91274867Y14860001D01*
X90633919Y14860001D01*
X90612882Y14906064D01*
X90528049Y15003968D01*
X90419069Y15074005D01*
X90419065Y15074007D01*
X90419064Y15074007D01*
X90294774Y15110501D01*
X90294772Y15110501D01*
X90165228Y15110501D01*
X90165226Y15110501D01*
X90040935Y15074007D01*
X90040932Y15074006D01*
X90040931Y15074005D01*
X89997350Y15045997D01*
X89931950Y15003968D01*
X89847118Y14906064D01*
X89847117Y14906063D01*
X89793302Y14788227D01*
X89774867Y14660001D01*
X89774867Y14659999D01*
X89778713Y14633246D01*
X89768769Y14564088D01*
X89743656Y14527920D01*
X88388103Y13172365D01*
X88317637Y13101900D01*
X88317636Y13101899D01*
X88279500Y13009831D01*
X88279500Y12801799D01*
X88259815Y12734760D01*
X88236704Y12708087D01*
X88231952Y12703970D01*
X88147118Y12606064D01*
X88147117Y12606063D01*
X88138082Y12586279D01*
X88094972Y12491880D01*
X88090683Y12482489D01*
X88044928Y12429686D01*
X87977889Y12410001D01*
X68039500Y12410001D01*
X67972461Y12429686D01*
X67926706Y12482490D01*
X67915500Y12534001D01*
X67915500Y12947780D01*
X67915500Y12947791D01*
X67914510Y12967937D01*
X67912127Y12992128D01*
X67909168Y13012073D01*
X67893527Y13090705D01*
X67881835Y13129252D01*
X67881831Y13129261D01*
X67863323Y13173946D01*
X67863321Y13173951D01*
X67844328Y13209484D01*
X67806699Y13265799D01*
X67781143Y13296938D01*
X67746936Y13331145D01*
X67715797Y13356701D01*
X67715784Y13356710D01*
X67659497Y13394321D01*
X67659483Y13394329D01*
X67659479Y13394332D01*
X67654655Y13396911D01*
X67623960Y13413319D01*
X67623946Y13413325D01*
X67615693Y13416744D01*
X67579267Y13431832D01*
X67579264Y13431833D01*
X67579259Y13431835D01*
X67560532Y13437516D01*
X67540709Y13443529D01*
X67462062Y13459172D01*
X67442126Y13462129D01*
X67442094Y13462133D01*
X67417948Y13464510D01*
X67417917Y13464513D01*
X67407698Y13465015D01*
X67397789Y13465501D01*
X66772211Y13465501D01*
X66760704Y13464936D01*
X66752066Y13464512D01*
X66727909Y13462133D01*
X66727896Y13462132D01*
X66727892Y13462131D01*
X66727886Y13462131D01*
X66727861Y13462127D01*
X66707929Y13459171D01*
X66707921Y13459170D01*
X66629307Y13443533D01*
X66629295Y13443530D01*
X66590742Y13431835D01*
X66590734Y13431832D01*
X66551450Y13415561D01*
X66481980Y13408094D01*
X66419502Y13439370D01*
X66383851Y13499460D01*
X66380000Y13530123D01*
X66380000Y15010001D01*
X68824867Y15010001D01*
X68843302Y14881776D01*
X68853247Y14860001D01*
X68897118Y14763938D01*
X68981951Y14666034D01*
X69090931Y14595997D01*
X69199606Y14564088D01*
X69215225Y14559502D01*
X69215227Y14559501D01*
X69215228Y14559501D01*
X69344773Y14559501D01*
X69344773Y14559502D01*
X69469069Y14595997D01*
X69578049Y14666034D01*
X69662882Y14763938D01*
X69706753Y14860001D01*
X74024867Y14860001D01*
X74043302Y14731776D01*
X74097117Y14613940D01*
X74101913Y14606477D01*
X74100123Y14605327D01*
X74124180Y14552637D01*
X74114231Y14483480D01*
X74101554Y14463756D01*
X74101913Y14463525D01*
X74097117Y14456063D01*
X74043302Y14338227D01*
X74024867Y14210001D01*
X74043302Y14081776D01*
X74098225Y13961513D01*
X74108169Y13892354D01*
X74098225Y13858489D01*
X74043302Y13738227D01*
X74024867Y13610001D01*
X74043302Y13481776D01*
X74066111Y13431832D01*
X74097118Y13363938D01*
X74181951Y13266034D01*
X74290931Y13195997D01*
X74415225Y13159502D01*
X74415227Y13159501D01*
X74415228Y13159501D01*
X74544773Y13159501D01*
X74544773Y13159502D01*
X74669069Y13195997D01*
X74690860Y13210001D01*
X75474867Y13210001D01*
X75493302Y13081776D01*
X75534254Y12992105D01*
X75547118Y12963938D01*
X75620624Y12879106D01*
X75626852Y12871918D01*
X75631951Y12866034D01*
X75740931Y12795997D01*
X75840148Y12766865D01*
X75865225Y12759502D01*
X75865227Y12759501D01*
X75865228Y12759501D01*
X75994773Y12759501D01*
X75994773Y12759502D01*
X76119069Y12795997D01*
X76228049Y12866034D01*
X76312882Y12963938D01*
X76366697Y13081775D01*
X76385133Y13210001D01*
X80074867Y13210001D01*
X80093302Y13081776D01*
X80134254Y12992105D01*
X80147118Y12963938D01*
X80220624Y12879106D01*
X80226852Y12871918D01*
X80231951Y12866034D01*
X80340931Y12795997D01*
X80440148Y12766865D01*
X80465225Y12759502D01*
X80465227Y12759501D01*
X80465228Y12759501D01*
X80594773Y12759501D01*
X80594773Y12759502D01*
X80719069Y12795997D01*
X80828049Y12866034D01*
X80912882Y12963938D01*
X80966697Y13081775D01*
X80985133Y13210001D01*
X80966697Y13338227D01*
X80912882Y13456064D01*
X80828049Y13553968D01*
X80719069Y13624005D01*
X80719065Y13624007D01*
X80719064Y13624007D01*
X80594774Y13660501D01*
X80594772Y13660501D01*
X80465228Y13660501D01*
X80465226Y13660501D01*
X80340935Y13624007D01*
X80340932Y13624006D01*
X80340931Y13624005D01*
X80289677Y13591067D01*
X80231950Y13553968D01*
X80147118Y13456064D01*
X80147117Y13456063D01*
X80093302Y13338227D01*
X80074867Y13210001D01*
X76385133Y13210001D01*
X76366697Y13338227D01*
X76312882Y13456064D01*
X76228049Y13553968D01*
X76119069Y13624005D01*
X76119065Y13624007D01*
X76119064Y13624007D01*
X75994774Y13660501D01*
X75994772Y13660501D01*
X75865228Y13660501D01*
X75865226Y13660501D01*
X75740935Y13624007D01*
X75740932Y13624006D01*
X75740931Y13624005D01*
X75689677Y13591067D01*
X75631950Y13553968D01*
X75547118Y13456064D01*
X75547117Y13456063D01*
X75493302Y13338227D01*
X75474867Y13210001D01*
X74690860Y13210001D01*
X74778049Y13266034D01*
X74862882Y13363938D01*
X74916697Y13481775D01*
X74935133Y13610001D01*
X74916697Y13738227D01*
X74862882Y13856064D01*
X74862880Y13856066D01*
X74861774Y13858489D01*
X74851830Y13927647D01*
X74861774Y13961513D01*
X74862880Y13963937D01*
X74862882Y13963938D01*
X74916697Y14081775D01*
X74935133Y14210001D01*
X74916697Y14338227D01*
X74862882Y14456064D01*
X74862879Y14456067D01*
X74858087Y14463525D01*
X74859877Y14464676D01*
X74835821Y14517349D01*
X74845762Y14586508D01*
X74858446Y14606247D01*
X74858087Y14606477D01*
X74862877Y14613933D01*
X74862882Y14613938D01*
X74883919Y14660001D01*
X75224867Y14660001D01*
X75243302Y14531776D01*
X75274472Y14463525D01*
X75297118Y14413938D01*
X75381951Y14316034D01*
X75490931Y14245997D01*
X75615225Y14209502D01*
X75615227Y14209501D01*
X75615228Y14209501D01*
X75744773Y14209501D01*
X75744773Y14209502D01*
X75869069Y14245997D01*
X75978049Y14316034D01*
X76062882Y14413938D01*
X76116697Y14531775D01*
X76135133Y14660001D01*
X79824867Y14660001D01*
X79843302Y14531776D01*
X79874472Y14463525D01*
X79897118Y14413938D01*
X79981951Y14316034D01*
X80090931Y14245997D01*
X80215225Y14209502D01*
X80215227Y14209501D01*
X80215228Y14209501D01*
X80344773Y14209501D01*
X80344773Y14209502D01*
X80469069Y14245997D01*
X80578049Y14316034D01*
X80662882Y14413938D01*
X80716697Y14531775D01*
X80735133Y14660001D01*
X80716697Y14788227D01*
X80662882Y14906064D01*
X80578049Y15003968D01*
X80469069Y15074005D01*
X80469065Y15074007D01*
X80469064Y15074007D01*
X80344774Y15110501D01*
X80344772Y15110501D01*
X80215228Y15110501D01*
X80215226Y15110501D01*
X80090935Y15074007D01*
X80090932Y15074006D01*
X80090931Y15074005D01*
X80047350Y15045997D01*
X79981950Y15003968D01*
X79897118Y14906064D01*
X79897117Y14906063D01*
X79843302Y14788227D01*
X79824867Y14660001D01*
X76135133Y14660001D01*
X76116697Y14788227D01*
X76062882Y14906064D01*
X75978049Y15003968D01*
X75869069Y15074005D01*
X75869065Y15074007D01*
X75869064Y15074007D01*
X75744774Y15110501D01*
X75744772Y15110501D01*
X75615228Y15110501D01*
X75615226Y15110501D01*
X75490935Y15074007D01*
X75490932Y15074006D01*
X75490931Y15074005D01*
X75447350Y15045997D01*
X75381950Y15003968D01*
X75297118Y14906064D01*
X75297117Y14906063D01*
X75243302Y14788227D01*
X75224867Y14660001D01*
X74883919Y14660001D01*
X74916697Y14731775D01*
X74935133Y14860001D01*
X74916697Y14988227D01*
X74862882Y15106064D01*
X74778049Y15203968D01*
X74669069Y15274005D01*
X74669065Y15274007D01*
X74669064Y15274007D01*
X74544774Y15310501D01*
X74544772Y15310501D01*
X74415228Y15310501D01*
X74415226Y15310501D01*
X74290935Y15274007D01*
X74290932Y15274006D01*
X74290931Y15274005D01*
X74247944Y15246379D01*
X74181950Y15203968D01*
X74097118Y15106064D01*
X74097117Y15106063D01*
X74043302Y14988227D01*
X74024867Y14860001D01*
X69706753Y14860001D01*
X69716697Y14881775D01*
X69735133Y15010001D01*
X69716697Y15138227D01*
X69662882Y15256064D01*
X69578049Y15353968D01*
X69469069Y15424005D01*
X69469065Y15424007D01*
X69469064Y15424007D01*
X69344774Y15460501D01*
X69344772Y15460501D01*
X69215228Y15460501D01*
X69215226Y15460501D01*
X69090935Y15424007D01*
X69090932Y15424006D01*
X69090931Y15424005D01*
X69061947Y15405378D01*
X68981950Y15353968D01*
X68897118Y15256064D01*
X68897117Y15256063D01*
X68843302Y15138227D01*
X68824867Y15010001D01*
X66380000Y15010001D01*
X66380000Y17203909D01*
X66380597Y17216063D01*
X66391479Y17326549D01*
X66398018Y17392945D01*
X66402757Y17416769D01*
X66452577Y17581007D01*
X66461875Y17603452D01*
X66542775Y17754806D01*
X66556272Y17775006D01*
X66665149Y17907673D01*
X66682328Y17924852D01*
X66814995Y18033729D01*
X66835195Y18047226D01*
X66986549Y18128126D01*
X67008994Y18137424D01*
X67173232Y18187244D01*
X67197056Y18191983D01*
X67373939Y18209404D01*
X67386093Y18210001D01*
X75655500Y18210001D01*
X75722539Y18190316D01*
X75768294Y18137512D01*
X75779500Y18086001D01*
X75779500Y17451241D01*
X75759815Y17384202D01*
X75749214Y17370039D01*
X75672118Y17281064D01*
X75672117Y17281063D01*
X75618302Y17163227D01*
X75599867Y17035001D01*
X75618302Y16906776D01*
X75672117Y16788940D01*
X75672118Y16788938D01*
X75756951Y16691034D01*
X75865931Y16620997D01*
X75990225Y16584502D01*
X75990227Y16584501D01*
X75990228Y16584501D01*
X76119773Y16584501D01*
X76119773Y16584502D01*
X76244069Y16620997D01*
X76353049Y16691034D01*
X76437882Y16788938D01*
X76491697Y16906775D01*
X76510133Y17035001D01*
X76491697Y17163227D01*
X76437882Y17281064D01*
X76360786Y17370039D01*
X76331762Y17433595D01*
X76330500Y17451241D01*
X76330500Y18069524D01*
X76350185Y18136563D01*
X76366819Y18157205D01*
X76383296Y18173682D01*
X76444619Y18207167D01*
X76470977Y18210001D01*
X77401636Y18210001D01*
X77468675Y18190316D01*
X77514430Y18137512D01*
X77524374Y18068354D01*
X77514431Y18034490D01*
X77493302Y17988225D01*
X77474867Y17860001D01*
X77493302Y17731776D01*
X77530443Y17650450D01*
X77547118Y17613938D01*
X77631951Y17516034D01*
X77740931Y17445997D01*
X77865225Y17409502D01*
X77865227Y17409501D01*
X77865228Y17409501D01*
X77994773Y17409501D01*
X77994773Y17409502D01*
X78119069Y17445997D01*
X78228049Y17516034D01*
X78311787Y17612676D01*
X78370564Y17650449D01*
X78440433Y17650450D01*
X78499212Y17612676D01*
X78528238Y17549121D01*
X78529500Y17531472D01*
X78529500Y17451241D01*
X78509815Y17384202D01*
X78499214Y17370039D01*
X78422118Y17281064D01*
X78422117Y17281063D01*
X78368302Y17163227D01*
X78349867Y17035001D01*
X78368302Y16906776D01*
X78422117Y16788940D01*
X78422118Y16788938D01*
X78506951Y16691034D01*
X78615931Y16620997D01*
X78740225Y16584502D01*
X78740227Y16584501D01*
X78740228Y16584501D01*
X78869773Y16584501D01*
X78869773Y16584502D01*
X78994069Y16620997D01*
X79103049Y16691034D01*
X79162956Y16760173D01*
X79221731Y16797945D01*
X79291600Y16797947D01*
X79350380Y16760174D01*
X79431951Y16666034D01*
X79540931Y16595997D01*
X79580738Y16584309D01*
X79665225Y16559502D01*
X79665227Y16559501D01*
X79665228Y16559501D01*
X79794773Y16559501D01*
X79794773Y16559502D01*
X79919069Y16595997D01*
X80028049Y16666034D01*
X80109617Y16760171D01*
X80168395Y16797946D01*
X80238264Y16797947D01*
X80297042Y16760174D01*
X80356951Y16691034D01*
X80465931Y16620997D01*
X80590225Y16584502D01*
X80590227Y16584501D01*
X80590228Y16584501D01*
X80719773Y16584501D01*
X80719773Y16584502D01*
X80844069Y16620997D01*
X80953049Y16691034D01*
X81037882Y16788938D01*
X81091697Y16906775D01*
X81110133Y17035001D01*
X81091697Y17163227D01*
X81037882Y17281064D01*
X80960786Y17370039D01*
X80931762Y17433595D01*
X80930500Y17451241D01*
X80930500Y18086001D01*
X80950185Y18153040D01*
X81002989Y18198795D01*
X81054500Y18210001D01*
X82001636Y18210001D01*
X82068675Y18190316D01*
X82114430Y18137512D01*
X82124374Y18068354D01*
X82114431Y18034490D01*
X82093302Y17988225D01*
X82074867Y17860001D01*
X82093302Y17731776D01*
X82130443Y17650450D01*
X82147118Y17613938D01*
X82231951Y17516034D01*
X82340931Y17445997D01*
X82465225Y17409502D01*
X82465227Y17409501D01*
X82465228Y17409501D01*
X82594773Y17409501D01*
X82594773Y17409502D01*
X82719069Y17445997D01*
X82828049Y17516034D01*
X82911787Y17612676D01*
X82970564Y17650449D01*
X83040433Y17650450D01*
X83099212Y17612676D01*
X83128238Y17549121D01*
X83129500Y17531472D01*
X83129500Y17451241D01*
X83109815Y17384202D01*
X83099214Y17370039D01*
X83022118Y17281064D01*
X83022117Y17281063D01*
X82968302Y17163227D01*
X82949867Y17035001D01*
X82968302Y16906776D01*
X83022117Y16788940D01*
X83022118Y16788938D01*
X83106951Y16691034D01*
X83215931Y16620997D01*
X83340225Y16584502D01*
X83340227Y16584501D01*
X83340228Y16584501D01*
X83469772Y16584501D01*
X83485565Y16589138D01*
X83555435Y16589138D01*
X83614213Y16551364D01*
X83643238Y16487808D01*
X83644500Y16470161D01*
X83644500Y16093410D01*
X83664297Y16019524D01*
X83683419Y15986404D01*
X83702542Y15953283D01*
X83702544Y15953281D01*
X83811464Y15844361D01*
X83844949Y15783038D01*
X83839965Y15713346D01*
X83836587Y15705193D01*
X83833739Y15698957D01*
X83833492Y15698414D01*
X83833492Y15698412D01*
X83815057Y15570190D01*
X83833492Y15441965D01*
X83887307Y15324129D01*
X83887308Y15324127D01*
X83894606Y15315705D01*
X83923632Y15252149D01*
X83913689Y15182991D01*
X83867934Y15130186D01*
X83800895Y15110501D01*
X83765226Y15110501D01*
X83640935Y15074007D01*
X83640932Y15074006D01*
X83640931Y15074005D01*
X83597350Y15045997D01*
X83531950Y15003968D01*
X83447118Y14906064D01*
X83447117Y14906063D01*
X83393302Y14788227D01*
X83374867Y14660001D01*
X83393302Y14531776D01*
X83424472Y14463525D01*
X83447118Y14413938D01*
X83531951Y14316034D01*
X83640931Y14245997D01*
X83765225Y14209502D01*
X83765227Y14209501D01*
X83765228Y14209501D01*
X83894773Y14209501D01*
X83894773Y14209502D01*
X84019069Y14245997D01*
X84128049Y14316034D01*
X84212882Y14413938D01*
X84266697Y14531775D01*
X84285133Y14660001D01*
X84266697Y14788227D01*
X84212882Y14906064D01*
X84205583Y14914487D01*
X84176558Y14978042D01*
X84186501Y15047200D01*
X84232256Y15100005D01*
X84299295Y15119690D01*
X84334963Y15119690D01*
X84334963Y15119691D01*
X84459259Y15156186D01*
X84568239Y15226223D01*
X84653072Y15324127D01*
X84706887Y15441964D01*
X84712298Y15479601D01*
X84741322Y15543156D01*
X84800097Y15580930D01*
X84918879Y15615806D01*
X85027859Y15685843D01*
X85112692Y15783747D01*
X85166507Y15901584D01*
X85184943Y16029810D01*
X85166507Y16158036D01*
X85112692Y16275873D01*
X85027859Y16373777D01*
X84918879Y16443814D01*
X84918875Y16443816D01*
X84918874Y16443816D01*
X84794584Y16480310D01*
X84794582Y16480310D01*
X84679500Y16480310D01*
X84612461Y16499995D01*
X84603791Y16510001D01*
X87424867Y16510001D01*
X87443302Y16381776D01*
X87491667Y16275873D01*
X87497118Y16263938D01*
X87581951Y16166034D01*
X87690931Y16095997D01*
X87690933Y16095997D01*
X87698392Y16091203D01*
X87697036Y16089095D01*
X87739802Y16052033D01*
X87759482Y15984992D01*
X87739793Y15917954D01*
X87697037Y15880907D01*
X87698392Y15878799D01*
X87690933Y15874006D01*
X87690931Y15874005D01*
X87659753Y15853968D01*
X87581950Y15803968D01*
X87497118Y15706064D01*
X87497117Y15706063D01*
X87443302Y15588227D01*
X87424867Y15460001D01*
X87443302Y15331776D01*
X87497117Y15213940D01*
X87497118Y15213938D01*
X87581951Y15116034D01*
X87690931Y15045997D01*
X87815225Y15009502D01*
X87815227Y15009501D01*
X87815228Y15009501D01*
X87944773Y15009501D01*
X87944773Y15009502D01*
X88069069Y15045997D01*
X88178049Y15116034D01*
X88262882Y15213938D01*
X88316697Y15331775D01*
X88316697Y15331776D01*
X88317206Y15332890D01*
X88362961Y15385694D01*
X88430000Y15405378D01*
X88497040Y15385693D01*
X88542794Y15332890D01*
X88543302Y15331776D01*
X88543303Y15331775D01*
X88597118Y15213938D01*
X88681951Y15116034D01*
X88790931Y15045997D01*
X88915225Y15009502D01*
X88915227Y15009501D01*
X88915228Y15009501D01*
X89044773Y15009501D01*
X89044773Y15009502D01*
X89169069Y15045997D01*
X89278049Y15116034D01*
X89362882Y15213938D01*
X89416697Y15331775D01*
X89435133Y15460001D01*
X89427944Y15510001D01*
X92224867Y15510001D01*
X92243302Y15381775D01*
X92243303Y15381774D01*
X92296592Y15265087D01*
X92298567Y15251349D01*
X92319913Y15237631D01*
X92381951Y15166034D01*
X92490931Y15095997D01*
X92565824Y15074007D01*
X92615225Y15059502D01*
X92615227Y15059501D01*
X92615228Y15059501D01*
X92744773Y15059501D01*
X92744773Y15059502D01*
X92869069Y15095997D01*
X92978049Y15166034D01*
X93062882Y15263938D01*
X93116697Y15381775D01*
X93135133Y15510001D01*
X93116697Y15638227D01*
X93062882Y15756064D01*
X92978049Y15853968D01*
X92869069Y15924005D01*
X92869065Y15924007D01*
X92869064Y15924007D01*
X92744774Y15960501D01*
X92744772Y15960501D01*
X92615228Y15960501D01*
X92615226Y15960501D01*
X92490935Y15924007D01*
X92490932Y15924006D01*
X92490931Y15924005D01*
X92456045Y15901585D01*
X92381950Y15853968D01*
X92297118Y15756064D01*
X92297117Y15756063D01*
X92243302Y15638227D01*
X92224867Y15510001D01*
X89427944Y15510001D01*
X89416697Y15588227D01*
X89362882Y15706064D01*
X89278049Y15803968D01*
X89169069Y15874005D01*
X89169066Y15874006D01*
X89161608Y15878799D01*
X89162963Y15880909D01*
X89120203Y15917959D01*
X89100517Y15984998D01*
X89120200Y16052038D01*
X89162963Y16089095D01*
X89161608Y16091203D01*
X89169066Y16095997D01*
X89169069Y16095997D01*
X89278049Y16166034D01*
X89362882Y16263938D01*
X89416697Y16381775D01*
X89435133Y16510001D01*
X89416697Y16638227D01*
X89362882Y16756064D01*
X89278049Y16853968D01*
X89169069Y16924005D01*
X89169065Y16924007D01*
X89169064Y16924007D01*
X89044774Y16960501D01*
X89044772Y16960501D01*
X88915228Y16960501D01*
X88915226Y16960501D01*
X88790935Y16924007D01*
X88790932Y16924006D01*
X88790931Y16924005D01*
X88764121Y16906775D01*
X88681950Y16853968D01*
X88597118Y16756064D01*
X88597117Y16756063D01*
X88542794Y16637113D01*
X88497039Y16584309D01*
X88429999Y16564625D01*
X88362960Y16584310D01*
X88317206Y16637113D01*
X88298130Y16678882D01*
X88262882Y16756064D01*
X88178049Y16853968D01*
X88069069Y16924005D01*
X88069065Y16924007D01*
X88069064Y16924007D01*
X87944774Y16960501D01*
X87944772Y16960501D01*
X87815228Y16960501D01*
X87815226Y16960501D01*
X87690935Y16924007D01*
X87690932Y16924006D01*
X87690931Y16924005D01*
X87664121Y16906775D01*
X87581950Y16853968D01*
X87497118Y16756064D01*
X87497117Y16756063D01*
X87443302Y16638227D01*
X87424867Y16510001D01*
X84603791Y16510001D01*
X84566706Y16552799D01*
X84555500Y16604310D01*
X84555500Y17560001D01*
X89974867Y17560001D01*
X89993302Y17431776D01*
X90028837Y17353967D01*
X90047118Y17313938D01*
X90131951Y17216034D01*
X90240931Y17145997D01*
X90350117Y17113938D01*
X90365225Y17109502D01*
X90365227Y17109501D01*
X90365228Y17109501D01*
X90494773Y17109501D01*
X90494773Y17109502D01*
X90619069Y17145997D01*
X90728049Y17216034D01*
X90812882Y17313938D01*
X90833919Y17360001D01*
X92074867Y17360001D01*
X92093302Y17231776D01*
X92106029Y17203909D01*
X92147118Y17113938D01*
X92231951Y17016034D01*
X92340931Y16945997D01*
X92415824Y16924007D01*
X92465225Y16909502D01*
X92465227Y16909501D01*
X92465228Y16909501D01*
X92594773Y16909501D01*
X92594773Y16909502D01*
X92719069Y16945997D01*
X92828049Y17016034D01*
X92912882Y17113938D01*
X92966697Y17231775D01*
X92985133Y17360001D01*
X92966697Y17488227D01*
X92912882Y17606064D01*
X92828049Y17703968D01*
X92719069Y17774005D01*
X92719065Y17774007D01*
X92719064Y17774007D01*
X92594774Y17810501D01*
X92594772Y17810501D01*
X92465228Y17810501D01*
X92465226Y17810501D01*
X92340935Y17774007D01*
X92340932Y17774006D01*
X92340931Y17774005D01*
X92312291Y17755599D01*
X92231950Y17703968D01*
X92147118Y17606064D01*
X92147117Y17606063D01*
X92093302Y17488227D01*
X92074867Y17360001D01*
X90833919Y17360001D01*
X90866697Y17431775D01*
X90885133Y17560001D01*
X90866697Y17688227D01*
X90812882Y17806064D01*
X90728049Y17903968D01*
X90619069Y17974005D01*
X90619065Y17974007D01*
X90619064Y17974007D01*
X90494774Y18010501D01*
X90494772Y18010501D01*
X90365228Y18010501D01*
X90365226Y18010501D01*
X90240935Y17974007D01*
X90240932Y17974006D01*
X90240931Y17974005D01*
X90189677Y17941067D01*
X90131950Y17903968D01*
X90047118Y17806064D01*
X90047117Y17806063D01*
X89993302Y17688227D01*
X89974867Y17560001D01*
X84555500Y17560001D01*
X84555500Y18086001D01*
X84575185Y18153040D01*
X84627989Y18198795D01*
X84679500Y18210001D01*
X85415783Y18210001D01*
X85415786Y18210001D01*
X85830000Y18210001D01*
X89229999Y21610001D01*
X90499867Y21610001D01*
X90518302Y21481776D01*
X90572117Y21363940D01*
X90572118Y21363938D01*
X90656951Y21266034D01*
X90765931Y21195997D01*
X90890225Y21159502D01*
X90890227Y21159501D01*
X90890228Y21159501D01*
X91019773Y21159501D01*
X91019773Y21159502D01*
X91144069Y21195997D01*
X91253049Y21266034D01*
X91337882Y21363938D01*
X91391697Y21481775D01*
X91410133Y21610001D01*
X91391697Y21738227D01*
X91337882Y21856064D01*
X91253049Y21953968D01*
X91144069Y22024005D01*
X91144065Y22024007D01*
X91144064Y22024007D01*
X91019774Y22060501D01*
X91019772Y22060501D01*
X90890228Y22060501D01*
X90890226Y22060501D01*
X90765935Y22024007D01*
X90765932Y22024006D01*
X90765931Y22024005D01*
X90714677Y21991067D01*
X90656950Y21953968D01*
X90572118Y21856064D01*
X90572117Y21856063D01*
X90518302Y21738227D01*
X90499867Y21610001D01*
X89229999Y21610001D01*
X90232807Y22612809D01*
X90241802Y22620962D01*
X90379208Y22733729D01*
X90399408Y22747226D01*
X90550762Y22828126D01*
X90573207Y22837424D01*
X90737445Y22887244D01*
X90761269Y22891983D01*
X90938153Y22909404D01*
X90950307Y22910001D01*
X91708041Y22910001D01*
X91775080Y22890316D01*
G37*
%TD.AperFunction*%
%TD*%
M02*
