%TF.GenerationSoftware,KiCad,Pcbnew,8.0.7-8.0.7-0~ubuntu22.04.1*%
%TF.CreationDate,2025-02-22T21:48:24+01:00*%
%TF.ProjectId,nav-module,6e61762d-6d6f-4647-956c-652e6b696361,1.0.0*%
%TF.SameCoordinates,Original*%
%TF.FileFunction,Paste,Top*%
%TF.FilePolarity,Positive*%
%FSLAX46Y46*%
G04 Gerber Fmt 4.6, Leading zero omitted, Abs format (unit mm)*
G04 Created by KiCad (PCBNEW 8.0.7-8.0.7-0~ubuntu22.04.1) date 2025-02-22 21:48:24*
%MOMM*%
%LPD*%
G01*
G04 APERTURE LIST*
G04 Aperture macros list*
%AMRoundRect*
0 Rectangle with rounded corners*
0 $1 Rounding radius*
0 $2 $3 $4 $5 $6 $7 $8 $9 X,Y pos of 4 corners*
0 Add a 4 corners polygon primitive as box body*
4,1,4,$2,$3,$4,$5,$6,$7,$8,$9,$2,$3,0*
0 Add four circle primitives for the rounded corners*
1,1,$1+$1,$2,$3*
1,1,$1+$1,$4,$5*
1,1,$1+$1,$6,$7*
1,1,$1+$1,$8,$9*
0 Add four rect primitives between the rounded corners*
20,1,$1+$1,$2,$3,$4,$5,0*
20,1,$1+$1,$4,$5,$6,$7,0*
20,1,$1+$1,$6,$7,$8,$9,0*
20,1,$1+$1,$8,$9,$2,$3,0*%
G04 Aperture macros list end*
%ADD10RoundRect,0.250000X0.650000X0.250000X-0.650000X0.250000X-0.650000X-0.250000X0.650000X-0.250000X0*%
%ADD11RoundRect,0.250001X0.999999X-0.499999X0.999999X0.499999X-0.999999X0.499999X-0.999999X-0.499999X0*%
%ADD12RoundRect,0.140000X-0.170000X0.140000X-0.170000X-0.140000X0.170000X-0.140000X0.170000X0.140000X0*%
%ADD13RoundRect,0.147500X0.147500X0.172500X-0.147500X0.172500X-0.147500X-0.172500X0.147500X-0.172500X0*%
%ADD14RoundRect,0.140000X0.140000X0.170000X-0.140000X0.170000X-0.140000X-0.170000X0.140000X-0.170000X0*%
%ADD15RoundRect,0.150000X0.587500X0.150000X-0.587500X0.150000X-0.587500X-0.150000X0.587500X-0.150000X0*%
%ADD16RoundRect,0.140000X0.170000X-0.140000X0.170000X0.140000X-0.170000X0.140000X-0.170000X-0.140000X0*%
%ADD17RoundRect,0.140000X-0.140000X-0.170000X0.140000X-0.170000X0.140000X0.170000X-0.140000X0.170000X0*%
%ADD18RoundRect,0.220000X0.220000X0.255000X-0.220000X0.255000X-0.220000X-0.255000X0.220000X-0.255000X0*%
%ADD19RoundRect,0.220000X0.255000X-0.220000X0.255000X0.220000X-0.255000X0.220000X-0.255000X-0.220000X0*%
%ADD20RoundRect,0.225000X-0.375000X0.225000X-0.375000X-0.225000X0.375000X-0.225000X0.375000X0.225000X0*%
%ADD21RoundRect,0.225000X-0.250000X0.225000X-0.250000X-0.225000X0.250000X-0.225000X0.250000X0.225000X0*%
%ADD22R,0.663000X0.225000*%
%ADD23R,0.563000X0.225000*%
%ADD24R,0.225000X0.563000*%
%ADD25RoundRect,0.150000X-0.512500X-0.150000X0.512500X-0.150000X0.512500X0.150000X-0.512500X0.150000X0*%
%ADD26RoundRect,0.150000X-0.587500X-0.150000X0.587500X-0.150000X0.587500X0.150000X-0.587500X0.150000X0*%
%ADD27RoundRect,0.220000X-0.255000X0.220000X-0.255000X-0.220000X0.255000X-0.220000X0.255000X0.220000X0*%
%ADD28RoundRect,0.225000X0.225000X0.250000X-0.225000X0.250000X-0.225000X-0.250000X0.225000X-0.250000X0*%
%ADD29RoundRect,0.250000X0.450000X0.350000X-0.450000X0.350000X-0.450000X-0.350000X0.450000X-0.350000X0*%
%ADD30RoundRect,0.075000X-0.075000X0.662500X-0.075000X-0.662500X0.075000X-0.662500X0.075000X0.662500X0*%
%ADD31RoundRect,0.075000X-0.662500X0.075000X-0.662500X-0.075000X0.662500X-0.075000X0.662500X0.075000X0*%
%ADD32RoundRect,0.075000X-0.075000X0.725000X-0.075000X-0.725000X0.075000X-0.725000X0.075000X0.725000X0*%
%ADD33RoundRect,0.075000X-0.725000X0.075000X-0.725000X-0.075000X0.725000X-0.075000X0.725000X0.075000X0*%
%ADD34RoundRect,0.220000X-0.220000X-0.255000X0.220000X-0.255000X0.220000X0.255000X-0.220000X0.255000X0*%
%ADD35RoundRect,0.150000X0.150000X0.425000X-0.150000X0.425000X-0.150000X-0.425000X0.150000X-0.425000X0*%
%ADD36RoundRect,0.075000X0.075000X0.500000X-0.075000X0.500000X-0.075000X-0.500000X0.075000X-0.500000X0*%
%ADD37O,1.000000X2.100000*%
%ADD38O,1.000000X1.800000*%
%ADD39RoundRect,0.225000X-0.225000X-0.250000X0.225000X-0.250000X0.225000X0.250000X-0.225000X0.250000X0*%
%ADD40R,3.600000X2.600000*%
%ADD41RoundRect,0.160000X-0.325000X0.160000X-0.325000X-0.160000X0.325000X-0.160000X0.325000X0.160000X0*%
%ADD42RoundRect,0.075000X-0.075000X0.350000X-0.075000X-0.350000X0.075000X-0.350000X0.075000X0.350000X0*%
%ADD43RoundRect,0.250000X0.250000X-0.650000X0.250000X0.650000X-0.250000X0.650000X-0.250000X-0.650000X0*%
%ADD44RoundRect,0.140000X0.219203X0.021213X0.021213X0.219203X-0.219203X-0.021213X-0.021213X-0.219203X0*%
%ADD45R,0.800000X1.500000*%
%ADD46R,1.500000X0.800000*%
%ADD47R,1.100000X1.100000*%
%ADD48R,1.400000X1.200000*%
%ADD49RoundRect,0.225000X0.250000X-0.225000X0.250000X0.225000X-0.250000X0.225000X-0.250000X-0.225000X0*%
%ADD50O,0.630000X2.250000*%
%ADD51RoundRect,0.250001X-0.499999X-0.999999X0.499999X-0.999999X0.499999X0.999999X-0.499999X0.999999X0*%
%ADD52RoundRect,0.172500X-0.172500X0.172500X-0.172500X-0.172500X0.172500X-0.172500X0.172500X0.172500X0*%
%ADD53RoundRect,0.062500X-0.062500X0.350000X-0.062500X-0.350000X0.062500X-0.350000X0.062500X0.350000X0*%
%ADD54RoundRect,0.062500X-0.350000X0.062500X-0.350000X-0.062500X0.350000X-0.062500X0.350000X0.062500X0*%
%ADD55R,0.675000X0.254000*%
%ADD56R,0.254000X0.675000*%
%ADD57RoundRect,0.125000X0.345000X0.125000X-0.345000X0.125000X-0.345000X-0.125000X0.345000X-0.125000X0*%
%ADD58RoundRect,0.150000X-0.150000X0.512500X-0.150000X-0.512500X0.150000X-0.512500X0.150000X0.512500X0*%
G04 APERTURE END LIST*
D10*
%TO.C,X1200*%
X70560000Y61600001D03*
X70560000Y64099999D03*
%TD*%
D11*
%TO.C,L301*%
X67750720Y17013459D03*
X67750720Y20713459D03*
%TD*%
D12*
%TO.C,C1101*%
X24400000Y68099999D03*
X24400000Y67100001D03*
%TD*%
D13*
%TO.C,L1100*%
X31925000Y89130000D03*
X30955000Y89130000D03*
%TD*%
D12*
%TO.C,R903*%
X87480000Y19660001D03*
X87480000Y18660001D03*
%TD*%
D14*
%TO.C,R308*%
X87830000Y12910001D03*
X86830000Y12910001D03*
%TD*%
D15*
%TO.C,U802*%
X83017500Y88520000D03*
X83017500Y90420000D03*
X81142500Y89470000D03*
%TD*%
D12*
%TO.C,R418*%
X30960000Y68309999D03*
X30960000Y67310001D03*
%TD*%
D16*
%TO.C,C501*%
X79730000Y13210001D03*
X79730000Y14210001D03*
%TD*%
D17*
%TO.C,R716*%
X83630000Y22760001D03*
X84630000Y22760001D03*
%TD*%
D12*
%TO.C,R306*%
X74700720Y18463459D03*
X74700720Y17463459D03*
%TD*%
D18*
%TO.C,D1103*%
X39649999Y83310000D03*
X38070001Y83310000D03*
%TD*%
D19*
%TO.C,D301*%
X85480000Y12920001D03*
X85480000Y14500001D03*
%TD*%
D20*
%TO.C,D1100*%
X30100000Y64650000D03*
X30100000Y61350000D03*
%TD*%
D18*
%TO.C,FB400*%
X67370000Y46060001D03*
X65790000Y46060001D03*
%TD*%
D16*
%TO.C,C601*%
X75180000Y13210001D03*
X75180000Y14210001D03*
%TD*%
D14*
%TO.C,R301*%
X58280000Y12413493D03*
X57280000Y12413493D03*
%TD*%
%TO.C,C408*%
X65830000Y44810001D03*
X64830000Y44810001D03*
%TD*%
D16*
%TO.C,R600*%
X79730000Y15360001D03*
X79730000Y16360001D03*
%TD*%
D17*
%TO.C,C400*%
X76205000Y43635001D03*
X77205000Y43635001D03*
%TD*%
D21*
%TO.C,C1100*%
X25560000Y68190000D03*
X25560000Y66630000D03*
%TD*%
D14*
%TO.C,C313*%
X74880000Y45260001D03*
X73880000Y45260001D03*
%TD*%
D17*
%TO.C,R801*%
X84980000Y88610001D03*
X85980000Y88610001D03*
%TD*%
D14*
%TO.C,C600*%
X77930000Y17260001D03*
X76930000Y17260001D03*
%TD*%
%TO.C,C407*%
X68305000Y43910001D03*
X67305000Y43910001D03*
%TD*%
D17*
%TO.C,C314*%
X75830000Y45260001D03*
X76830000Y45260001D03*
%TD*%
D22*
%TO.C,U801*%
X92761500Y13685001D03*
D23*
X92711500Y13285001D03*
D24*
X92880000Y12716501D03*
X93280000Y12716501D03*
X93680000Y12716501D03*
D23*
X93848500Y13285001D03*
X93848500Y13685001D03*
D24*
X93680000Y14253501D03*
X93280000Y14253501D03*
X92880000Y14253501D03*
%TD*%
D21*
%TO.C,C304*%
X55276542Y15073942D03*
X55276542Y13513942D03*
%TD*%
D12*
%TO.C,C305*%
X56720000Y17213493D03*
X56720000Y16213493D03*
%TD*%
D14*
%TO.C,R404*%
X80580000Y43640001D03*
X79580000Y43640001D03*
%TD*%
%TO.C,C1204*%
X62727500Y60050002D03*
X61727502Y60050002D03*
%TD*%
D25*
%TO.C,U301*%
X71042500Y18116951D03*
X71042500Y17166951D03*
X71042500Y16216951D03*
X73317500Y16216951D03*
X73317500Y17166951D03*
X73317500Y18116951D03*
%TD*%
D14*
%TO.C,C500*%
X82530000Y17260001D03*
X81530000Y17260001D03*
%TD*%
D12*
%TO.C,R902*%
X88380000Y19660001D03*
X88380000Y18660001D03*
%TD*%
D19*
%TO.C,D400*%
X89870000Y42620001D03*
X89870000Y44200001D03*
%TD*%
D26*
%TO.C,U200*%
X92462500Y10072500D03*
X92462500Y8172500D03*
X94337500Y9122500D03*
%TD*%
D12*
%TO.C,R700*%
X81955000Y35360001D03*
X81955000Y34360001D03*
%TD*%
D17*
%TO.C,R405*%
X60858400Y92600000D03*
X61858400Y92600000D03*
%TD*%
D16*
%TO.C,R409*%
X75080000Y89560001D03*
X75080000Y90560001D03*
%TD*%
%TO.C,R400*%
X74180000Y89560001D03*
X74180000Y90560001D03*
%TD*%
%TO.C,R411*%
X87580000Y42910001D03*
X87580000Y43910001D03*
%TD*%
D12*
%TO.C,R1200*%
X65740000Y66849998D03*
X65740000Y65850000D03*
%TD*%
D14*
%TO.C,R1105*%
X11099999Y81900000D03*
X10100001Y81900000D03*
%TD*%
D12*
%TO.C,C410*%
X83730000Y37685001D03*
X83730000Y36685001D03*
%TD*%
D27*
%TO.C,D701*%
X85805000Y40625001D03*
X85805000Y39045001D03*
%TD*%
D14*
%TO.C,R1103*%
X38760000Y79110000D03*
X37760002Y79110000D03*
%TD*%
D12*
%TO.C,R701*%
X84630000Y35360001D03*
X84630000Y34360001D03*
%TD*%
%TO.C,C405*%
X81905000Y40935001D03*
X81905000Y39935001D03*
%TD*%
D28*
%TO.C,C301*%
X62810000Y15113493D03*
X61250000Y15113493D03*
%TD*%
D16*
%TO.C,C300*%
X61030000Y13003493D03*
X61030000Y14003493D03*
%TD*%
D19*
%TO.C,D402*%
X92870000Y42620001D03*
X92870000Y44200001D03*
%TD*%
D29*
%TO.C,Y700*%
X90780000Y37760001D03*
X88580000Y37760001D03*
X88580000Y36160001D03*
X90780000Y36160001D03*
%TD*%
D30*
%TO.C,U700*%
X91030000Y33522501D03*
X90530000Y33522501D03*
X90030000Y33522501D03*
X89530000Y33522501D03*
X89030000Y33522501D03*
X88530000Y33522501D03*
X88030000Y33522501D03*
X87530000Y33522501D03*
X87030000Y33522501D03*
X86530000Y33522501D03*
X86030000Y33522501D03*
X85530000Y33522501D03*
D31*
X84117500Y32110001D03*
X84117500Y31610001D03*
X84117500Y31110001D03*
X84117500Y30610001D03*
X84117500Y30110001D03*
X84117500Y29610001D03*
X84117500Y29110001D03*
X84117500Y28610001D03*
X84117500Y28110001D03*
X84117500Y27610001D03*
X84117500Y27110001D03*
X84117500Y26610001D03*
D30*
X85530000Y25197501D03*
X86030000Y25197501D03*
X86530000Y25197501D03*
X87030000Y25197501D03*
X87530000Y25197501D03*
X88030000Y25197501D03*
X88530000Y25197501D03*
X89030000Y25197501D03*
X89530000Y25197501D03*
X90030000Y25197501D03*
X90530000Y25197501D03*
X91030000Y25197501D03*
D31*
X92442500Y26610001D03*
X92442500Y27110001D03*
X92442500Y27610001D03*
X92442500Y28110001D03*
X92442500Y28610001D03*
X92442500Y29110001D03*
X92442500Y29610001D03*
X92442500Y30110001D03*
X92442500Y30610001D03*
X92442500Y31110001D03*
X92442500Y31610001D03*
X92442500Y32110001D03*
%TD*%
D12*
%TO.C,C1202*%
X69040002Y62499999D03*
X69040002Y61500001D03*
%TD*%
D17*
%TO.C,R707*%
X83480000Y41910001D03*
X84480000Y41910001D03*
%TD*%
D32*
%TO.C,U400*%
X78705000Y42110001D03*
X78205000Y42110001D03*
X77705000Y42110001D03*
X77205000Y42110001D03*
X76705000Y42110001D03*
X76205000Y42110001D03*
X75705000Y42110001D03*
X75205000Y42110001D03*
X74705000Y42110001D03*
X74205000Y42110001D03*
X73705000Y42110001D03*
X73205000Y42110001D03*
X72705000Y42110001D03*
X72205000Y42110001D03*
X71705000Y42110001D03*
X71205000Y42110001D03*
X70705000Y42110001D03*
X70205000Y42110001D03*
X69705000Y42110001D03*
X69205000Y42110001D03*
X68705000Y42110001D03*
X68205000Y42110001D03*
X67705000Y42110001D03*
X67205000Y42110001D03*
X66705000Y42110001D03*
D33*
X65030000Y40435001D03*
X65030000Y39935001D03*
X65030000Y39435001D03*
X65030000Y38935001D03*
X65030000Y38435001D03*
X65030000Y37935001D03*
X65030000Y37435001D03*
X65030000Y36935001D03*
X65030000Y36435001D03*
X65030000Y35935001D03*
X65030000Y35435001D03*
X65030000Y34935001D03*
X65030000Y34435001D03*
X65030000Y33935001D03*
X65030000Y33435001D03*
X65030000Y32935001D03*
X65030000Y32435001D03*
X65030000Y31935001D03*
X65030000Y31435001D03*
X65030000Y30935001D03*
X65030000Y30435001D03*
X65030000Y29935001D03*
X65030000Y29435001D03*
X65030000Y28935001D03*
X65030000Y28435001D03*
D32*
X66705000Y26760001D03*
X67205000Y26760001D03*
X67705000Y26760001D03*
X68205000Y26760001D03*
X68705000Y26760001D03*
X69205000Y26760001D03*
X69705000Y26760001D03*
X70205000Y26760001D03*
X70705000Y26760001D03*
X71205000Y26760001D03*
X71705000Y26760001D03*
X72205000Y26760001D03*
X72705000Y26760001D03*
X73205000Y26760001D03*
X73705000Y26760001D03*
X74205000Y26760001D03*
X74705000Y26760001D03*
X75205000Y26760001D03*
X75705000Y26760001D03*
X76205000Y26760001D03*
X76705000Y26760001D03*
X77205000Y26760001D03*
X77705000Y26760001D03*
X78205000Y26760001D03*
X78705000Y26760001D03*
D33*
X80380000Y28435001D03*
X80380000Y28935001D03*
X80380000Y29435001D03*
X80380000Y29935001D03*
X80380000Y30435001D03*
X80380000Y30935001D03*
X80380000Y31435001D03*
X80380000Y31935001D03*
X80380000Y32435001D03*
X80380000Y32935001D03*
X80380000Y33435001D03*
X80380000Y33935001D03*
X80380000Y34435001D03*
X80380000Y34935001D03*
X80380000Y35435001D03*
X80380000Y35935001D03*
X80380000Y36435001D03*
X80380000Y36935001D03*
X80380000Y37435001D03*
X80380000Y37935001D03*
X80380000Y38435001D03*
X80380000Y38935001D03*
X80380000Y39435001D03*
X80380000Y39935001D03*
X80380000Y40435001D03*
%TD*%
D14*
%TO.C,C409*%
X65830000Y43910001D03*
X64830000Y43910001D03*
%TD*%
%TO.C,C708*%
X89230000Y35050001D03*
X88230000Y35050001D03*
%TD*%
D12*
%TO.C,R705*%
X93530000Y36160001D03*
X93530000Y35160001D03*
%TD*%
D14*
%TO.C,R1100*%
X27500000Y64950000D03*
X26500002Y64950000D03*
%TD*%
D12*
%TO.C,R307*%
X74700720Y16563459D03*
X74700720Y15563459D03*
%TD*%
D34*
%TO.C,D1101*%
X11110001Y80600000D03*
X12689999Y80600000D03*
%TD*%
D17*
%TO.C,R711*%
X93180000Y23110001D03*
X94180000Y23110001D03*
%TD*%
%TO.C,R710*%
X93180000Y24010001D03*
X94180000Y24010001D03*
%TD*%
%TO.C,R715*%
X83630000Y23635001D03*
X84630000Y23635001D03*
%TD*%
D14*
%TO.C,R1106*%
X11109999Y77200000D03*
X10110001Y77200000D03*
%TD*%
D12*
%TO.C,C801*%
X76880000Y90560001D03*
X76880000Y89560001D03*
%TD*%
D16*
%TO.C,C402*%
X63505000Y39935001D03*
X63505000Y40935001D03*
%TD*%
D12*
%TO.C,C1104*%
X29200000Y90299999D03*
X29200000Y89300001D03*
%TD*%
D35*
%TO.C,J800*%
X85880000Y92570001D03*
X85080000Y92570001D03*
D36*
X83930000Y92570001D03*
X82930000Y92570001D03*
X82430000Y92570001D03*
X81430000Y92570001D03*
D35*
X80280000Y92570001D03*
X79480000Y92570001D03*
X79480000Y92570001D03*
X80280000Y92570001D03*
D36*
X80930000Y92570001D03*
X81930000Y92570001D03*
X83430000Y92570001D03*
X84430000Y92570001D03*
D35*
X85080000Y92570001D03*
X85880000Y92570001D03*
D37*
X87000000Y93145001D03*
D38*
X87000000Y97325001D03*
D37*
X78360000Y93145001D03*
D38*
X78360000Y97325001D03*
%TD*%
D17*
%TO.C,C311*%
X69900720Y15003459D03*
X70900720Y15003459D03*
%TD*%
%TO.C,C1105*%
X37760002Y80010000D03*
X38760000Y80010000D03*
%TD*%
%TO.C,C707*%
X90130000Y35060001D03*
X91130000Y35060001D03*
%TD*%
D12*
%TO.C,R901*%
X84530000Y18560001D03*
X84530000Y17560001D03*
%TD*%
D14*
%TO.C,R709*%
X94180000Y22210001D03*
X93180000Y22210001D03*
%TD*%
D12*
%TO.C,R805*%
X77780000Y90560001D03*
X77780000Y89560001D03*
%TD*%
%TO.C,R800*%
X78680000Y90560001D03*
X78680000Y89560001D03*
%TD*%
D39*
%TO.C,C310*%
X72050720Y14803459D03*
X73610720Y14803459D03*
%TD*%
D12*
%TO.C,R402*%
X82830000Y37685001D03*
X82830000Y36685001D03*
%TD*%
D16*
%TO.C,R702*%
X93930000Y29110001D03*
X93930000Y30110001D03*
%TD*%
%TO.C,C1201*%
X66640000Y65850002D03*
X66640000Y66850000D03*
%TD*%
D39*
%TO.C,C309*%
X72040271Y13560001D03*
X73600271Y13560001D03*
%TD*%
D16*
%TO.C,C900*%
X91080000Y16710001D03*
X91080000Y17710001D03*
%TD*%
D12*
%TO.C,C404*%
X79605000Y26685001D03*
X79605000Y25685001D03*
%TD*%
%TO.C,R802*%
X93180000Y17760001D03*
X93180000Y16760001D03*
%TD*%
D17*
%TO.C,C701*%
X91980000Y33660001D03*
X92980000Y33660001D03*
%TD*%
D40*
%TO.C,BAT1100*%
X22100000Y63500000D03*
X22100000Y34200000D03*
%TD*%
D14*
%TO.C,R300*%
X60180000Y12413493D03*
X59180000Y12413493D03*
%TD*%
D17*
%TO.C,R1201*%
X61727501Y60949999D03*
X62727499Y60949999D03*
%TD*%
D14*
%TO.C,R1101*%
X38760000Y78210000D03*
X37760002Y78210000D03*
%TD*%
D17*
%TO.C,C700*%
X82630000Y25410001D03*
X83630000Y25410001D03*
%TD*%
D16*
%TO.C,R500*%
X84280000Y13210001D03*
X84280000Y14210001D03*
%TD*%
D14*
%TO.C,C406*%
X68305000Y44810001D03*
X67305000Y44810001D03*
%TD*%
%TO.C,C411*%
X70555000Y44260001D03*
X69555000Y44260001D03*
%TD*%
D12*
%TO.C,C704*%
X93920000Y32362501D03*
X93920000Y31362501D03*
%TD*%
D14*
%TO.C,C1205*%
X62739999Y62749999D03*
X61740001Y62749999D03*
%TD*%
D16*
%TO.C,C902*%
X91980000Y16710001D03*
X91980000Y17710001D03*
%TD*%
D17*
%TO.C,C312*%
X93280000Y15510001D03*
X94280000Y15510001D03*
%TD*%
D16*
%TO.C,C702*%
X82640000Y26357501D03*
X82640000Y27357501D03*
%TD*%
D12*
%TO.C,R706*%
X92580000Y36160001D03*
X92580000Y35160001D03*
%TD*%
D16*
%TO.C,R803*%
X94080000Y16760001D03*
X94080000Y17760001D03*
%TD*%
D39*
%TO.C,C1102*%
X26720000Y62900000D03*
X28280000Y62900000D03*
%TD*%
D21*
%TO.C,C307*%
X70738674Y21093459D03*
X70738674Y19533459D03*
%TD*%
D14*
%TO.C,C306*%
X74110720Y19313459D03*
X73110720Y19313459D03*
%TD*%
D16*
%TO.C,R401*%
X81930000Y36685001D03*
X81930000Y37685001D03*
%TD*%
D34*
%TO.C,F300*%
X64240000Y12510001D03*
X65820000Y12510001D03*
%TD*%
D17*
%TO.C,R714*%
X83630000Y24510001D03*
X84630000Y24510001D03*
%TD*%
D12*
%TO.C,R900*%
X85430000Y18560001D03*
X85430000Y17560001D03*
%TD*%
D17*
%TO.C,C414*%
X77705000Y25235001D03*
X78705000Y25235001D03*
%TD*%
D14*
%TO.C,R427*%
X69099999Y58400000D03*
X68100001Y58400000D03*
%TD*%
D41*
%TO.C,U600*%
X78030000Y15060001D03*
X76830000Y15060001D03*
X78030000Y14260001D03*
X76830000Y14260001D03*
D42*
X78405000Y16110001D03*
X77755000Y16110001D03*
X77105000Y16110001D03*
X76455000Y16110001D03*
X76455000Y13210001D03*
X77105000Y13210001D03*
X77755000Y13210001D03*
X78405000Y13210001D03*
%TD*%
D43*
%TO.C,X300*%
X74105000Y46735001D03*
X76605000Y46735001D03*
%TD*%
D14*
%TO.C,R406*%
X61858400Y94400000D03*
X60858400Y94400000D03*
%TD*%
D16*
%TO.C,R412*%
X86680000Y42910001D03*
X86680000Y43910001D03*
%TD*%
%TO.C,C706*%
X82830000Y34360001D03*
X82830000Y35360001D03*
%TD*%
D17*
%TO.C,C800*%
X84980000Y90760001D03*
X85980000Y90760001D03*
%TD*%
D28*
%TO.C,C302*%
X62810000Y16375539D03*
X61250000Y16375539D03*
%TD*%
D17*
%TO.C,R1202*%
X61740001Y61849999D03*
X62739999Y61849999D03*
%TD*%
D12*
%TO.C,R1102*%
X26470000Y88279999D03*
X26470000Y87280001D03*
%TD*%
D17*
%TO.C,C401*%
X73455000Y43810001D03*
X74455000Y43810001D03*
%TD*%
%TO.C,C705*%
X86330000Y35050001D03*
X87330000Y35050001D03*
%TD*%
D44*
%TO.C,R712*%
X89183553Y22256448D03*
X88476447Y22963554D03*
%TD*%
D17*
%TO.C,R426*%
X65700000Y58400000D03*
X66700000Y58400000D03*
%TD*%
D29*
%TO.C,X400*%
X72105000Y47035001D03*
X69905000Y47035001D03*
X69905000Y45435001D03*
X72105000Y45435001D03*
%TD*%
D45*
%TO.C,U1100*%
X33060000Y85359998D03*
X31960000Y85359999D03*
X30860000Y85359998D03*
X29760000Y85359999D03*
X28660000Y85359999D03*
X27560000Y85359999D03*
X26460000Y85359999D03*
X25360000Y85359999D03*
X24260000Y85359999D03*
X23160000Y85359999D03*
X22060000Y85359999D03*
X20960000Y85359998D03*
X19860000Y85359999D03*
X18760000Y85359998D03*
D46*
X15960000Y84459999D03*
X15960000Y83359999D03*
X15960000Y82259999D03*
X15960000Y81159999D03*
X15960000Y80059998D03*
X15960000Y78959999D03*
X15960001Y77859999D03*
X15960000Y76759999D03*
X15960000Y75660000D03*
X15960000Y74559999D03*
X15960000Y73459999D03*
X15960000Y72359999D03*
X15960000Y71259999D03*
D45*
X18760000Y70360000D03*
X19860000Y70359999D03*
X20960000Y70360000D03*
X22060000Y70359999D03*
X23160000Y70359999D03*
X24260000Y70359999D03*
X25360000Y70359999D03*
X26460000Y70359999D03*
X27560000Y70359999D03*
X28660000Y70359999D03*
X29760000Y70359999D03*
X30860000Y70360000D03*
X31960000Y70359999D03*
X33060000Y70360000D03*
D46*
X35860000Y71259999D03*
X35860000Y72359999D03*
X35860000Y73459999D03*
X35860000Y74559999D03*
X35860000Y75660000D03*
X35860000Y76759999D03*
X35859999Y77859999D03*
X35860000Y78959999D03*
X35860000Y80059998D03*
X35860000Y81159999D03*
X35860000Y82259999D03*
X35860000Y83359999D03*
X35860000Y84459999D03*
D47*
X33260000Y83109999D03*
X31160000Y83109999D03*
X29060000Y83109999D03*
X26960001Y83109999D03*
X24859999Y83109999D03*
X22760000Y83109999D03*
X20660000Y83109999D03*
X18560000Y83109999D03*
X33260000Y81009999D03*
X31160000Y81009999D03*
X29060000Y81009999D03*
X22760000Y81009999D03*
X20660000Y81009999D03*
X18560000Y81009999D03*
X26960000Y81009998D03*
X24860000Y81009998D03*
X31160000Y78910000D03*
X20660000Y78910000D03*
X33260000Y78909999D03*
X29059999Y78909999D03*
X26960000Y78909999D03*
X24860000Y78909999D03*
X22760001Y78909999D03*
X18560000Y78909999D03*
X33260000Y76809999D03*
X29059999Y76809999D03*
X26960000Y76809999D03*
X24860000Y76809999D03*
X22760001Y76809999D03*
X18560000Y76809999D03*
X31160000Y76809998D03*
X20660000Y76809998D03*
X26960000Y74710000D03*
X24860000Y74710000D03*
X33260000Y74709999D03*
X31160000Y74709999D03*
X29060000Y74709999D03*
X22760000Y74709999D03*
X20660000Y74709999D03*
X18560000Y74709999D03*
X33260000Y72609999D03*
X31160000Y72609999D03*
X29060000Y72609999D03*
X26960001Y72609999D03*
X24859999Y72609999D03*
X22760000Y72609999D03*
X20660000Y72609999D03*
X18560000Y72609999D03*
%TD*%
D12*
%TO.C,R708*%
X82530000Y30610001D03*
X82530000Y29610001D03*
%TD*%
D14*
%TO.C,C403*%
X64955000Y27535001D03*
X63955000Y27535001D03*
%TD*%
D16*
%TO.C,R410*%
X88480000Y42910001D03*
X88480000Y43910001D03*
%TD*%
D17*
%TO.C,C1103*%
X26500001Y64050000D03*
X27499999Y64050000D03*
%TD*%
D48*
%TO.C,Y900*%
X92230000Y20810001D03*
X90030000Y20810001D03*
X90030000Y19110001D03*
X92230000Y19110001D03*
%TD*%
D41*
%TO.C,U500*%
X82630000Y15060001D03*
X81430000Y15060001D03*
X82630000Y14260001D03*
X81430000Y14260001D03*
D42*
X83005000Y16110001D03*
X82355000Y16110001D03*
X81705000Y16110001D03*
X81055000Y16110001D03*
X81055000Y13210001D03*
X81705000Y13210001D03*
X82355000Y13210001D03*
X83005000Y13210001D03*
%TD*%
D17*
%TO.C,R713*%
X85380000Y41910001D03*
X86380000Y41910001D03*
%TD*%
D49*
%TO.C,C1200*%
X67740000Y66069999D03*
X67740000Y67629999D03*
%TD*%
D17*
%TO.C,C412*%
X71455000Y44260001D03*
X72455000Y44260001D03*
%TD*%
%TO.C,C415*%
X79590000Y45420001D03*
X80590000Y45420001D03*
%TD*%
D50*
%TO.C,U100*%
X62335000Y37965001D03*
X61065000Y37965001D03*
X59785000Y37965001D03*
X58515000Y37965001D03*
X58515000Y30905001D03*
X59785000Y30905001D03*
X61065000Y30905001D03*
X62335000Y30905001D03*
%TD*%
D19*
%TO.C,D700*%
X84055000Y39045001D03*
X84055000Y40625001D03*
%TD*%
D12*
%TO.C,C413*%
X63505000Y29435001D03*
X63505000Y28435001D03*
%TD*%
D51*
%TO.C,L300*%
X58730000Y19363493D03*
X62430000Y19363493D03*
%TD*%
D16*
%TO.C,C100*%
X63480000Y30360001D03*
X63480000Y31360001D03*
%TD*%
D12*
%TO.C,R416*%
X31860000Y68309999D03*
X31860000Y67310001D03*
%TD*%
D52*
%TO.C,U302*%
X88855000Y16397501D03*
X88005000Y16397501D03*
X88855000Y15547501D03*
X88005000Y15547501D03*
D53*
X89180000Y17435001D03*
X88680000Y17435001D03*
X88180000Y17435001D03*
X87680000Y17435001D03*
D54*
X86967500Y16722501D03*
X86967500Y16222501D03*
X86967500Y15722501D03*
X86967500Y15222501D03*
D53*
X87680000Y14510001D03*
X88180000Y14510001D03*
X88680000Y14510001D03*
X89180000Y14510001D03*
D54*
X89892500Y15222501D03*
X89892500Y15722501D03*
X89892500Y16222501D03*
X89892500Y16722501D03*
%TD*%
D17*
%TO.C,C703*%
X91980000Y25010001D03*
X92980000Y25010001D03*
%TD*%
D19*
%TO.C,D401*%
X91380000Y42620001D03*
X91380000Y44200001D03*
%TD*%
D16*
%TO.C,R408*%
X75980000Y89560001D03*
X75980000Y90560001D03*
%TD*%
D14*
%TO.C,R403*%
X80590000Y44520001D03*
X79590000Y44520001D03*
%TD*%
D16*
%TO.C,R703*%
X83730000Y34360001D03*
X83730000Y35360001D03*
%TD*%
D21*
%TO.C,C308*%
X72000720Y21093459D03*
X72000720Y19533459D03*
%TD*%
D34*
%TO.C,D1102*%
X11110001Y78600000D03*
X12689999Y78600000D03*
%TD*%
D14*
%TO.C,R1107*%
X39659999Y82010000D03*
X38660001Y82010000D03*
%TD*%
D55*
%TO.C,U1200*%
X67652500Y64250000D03*
D56*
X66740001Y64387500D03*
X66240000Y64387500D03*
X65740000Y64387500D03*
X65239999Y64387500D03*
D55*
X64327500Y64250000D03*
X64327500Y63750000D03*
X64327499Y63250000D03*
X64327500Y62750000D03*
X64327500Y62250000D03*
X64327500Y61750000D03*
X64327500Y61250000D03*
X64327499Y60750000D03*
X64327500Y60250000D03*
X64327500Y59750000D03*
D56*
X65239999Y59612500D03*
X65740000Y59612500D03*
X66240000Y59612500D03*
X66740001Y59612500D03*
D55*
X67652500Y59750000D03*
X67652500Y60250000D03*
X67652501Y60750000D03*
X67652500Y61250000D03*
X67652500Y61750000D03*
X67652500Y62250000D03*
X67652500Y62750000D03*
X67652501Y63250000D03*
X67652500Y63750000D03*
%TD*%
D16*
%TO.C,R407*%
X73280000Y89560001D03*
X73280000Y90560001D03*
%TD*%
%TO.C,C1203*%
X69040002Y63450001D03*
X69040002Y64449999D03*
%TD*%
D57*
%TO.C,Q700*%
X90230000Y23560001D03*
X90230000Y22260001D03*
X92030000Y22910001D03*
%TD*%
D12*
%TO.C,C904*%
X91080000Y15760001D03*
X91080000Y14760001D03*
%TD*%
D14*
%TO.C,C416*%
X61858400Y93500000D03*
X60858400Y93500000D03*
%TD*%
D17*
%TO.C,R804*%
X95080000Y12360001D03*
X96080000Y12360001D03*
%TD*%
D58*
%TO.C,U300*%
X59833492Y16071713D03*
X58883492Y16071713D03*
X57933492Y16071713D03*
X57933492Y13796713D03*
X58883492Y13796713D03*
X59833492Y13796713D03*
%TD*%
D14*
%TO.C,R1104*%
X38859999Y76710000D03*
X37860001Y76710000D03*
%TD*%
D21*
%TO.C,C303*%
X56520000Y15063493D03*
X56520000Y13503493D03*
%TD*%
D17*
%TO.C,R704*%
X81680000Y23635001D03*
X82680000Y23635001D03*
%TD*%
M02*
